<svg width="1458" height="204" viewBox="0 0 1458 204" fill="none" xmlns="http://www.w3.org/2000/svg">
<path d="M221.495 105.75C222.835 103.429 222.835 100.571 221.495 98.25L171.495 11.6475C170.155 9.32695 167.679 7.89746 165 7.89746L65 7.89746C62.3205 7.89746 59.8446 9.32695 58.5048 11.6475L8.50481 98.25C7.16507 100.571 7.16507 103.429 8.50481 105.75L58.5048 192.353C59.8446 194.673 62.3205 196.103 65 196.103L165 196.103C167.679 196.103 170.155 194.673 171.495 192.353L221.495 105.75Z" fill="#194B7D" stroke="#194B7D" stroke-width="15" stroke-linejoin="round"/>
<path fill-rule="evenodd" clip-rule="evenodd" d="M183.568 65.1068C185.571 64.6282 187.262 66.6425 186.442 68.5327L172.69 100.26C171.951 101.965 169.675 102.296 168.481 100.872L163.372 94.7837L131.508 122.646C128.401 125.363 123.682 125.058 120.949 121.964L99.8319 98.0469L75.5438 119.191C75.8419 120.412 76 121.687 76 123C76 131.837 68.8366 139 60 139C51.1634 139 44 131.837 44 123C44 114.163 51.1634 107 60 107C61.9557 107 63.8294 107.351 65.5617 107.993L95.6001 81.8432C98.7088 79.1369 103.419 79.4463 106.147 82.536L127.253 106.441L153.728 83.2906L148.6 77.1796C147.406 75.756 148.127 73.5729 149.934 73.1411L183.568 65.1068Z" fill="white"/>
<path d="M221.495 105.75C222.835 103.429 222.835 100.571 221.495 98.25L171.495 11.6475C170.155 9.32695 167.679 7.89746 165 7.89746L65 7.89746C62.3205 7.89746 59.8446 9.32695 58.5048 11.6475L8.50481 98.25C7.16507 100.571 7.16507 103.429 8.50481 105.75L58.5048 192.353C59.8446 194.673 62.3205 196.103 65 196.103L165 196.103C167.679 196.103 170.155 194.673 171.495 192.353L221.495 105.75Z" fill="white" stroke="white" stroke-width="15" stroke-linejoin="round"/>
<path fill-rule="evenodd" clip-rule="evenodd" d="M183.568 65.1068C185.571 64.6282 187.262 66.6425 186.442 68.5327L172.69 100.26C171.951 101.965 169.675 102.296 168.481 100.872L163.372 94.7837L131.508 122.646C128.401 125.363 123.682 125.058 120.949 121.964L99.8319 98.0469L75.5438 119.191C75.8419 120.412 76 121.687 76 123C76 131.837 68.8366 139 60 139C51.1634 139 44 131.837 44 123C44 114.163 51.1634 107 60 107C61.9557 107 63.8294 107.351 65.5617 107.993L95.6001 81.8432C98.7088 79.1369 103.419 79.4463 106.147 82.536L127.253 106.441L153.728 83.2906L148.6 77.1796C147.406 75.756 148.127 73.5729 149.934 73.1411L183.568 65.1068Z" fill="#181818"/>
<path d="M327.4 158.1C318.9 158.1 310.65 157.05 302.65 154.95C294.65 152.85 288.15 150.05 283.15 146.55L292.9 124.65C297.6 127.75 303.05 130.25 309.25 132.15C315.45 134.05 321.55 135 327.55 135C338.95 135 344.65 132.15 344.65 126.45C344.65 123.45 343 121.25 339.7 119.85C336.5 118.35 331.3 116.8 324.1 115.2C316.2 113.5 309.6 111.7 304.3 109.8C299 107.8 294.45 104.65 290.65 100.35C286.85 96.05 284.95 90.25 284.95 82.95C284.95 76.55 286.7 70.8 290.2 65.7C293.7 60.5 298.9 56.4 305.8 53.4C312.8 50.4 321.35 48.9 331.45 48.9C338.35 48.9 345.15 49.7 351.85 51.3C358.55 52.8 364.45 55.05 369.55 58.05L360.4 80.1C350.4 74.7 340.7 72 331.3 72C325.4 72 321.1 72.9 318.4 74.7C315.7 76.4 314.35 78.65 314.35 81.45C314.35 84.25 315.95 86.35 319.15 87.75C322.35 89.15 327.5 90.6 334.6 92.1C342.6 93.8 349.2 95.65 354.4 97.65C359.7 99.55 364.25 102.65 368.05 106.95C371.95 111.15 373.9 116.9 373.9 124.2C373.9 130.5 372.15 136.2 368.65 141.3C365.15 146.4 359.9 150.5 352.9 153.6C345.9 156.6 337.4 158.1 327.4 158.1ZM414.904 74.55H382.654V51H476.704V74.55H444.604V156H414.904V74.55ZM559.246 135.6H514.846L506.596 156H476.296L522.646 51H551.896L598.396 156H567.496L559.246 135.6ZM550.546 113.7L537.046 80.1L523.546 113.7H550.546ZM630.292 74.55H598.042V51H692.092V74.55H659.992V156H630.292V74.55ZM746.164 158.1C737.664 158.1 729.414 157.05 721.414 154.95C713.414 152.85 706.914 150.05 701.914 146.55L711.664 124.65C716.364 127.75 721.814 130.25 728.014 132.15C734.214 134.05 740.314 135 746.314 135C757.714 135 763.414 132.15 763.414 126.45C763.414 123.45 761.764 121.25 758.464 119.85C755.264 118.35 750.064 116.8 742.864 115.2C734.964 113.5 728.364 111.7 723.064 109.8C717.764 107.8 713.214 104.65 709.414 100.35C705.614 96.05 703.714 90.25 703.714 82.95C703.714 76.55 705.464 70.8 708.964 65.7C712.464 60.5 717.664 56.4 724.564 53.4C731.564 50.4 740.114 48.9 750.214 48.9C757.114 48.9 763.914 49.7 770.614 51.3C777.314 52.8 783.214 55.05 788.314 58.05L779.164 80.1C769.164 74.7 759.464 72 750.064 72C744.164 72 739.864 72.9 737.164 74.7C734.464 76.4 733.114 78.65 733.114 81.45C733.114 84.25 734.714 86.35 737.914 87.75C741.114 89.15 746.264 90.6 753.364 92.1C761.364 93.8 767.964 95.65 773.164 97.65C778.464 99.55 783.014 102.65 786.814 106.95C790.714 111.15 792.664 116.9 792.664 124.2C792.664 130.5 790.914 136.2 787.414 141.3C783.914 146.4 778.664 150.5 771.664 153.6C764.664 156.6 756.164 158.1 746.164 158.1ZM812.783 51H842.483V156H812.783V51ZM940.363 101.25H966.613V144.75C960.613 149.05 953.713 152.35 945.913 154.65C938.113 156.95 930.313 158.1 922.513 158.1C911.513 158.1 901.613 155.8 892.813 151.2C884.013 146.5 877.113 140 872.113 131.7C867.113 123.4 864.613 114 864.613 103.5C864.613 93 867.113 83.6 872.113 75.3C877.113 67 884.063 60.55 892.963 55.95C901.863 51.25 911.913 48.9 923.113 48.9C932.913 48.9 941.713 50.55 949.513 53.85C957.313 57.15 963.813 61.9 969.013 68.1L950.113 85.2C943.013 77.4 934.513 73.5 924.613 73.5C915.613 73.5 908.363 76.25 902.863 81.75C897.363 87.15 894.613 94.4 894.613 103.5C894.613 109.3 895.863 114.5 898.363 119.1C900.863 123.6 904.363 127.15 908.863 129.75C913.363 132.25 918.513 133.5 924.313 133.5C930.013 133.5 935.363 132.35 940.363 130.05V101.25Z" fill="white"/>
<rect x="1032" y="2" width="426" height="200" rx="20" fill="white"/>
<path d="M1084.4 61H1124.12C1133.32 61 1141.48 62.72 1148.6 66.16C1155.72 69.6 1161.24 74.48 1165.16 80.8C1169.08 87.12 1171.04 94.52 1171.04 103C1171.04 111.48 1169.08 118.88 1165.16 125.2C1161.24 131.52 1155.72 136.4 1148.6 139.84C1141.48 143.28 1133.32 145 1124.12 145H1084.4V61ZM1123.16 126.04C1130.36 126.04 1136.12 124 1140.44 119.92C1144.84 115.84 1147.04 110.2 1147.04 103C1147.04 95.8 1144.84 90.16 1140.44 86.08C1136.12 82 1130.36 79.96 1123.16 79.96H1108.16V126.04H1123.16ZM1221.5 146.08C1214.54 146.08 1208.26 144.64 1202.66 141.76C1197.06 138.88 1192.66 134.88 1189.46 129.76C1186.34 124.64 1184.78 118.84 1184.78 112.36C1184.78 105.96 1186.34 100.2 1189.46 95.08C1192.66 89.96 1197.02 86 1202.54 83.2C1208.14 80.32 1214.46 78.88 1221.5 78.88C1228.54 78.88 1234.86 80.32 1240.46 83.2C1246.06 86 1250.42 89.96 1253.54 95.08C1256.66 100.12 1258.22 105.88 1258.22 112.36C1258.22 118.84 1256.66 124.64 1253.54 129.76C1250.42 134.88 1246.06 138.88 1240.46 141.76C1234.86 144.64 1228.54 146.08 1221.5 146.08ZM1221.5 127.96C1225.5 127.96 1228.78 126.6 1231.34 123.88C1233.9 121.08 1235.18 117.24 1235.18 112.36C1235.18 107.56 1233.9 103.8 1231.34 101.08C1228.78 98.36 1225.5 97 1221.5 97C1217.5 97 1214.22 98.36 1211.66 101.08C1209.1 103.8 1207.82 107.56 1207.82 112.36C1207.82 117.24 1209.1 121.08 1211.66 123.88C1214.22 126.6 1217.5 127.96 1221.5 127.96ZM1308.42 146.08C1301.22 146.08 1294.78 144.64 1289.1 141.76C1283.42 138.88 1278.98 134.88 1275.78 129.76C1272.66 124.64 1271.1 118.84 1271.1 112.36C1271.1 105.88 1272.66 100.12 1275.78 95.08C1278.98 89.96 1283.42 86 1289.1 83.2C1294.78 80.32 1301.22 78.88 1308.42 78.88C1315.78 78.88 1322.14 80.48 1327.5 83.68C1332.86 86.8 1336.66 91.16 1338.9 96.76L1321.26 105.76C1318.3 99.92 1313.98 97 1308.3 97C1304.22 97 1300.82 98.36 1298.1 101.08C1295.46 103.8 1294.14 107.56 1294.14 112.36C1294.14 117.24 1295.46 121.08 1298.1 123.88C1300.82 126.6 1304.22 127.96 1308.3 127.96C1313.98 127.96 1318.3 125.04 1321.26 119.2L1338.9 128.2C1336.66 133.8 1332.86 138.2 1327.5 141.4C1322.14 144.52 1315.78 146.08 1308.42 146.08ZM1377.53 146.08C1372.09 146.08 1366.73 145.48 1361.45 144.28C1356.17 143 1351.93 141.36 1348.73 139.36L1355.57 123.76C1358.53 125.6 1362.05 127.08 1366.13 128.2C1370.21 129.24 1374.25 129.76 1378.25 129.76C1381.93 129.76 1384.53 129.4 1386.05 128.68C1387.65 127.88 1388.45 126.76 1388.45 125.32C1388.45 123.88 1387.49 122.88 1385.57 122.32C1383.73 121.68 1380.77 121.08 1376.69 120.52C1371.49 119.88 1367.05 119.04 1363.37 118C1359.77 116.96 1356.65 115.04 1354.01 112.24C1351.37 109.44 1350.05 105.52 1350.05 100.48C1350.05 96.32 1351.29 92.64 1353.77 89.44C1356.25 86.16 1359.85 83.6 1364.57 81.76C1369.37 79.84 1375.09 78.88 1381.73 78.88C1386.45 78.88 1391.13 79.36 1395.77 80.32C1400.41 81.28 1404.29 82.64 1407.41 84.4L1400.57 99.88C1394.81 96.68 1388.57 95.08 1381.85 95.08C1378.25 95.08 1375.61 95.52 1373.93 96.4C1372.25 97.2 1371.41 98.28 1371.41 99.64C1371.41 101.16 1372.33 102.24 1374.17 102.88C1376.01 103.44 1379.05 104.04 1383.29 104.68C1388.65 105.48 1393.09 106.4 1396.61 107.44C1400.13 108.48 1403.17 110.4 1405.73 113.2C1408.37 115.92 1409.69 119.76 1409.69 124.72C1409.69 128.8 1408.45 132.48 1405.97 135.76C1403.49 138.96 1399.81 141.48 1394.93 143.32C1390.13 145.16 1384.33 146.08 1377.53 146.08Z" fill="#181818"/>
</svg>
