<?xml version="1.0" encoding="UTF-8" standalone="no"?><!DOCTYPE svg PUBLIC "-//W3C//DTD SVG 1.1//EN" "http://www.w3.org/Graphics/SVG/1.1/DTD/svg11.dtd"><svg width="100%" height="100%" viewBox="0 0 1052 170" version="1.1" xmlns="http://www.w3.org/2000/svg" xmlns:xlink="http://www.w3.org/1999/xlink" xml:space="preserve" xmlns:serif="http://www.serif.com/" style="fill-rule:evenodd;clip-rule:evenodd;stroke-linejoin:round;stroke-miterlimit:2;"><g><path d="M146.689,96.657c-3.217,0.518 -6.244,-1.669 -6.76,-4.884c-0.517,-3.216 1.668,-6.242 4.885,-6.759c3.213,-0.518 6.24,1.668 6.76,4.884c0.516,3.215 -1.672,6.241 -4.885,6.759Zm-41.305,-35.517c-3.052,0.492 -5.924,-1.584 -6.416,-4.636c-0.491,-3.052 1.584,-5.924 4.636,-6.416c3.052,-0.491 5.924,1.585 6.416,4.637c0.491,3.051 -1.584,5.924 -4.636,6.415Zm129.35,-26.499c-1.057,-6.574 -7.245,-11.044 -13.819,-9.985c-4.151,0.668 -7.459,3.386 -9.071,6.953c-0.812,1.795 -1.184,3.804 -1.022,5.878l-58.174,42.7c-1.359,-0.88 -2.883,-1.502 -4.505,-1.814c-1.24,-0.238 -2.532,-0.291 -3.846,-0.139c-0.189,0.022 -0.375,0.031 -0.565,0.062c-1.436,0.231 -2.767,0.705 -3.982,1.356l-23.434,-21.737c0.264,-1.355 0.312,-2.775 0.08,-4.217c-0.097,-0.603 -0.251,-1.181 -0.431,-1.746c-1.779,-5.593 -7.418,-9.201 -13.388,-8.24c-2.968,0.478 -5.499,2.007 -7.294,4.139c-1.697,2.016 -2.734,4.569 -2.835,7.305l-40.791,30.677l6.246,10.818l40.637,-30.561c2.304,1.311 5.049,1.88 7.87,1.426c0.554,-0.089 1.086,-0.227 1.608,-0.386l25.042,23.231c-0.029,0.82 0.017,1.653 0.15,2.494c0.32,1.981 1.092,3.773 2.181,5.307c1.342,1.893 3.168,3.38 5.282,4.305c1.946,0.852 4.123,1.218 6.364,0.988c0.245,-0.025 0.488,-0.041 0.734,-0.08c3.515,-0.567 6.454,-2.529 8.358,-5.228c1.387,-1.968 2.219,-4.325 2.314,-6.825l59.56,-43.727c1.735,0.759 3.656,1.122 5.644,0.985c0.365,-0.025 0.734,-0.062 1.103,-0.121c6.574,-1.058 11.044,-7.245 9.984,-13.818Z" style="fill:#6ab1e2;fill-rule:nonzero;stroke:#6ab1e2;stroke-width:8.85px;"/><path d="M34.565,114.203l-6.246,-10.818l-7.294,5.486c-1.783,-0.728 -3.756,-1.034 -5.786,-0.822c-0.223,0.024 -0.447,0.038 -0.671,0.074c-6.574,1.058 -11.045,7.245 -9.986,13.819c1.059,6.573 7.246,11.043 13.818,9.985c4.299,-0.692 7.685,-3.583 9.227,-7.335c0.734,-1.786 1.045,-3.763 0.834,-5.799l2.743,-2.063l3.361,-2.527Z" style="fill:#6ab1e2;fill-rule:nonzero;stroke:#6ab1e2;stroke-width:8.85px;"/><path d="M203.141,68.314l-10.686,7.845l4.959,8.59l-38.876,67.34l-77.759,0l-38.876,-67.34l38.876,-67.338l77.759,0l19.726,34.168l10.686,-7.845l-20.902,-36.205c-1.177,-2.039 -3.35,-3.295 -5.707,-3.295l-85.365,0c-2.355,0 -4.53,1.256 -5.706,3.295l-42.68,73.925c-1.176,2.039 -1.176,4.55 -0,6.589l42.68,73.928c1.176,2.037 3.351,3.294 5.706,3.294l85.365,0c2.357,0 4.53,-1.257 5.707,-3.294l42.679,-73.928c1.176,-2.039 1.176,-4.55 -0,-6.589l-7.586,-13.14Z" style="fill:#828282;fill-rule:nonzero;stroke:#828282;stroke-width:8.47px;"/></g><g transform="matrix(0.482034,0,0,0.482034,-164.918,-2804.98)"><g transform="matrix(453.633,0,0,453.633,900.172,6155.67)"><path d="M0.146,-0.48c0,0.019 0.004,0.035 0.012,0.047c0.008,0.013 0.018,0.023 0.032,0.031c0.013,0.008 0.028,0.015 0.045,0.02c0.018,0.005 0.036,0.01 0.055,0.015c0.025,0.006 0.05,0.013 0.074,0.02c0.025,0.008 0.047,0.018 0.066,0.031c0.019,0.014 0.035,0.031 0.046,0.052c0.012,0.021 0.018,0.048 0.018,0.081c0,0.034 -0.006,0.063 -0.019,0.088c-0.013,0.025 -0.031,0.045 -0.053,0.061c-0.023,0.015 -0.05,0.027 -0.081,0.035c-0.031,0.007 -0.064,0.011 -0.101,0.011c-0.017,0 -0.035,-0.001 -0.052,-0.003c-0.018,-0.002 -0.035,-0.005 -0.051,-0.009c-0.016,-0.003 -0.031,-0.007 -0.044,-0.012c-0.013,-0.004 -0.023,-0.009 -0.03,-0.013l-0,-0.073c0.011,0.006 0.024,0.011 0.039,0.016c0.015,0.005 0.03,0.009 0.045,0.012c0.016,0.004 0.032,0.007 0.048,0.008c0.016,0.002 0.031,0.003 0.045,0.003c0.023,0 0.044,-0.002 0.065,-0.005c0.021,-0.004 0.039,-0.011 0.054,-0.02c0.016,-0.009 0.028,-0.022 0.037,-0.037c0.01,-0.016 0.014,-0.036 0.014,-0.06c0,-0.019 -0.004,-0.035 -0.012,-0.048c-0.008,-0.013 -0.018,-0.023 -0.032,-0.031c-0.013,-0.009 -0.029,-0.016 -0.046,-0.021c-0.017,-0.005 -0.036,-0.01 -0.055,-0.014c-0.025,-0.006 -0.05,-0.013 -0.074,-0.02c-0.025,-0.008 -0.046,-0.018 -0.065,-0.031c-0.019,-0.013 -0.035,-0.029 -0.046,-0.05c-0.012,-0.021 -0.017,-0.047 -0.017,-0.079c-0,-0.033 0.006,-0.061 0.018,-0.085c0.012,-0.024 0.028,-0.044 0.049,-0.06c0.021,-0.015 0.045,-0.027 0.072,-0.034c0.027,-0.008 0.055,-0.012 0.086,-0.012c0.035,0 0.067,0.004 0.097,0.01c0.031,0.007 0.058,0.016 0.083,0.027l0,0.073c-0.027,-0.011 -0.055,-0.02 -0.083,-0.027c-0.029,-0.008 -0.06,-0.011 -0.093,-0.012c-0.025,0 -0.046,0.003 -0.064,0.008c-0.019,0.006 -0.034,0.013 -0.046,0.023c-0.012,0.01 -0.021,0.022 -0.027,0.036c-0.006,0.015 -0.009,0.03 -0.009,0.048Z" style="fill:#828282;fill-rule:nonzero;"/></g><g transform="matrix(453.633,0,0,453.633,1150.47,6155.67)"><path d="M0.317,-0l-0.079,-0l-0,-0.582l-0.218,0l-0,-0.071l0.516,-0l-0,0.071l-0.219,0l0,0.582Z" style="fill:#828282;fill-rule:nonzero;"/></g><g transform="matrix(453.633,0,0,453.633,1377.95,6155.67)"><path d="M0.017,-0l0.266,-0.653l0.069,-0l0.266,0.653l-0.086,-0l-0.078,-0.197l-0.273,0l-0.078,0.197l-0.086,-0Zm0.3,-0.552c-0.029,0.082 -0.057,0.155 -0.084,0.222l-0.024,0.061l0.217,0l-0.025,-0.061c-0.027,-0.068 -0.054,-0.142 -0.082,-0.222l-0.002,0Z" style="fill:#828282;fill-rule:nonzero;"/></g><g transform="matrix(453.633,0,0,453.633,1641.76,6155.67)"><path d="M0.317,-0l-0.079,-0l-0,-0.582l-0.218,0l-0,-0.071l0.516,-0l-0,0.071l-0.219,0l0,0.582Z" style="fill:#828282;fill-rule:nonzero;"/></g><g transform="matrix(453.633,0,0,453.633,1893.6,6155.67)"><path d="M0.146,-0.48c0,0.019 0.004,0.035 0.012,0.047c0.008,0.013 0.018,0.023 0.032,0.031c0.013,0.008 0.028,0.015 0.045,0.02c0.018,0.005 0.036,0.01 0.055,0.015c0.025,0.006 0.05,0.013 0.074,0.02c0.025,0.008 0.047,0.018 0.066,0.031c0.019,0.014 0.035,0.031 0.046,0.052c0.012,0.021 0.018,0.048 0.018,0.081c0,0.034 -0.006,0.063 -0.019,0.088c-0.013,0.025 -0.031,0.045 -0.053,0.061c-0.023,0.015 -0.05,0.027 -0.081,0.035c-0.031,0.007 -0.064,0.011 -0.101,0.011c-0.017,0 -0.035,-0.001 -0.052,-0.003c-0.018,-0.002 -0.035,-0.005 -0.051,-0.009c-0.016,-0.003 -0.031,-0.007 -0.044,-0.012c-0.013,-0.004 -0.023,-0.009 -0.03,-0.013l-0,-0.073c0.011,0.006 0.024,0.011 0.039,0.016c0.015,0.005 0.03,0.009 0.045,0.012c0.016,0.004 0.032,0.007 0.048,0.008c0.016,0.002 0.031,0.003 0.045,0.003c0.023,0 0.044,-0.002 0.065,-0.005c0.021,-0.004 0.039,-0.011 0.054,-0.02c0.016,-0.009 0.028,-0.022 0.037,-0.037c0.01,-0.016 0.014,-0.036 0.014,-0.06c0,-0.019 -0.004,-0.035 -0.012,-0.048c-0.008,-0.013 -0.018,-0.023 -0.032,-0.031c-0.013,-0.009 -0.029,-0.016 -0.046,-0.021c-0.017,-0.005 -0.036,-0.01 -0.055,-0.014c-0.025,-0.006 -0.05,-0.013 -0.074,-0.02c-0.025,-0.008 -0.046,-0.018 -0.065,-0.031c-0.019,-0.013 -0.035,-0.029 -0.046,-0.05c-0.012,-0.021 -0.017,-0.047 -0.017,-0.079c-0,-0.033 0.006,-0.061 0.018,-0.085c0.012,-0.024 0.028,-0.044 0.049,-0.06c0.021,-0.015 0.045,-0.027 0.072,-0.034c0.027,-0.008 0.055,-0.012 0.086,-0.012c0.035,0 0.067,0.004 0.097,0.01c0.031,0.007 0.058,0.016 0.083,0.027l0,0.073c-0.027,-0.011 -0.055,-0.02 -0.083,-0.027c-0.029,-0.008 -0.06,-0.011 -0.093,-0.012c-0.025,0 -0.046,0.003 -0.064,0.008c-0.019,0.006 -0.034,0.013 -0.046,0.023c-0.012,0.01 -0.021,0.022 -0.027,0.036c-0.006,0.015 -0.009,0.03 -0.009,0.048Z" style="fill:#6ab1e2;fill-rule:nonzero;"/></g><g transform="matrix(453.633,0,0,453.633,2143.9,6155.67)"><rect x="0.083" y="-0.653" width="0.08" height="0.653" style="fill:#6ab1e2;fill-rule:nonzero;"/></g><g transform="matrix(453.633,0,0,453.633,2255.31,6155.67)"><path d="M0.51,-0.264l-0.149,-0l0,-0.072l0.229,0l-0,0.316c-0.007,0.004 -0.017,0.007 -0.03,0.011c-0.013,0.004 -0.028,0.007 -0.045,0.01c-0.017,0.004 -0.035,0.006 -0.055,0.008c-0.019,0.002 -0.038,0.003 -0.057,0.003c-0.056,0 -0.106,-0.007 -0.148,-0.023c-0.043,-0.015 -0.079,-0.037 -0.108,-0.065c-0.029,-0.028 -0.051,-0.062 -0.066,-0.102c-0.015,-0.04 -0.022,-0.084 -0.022,-0.134c-0,-0.053 0.008,-0.101 0.024,-0.145c0.017,-0.044 0.04,-0.081 0.071,-0.112c0.032,-0.031 0.069,-0.055 0.113,-0.071c0.044,-0.017 0.093,-0.026 0.146,-0.026c0.014,0 0.029,0.001 0.043,0.002c0.014,0.001 0.028,0.003 0.041,0.005c0.013,0.002 0.025,0.005 0.036,0.008c0.011,0.003 0.021,0.006 0.028,0.009l0,0.07c-0.019,-0.006 -0.042,-0.012 -0.067,-0.016c-0.026,-0.005 -0.051,-0.007 -0.077,-0.007c-0.037,0 -0.072,0.006 -0.106,0.017c-0.033,0.011 -0.063,0.028 -0.089,0.051c-0.026,0.023 -0.046,0.051 -0.061,0.086c-0.016,0.034 -0.023,0.074 -0.023,0.121c-0,0.045 0.006,0.084 0.019,0.117c0.012,0.033 0.03,0.06 0.054,0.081c0.023,0.022 0.051,0.038 0.084,0.048c0.033,0.01 0.07,0.015 0.111,0.015c0.019,0 0.037,-0.001 0.056,-0.003c0.018,-0.001 0.034,-0.004 0.048,-0.008l0,-0.194Z" style="fill:#6ab1e2;fill-rule:nonzero;"/></g></g></svg>