<svg width="585" height="433" viewBox="0 0 585 433" fill="none" xmlns="http://www.w3.org/2000/svg">
<path d="M142 210V73C142 64.7157 148.716 58 157 58L170 58" stroke="#68A4E1" stroke-dasharray="2 2"/>
<path d="M142 210V347C142 355.284 148.716 362 157 362H170" stroke="#68A4E1" stroke-dasharray="2 2"/>
<path d="M290 210V73C290 64.7157 283.284 58 275 58L262 58" stroke="#68A4E1" stroke-dasharray="2 2"/>
<path d="M290 210V347C290 355.284 283.284 362 275 362H262" stroke="#68A4E1" stroke-dasharray="2 2"/>
<path d="M70 210H520" stroke="#68A4E1" stroke-dasharray="2 2"/>
<path d="M216 362L368 362" stroke="#68A4E1" stroke-dasharray="2 2"/>
<path d="M216 58L216 362" stroke="#68A4E1" stroke-dasharray="2 2"/>
<path d="M166 207L170 210L166 213" stroke="#68A4E1" stroke-linecap="round" stroke-linejoin="round"/>
<path d="M166 359L170 362L166 365" stroke="#68A4E1" stroke-linecap="round" stroke-linejoin="round"/>
<path d="M166 55L170 58L166 61" stroke="#68A4E1" stroke-linecap="round" stroke-linejoin="round"/>
<path d="M318 207L322 210L318 213" stroke="#68A4E1" stroke-linecap="round" stroke-linejoin="round"/>
<path d="M318 359L322 362L318 365" stroke="#68A4E1" stroke-linecap="round" stroke-linejoin="round"/>
<path d="M470 207L474 210L470 213" stroke="#68A4E1" stroke-linecap="round" stroke-linejoin="round"/>
<a href="/feature-flags/overview" target="_top">
<g filter="url(#filter0_d_87_325)">
<rect x="170" y="12" width="92.25" height="92.25" rx="5" fill="white"/>
<g clip-path="url(#clip0_87_325)">
<path d="M207.125 44.125V46.125H213.125V44.125H207.125ZM207.125 32.125V34.125H217.125V32.125H207.125ZM217.125 48.125V46.125H225.125V44.125H217.125V42.125H215.125V48.125H217.125ZM211.125 36.125V38.125H207.125V40.125H211.125V42.125H213.125V36.125H211.125ZM225.125 40.125V38.125H215.125V40.125H225.125ZM219.125 36.125H221.125V34.125H225.125V32.125H221.125V30.125H219.125V36.125Z" fill="#194B7D"/>
</g>
<path d="M199.582 72.125H198.42V64.9863H202.453V65.9727H199.582V68.1992H202.268V69.1807H199.582V72.125ZM205.788 66.6172C206.27 66.6172 206.683 66.7165 207.028 66.915C207.373 67.1136 207.639 67.3952 207.824 67.7598C208.01 68.1243 208.103 68.5605 208.103 69.0684V69.6836H204.494C204.507 70.2077 204.647 70.6113 204.914 70.8945C205.184 71.1777 205.562 71.3193 206.047 71.3193C206.392 71.3193 206.701 71.2868 206.975 71.2217C207.251 71.1533 207.536 71.054 207.829 70.9238V71.8564C207.559 71.9834 207.284 72.0762 207.004 72.1348C206.724 72.1934 206.389 72.2227 205.998 72.2227C205.467 72.2227 205 72.1201 204.597 71.915C204.196 71.7067 203.882 71.3975 203.654 70.9873C203.43 70.5771 203.317 70.0677 203.317 69.459C203.317 68.8535 203.42 68.3392 203.625 67.916C203.83 67.4928 204.118 67.1706 204.489 66.9492C204.86 66.7279 205.293 66.6172 205.788 66.6172ZM205.788 67.4814C205.427 67.4814 205.134 67.5986 204.909 67.833C204.688 68.0674 204.558 68.4108 204.519 68.8633H206.979C206.976 68.5931 206.931 68.3538 206.843 68.1455C206.758 67.9372 206.628 67.7744 206.452 67.6572C206.28 67.54 206.058 67.4814 205.788 67.4814ZM211.516 66.6172C212.199 66.6172 212.715 66.7686 213.063 67.0713C213.415 67.374 213.591 67.846 213.591 68.4873V72.125H212.775L212.556 71.3584H212.517C212.364 71.5537 212.206 71.7148 212.043 71.8418C211.88 71.9688 211.691 72.0632 211.477 72.125C211.265 72.1901 211.006 72.2227 210.7 72.2227C210.378 72.2227 210.09 72.1641 209.836 72.0469C209.582 71.9264 209.382 71.7441 209.235 71.5C209.089 71.2559 209.016 70.9466 209.016 70.5723C209.016 70.0156 209.222 69.5973 209.636 69.3174C210.052 69.0374 210.681 68.8828 211.521 68.8535L212.458 68.8193V68.5361C212.458 68.1618 212.37 67.8949 212.194 67.7354C212.022 67.5758 211.778 67.4961 211.462 67.4961C211.192 67.4961 210.93 67.5352 210.676 67.6133C210.422 67.6914 210.174 67.7874 209.934 67.9014L209.562 67.0908C209.826 66.9508 210.126 66.8369 210.461 66.749C210.799 66.6611 211.151 66.6172 211.516 66.6172ZM212.453 69.542L211.755 69.5664C211.182 69.5859 210.78 69.6836 210.549 69.8594C210.318 70.0352 210.202 70.276 210.202 70.582C210.202 70.849 210.282 71.0443 210.441 71.168C210.601 71.2884 210.811 71.3486 211.071 71.3486C211.468 71.3486 211.797 71.2363 212.058 71.0117C212.321 70.7839 212.453 70.4502 212.453 70.0107V69.542ZM217.209 71.2949C217.359 71.2949 217.507 71.2819 217.653 71.2559C217.8 71.2266 217.933 71.1924 218.054 71.1533V72.0225C217.927 72.0778 217.762 72.125 217.561 72.1641C217.359 72.2031 217.149 72.2227 216.931 72.2227C216.625 72.2227 216.35 72.1722 216.105 72.0713C215.861 71.9671 215.668 71.7897 215.524 71.5391C215.381 71.2884 215.31 70.9417 215.31 70.499V67.5938H214.572V67.0811L215.363 66.6758L215.739 65.5186H216.462V66.7197H218.01V67.5938H216.462V70.4844C216.462 70.7578 216.53 70.9613 216.667 71.0947C216.804 71.2282 216.984 71.2949 217.209 71.2949ZM223.864 66.7197V72.125H222.961L222.805 71.3975H222.741C222.627 71.583 222.482 71.7376 222.307 71.8613C222.131 71.9818 221.936 72.0713 221.721 72.1299C221.506 72.1917 221.28 72.2227 221.042 72.2227C220.635 72.2227 220.287 72.1543 219.997 72.0176C219.711 71.8776 219.491 71.6628 219.338 71.373C219.185 71.0833 219.108 70.709 219.108 70.25V66.7197H220.261V70.0352C220.261 70.4551 220.345 70.7692 220.515 70.9775C220.687 71.1859 220.954 71.29 221.315 71.29C221.664 71.29 221.94 71.2184 222.146 71.0752C222.351 70.932 222.495 70.7204 222.58 70.4404C222.668 70.1605 222.712 69.8171 222.712 69.4102V66.7197H223.864ZM228.249 66.6172C228.34 66.6172 228.439 66.6221 228.547 66.6318C228.654 66.6416 228.747 66.6546 228.825 66.6709L228.718 67.7451C228.649 67.7256 228.565 67.7109 228.464 67.7012C228.366 67.6914 228.278 67.6865 228.2 67.6865C227.995 67.6865 227.8 67.7207 227.614 67.7891C227.429 67.8542 227.264 67.9551 227.121 68.0918C226.978 68.2253 226.866 68.3929 226.784 68.5947C226.703 68.7965 226.662 69.0309 226.662 69.2979V72.125H225.51V66.7197H226.408L226.564 67.6719H226.618C226.726 67.4798 226.859 67.304 227.019 67.1445C227.178 66.985 227.36 66.8581 227.565 66.7637C227.774 66.666 228.002 66.6172 228.249 66.6172ZM231.979 66.6172C232.461 66.6172 232.875 66.7165 233.22 66.915C233.565 67.1136 233.83 67.3952 234.016 67.7598C234.201 68.1243 234.294 68.5605 234.294 69.0684V69.6836H230.686C230.699 70.2077 230.839 70.6113 231.105 70.8945C231.376 71.1777 231.753 71.3193 232.238 71.3193C232.583 71.3193 232.893 71.2868 233.166 71.2217C233.443 71.1533 233.728 71.054 234.021 70.9238V71.8564C233.75 71.9834 233.475 72.0762 233.195 72.1348C232.915 72.1934 232.58 72.2227 232.189 72.2227C231.659 72.2227 231.192 72.1201 230.788 71.915C230.388 71.7067 230.074 71.3975 229.846 70.9873C229.621 70.5771 229.509 70.0677 229.509 69.459C229.509 68.8535 229.611 68.3392 229.816 67.916C230.021 67.4928 230.31 67.1706 230.681 66.9492C231.052 66.7279 231.485 66.6172 231.979 66.6172ZM231.979 67.4814C231.618 67.4814 231.325 67.5986 231.101 67.833C230.879 68.0674 230.749 68.4108 230.71 68.8633H233.171C233.168 68.5931 233.122 68.3538 233.034 68.1455C232.95 67.9372 232.819 67.7744 232.644 67.6572C232.471 67.54 232.25 67.4814 231.979 67.4814ZM206.12 82.248H208.786V85.832C208.412 85.9557 208.024 86.0518 207.624 86.1201C207.224 86.1885 206.774 86.2227 206.276 86.2227C205.55 86.2227 204.935 86.0794 204.431 85.793C203.929 85.5033 203.549 85.085 203.288 84.5381C203.028 83.988 202.897 83.3255 202.897 82.5508C202.897 81.8053 203.042 81.1592 203.332 80.6123C203.622 80.0622 204.043 79.6374 204.597 79.3379C205.15 79.0352 205.821 78.8838 206.608 78.8838C206.996 78.8838 207.37 78.9229 207.731 79.001C208.096 79.0758 208.43 79.18 208.732 79.3135L208.322 80.2803C208.081 80.1663 207.811 80.0703 207.512 79.9922C207.212 79.9141 206.901 79.875 206.579 79.875C206.068 79.875 205.627 79.9857 205.256 80.207C204.888 80.4284 204.605 80.7409 204.406 81.1445C204.208 81.5449 204.108 82.0186 204.108 82.5654C204.108 83.096 204.188 83.5615 204.348 83.9619C204.507 84.3623 204.756 84.6748 205.095 84.8994C205.437 85.1208 205.878 85.2314 206.418 85.2314C206.688 85.2314 206.918 85.2168 207.106 85.1875C207.295 85.1582 207.469 85.1257 207.629 85.0898V83.249H206.12V82.248ZM212.497 80.6172C213.181 80.6172 213.697 80.7686 214.045 81.0713C214.396 81.374 214.572 81.846 214.572 82.4873V86.125H213.757L213.537 85.3584H213.498C213.345 85.5537 213.187 85.7148 213.024 85.8418C212.862 85.9688 212.673 86.0632 212.458 86.125C212.246 86.1901 211.988 86.2227 211.682 86.2227C211.359 86.2227 211.071 86.1641 210.817 86.0469C210.563 85.9264 210.363 85.7441 210.217 85.5C210.07 85.2559 209.997 84.9466 209.997 84.5723C209.997 84.0156 210.204 83.5973 210.617 83.3174C211.034 83.0374 211.662 82.8828 212.502 82.8535L213.439 82.8193V82.5361C213.439 82.1618 213.352 81.8949 213.176 81.7354C213.003 81.5758 212.759 81.4961 212.443 81.4961C212.173 81.4961 211.911 81.5352 211.657 81.6133C211.403 81.6914 211.156 81.7874 210.915 81.9014L210.544 81.0908C210.808 80.9508 211.107 80.8369 211.442 80.749C211.781 80.6611 212.132 80.6172 212.497 80.6172ZM213.435 83.542L212.736 83.5664C212.163 83.5859 211.761 83.6836 211.53 83.8594C211.299 84.0352 211.184 84.276 211.184 84.582C211.184 84.849 211.263 85.0443 211.423 85.168C211.582 85.2884 211.792 85.3486 212.053 85.3486C212.45 85.3486 212.779 85.2363 213.039 85.0117C213.303 84.7839 213.435 84.4502 213.435 84.0107V83.542ZM218.19 85.2949C218.34 85.2949 218.488 85.2819 218.635 85.2559C218.781 85.2266 218.915 85.1924 219.035 85.1533V86.0225C218.908 86.0778 218.744 86.125 218.542 86.1641C218.34 86.2031 218.13 86.2227 217.912 86.2227C217.606 86.2227 217.331 86.1722 217.087 86.0713C216.843 85.9671 216.649 85.7897 216.506 85.5391C216.363 85.2884 216.291 84.9417 216.291 84.499V81.5938H215.554V81.0811L216.345 80.6758L216.721 79.5186H217.443V80.7197H218.991V81.5938H217.443V84.4844C217.443 84.7578 217.512 84.9613 217.648 85.0947C217.785 85.2282 217.966 85.2949 218.19 85.2949ZM222.287 80.6172C222.769 80.6172 223.182 80.7165 223.527 80.915C223.872 81.1136 224.138 81.3952 224.323 81.7598C224.509 82.1243 224.602 82.5605 224.602 83.0684V83.6836H220.993C221.006 84.2077 221.146 84.6113 221.413 84.8945C221.683 85.1777 222.061 85.3193 222.546 85.3193C222.891 85.3193 223.2 85.2868 223.474 85.2217C223.75 85.1533 224.035 85.054 224.328 84.9238V85.8564C224.058 85.9834 223.783 86.0762 223.503 86.1348C223.223 86.1934 222.888 86.2227 222.497 86.2227C221.966 86.2227 221.499 86.1201 221.096 85.915C220.695 85.7067 220.381 85.3975 220.153 84.9873C219.929 84.5771 219.816 84.0677 219.816 83.459C219.816 82.8535 219.919 82.3392 220.124 81.916C220.329 81.4928 220.617 81.1706 220.988 80.9492C221.359 80.7279 221.792 80.6172 222.287 80.6172ZM222.287 81.4814C221.926 81.4814 221.633 81.5986 221.408 81.833C221.187 82.0674 221.057 82.4108 221.018 82.8633H223.479C223.475 82.5931 223.43 82.3538 223.342 82.1455C223.257 81.9372 223.127 81.7744 222.951 81.6572C222.779 81.54 222.557 81.4814 222.287 81.4814ZM229.528 84.582C229.528 84.9368 229.442 85.2363 229.27 85.4805C229.097 85.7246 228.845 85.9102 228.513 86.0371C228.184 86.1608 227.78 86.2227 227.302 86.2227C226.924 86.2227 226.599 86.195 226.325 86.1396C226.055 86.0876 225.799 86.0062 225.559 85.8955V84.9043C225.816 85.0247 226.104 85.1289 226.423 85.2168C226.745 85.3047 227.049 85.3486 227.336 85.3486C227.714 85.3486 227.985 85.29 228.151 85.1729C228.317 85.0524 228.4 84.8929 228.4 84.6943C228.4 84.5771 228.366 84.473 228.298 84.3818C228.233 84.2874 228.109 84.1914 227.927 84.0938C227.748 83.9928 227.484 83.8724 227.136 83.7324C226.794 83.5957 226.506 83.459 226.271 83.3223C226.037 83.1855 225.86 83.0212 225.739 82.8291C225.619 82.6338 225.559 82.3848 225.559 82.082C225.559 81.6035 225.747 81.2406 226.125 80.9932C226.506 80.7425 227.009 80.6172 227.634 80.6172C227.966 80.6172 228.278 80.6514 228.571 80.7197C228.868 80.7848 229.157 80.8809 229.44 81.0078L229.079 81.8721C228.835 81.7646 228.589 81.6768 228.342 81.6084C228.098 81.5368 227.849 81.501 227.595 81.501C227.299 81.501 227.072 81.5465 226.916 81.6377C226.763 81.7288 226.687 81.859 226.687 82.0283C226.687 82.1553 226.724 82.2627 226.799 82.3506C226.874 82.4385 227.002 82.5264 227.185 82.6143C227.37 82.7021 227.627 82.8112 227.956 82.9414C228.278 83.0651 228.557 83.1953 228.791 83.332C229.029 83.4655 229.211 83.6299 229.338 83.8252C229.465 84.0205 229.528 84.2728 229.528 84.582Z" fill="black"/>
</g>
</a>
<a href="/events-explorer" target="_top">
<g filter="url(#filter1_d_87_325)">
<rect x="322" y="316" width="92.25" height="92.25" rx="5" fill="white"/>
<g clip-path="url(#clip1_87_325)">
<path d="M363.125 340.125H358.125V338.125H363.125V340.125ZM363.125 343.125H358.125V345.125H363.125V343.125ZM376.715 350.125L372.885 346.295C372.085 346.815 371.145 347.125 370.125 347.125C367.365 347.125 365.125 344.885 365.125 342.125C365.125 339.365 367.365 337.125 370.125 337.125C372.885 337.125 375.125 339.365 375.125 342.125C375.125 343.145 374.815 344.085 374.295 344.875L378.125 348.715L376.715 350.125ZM373.125 342.125C373.125 340.475 371.775 339.125 370.125 339.125C368.475 339.125 367.125 340.475 367.125 342.125C367.125 343.775 368.475 345.125 370.125 345.125C371.775 345.125 373.125 343.775 373.125 342.125ZM358.125 350.125H368.125V348.125H358.125V350.125Z" fill="#194B7D"/>
</g>
<path d="M357.168 376.125H353.125V368.986H357.168V369.973H354.297V371.911H356.987V372.893H354.297V375.134H357.168V376.125ZM359.829 376.125L357.773 370.72H358.989L360.103 373.894C360.174 374.095 360.239 374.313 360.298 374.548C360.356 374.782 360.397 374.979 360.42 375.139H360.459C360.482 374.973 360.526 374.774 360.591 374.543C360.656 374.309 360.723 374.092 360.791 373.894L361.904 370.72H363.115L361.06 376.125H359.829ZM366.089 370.617C366.571 370.617 366.984 370.716 367.329 370.915C367.674 371.114 367.939 371.395 368.125 371.76C368.311 372.124 368.403 372.561 368.403 373.068V373.684H364.795C364.808 374.208 364.948 374.611 365.215 374.895C365.485 375.178 365.863 375.319 366.348 375.319C366.693 375.319 367.002 375.287 367.275 375.222C367.552 375.153 367.837 375.054 368.13 374.924V375.856C367.86 375.983 367.585 376.076 367.305 376.135C367.025 376.193 366.689 376.223 366.299 376.223C365.768 376.223 365.301 376.12 364.897 375.915C364.497 375.707 364.183 375.397 363.955 374.987C363.73 374.577 363.618 374.068 363.618 373.459C363.618 372.854 363.721 372.339 363.926 371.916C364.131 371.493 364.419 371.171 364.79 370.949C365.161 370.728 365.594 370.617 366.089 370.617ZM366.089 371.481C365.728 371.481 365.435 371.599 365.21 371.833C364.989 372.067 364.858 372.411 364.819 372.863H367.28C367.277 372.593 367.231 372.354 367.144 372.146C367.059 371.937 366.929 371.774 366.753 371.657C366.58 371.54 366.359 371.481 366.089 371.481ZM372.515 370.617C373.123 370.617 373.597 370.775 373.936 371.091C374.277 371.403 374.448 371.906 374.448 372.6V376.125H373.301V372.814C373.301 372.395 373.215 372.08 373.042 371.872C372.869 371.66 372.603 371.555 372.241 371.555C371.717 371.555 371.353 371.716 371.147 372.038C370.946 372.36 370.845 372.827 370.845 373.439V376.125H369.697V370.72H370.591L370.752 371.452H370.815C370.933 371.263 371.077 371.109 371.25 370.988C371.426 370.865 371.621 370.772 371.836 370.71C372.054 370.648 372.28 370.617 372.515 370.617ZM378.066 375.295C378.216 375.295 378.364 375.282 378.511 375.256C378.657 375.227 378.791 375.192 378.911 375.153V376.022C378.784 376.078 378.62 376.125 378.418 376.164C378.216 376.203 378.006 376.223 377.788 376.223C377.482 376.223 377.207 376.172 376.963 376.071C376.719 375.967 376.525 375.79 376.382 375.539C376.239 375.288 376.167 374.942 376.167 374.499V371.594H375.43V371.081L376.221 370.676L376.597 369.519H377.319V370.72H378.867V371.594H377.319V374.484C377.319 374.758 377.388 374.961 377.524 375.095C377.661 375.228 377.842 375.295 378.066 375.295ZM383.643 374.582C383.643 374.937 383.556 375.236 383.384 375.48C383.211 375.725 382.959 375.91 382.627 376.037C382.298 376.161 381.895 376.223 381.416 376.223C381.038 376.223 380.713 376.195 380.439 376.14C380.169 376.088 379.914 376.006 379.673 375.896V374.904C379.93 375.025 380.218 375.129 380.537 375.217C380.859 375.305 381.164 375.349 381.45 375.349C381.828 375.349 382.1 375.29 382.266 375.173C382.432 375.052 382.515 374.893 382.515 374.694C382.515 374.577 382.48 374.473 382.412 374.382C382.347 374.287 382.223 374.191 382.041 374.094C381.862 373.993 381.598 373.872 381.25 373.732C380.908 373.596 380.62 373.459 380.386 373.322C380.151 373.186 379.974 373.021 379.854 372.829C379.733 372.634 379.673 372.385 379.673 372.082C379.673 371.604 379.862 371.241 380.239 370.993C380.62 370.743 381.123 370.617 381.748 370.617C382.08 370.617 382.393 370.651 382.686 370.72C382.982 370.785 383.271 370.881 383.555 371.008L383.193 371.872C382.949 371.765 382.703 371.677 382.456 371.608C382.212 371.537 381.963 371.501 381.709 371.501C381.413 371.501 381.187 371.547 381.03 371.638C380.877 371.729 380.801 371.859 380.801 372.028C380.801 372.155 380.838 372.263 380.913 372.351C380.988 372.438 381.117 372.526 381.299 372.614C381.484 372.702 381.742 372.811 382.07 372.941C382.393 373.065 382.671 373.195 382.905 373.332C383.143 373.465 383.325 373.63 383.452 373.825C383.579 374.021 383.643 374.273 383.643 374.582ZM352.798 390.125H348.755V382.986H352.798V383.973H349.927V385.911H352.617V386.893H349.927V389.134H352.798V390.125ZM355.42 387.361L353.613 384.72H354.922L356.157 386.619L357.397 384.72H358.701L356.885 387.361L358.794 390.125H357.48L356.157 388.099L354.829 390.125H353.525L355.42 387.361ZM362.505 384.617C363.146 384.617 363.66 384.852 364.048 385.32C364.438 385.789 364.634 386.486 364.634 387.41C364.634 388.022 364.543 388.538 364.36 388.958C364.181 389.375 363.929 389.69 363.604 389.905C363.281 390.117 362.905 390.223 362.476 390.223C362.202 390.223 361.965 390.187 361.763 390.115C361.561 390.044 361.388 389.951 361.245 389.837C361.102 389.72 360.981 389.593 360.884 389.456H360.815C360.832 389.586 360.846 389.731 360.859 389.891C360.876 390.047 360.884 390.19 360.884 390.32V392.522H359.731V384.72H360.669L360.83 385.467H360.884C360.985 385.314 361.107 385.172 361.25 385.042C361.396 384.912 361.572 384.809 361.777 384.734C361.986 384.656 362.228 384.617 362.505 384.617ZM362.197 385.555C361.882 385.555 361.628 385.618 361.436 385.745C361.247 385.869 361.108 386.056 361.021 386.307C360.936 386.557 360.89 386.871 360.884 387.249V387.41C360.884 387.811 360.924 388.151 361.006 388.431C361.09 388.707 361.229 388.919 361.421 389.065C361.616 389.209 361.88 389.28 362.212 389.28C362.492 389.28 362.723 389.204 362.905 389.051C363.091 388.898 363.229 388.68 363.32 388.396C363.411 388.113 363.457 387.78 363.457 387.396C363.457 386.813 363.353 386.36 363.145 386.038C362.939 385.716 362.624 385.555 362.197 385.555ZM367.114 390.125H365.962V382.527H367.114V390.125ZM373.54 387.41C373.54 387.859 373.481 388.258 373.364 388.606C373.247 388.955 373.076 389.249 372.852 389.49C372.627 389.728 372.357 389.91 372.041 390.037C371.725 390.161 371.369 390.223 370.972 390.223C370.601 390.223 370.26 390.161 369.951 390.037C369.642 389.91 369.373 389.728 369.146 389.49C368.921 389.249 368.747 388.955 368.623 388.606C368.499 388.258 368.438 387.859 368.438 387.41C368.438 386.814 368.54 386.31 368.745 385.896C368.953 385.48 369.25 385.162 369.634 384.944C370.018 384.726 370.475 384.617 371.006 384.617C371.504 384.617 371.943 384.726 372.324 384.944C372.705 385.162 373.003 385.48 373.218 385.896C373.433 386.313 373.54 386.818 373.54 387.41ZM369.619 387.41C369.619 387.804 369.666 388.141 369.761 388.421C369.858 388.701 370.008 388.916 370.21 389.065C370.412 389.212 370.672 389.285 370.991 389.285C371.31 389.285 371.571 389.212 371.772 389.065C371.974 388.916 372.122 388.701 372.217 388.421C372.311 388.141 372.358 387.804 372.358 387.41C372.358 387.016 372.311 386.683 372.217 386.409C372.122 386.132 371.974 385.923 371.772 385.779C371.571 385.633 371.309 385.56 370.986 385.56C370.511 385.56 370.164 385.719 369.946 386.038C369.728 386.357 369.619 386.814 369.619 387.41ZM377.598 384.617C377.689 384.617 377.788 384.622 377.896 384.632C378.003 384.642 378.096 384.655 378.174 384.671L378.066 385.745C377.998 385.726 377.913 385.711 377.812 385.701C377.715 385.691 377.627 385.687 377.549 385.687C377.344 385.687 377.148 385.721 376.963 385.789C376.777 385.854 376.613 385.955 376.47 386.092C376.326 386.225 376.214 386.393 376.133 386.595C376.051 386.797 376.011 387.031 376.011 387.298V390.125H374.858V384.72H375.757L375.913 385.672H375.967C376.074 385.48 376.208 385.304 376.367 385.145C376.527 384.985 376.709 384.858 376.914 384.764C377.122 384.666 377.35 384.617 377.598 384.617ZM381.328 384.617C381.81 384.617 382.223 384.716 382.568 384.915C382.913 385.114 383.179 385.395 383.364 385.76C383.55 386.124 383.643 386.561 383.643 387.068V387.684H380.034C380.047 388.208 380.187 388.611 380.454 388.895C380.724 389.178 381.102 389.319 381.587 389.319C381.932 389.319 382.241 389.287 382.515 389.222C382.791 389.153 383.076 389.054 383.369 388.924V389.856C383.099 389.983 382.824 390.076 382.544 390.135C382.264 390.193 381.929 390.223 381.538 390.223C381.007 390.223 380.54 390.12 380.137 389.915C379.736 389.707 379.422 389.397 379.194 388.987C378.97 388.577 378.857 388.068 378.857 387.459C378.857 386.854 378.96 386.339 379.165 385.916C379.37 385.493 379.658 385.171 380.029 384.949C380.4 384.728 380.833 384.617 381.328 384.617ZM381.328 385.481C380.967 385.481 380.674 385.599 380.449 385.833C380.228 386.067 380.098 386.411 380.059 386.863H382.52C382.516 386.593 382.471 386.354 382.383 386.146C382.298 385.937 382.168 385.774 381.992 385.657C381.82 385.54 381.598 385.481 381.328 385.481ZM387.676 384.617C387.767 384.617 387.866 384.622 387.974 384.632C388.081 384.642 388.174 384.655 388.252 384.671L388.145 385.745C388.076 385.726 387.992 385.711 387.891 385.701C387.793 385.691 387.705 385.687 387.627 385.687C387.422 385.687 387.227 385.721 387.041 385.789C386.855 385.854 386.691 385.955 386.548 386.092C386.405 386.225 386.292 386.393 386.211 386.595C386.13 386.797 386.089 387.031 386.089 387.298V390.125H384.937V384.72H385.835L385.991 385.672H386.045C386.152 385.48 386.286 385.304 386.445 385.145C386.605 384.985 386.787 384.858 386.992 384.764C387.201 384.666 387.428 384.617 387.676 384.617Z" fill="black"/>
</g>
</a>
<a href="/pulse" target="_top">
<g filter="url(#filter2_d_87_325)">
<rect x="322" y="164" width="92.25" height="92.25" rx="5" fill="white"/>
<g clip-path="url(#clip2_87_325)">
<path d="M375.125 189.125H361.125C360.025 189.125 359.125 190.025 359.125 191.125V205.125C359.125 206.225 360.025 207.125 361.125 207.125H375.125C376.225 207.125 377.125 206.225 377.125 205.125V191.125C377.125 190.025 376.225 189.125 375.125 189.125ZM375.125 205.125H361.125V191.125H375.125V205.125ZM363.125 196.125H365.125V203.125H363.125V196.125ZM367.125 193.125H369.125V203.125H367.125V193.125ZM371.125 199.125H373.125V203.125H371.125V199.125Z" fill="#194B7D"/>
</g>
<path d="M358.138 223.986C359.059 223.986 359.731 224.175 360.154 224.553C360.577 224.93 360.789 225.459 360.789 226.14C360.789 226.449 360.74 226.743 360.643 227.023C360.548 227.3 360.392 227.546 360.174 227.761C359.956 227.972 359.668 228.14 359.31 228.264C358.955 228.387 358.517 228.449 357.996 228.449H357.234V231.125H356.062V223.986H358.138ZM358.06 224.958H357.234V227.473H357.874C358.242 227.473 358.554 227.43 358.812 227.346C359.069 227.258 359.264 227.119 359.397 226.931C359.531 226.742 359.598 226.493 359.598 226.184C359.598 225.77 359.472 225.463 359.222 225.261C358.974 225.059 358.587 224.958 358.06 224.958ZM366.81 225.72V231.125H365.906L365.75 230.397H365.687C365.573 230.583 365.428 230.738 365.252 230.861C365.076 230.982 364.881 231.071 364.666 231.13C364.451 231.192 364.225 231.223 363.987 231.223C363.58 231.223 363.232 231.154 362.942 231.018C362.656 230.878 362.436 230.663 362.283 230.373C362.13 230.083 362.054 229.709 362.054 229.25V225.72H363.206V229.035C363.206 229.455 363.291 229.769 363.46 229.978C363.632 230.186 363.899 230.29 364.261 230.29C364.609 230.29 364.886 230.218 365.091 230.075C365.296 229.932 365.441 229.72 365.525 229.44C365.613 229.16 365.657 228.817 365.657 228.41V225.72H366.81ZM369.607 231.125H368.455V223.527H369.607V231.125ZM374.881 229.582C374.881 229.937 374.795 230.236 374.622 230.48C374.45 230.725 374.197 230.91 373.865 231.037C373.536 231.161 373.133 231.223 372.654 231.223C372.277 231.223 371.951 231.195 371.678 231.14C371.408 231.088 371.152 231.006 370.911 230.896V229.904C371.168 230.025 371.456 230.129 371.775 230.217C372.098 230.305 372.402 230.349 372.688 230.349C373.066 230.349 373.338 230.29 373.504 230.173C373.67 230.052 373.753 229.893 373.753 229.694C373.753 229.577 373.719 229.473 373.65 229.382C373.585 229.287 373.462 229.191 373.279 229.094C373.1 228.993 372.837 228.872 372.488 228.732C372.146 228.596 371.858 228.459 371.624 228.322C371.39 228.186 371.212 228.021 371.092 227.829C370.971 227.634 370.911 227.385 370.911 227.082C370.911 226.604 371.1 226.241 371.478 225.993C371.858 225.743 372.361 225.617 372.986 225.617C373.318 225.617 373.631 225.651 373.924 225.72C374.22 225.785 374.51 225.881 374.793 226.008L374.432 226.872C374.188 226.765 373.942 226.677 373.694 226.608C373.45 226.537 373.201 226.501 372.947 226.501C372.651 226.501 372.425 226.547 372.269 226.638C372.116 226.729 372.039 226.859 372.039 227.028C372.039 227.155 372.076 227.263 372.151 227.351C372.226 227.438 372.355 227.526 372.537 227.614C372.723 227.702 372.98 227.811 373.309 227.941C373.631 228.065 373.909 228.195 374.144 228.332C374.381 228.465 374.563 228.63 374.69 228.825C374.817 229.021 374.881 229.273 374.881 229.582ZM378.274 225.617C378.756 225.617 379.17 225.716 379.515 225.915C379.86 226.114 380.125 226.395 380.311 226.76C380.496 227.124 380.589 227.561 380.589 228.068V228.684H376.98C376.993 229.208 377.133 229.611 377.4 229.895C377.671 230.178 378.048 230.319 378.533 230.319C378.878 230.319 379.188 230.287 379.461 230.222C379.738 230.153 380.022 230.054 380.315 229.924V230.856C380.045 230.983 379.77 231.076 379.49 231.135C379.21 231.193 378.875 231.223 378.484 231.223C377.954 231.223 377.487 231.12 377.083 230.915C376.683 230.707 376.368 230.397 376.141 229.987C375.916 229.577 375.804 229.068 375.804 228.459C375.804 227.854 375.906 227.339 376.111 226.916C376.316 226.493 376.604 226.171 376.976 225.949C377.347 225.728 377.78 225.617 378.274 225.617ZM378.274 226.481C377.913 226.481 377.62 226.599 377.396 226.833C377.174 227.067 377.044 227.411 377.005 227.863H379.466C379.463 227.593 379.417 227.354 379.329 227.146C379.244 226.937 379.114 226.774 378.938 226.657C378.766 226.54 378.545 226.481 378.274 226.481Z" fill="black"/>
</g>
</a>
<a href="/guides/logging-events" target="_top">
<g filter="url(#filter3_d_87_325)">
<rect x="170" y="316.25" width="92.25" height="92.25" rx="5" fill="white"/>
<g clip-path="url(#clip3_87_325)">
<path d="M224.505 339.945L223.275 341.795C223.868 342.978 224.159 344.29 224.12 345.613C224.082 346.936 223.716 348.228 223.055 349.375H209.195C208.336 347.885 207.98 346.158 208.18 344.45C208.38 342.742 209.125 341.144 210.304 339.892C211.484 338.641 213.035 337.803 214.729 337.503C216.422 337.202 218.167 337.456 219.705 338.225L221.555 336.995C219.671 335.787 217.437 335.246 215.21 335.458C212.982 335.67 210.89 336.623 209.268 338.164C207.647 339.705 206.588 341.746 206.263 343.96C205.938 346.174 206.365 348.432 207.475 350.375C207.649 350.677 207.9 350.929 208.202 351.104C208.504 351.279 208.846 351.373 209.195 351.375H223.045C223.397 351.376 223.744 351.285 224.049 351.109C224.355 350.933 224.609 350.68 224.785 350.375C225.706 348.779 226.169 346.959 226.121 345.117C226.073 343.275 225.518 341.481 224.515 339.935L224.505 339.945Z" fill="#194B7D"/>
<path d="M214.715 346.785C214.901 346.971 215.121 347.118 215.364 347.219C215.607 347.32 215.867 347.372 216.13 347.372C216.393 347.372 216.653 347.32 216.896 347.219C217.139 347.118 217.359 346.971 217.545 346.785L223.205 338.295L214.715 343.955C214.529 344.141 214.382 344.361 214.281 344.604C214.18 344.847 214.128 345.107 214.128 345.37C214.128 345.633 214.18 345.893 214.281 346.136C214.382 346.379 214.529 346.599 214.715 346.785V346.785Z" fill="#194B7D"/>
</g>
<path d="M200.173 376.375H196.13V369.236H200.173V370.223H197.302V372.161H199.992V373.143H197.302V375.384H200.173V376.375ZM202.834 376.375L200.778 370.97H201.994L203.107 374.144C203.179 374.345 203.244 374.563 203.303 374.798C203.361 375.032 203.402 375.229 203.425 375.389H203.464C203.487 375.223 203.531 375.024 203.596 374.793C203.661 374.559 203.728 374.342 203.796 374.144L204.909 370.97H206.12L204.064 376.375H202.834ZM209.094 370.867C209.576 370.867 209.989 370.966 210.334 371.165C210.679 371.364 210.944 371.645 211.13 372.01C211.315 372.374 211.408 372.811 211.408 373.318V373.934H207.8C207.813 374.458 207.953 374.861 208.22 375.145C208.49 375.428 208.868 375.569 209.353 375.569C209.698 375.569 210.007 375.537 210.28 375.472C210.557 375.403 210.842 375.304 211.135 375.174V376.106C210.865 376.233 210.59 376.326 210.31 376.385C210.03 376.443 209.694 376.473 209.304 376.473C208.773 376.473 208.306 376.37 207.902 376.165C207.502 375.957 207.188 375.647 206.96 375.237C206.735 374.827 206.623 374.318 206.623 373.709C206.623 373.104 206.726 372.589 206.931 372.166C207.136 371.743 207.424 371.421 207.795 371.199C208.166 370.978 208.599 370.867 209.094 370.867ZM209.094 371.731C208.732 371.731 208.439 371.849 208.215 372.083C207.993 372.317 207.863 372.661 207.824 373.113H210.285C210.282 372.843 210.236 372.604 210.148 372.396C210.064 372.187 209.934 372.024 209.758 371.907C209.585 371.79 209.364 371.731 209.094 371.731ZM215.52 370.867C216.128 370.867 216.602 371.025 216.94 371.341C217.282 371.653 217.453 372.156 217.453 372.85V376.375H216.306V373.064C216.306 372.645 216.219 372.33 216.047 372.122C215.874 371.91 215.607 371.805 215.246 371.805C214.722 371.805 214.357 371.966 214.152 372.288C213.951 372.61 213.85 373.077 213.85 373.689V376.375H212.702V370.97H213.596L213.757 371.702H213.82C213.938 371.513 214.082 371.359 214.255 371.238C214.431 371.115 214.626 371.022 214.841 370.96C215.059 370.898 215.285 370.867 215.52 370.867ZM221.071 375.545C221.221 375.545 221.369 375.532 221.516 375.506C221.662 375.477 221.796 375.442 221.916 375.403V376.272C221.789 376.328 221.625 376.375 221.423 376.414C221.221 376.453 221.011 376.473 220.793 376.473C220.487 376.473 220.212 376.422 219.968 376.321C219.724 376.217 219.53 376.04 219.387 375.789C219.243 375.538 219.172 375.192 219.172 374.749V371.844H218.435V371.331L219.226 370.926L219.602 369.769H220.324V370.97H221.872V371.844H220.324V374.734C220.324 375.008 220.393 375.211 220.529 375.345C220.666 375.478 220.847 375.545 221.071 375.545ZM226.647 374.832C226.647 375.187 226.561 375.486 226.389 375.73C226.216 375.975 225.964 376.16 225.632 376.287C225.303 376.411 224.899 376.473 224.421 376.473C224.043 376.473 223.718 376.445 223.444 376.39C223.174 376.338 222.919 376.256 222.678 376.146V375.154C222.935 375.275 223.223 375.379 223.542 375.467C223.864 375.555 224.169 375.599 224.455 375.599C224.833 375.599 225.104 375.54 225.271 375.423C225.437 375.302 225.52 375.143 225.52 374.944C225.52 374.827 225.485 374.723 225.417 374.632C225.352 374.537 225.228 374.441 225.046 374.344C224.867 374.243 224.603 374.122 224.255 373.982C223.913 373.846 223.625 373.709 223.391 373.572C223.156 373.436 222.979 373.271 222.858 373.079C222.738 372.884 222.678 372.635 222.678 372.332C222.678 371.854 222.867 371.491 223.244 371.243C223.625 370.993 224.128 370.867 224.753 370.867C225.085 370.867 225.397 370.901 225.69 370.97C225.987 371.035 226.276 371.131 226.56 371.258L226.198 372.122C225.954 372.015 225.708 371.927 225.461 371.858C225.217 371.787 224.968 371.751 224.714 371.751C224.418 371.751 224.191 371.797 224.035 371.888C223.882 371.979 223.806 372.109 223.806 372.278C223.806 372.405 223.843 372.513 223.918 372.601C223.993 372.688 224.121 372.776 224.304 372.864C224.489 372.952 224.746 373.061 225.075 373.191C225.397 373.315 225.676 373.445 225.91 373.582C226.148 373.715 226.33 373.88 226.457 374.075C226.584 374.271 226.647 374.523 226.647 374.832ZM232.736 369.129C233.104 369.129 233.426 369.189 233.703 369.31C233.983 369.43 234.201 369.606 234.357 369.837C234.514 370.065 234.592 370.343 234.592 370.672C234.592 371.111 234.455 371.482 234.182 371.785C233.908 372.088 233.563 372.358 233.146 372.596L234.831 374.236C234.991 374.018 235.122 373.779 235.227 373.519C235.331 373.255 235.42 372.978 235.495 372.688H236.682C236.581 373.092 236.441 373.491 236.262 373.885C236.083 374.275 235.856 374.633 235.583 374.959L237.033 376.375H235.563L234.841 375.667C234.639 375.83 234.423 375.971 234.191 376.092C233.964 376.212 233.715 376.307 233.444 376.375C233.174 376.44 232.876 376.473 232.551 376.473C232.053 376.473 231.623 376.393 231.262 376.233C230.9 376.074 230.622 375.846 230.427 375.55C230.235 375.25 230.139 374.896 230.139 374.485C230.139 374.144 230.196 373.851 230.31 373.606C230.427 373.359 230.593 373.143 230.808 372.957C231.022 372.768 231.28 372.589 231.579 372.42C231.416 372.234 231.275 372.054 231.154 371.878C231.034 371.702 230.941 371.521 230.876 371.336C230.814 371.147 230.783 370.945 230.783 370.73C230.783 370.398 230.865 370.114 231.027 369.876C231.19 369.635 231.418 369.451 231.711 369.324C232.004 369.194 232.346 369.129 232.736 369.129ZM232.258 373.118C232.069 373.239 231.906 373.361 231.77 373.484C231.633 373.605 231.527 373.738 231.452 373.885C231.381 374.031 231.345 374.202 231.345 374.397C231.345 374.733 231.462 374.998 231.696 375.193C231.934 375.389 232.24 375.486 232.614 375.486C232.943 375.486 233.231 375.438 233.479 375.34C233.729 375.239 233.947 375.114 234.133 374.964L232.258 373.118ZM232.717 370.037C232.486 370.037 232.285 370.097 232.116 370.218C231.95 370.338 231.867 370.525 231.867 370.779C231.867 370.984 231.921 371.178 232.028 371.36C232.139 371.539 232.292 371.733 232.487 371.941C232.829 371.753 233.083 371.567 233.249 371.385C233.418 371.202 233.503 370.991 233.503 370.75C233.503 370.522 233.426 370.346 233.273 370.223C233.12 370.099 232.935 370.037 232.717 370.037ZM198.396 390.375V383.236H199.567V389.379H202.6V390.375H198.396ZM208.503 387.66C208.503 388.109 208.444 388.508 208.327 388.856C208.21 389.205 208.039 389.499 207.814 389.74C207.59 389.978 207.32 390.16 207.004 390.287C206.688 390.411 206.332 390.473 205.935 390.473C205.563 390.473 205.223 390.411 204.914 390.287C204.605 390.16 204.336 389.978 204.108 389.74C203.884 389.499 203.71 389.205 203.586 388.856C203.462 388.508 203.4 388.109 203.4 387.66C203.4 387.064 203.503 386.56 203.708 386.146C203.916 385.73 204.213 385.412 204.597 385.194C204.981 384.976 205.438 384.867 205.969 384.867C206.467 384.867 206.906 384.976 207.287 385.194C207.668 385.412 207.966 385.73 208.181 386.146C208.396 386.563 208.503 387.068 208.503 387.66ZM204.582 387.66C204.582 388.054 204.629 388.391 204.724 388.671C204.821 388.951 204.971 389.166 205.173 389.315C205.375 389.462 205.635 389.535 205.954 389.535C206.273 389.535 206.534 389.462 206.735 389.315C206.937 389.166 207.085 388.951 207.18 388.671C207.274 388.391 207.321 388.054 207.321 387.66C207.321 387.266 207.274 386.933 207.18 386.659C207.085 386.382 206.937 386.173 206.735 386.029C206.534 385.883 206.271 385.81 205.949 385.81C205.474 385.81 205.127 385.969 204.909 386.288C204.691 386.607 204.582 387.064 204.582 387.66ZM211.364 392.777C210.632 392.777 210.07 392.646 209.68 392.382C209.289 392.118 209.094 391.749 209.094 391.273C209.094 390.941 209.198 390.66 209.406 390.429C209.615 390.201 209.912 390.043 210.3 389.955C210.153 389.89 210.026 389.789 209.919 389.652C209.815 389.512 209.763 389.358 209.763 389.188C209.763 388.987 209.82 388.814 209.934 388.671C210.048 388.528 210.218 388.389 210.446 388.256C210.163 388.135 209.935 387.94 209.763 387.67C209.593 387.396 209.509 387.076 209.509 386.708C209.509 386.317 209.592 385.985 209.758 385.712C209.924 385.435 210.166 385.225 210.485 385.082C210.804 384.936 211.19 384.862 211.643 384.862C211.74 384.862 211.846 384.869 211.96 384.882C212.077 384.892 212.185 384.905 212.282 384.921C212.383 384.934 212.46 384.949 212.512 384.965H214.382V385.604L213.464 385.775C213.552 385.899 213.622 386.041 213.674 386.2C213.726 386.356 213.752 386.527 213.752 386.713C213.752 387.273 213.558 387.714 213.171 388.036C212.787 388.355 212.256 388.515 211.579 388.515C211.416 388.508 211.258 388.495 211.105 388.476C210.988 388.547 210.899 388.627 210.837 388.715C210.775 388.799 210.744 388.896 210.744 389.003C210.744 389.091 210.775 389.162 210.837 389.218C210.899 389.27 210.99 389.309 211.11 389.335C211.234 389.361 211.384 389.374 211.56 389.374H212.492C213.085 389.374 213.537 389.499 213.85 389.75C214.162 390.001 214.318 390.368 214.318 390.854C214.318 391.469 214.064 391.942 213.557 392.274C213.049 392.61 212.318 392.777 211.364 392.777ZM211.408 391.972C211.809 391.972 212.146 391.933 212.419 391.854C212.692 391.776 212.899 391.664 213.039 391.518C213.179 391.374 213.249 391.203 213.249 391.005C213.249 390.829 213.205 390.694 213.117 390.6C213.029 390.505 212.897 390.44 212.722 390.404C212.546 390.368 212.328 390.351 212.067 390.351H211.218C211.006 390.351 210.819 390.383 210.656 390.448C210.493 390.517 210.367 390.614 210.275 390.741C210.188 390.868 210.144 391.021 210.144 391.2C210.144 391.448 210.253 391.638 210.471 391.771C210.692 391.905 211.005 391.972 211.408 391.972ZM211.633 387.763C211.968 387.763 212.217 387.672 212.38 387.489C212.543 387.304 212.624 387.043 212.624 386.708C212.624 386.343 212.539 386.07 212.37 385.888C212.204 385.705 211.957 385.614 211.628 385.614C211.306 385.614 211.06 385.707 210.891 385.893C210.725 386.078 210.642 386.353 210.642 386.718C210.642 387.047 210.725 387.304 210.891 387.489C211.06 387.672 211.307 387.763 211.633 387.763ZM216.911 392.777C216.179 392.777 215.617 392.646 215.227 392.382C214.836 392.118 214.641 391.749 214.641 391.273C214.641 390.941 214.745 390.66 214.953 390.429C215.161 390.201 215.459 390.043 215.847 389.955C215.7 389.89 215.573 389.789 215.466 389.652C215.362 389.512 215.31 389.358 215.31 389.188C215.31 388.987 215.367 388.814 215.48 388.671C215.594 388.528 215.765 388.389 215.993 388.256C215.71 388.135 215.482 387.94 215.31 387.67C215.14 387.396 215.056 387.076 215.056 386.708C215.056 386.317 215.139 385.985 215.305 385.712C215.471 385.435 215.713 385.225 216.032 385.082C216.351 384.936 216.737 384.862 217.189 384.862C217.287 384.862 217.393 384.869 217.507 384.882C217.624 384.892 217.731 384.905 217.829 384.921C217.93 384.934 218.007 384.949 218.059 384.965H219.929V385.604L219.011 385.775C219.099 385.899 219.169 386.041 219.221 386.2C219.273 386.356 219.299 386.527 219.299 386.713C219.299 387.273 219.105 387.714 218.718 388.036C218.334 388.355 217.803 388.515 217.126 388.515C216.963 388.508 216.805 388.495 216.652 388.476C216.535 388.547 216.446 388.627 216.384 388.715C216.322 388.799 216.291 388.896 216.291 389.003C216.291 389.091 216.322 389.162 216.384 389.218C216.446 389.27 216.537 389.309 216.657 389.335C216.781 389.361 216.931 389.374 217.106 389.374H218.039C218.632 389.374 219.084 389.499 219.396 389.75C219.709 390.001 219.865 390.368 219.865 390.854C219.865 391.469 219.611 391.942 219.104 392.274C218.596 392.61 217.865 392.777 216.911 392.777ZM216.955 391.972C217.355 391.972 217.692 391.933 217.966 391.854C218.239 391.776 218.446 391.664 218.586 391.518C218.726 391.374 218.796 391.203 218.796 391.005C218.796 390.829 218.752 390.694 218.664 390.6C218.576 390.505 218.444 390.44 218.269 390.404C218.093 390.368 217.875 390.351 217.614 390.351H216.765C216.553 390.351 216.366 390.383 216.203 390.448C216.04 390.517 215.913 390.614 215.822 390.741C215.734 390.868 215.69 391.021 215.69 391.2C215.69 391.448 215.799 391.638 216.018 391.771C216.239 391.905 216.551 391.972 216.955 391.972ZM217.18 387.763C217.515 387.763 217.764 387.672 217.927 387.489C218.09 387.304 218.171 387.043 218.171 386.708C218.171 386.343 218.086 386.07 217.917 385.888C217.751 385.705 217.504 385.614 217.175 385.614C216.853 385.614 216.607 385.707 216.438 385.893C216.271 386.078 216.188 386.353 216.188 386.718C216.188 387.047 216.271 387.304 216.438 387.489C216.607 387.672 216.854 387.763 217.18 387.763ZM222.062 384.97V390.375H220.915V384.97H222.062ZM221.496 382.899C221.672 382.899 221.823 382.947 221.95 383.041C222.08 383.135 222.146 383.298 222.146 383.529C222.146 383.757 222.08 383.92 221.95 384.018C221.823 384.112 221.672 384.159 221.496 384.159C221.314 384.159 221.159 384.112 221.032 384.018C220.909 383.92 220.847 383.757 220.847 383.529C220.847 383.298 220.909 383.135 221.032 383.041C221.159 382.947 221.314 382.899 221.496 382.899ZM226.525 384.867C227.134 384.867 227.608 385.025 227.946 385.341C228.288 385.653 228.459 386.156 228.459 386.85V390.375H227.312V387.064C227.312 386.645 227.225 386.33 227.053 386.122C226.88 385.91 226.613 385.805 226.252 385.805C225.728 385.805 225.363 385.966 225.158 386.288C224.956 386.61 224.855 387.077 224.855 387.689V390.375H223.708V384.97H224.602L224.763 385.702H224.826C224.943 385.513 225.088 385.359 225.261 385.238C225.437 385.115 225.632 385.022 225.847 384.96C226.065 384.898 226.291 384.867 226.525 384.867ZM231.608 392.777C230.876 392.777 230.314 392.646 229.924 392.382C229.533 392.118 229.338 391.749 229.338 391.273C229.338 390.941 229.442 390.66 229.65 390.429C229.859 390.201 230.157 390.043 230.544 389.955C230.397 389.89 230.271 389.789 230.163 389.652C230.059 389.512 230.007 389.358 230.007 389.188C230.007 388.987 230.064 388.814 230.178 388.671C230.292 388.528 230.463 388.389 230.69 388.256C230.407 388.135 230.179 387.94 230.007 387.67C229.838 387.396 229.753 387.076 229.753 386.708C229.753 386.317 229.836 385.985 230.002 385.712C230.168 385.435 230.41 385.225 230.729 385.082C231.049 384.936 231.434 384.862 231.887 384.862C231.984 384.862 232.09 384.869 232.204 384.882C232.321 384.892 232.429 384.905 232.526 384.921C232.627 384.934 232.704 384.949 232.756 384.965H234.626V385.604L233.708 385.775C233.796 385.899 233.866 386.041 233.918 386.2C233.97 386.356 233.996 386.527 233.996 386.713C233.996 387.273 233.802 387.714 233.415 388.036C233.031 388.355 232.5 388.515 231.823 388.515C231.66 388.508 231.503 388.495 231.35 388.476C231.232 388.547 231.143 388.627 231.081 388.715C231.019 388.799 230.988 388.896 230.988 389.003C230.988 389.091 231.019 389.162 231.081 389.218C231.143 389.27 231.234 389.309 231.354 389.335C231.478 389.361 231.628 389.374 231.804 389.374H232.736C233.329 389.374 233.781 389.499 234.094 389.75C234.406 390.001 234.562 390.368 234.562 390.854C234.562 391.469 234.309 391.942 233.801 392.274C233.293 392.61 232.562 392.777 231.608 392.777ZM231.652 391.972C232.053 391.972 232.39 391.933 232.663 391.854C232.937 391.776 233.143 391.664 233.283 391.518C233.423 391.374 233.493 391.203 233.493 391.005C233.493 390.829 233.449 390.694 233.361 390.6C233.273 390.505 233.142 390.44 232.966 390.404C232.79 390.368 232.572 390.351 232.312 390.351H231.462C231.25 390.351 231.063 390.383 230.9 390.448C230.738 390.517 230.611 390.614 230.52 390.741C230.432 390.868 230.388 391.021 230.388 391.2C230.388 391.448 230.497 391.638 230.715 391.771C230.936 391.905 231.249 391.972 231.652 391.972ZM231.877 387.763C232.212 387.763 232.461 387.672 232.624 387.489C232.787 387.304 232.868 387.043 232.868 386.708C232.868 386.343 232.784 386.07 232.614 385.888C232.448 385.705 232.201 385.614 231.872 385.614C231.55 385.614 231.304 385.707 231.135 385.893C230.969 386.078 230.886 386.353 230.886 386.718C230.886 387.047 230.969 387.304 231.135 387.489C231.304 387.672 231.551 387.763 231.877 387.763Z" fill="black"/>
</g>
</a>
<a href="/" target="_top">
<g filter="url(#filter4_d_87_325)">
<rect x="18" y="164.25" width="92.25" height="92.25" rx="5" fill="#194B7D"/>
<g clip-path="url(#clip4_87_325)">
<path d="M63.125 207.375H62.125L63.125 200.375H59.625C58.745 200.375 59.295 199.625 59.315 199.595C60.605 197.315 62.545 193.915 65.135 189.375H66.135L65.135 196.375H68.645C69.045 196.375 69.265 196.565 69.045 197.035C65.095 203.925 63.125 207.375 63.125 207.375Z" fill="white"/>
</g>
<path d="M39.9434 227.498H42.6094V231.082C42.235 231.206 41.8477 231.302 41.4473 231.37C41.0469 231.438 40.5977 231.473 40.0996 231.473C39.3737 231.473 38.7585 231.329 38.2539 231.043C37.7526 230.753 37.3717 230.335 37.1113 229.788C36.8509 229.238 36.7207 228.576 36.7207 227.801C36.7207 227.055 36.8656 226.409 37.1553 225.862C37.445 225.312 37.8665 224.887 38.4199 224.588C38.9733 224.285 39.6439 224.134 40.4316 224.134C40.819 224.134 41.1934 224.173 41.5547 224.251C41.9193 224.326 42.2529 224.43 42.5557 224.563L42.1455 225.53C41.9046 225.416 41.6344 225.32 41.335 225.242C41.0355 225.164 40.7246 225.125 40.4023 225.125C39.8913 225.125 39.4502 225.236 39.0791 225.457C38.7113 225.678 38.4281 225.991 38.2295 226.395C38.0309 226.795 37.9316 227.269 37.9316 227.815C37.9316 228.346 38.0114 228.812 38.1709 229.212C38.3304 229.612 38.5794 229.925 38.918 230.149C39.2598 230.371 39.7008 230.481 40.2412 230.481C40.5114 230.481 40.7409 230.467 40.9297 230.438C41.1185 230.408 41.2926 230.376 41.4521 230.34V228.499H39.9434V227.498ZM46.3545 225.867C46.8363 225.867 47.2497 225.966 47.5947 226.165C47.9398 226.364 48.2051 226.645 48.3906 227.01C48.5762 227.374 48.6689 227.811 48.6689 228.318V228.934H45.0605C45.0736 229.458 45.2135 229.861 45.4805 230.145C45.7507 230.428 46.1283 230.569 46.6133 230.569C46.9583 230.569 47.2676 230.537 47.541 230.472C47.8177 230.403 48.1025 230.304 48.3955 230.174V231.106C48.1253 231.233 47.8503 231.326 47.5703 231.385C47.2904 231.443 46.9551 231.473 46.5645 231.473C46.0339 231.473 45.5667 231.37 45.1631 231.165C44.7627 230.957 44.4486 230.647 44.2207 230.237C43.9961 229.827 43.8838 229.318 43.8838 228.709C43.8838 228.104 43.9863 227.589 44.1914 227.166C44.3965 226.743 44.6846 226.421 45.0557 226.199C45.4268 225.978 45.8597 225.867 46.3545 225.867ZM46.3545 226.731C45.9932 226.731 45.7002 226.849 45.4756 227.083C45.2542 227.317 45.124 227.661 45.085 228.113H47.5459C47.5426 227.843 47.4971 227.604 47.4092 227.396C47.3245 227.187 47.1943 227.024 47.0186 226.907C46.846 226.79 46.6247 226.731 46.3545 226.731ZM51.9746 230.545C52.1243 230.545 52.2725 230.532 52.4189 230.506C52.5654 230.477 52.6989 230.442 52.8193 230.403V231.272C52.6924 231.328 52.528 231.375 52.3262 231.414C52.1243 231.453 51.9144 231.473 51.6963 231.473C51.3903 231.473 51.1152 231.422 50.8711 231.321C50.627 231.217 50.4333 231.04 50.29 230.789C50.1468 230.538 50.0752 230.192 50.0752 229.749V226.844H49.3379V226.331L50.1289 225.926L50.5049 224.769H51.2275V225.97H52.7754V226.844H51.2275V229.734C51.2275 230.008 51.2959 230.211 51.4326 230.345C51.5693 230.478 51.75 230.545 51.9746 230.545ZM60.7539 229.432C60.7539 229.855 60.6497 230.219 60.4414 230.525C60.2363 230.831 59.9401 231.066 59.5527 231.229C59.1686 231.391 58.7096 231.473 58.1758 231.473C57.9154 231.473 57.6663 231.458 57.4287 231.429C57.1911 231.399 56.9665 231.357 56.7549 231.302C56.5465 231.243 56.3561 231.173 56.1836 231.092V229.988C56.4733 230.115 56.7972 230.231 57.1553 230.335C57.5133 230.436 57.8779 230.486 58.249 230.486C58.5518 230.486 58.8024 230.447 59.001 230.369C59.2028 230.288 59.3525 230.174 59.4502 230.027C59.5479 229.878 59.5967 229.703 59.5967 229.505C59.5967 229.293 59.5397 229.114 59.4258 228.968C59.3118 228.821 59.1393 228.688 58.9082 228.567C58.6803 228.444 58.3939 228.312 58.0488 228.172C57.8145 228.077 57.5898 227.97 57.375 227.85C57.1634 227.729 56.9746 227.588 56.8086 227.425C56.6426 227.262 56.5107 227.07 56.4131 226.849C56.3187 226.624 56.2715 226.36 56.2715 226.058C56.2715 225.654 56.3675 225.309 56.5596 225.022C56.7549 224.736 57.0283 224.516 57.3799 224.363C57.7347 224.21 58.1481 224.134 58.6201 224.134C58.9945 224.134 59.346 224.173 59.6748 224.251C60.0068 224.329 60.3324 224.44 60.6514 224.583L60.2803 225.525C59.9873 225.405 59.7025 225.309 59.4258 225.237C59.1523 225.166 58.8724 225.13 58.5859 225.13C58.3385 225.13 58.1286 225.167 57.9561 225.242C57.7835 225.317 57.6517 225.423 57.5605 225.56C57.4727 225.693 57.4287 225.853 57.4287 226.038C57.4287 226.246 57.4792 226.422 57.5801 226.565C57.6842 226.705 57.8438 226.834 58.0586 226.951C58.2767 227.068 58.5566 227.199 58.8984 227.342C59.2923 227.505 59.626 227.675 59.8994 227.854C60.1761 228.034 60.3877 228.248 60.5342 228.499C60.6807 228.746 60.7539 229.057 60.7539 229.432ZM64.0254 230.545C64.1751 230.545 64.3232 230.532 64.4697 230.506C64.6162 230.477 64.7497 230.442 64.8701 230.403V231.272C64.7432 231.328 64.5788 231.375 64.377 231.414C64.1751 231.453 63.9652 231.473 63.7471 231.473C63.4411 231.473 63.166 231.422 62.9219 231.321C62.6777 231.217 62.484 231.04 62.3408 230.789C62.1976 230.538 62.126 230.192 62.126 229.749V226.844H61.3887V226.331L62.1797 225.926L62.5557 224.769H63.2783V225.97H64.8262V226.844H63.2783V229.734C63.2783 230.008 63.3467 230.211 63.4834 230.345C63.6201 230.478 63.8008 230.545 64.0254 230.545ZM68.0879 225.867C68.7715 225.867 69.2874 226.019 69.6357 226.321C69.9873 226.624 70.1631 227.096 70.1631 227.737V231.375H69.3477L69.1279 230.608H69.0889C68.9359 230.804 68.778 230.965 68.6152 231.092C68.4525 231.219 68.2637 231.313 68.0488 231.375C67.8372 231.44 67.5785 231.473 67.2725 231.473C66.9502 231.473 66.6621 231.414 66.4082 231.297C66.1543 231.176 65.9541 230.994 65.8076 230.75C65.6611 230.506 65.5879 230.197 65.5879 229.822C65.5879 229.266 65.7946 228.847 66.208 228.567C66.6247 228.287 67.2529 228.133 68.0928 228.104L69.0303 228.069V227.786C69.0303 227.412 68.9424 227.145 68.7666 226.985C68.5941 226.826 68.3499 226.746 68.0342 226.746C67.764 226.746 67.502 226.785 67.248 226.863C66.9941 226.941 66.7467 227.037 66.5059 227.151L66.1348 226.341C66.3984 226.201 66.6979 226.087 67.0332 225.999C67.3717 225.911 67.7233 225.867 68.0879 225.867ZM69.0254 228.792L68.3271 228.816C67.7542 228.836 67.3522 228.934 67.1211 229.109C66.89 229.285 66.7744 229.526 66.7744 229.832C66.7744 230.099 66.8542 230.294 67.0137 230.418C67.1732 230.538 67.3831 230.599 67.6436 230.599C68.0407 230.599 68.3695 230.486 68.6299 230.262C68.8936 230.034 69.0254 229.7 69.0254 229.261V228.792ZM74.5088 225.867C74.5999 225.867 74.6992 225.872 74.8066 225.882C74.9141 225.892 75.0068 225.905 75.085 225.921L74.9775 226.995C74.9092 226.976 74.8245 226.961 74.7236 226.951C74.626 226.941 74.5381 226.937 74.46 226.937C74.2549 226.937 74.0596 226.971 73.874 227.039C73.6885 227.104 73.5241 227.205 73.3809 227.342C73.2376 227.475 73.1253 227.643 73.0439 227.845C72.9626 228.047 72.9219 228.281 72.9219 228.548V231.375H71.7695V225.97H72.668L72.8242 226.922H72.8779C72.9854 226.73 73.1188 226.554 73.2783 226.395C73.4378 226.235 73.6201 226.108 73.8252 226.014C74.0335 225.916 74.2614 225.867 74.5088 225.867ZM78.0977 230.545C78.2474 230.545 78.3955 230.532 78.542 230.506C78.6885 230.477 78.8219 230.442 78.9424 230.403V231.272C78.8154 231.328 78.651 231.375 78.4492 231.414C78.2474 231.453 78.0374 231.473 77.8193 231.473C77.5133 231.473 77.2383 231.422 76.9941 231.321C76.75 231.217 76.5563 231.04 76.4131 230.789C76.2699 230.538 76.1982 230.192 76.1982 229.749V226.844H75.4609V226.331L76.252 225.926L76.6279 224.769H77.3506V225.97H78.8984V226.844H77.3506V229.734C77.3506 230.008 77.4189 230.211 77.5557 230.345C77.6924 230.478 77.873 230.545 78.0977 230.545ZM82.1943 225.867C82.6761 225.867 83.0895 225.966 83.4346 226.165C83.7796 226.364 84.0449 226.645 84.2305 227.01C84.416 227.374 84.5088 227.811 84.5088 228.318V228.934H80.9004C80.9134 229.458 81.0534 229.861 81.3203 230.145C81.5905 230.428 81.9681 230.569 82.4531 230.569C82.7982 230.569 83.1074 230.537 83.3809 230.472C83.6576 230.403 83.9424 230.304 84.2354 230.174V231.106C83.9652 231.233 83.6901 231.326 83.4102 231.385C83.1302 231.443 82.7949 231.473 82.4043 231.473C81.8737 231.473 81.4066 231.37 81.0029 231.165C80.6025 230.957 80.2884 230.647 80.0605 230.237C79.8359 229.827 79.7236 229.318 79.7236 228.709C79.7236 228.104 79.8262 227.589 80.0312 227.166C80.2363 226.743 80.5244 226.421 80.8955 226.199C81.2666 225.978 81.6995 225.867 82.1943 225.867ZM82.1943 226.731C81.833 226.731 81.54 226.849 81.3154 227.083C81.0941 227.317 80.9639 227.661 80.9248 228.113H83.3857C83.3825 227.843 83.3369 227.604 83.249 227.396C83.1644 227.187 83.0342 227.024 82.8584 226.907C82.6859 226.79 82.4645 226.731 82.1943 226.731ZM87.6191 231.473C86.9746 231.473 86.457 231.238 86.0664 230.77C85.679 230.298 85.4854 229.603 85.4854 228.685C85.4854 227.757 85.6823 227.055 86.0762 226.58C86.4733 226.105 86.9958 225.867 87.6436 225.867C87.917 225.867 88.1562 225.905 88.3613 225.979C88.5664 226.051 88.7422 226.149 88.8887 226.272C89.0384 226.396 89.1654 226.535 89.2695 226.688H89.3232C89.307 226.587 89.2874 226.442 89.2646 226.253C89.2451 226.061 89.2354 225.883 89.2354 225.721V223.777H90.3877V231.375H89.4893L89.2842 230.638H89.2354C89.1377 230.794 89.014 230.936 88.8643 231.062C88.7178 231.186 88.542 231.285 88.3369 231.36C88.1351 231.435 87.8958 231.473 87.6191 231.473ZM87.9414 230.54C88.4329 230.54 88.7796 230.398 88.9814 230.115C89.1833 229.832 89.2874 229.407 89.2939 228.841V228.689C89.2939 228.084 89.1963 227.62 89.001 227.298C88.8057 226.972 88.4492 226.81 87.9316 226.81C87.5182 226.81 87.2025 226.977 86.9844 227.312C86.7695 227.645 86.6621 228.108 86.6621 228.704C86.6621 229.3 86.7695 229.756 86.9844 230.071C87.2025 230.384 87.5215 230.54 87.9414 230.54Z" fill="white"/>
</g>
</a>
<a href="/insights" target="_top">
<g filter="url(#filter5_d_87_325)">
<rect x="474" y="164.25" width="92.25" height="92.25" rx="5" fill="white"/>
<g clip-path="url(#clip5_87_325)">
<path d="M515.125 204.375H517.125V192.375H515.125V204.375ZM519.125 208.375H521.125V188.375H519.125V208.375ZM511.125 200.375H513.125V196.375H511.125V200.375ZM523.125 204.375H525.125V192.375H523.125V204.375ZM527.125 196.375V200.375H529.125V196.375H527.125Z" fill="#194B7D"/>
</g>
<path d="M499.168 224.236V228.855C499.168 229.354 499.062 229.799 498.851 230.193C498.642 230.587 498.326 230.9 497.903 231.131C497.48 231.359 496.948 231.473 496.307 231.473C495.392 231.473 494.695 231.233 494.217 230.755C493.742 230.273 493.504 229.633 493.504 228.836V224.236H494.676V228.733C494.676 229.329 494.816 229.769 495.096 230.052C495.376 230.335 495.794 230.477 496.351 230.477C496.735 230.477 497.047 230.41 497.288 230.276C497.532 230.14 497.711 229.941 497.825 229.681C497.942 229.417 498.001 229.1 498.001 228.729V224.236H499.168ZM502.029 231.375H500.877V223.777H502.029V231.375ZM505.682 230.545C505.831 230.545 505.979 230.532 506.126 230.506C506.272 230.477 506.406 230.442 506.526 230.403V231.272C506.399 231.328 506.235 231.375 506.033 231.414C505.831 231.453 505.621 231.473 505.403 231.473C505.097 231.473 504.822 231.422 504.578 231.321C504.334 231.217 504.14 231.04 503.997 230.789C503.854 230.538 503.782 230.192 503.782 229.749V226.844H503.045V226.331L503.836 225.926L504.212 224.769H504.935V225.97H506.482V226.844H504.935V229.734C504.935 230.008 505.003 230.211 505.14 230.345C505.276 230.478 505.457 230.545 505.682 230.545ZM510.364 225.867C510.455 225.867 510.555 225.872 510.662 225.882C510.77 225.892 510.862 225.905 510.94 225.921L510.833 226.995C510.765 226.976 510.68 226.961 510.579 226.951C510.481 226.941 510.394 226.937 510.315 226.937C510.11 226.937 509.915 226.971 509.729 227.039C509.544 227.104 509.38 227.205 509.236 227.342C509.093 227.475 508.981 227.643 508.899 227.845C508.818 228.047 508.777 228.281 508.777 228.548V231.375H507.625V225.97H508.523L508.68 226.922H508.733C508.841 226.73 508.974 226.554 509.134 226.395C509.293 226.235 509.476 226.108 509.681 226.014C509.889 225.916 510.117 225.867 510.364 225.867ZM514.061 225.867C514.744 225.867 515.26 226.019 515.608 226.321C515.96 226.624 516.136 227.096 516.136 227.737V231.375H515.32L515.101 230.608H515.062C514.909 230.804 514.751 230.965 514.588 231.092C514.425 231.219 514.236 231.313 514.021 231.375C513.81 231.44 513.551 231.473 513.245 231.473C512.923 231.473 512.635 231.414 512.381 231.297C512.127 231.176 511.927 230.994 511.78 230.75C511.634 230.506 511.561 230.197 511.561 229.822C511.561 229.266 511.767 228.847 512.181 228.567C512.597 228.287 513.226 228.133 514.065 228.104L515.003 228.069V227.786C515.003 227.412 514.915 227.145 514.739 226.985C514.567 226.826 514.323 226.746 514.007 226.746C513.737 226.746 513.475 226.785 513.221 226.863C512.967 226.941 512.719 227.037 512.479 227.151L512.107 226.341C512.371 226.201 512.671 226.087 513.006 225.999C513.344 225.911 513.696 225.867 514.061 225.867ZM514.998 228.792L514.3 228.816C513.727 228.836 513.325 228.934 513.094 229.109C512.863 229.285 512.747 229.526 512.747 229.832C512.747 230.099 512.827 230.294 512.986 230.418C513.146 230.538 513.356 230.599 513.616 230.599C514.013 230.599 514.342 230.486 514.603 230.262C514.866 230.034 514.998 229.7 514.998 229.261V228.792ZM521.375 229.832C521.375 230.187 521.289 230.486 521.116 230.73C520.944 230.975 520.691 231.16 520.359 231.287C520.031 231.411 519.627 231.473 519.148 231.473C518.771 231.473 518.445 231.445 518.172 231.39C517.902 231.338 517.646 231.256 517.405 231.146V230.154C517.662 230.275 517.951 230.379 518.27 230.467C518.592 230.555 518.896 230.599 519.183 230.599C519.56 230.599 519.832 230.54 519.998 230.423C520.164 230.302 520.247 230.143 520.247 229.944C520.247 229.827 520.213 229.723 520.145 229.632C520.079 229.537 519.956 229.441 519.773 229.344C519.594 229.243 519.331 229.122 518.982 228.982C518.641 228.846 518.353 228.709 518.118 228.572C517.884 228.436 517.706 228.271 517.586 228.079C517.465 227.884 517.405 227.635 517.405 227.332C517.405 226.854 517.594 226.491 517.972 226.243C518.353 225.993 518.855 225.867 519.48 225.867C519.812 225.867 520.125 225.901 520.418 225.97C520.714 226.035 521.004 226.131 521.287 226.258L520.926 227.122C520.682 227.015 520.436 226.927 520.188 226.858C519.944 226.787 519.695 226.751 519.441 226.751C519.145 226.751 518.919 226.797 518.763 226.888C518.61 226.979 518.533 227.109 518.533 227.278C518.533 227.405 518.571 227.513 518.646 227.601C518.72 227.688 518.849 227.776 519.031 227.864C519.217 227.952 519.474 228.061 519.803 228.191C520.125 228.315 520.403 228.445 520.638 228.582C520.875 228.715 521.058 228.88 521.185 229.075C521.312 229.271 521.375 229.523 521.375 229.832ZM527.4 228.66C527.4 229.109 527.342 229.508 527.225 229.856C527.107 230.205 526.937 230.499 526.712 230.74C526.487 230.978 526.217 231.16 525.901 231.287C525.586 231.411 525.229 231.473 524.832 231.473C524.461 231.473 524.121 231.411 523.812 231.287C523.502 231.16 523.234 230.978 523.006 230.74C522.781 230.499 522.607 230.205 522.483 229.856C522.36 229.508 522.298 229.109 522.298 228.66C522.298 228.064 522.4 227.56 522.605 227.146C522.814 226.73 523.11 226.412 523.494 226.194C523.878 225.976 524.336 225.867 524.866 225.867C525.364 225.867 525.804 225.976 526.185 226.194C526.565 226.412 526.863 226.73 527.078 227.146C527.293 227.563 527.4 228.068 527.4 228.66ZM523.479 228.66C523.479 229.054 523.527 229.391 523.621 229.671C523.719 229.951 523.868 230.166 524.07 230.315C524.272 230.462 524.533 230.535 524.852 230.535C525.171 230.535 525.431 230.462 525.633 230.315C525.835 230.166 525.983 229.951 526.077 229.671C526.172 229.391 526.219 229.054 526.219 228.66C526.219 228.266 526.172 227.933 526.077 227.659C525.983 227.382 525.835 227.173 525.633 227.029C525.431 226.883 525.169 226.81 524.847 226.81C524.371 226.81 524.025 226.969 523.807 227.288C523.589 227.607 523.479 228.064 523.479 228.66ZM533.431 225.97V231.375H532.527L532.371 230.647H532.308C532.194 230.833 532.049 230.988 531.873 231.111C531.697 231.232 531.502 231.321 531.287 231.38C531.072 231.442 530.846 231.473 530.608 231.473C530.201 231.473 529.853 231.404 529.563 231.268C529.277 231.128 529.057 230.913 528.904 230.623C528.751 230.333 528.675 229.959 528.675 229.5V225.97H529.827V229.285C529.827 229.705 529.912 230.019 530.081 230.228C530.254 230.436 530.521 230.54 530.882 230.54C531.23 230.54 531.507 230.468 531.712 230.325C531.917 230.182 532.062 229.97 532.146 229.69C532.234 229.41 532.278 229.067 532.278 228.66V225.97H533.431ZM537.894 225.867C538.502 225.867 538.976 226.025 539.314 226.341C539.656 226.653 539.827 227.156 539.827 227.85V231.375H538.68V228.064C538.68 227.645 538.593 227.33 538.421 227.122C538.248 226.91 537.981 226.805 537.62 226.805C537.096 226.805 536.731 226.966 536.526 227.288C536.325 227.61 536.224 228.077 536.224 228.689V231.375H535.076V225.97H535.97L536.131 226.702H536.194C536.312 226.513 536.456 226.359 536.629 226.238C536.805 226.115 537 226.022 537.215 225.96C537.433 225.898 537.659 225.867 537.894 225.867ZM543.25 231.473C542.605 231.473 542.088 231.238 541.697 230.77C541.31 230.298 541.116 229.603 541.116 228.685C541.116 227.757 541.313 227.055 541.707 226.58C542.104 226.105 542.627 225.867 543.274 225.867C543.548 225.867 543.787 225.905 543.992 225.979C544.197 226.051 544.373 226.149 544.52 226.272C544.669 226.396 544.796 226.535 544.9 226.688H544.954C544.938 226.587 544.918 226.442 544.896 226.253C544.876 226.061 544.866 225.883 544.866 225.721V223.777H546.019V231.375H545.12L544.915 230.638H544.866C544.769 230.794 544.645 230.936 544.495 231.062C544.349 231.186 544.173 231.285 543.968 231.36C543.766 231.435 543.527 231.473 543.25 231.473ZM543.572 230.54C544.064 230.54 544.41 230.398 544.612 230.115C544.814 229.832 544.918 229.407 544.925 228.841V228.689C544.925 228.084 544.827 227.62 544.632 227.298C544.437 226.972 544.08 226.81 543.562 226.81C543.149 226.81 542.833 226.977 542.615 227.312C542.4 227.645 542.293 228.108 542.293 228.704C542.293 229.3 542.4 229.756 542.615 230.071C542.833 230.384 543.152 230.54 543.572 230.54Z" fill="black"/>
</g>
</a>
<a href="/experiments-plus" target="_top">
<g filter="url(#filter6_d_87_325)">
<rect x="170.25" y="164" width="92.25" height="92.25" rx="5" fill="white"/>
<g clip-path="url(#clip6_87_325)">
<path d="M217.375 190.455L222.375 197.125H210.375L215.375 190.455V185.125H217.375V190.455ZM220.335 183.125H212.415C211.995 183.125 211.765 183.605 212.025 183.935L213.375 185.625V189.795L207.575 197.525C207.085 198.185 207.555 199.125 208.375 199.125H224.375C225.195 199.125 225.665 198.185 225.175 197.525L219.375 189.795V185.625L220.725 183.935C220.985 183.605 220.755 183.125 220.335 183.125Z" fill="#194B7D"/>
</g>
<path d="M191.014 224.125H186.971V216.986H191.014V217.973H188.143V219.911H190.833V220.893H188.143V223.134H191.014V224.125ZM193.636 221.361L191.829 218.72H193.138L194.373 220.619L195.613 218.72H196.917L195.101 221.361L197.01 224.125H195.696L194.373 222.099L193.045 224.125H191.741L193.636 221.361ZM200.721 218.617C201.362 218.617 201.876 218.852 202.264 219.32C202.654 219.789 202.85 220.486 202.85 221.41C202.85 222.022 202.758 222.538 202.576 222.958C202.397 223.375 202.145 223.69 201.819 223.905C201.497 224.117 201.121 224.223 200.691 224.223C200.418 224.223 200.18 224.187 199.979 224.115C199.777 224.044 199.604 223.951 199.461 223.837C199.318 223.72 199.197 223.593 199.1 223.456H199.031C199.048 223.586 199.062 223.731 199.075 223.891C199.091 224.047 199.1 224.19 199.1 224.32V226.522H197.947V218.72H198.885L199.046 219.467H199.1C199.201 219.314 199.323 219.172 199.466 219.042C199.612 218.912 199.788 218.809 199.993 218.734C200.201 218.656 200.444 218.617 200.721 218.617ZM200.413 219.555C200.097 219.555 199.843 219.618 199.651 219.745C199.463 219.869 199.324 220.056 199.236 220.307C199.152 220.557 199.106 220.871 199.1 221.249V221.41C199.1 221.811 199.14 222.151 199.222 222.431C199.306 222.707 199.445 222.919 199.637 223.065C199.832 223.209 200.096 223.28 200.428 223.28C200.708 223.28 200.939 223.204 201.121 223.051C201.307 222.898 201.445 222.68 201.536 222.396C201.627 222.113 201.673 221.78 201.673 221.396C201.673 220.813 201.569 220.36 201.36 220.038C201.155 219.716 200.84 219.555 200.413 219.555ZM206.331 218.617C206.813 218.617 207.226 218.716 207.571 218.915C207.916 219.114 208.182 219.395 208.367 219.76C208.553 220.124 208.646 220.561 208.646 221.068V221.684H205.037C205.05 222.208 205.19 222.611 205.457 222.895C205.727 223.178 206.105 223.319 206.59 223.319C206.935 223.319 207.244 223.287 207.518 223.222C207.794 223.153 208.079 223.054 208.372 222.924V223.856C208.102 223.983 207.827 224.076 207.547 224.135C207.267 224.193 206.932 224.223 206.541 224.223C206.01 224.223 205.543 224.12 205.14 223.915C204.739 223.707 204.425 223.397 204.197 222.987C203.973 222.577 203.86 222.068 203.86 221.459C203.86 220.854 203.963 220.339 204.168 219.916C204.373 219.493 204.661 219.171 205.032 218.949C205.403 218.728 205.836 218.617 206.331 218.617ZM206.331 219.481C205.97 219.481 205.677 219.599 205.452 219.833C205.231 220.067 205.101 220.411 205.062 220.863H207.522C207.519 220.593 207.474 220.354 207.386 220.146C207.301 219.937 207.171 219.774 206.995 219.657C206.823 219.54 206.601 219.481 206.331 219.481ZM212.679 218.617C212.77 218.617 212.869 218.622 212.977 218.632C213.084 218.642 213.177 218.655 213.255 218.671L213.147 219.745C213.079 219.726 212.994 219.711 212.894 219.701C212.796 219.691 212.708 219.687 212.63 219.687C212.425 219.687 212.229 219.721 212.044 219.789C211.858 219.854 211.694 219.955 211.551 220.092C211.408 220.225 211.295 220.393 211.214 220.595C211.132 220.797 211.092 221.031 211.092 221.298V224.125H209.939V218.72H210.838L210.994 219.672H211.048C211.155 219.48 211.289 219.304 211.448 219.145C211.608 218.985 211.79 218.858 211.995 218.764C212.203 218.666 212.431 218.617 212.679 218.617ZM215.403 218.72V224.125H214.256V218.72H215.403ZM214.837 216.649C215.013 216.649 215.164 216.697 215.291 216.791C215.421 216.885 215.486 217.048 215.486 217.279C215.486 217.507 215.421 217.67 215.291 217.768C215.164 217.862 215.013 217.909 214.837 217.909C214.655 217.909 214.5 217.862 214.373 217.768C214.249 217.67 214.188 217.507 214.188 217.279C214.188 217.048 214.249 216.885 214.373 216.791C214.5 216.697 214.655 216.649 214.837 216.649ZM223.157 218.617C223.763 218.617 224.218 218.773 224.524 219.086C224.834 219.398 224.988 219.9 224.988 220.59V224.125H223.841V220.795C223.841 220.385 223.761 220.076 223.602 219.867C223.442 219.659 223.2 219.555 222.874 219.555C222.418 219.555 222.09 219.701 221.888 219.994C221.689 220.284 221.59 220.705 221.59 221.259V224.125H220.442V220.795C220.442 220.521 220.407 220.294 220.335 220.111C220.267 219.926 220.161 219.787 220.018 219.696C219.874 219.602 219.694 219.555 219.476 219.555C219.16 219.555 218.908 219.626 218.719 219.77C218.533 219.913 218.4 220.124 218.318 220.404C218.237 220.681 218.196 221.021 218.196 221.425V224.125H217.049V218.72H217.942L218.104 219.447H218.167C218.278 219.258 218.414 219.104 218.577 218.983C218.743 218.86 218.927 218.769 219.129 218.71C219.331 218.648 219.541 218.617 219.759 218.617C220.162 218.617 220.503 218.689 220.779 218.832C221.056 218.972 221.263 219.187 221.399 219.477H221.487C221.657 219.184 221.893 218.967 222.195 218.827C222.498 218.687 222.819 218.617 223.157 218.617ZM228.743 218.617C229.225 218.617 229.638 218.716 229.983 218.915C230.328 219.114 230.594 219.395 230.779 219.76C230.965 220.124 231.058 220.561 231.058 221.068V221.684H227.449C227.462 222.208 227.602 222.611 227.869 222.895C228.139 223.178 228.517 223.319 229.002 223.319C229.347 223.319 229.656 223.287 229.93 223.222C230.206 223.153 230.491 223.054 230.784 222.924V223.856C230.514 223.983 230.239 224.076 229.959 224.135C229.679 224.193 229.344 224.223 228.953 224.223C228.423 224.223 227.955 224.12 227.552 223.915C227.151 223.707 226.837 223.397 226.609 222.987C226.385 222.577 226.272 222.068 226.272 221.459C226.272 220.854 226.375 220.339 226.58 219.916C226.785 219.493 227.073 219.171 227.444 218.949C227.815 218.728 228.248 218.617 228.743 218.617ZM228.743 219.481C228.382 219.481 228.089 219.599 227.864 219.833C227.643 220.067 227.513 220.411 227.474 220.863H229.935C229.931 220.593 229.886 220.354 229.798 220.146C229.713 219.937 229.583 219.774 229.407 219.657C229.235 219.54 229.013 219.481 228.743 219.481ZM235.169 218.617C235.778 218.617 236.251 218.775 236.59 219.091C236.932 219.403 237.103 219.906 237.103 220.6V224.125H235.955V220.814C235.955 220.395 235.869 220.08 235.696 219.872C235.524 219.66 235.257 219.555 234.896 219.555C234.371 219.555 234.007 219.716 233.802 220.038C233.6 220.36 233.499 220.827 233.499 221.439V224.125H232.352V218.72H233.245L233.406 219.452H233.47C233.587 219.263 233.732 219.109 233.904 218.988C234.08 218.865 234.275 218.772 234.49 218.71C234.708 218.648 234.935 218.617 235.169 218.617ZM240.721 223.295C240.87 223.295 241.019 223.282 241.165 223.256C241.312 223.227 241.445 223.192 241.565 223.153V224.022C241.438 224.078 241.274 224.125 241.072 224.164C240.87 224.203 240.66 224.223 240.442 224.223C240.136 224.223 239.861 224.172 239.617 224.071C239.373 223.967 239.179 223.79 239.036 223.539C238.893 223.288 238.821 222.942 238.821 222.499V219.594H238.084V219.081L238.875 218.676L239.251 217.519H239.974V218.72H241.521V219.594H239.974V222.484C239.974 222.758 240.042 222.961 240.179 223.095C240.315 223.228 240.496 223.295 240.721 223.295ZM246.297 222.582C246.297 222.937 246.211 223.236 246.038 223.48C245.866 223.725 245.613 223.91 245.281 224.037C244.952 224.161 244.549 224.223 244.07 224.223C243.693 224.223 243.367 224.195 243.094 224.14C242.824 224.088 242.568 224.006 242.327 223.896V222.904C242.584 223.025 242.872 223.129 243.191 223.217C243.514 223.305 243.818 223.349 244.104 223.349C244.482 223.349 244.754 223.29 244.92 223.173C245.086 223.052 245.169 222.893 245.169 222.694C245.169 222.577 245.135 222.473 245.066 222.382C245.001 222.287 244.878 222.191 244.695 222.094C244.516 221.993 244.253 221.872 243.904 221.732C243.562 221.596 243.274 221.459 243.04 221.322C242.806 221.186 242.628 221.021 242.508 220.829C242.387 220.634 242.327 220.385 242.327 220.082C242.327 219.604 242.516 219.241 242.894 218.993C243.274 218.743 243.777 218.617 244.402 218.617C244.734 218.617 245.047 218.651 245.34 218.72C245.636 218.785 245.926 218.881 246.209 219.008L245.848 219.872C245.604 219.765 245.358 219.677 245.11 219.608C244.866 219.537 244.617 219.501 244.363 219.501C244.067 219.501 243.841 219.547 243.685 219.638C243.532 219.729 243.455 219.859 243.455 220.028C243.455 220.155 243.493 220.263 243.567 220.351C243.642 220.438 243.771 220.526 243.953 220.614C244.139 220.702 244.396 220.811 244.725 220.941C245.047 221.065 245.325 221.195 245.56 221.332C245.797 221.465 245.979 221.63 246.106 221.825C246.233 222.021 246.297 222.273 246.297 222.582ZM198.68 230.879C199.048 230.879 199.37 230.939 199.646 231.06C199.926 231.18 200.145 231.356 200.301 231.587C200.457 231.815 200.535 232.093 200.535 232.422C200.535 232.861 200.398 233.232 200.125 233.535C199.852 233.838 199.507 234.108 199.09 234.346L200.774 235.986C200.934 235.768 201.066 235.529 201.17 235.269C201.274 235.005 201.364 234.728 201.438 234.438H202.625C202.524 234.842 202.384 235.241 202.205 235.635C202.026 236.025 201.8 236.383 201.526 236.709L202.977 238.125H201.507L200.784 237.417C200.582 237.58 200.366 237.721 200.135 237.842C199.907 237.962 199.658 238.057 199.388 238.125C199.118 238.19 198.82 238.223 198.494 238.223C197.996 238.223 197.566 238.143 197.205 237.983C196.844 237.824 196.565 237.596 196.37 237.3C196.178 237 196.082 236.646 196.082 236.235C196.082 235.894 196.139 235.601 196.253 235.356C196.37 235.109 196.536 234.893 196.751 234.707C196.966 234.518 197.223 234.339 197.522 234.17C197.36 233.984 197.218 233.804 197.098 233.628C196.977 233.452 196.884 233.271 196.819 233.086C196.757 232.897 196.727 232.695 196.727 232.48C196.727 232.148 196.808 231.864 196.971 231.626C197.133 231.385 197.361 231.201 197.654 231.074C197.947 230.944 198.289 230.879 198.68 230.879ZM198.201 234.868C198.012 234.989 197.85 235.111 197.713 235.234C197.576 235.355 197.47 235.488 197.396 235.635C197.324 235.781 197.288 235.952 197.288 236.147C197.288 236.483 197.405 236.748 197.64 236.943C197.877 237.139 198.183 237.236 198.558 237.236C198.886 237.236 199.174 237.188 199.422 237.09C199.673 236.989 199.891 236.864 200.076 236.714L198.201 234.868ZM198.66 231.787C198.429 231.787 198.229 231.847 198.06 231.968C197.894 232.088 197.811 232.275 197.811 232.529C197.811 232.734 197.864 232.928 197.972 233.11C198.082 233.289 198.235 233.483 198.431 233.691C198.772 233.503 199.026 233.317 199.192 233.135C199.362 232.952 199.446 232.741 199.446 232.5C199.446 232.272 199.37 232.096 199.217 231.973C199.064 231.849 198.878 231.787 198.66 231.787ZM206.536 238.125V230.986H207.708V237.129H210.74V238.125H206.536ZM213.978 232.617C214.661 232.617 215.177 232.769 215.525 233.071C215.877 233.374 216.053 233.846 216.053 234.487V238.125H215.237L215.018 237.358H214.979C214.826 237.554 214.668 237.715 214.505 237.842C214.342 237.969 214.153 238.063 213.938 238.125C213.727 238.19 213.468 238.223 213.162 238.223C212.84 238.223 212.552 238.164 212.298 238.047C212.044 237.926 211.844 237.744 211.697 237.5C211.551 237.256 211.478 236.947 211.478 236.572C211.478 236.016 211.684 235.597 212.098 235.317C212.514 235.037 213.143 234.883 213.982 234.854L214.92 234.819V234.536C214.92 234.162 214.832 233.895 214.656 233.735C214.484 233.576 214.24 233.496 213.924 233.496C213.654 233.496 213.392 233.535 213.138 233.613C212.884 233.691 212.636 233.787 212.396 233.901L212.024 233.091C212.288 232.951 212.588 232.837 212.923 232.749C213.261 232.661 213.613 232.617 213.978 232.617ZM214.915 235.542L214.217 235.566C213.644 235.586 213.242 235.684 213.011 235.859C212.78 236.035 212.664 236.276 212.664 236.582C212.664 236.849 212.744 237.044 212.903 237.168C213.063 237.288 213.273 237.349 213.533 237.349C213.93 237.349 214.259 237.236 214.52 237.012C214.783 236.784 214.915 236.45 214.915 236.011V235.542ZM216.844 232.72H218.094L219.202 235.806C219.251 235.946 219.295 236.084 219.334 236.221C219.376 236.354 219.412 236.486 219.441 236.616C219.474 236.746 219.5 236.877 219.52 237.007H219.549C219.581 236.838 219.627 236.649 219.686 236.44C219.747 236.229 219.816 236.017 219.891 235.806L220.955 232.72H222.19L219.871 238.867C219.738 239.219 219.573 239.518 219.378 239.766C219.186 240.016 218.958 240.205 218.694 240.332C218.431 240.462 218.13 240.527 217.791 240.527C217.628 240.527 217.487 240.518 217.366 240.498C217.246 240.482 217.143 240.464 217.059 240.444V239.526C217.127 239.543 217.213 239.557 217.317 239.57C217.422 239.583 217.529 239.59 217.64 239.59C217.845 239.59 218.022 239.549 218.172 239.468C218.322 239.386 218.449 239.271 218.553 239.121C218.657 238.975 218.743 238.807 218.812 238.618L219.002 238.11L216.844 232.72ZM225.164 232.617C225.646 232.617 226.059 232.716 226.404 232.915C226.749 233.114 227.015 233.395 227.2 233.76C227.386 234.124 227.479 234.561 227.479 235.068V235.684H223.87C223.883 236.208 224.023 236.611 224.29 236.895C224.56 237.178 224.938 237.319 225.423 237.319C225.768 237.319 226.077 237.287 226.351 237.222C226.627 237.153 226.912 237.054 227.205 236.924V237.856C226.935 237.983 226.66 238.076 226.38 238.135C226.1 238.193 225.765 238.223 225.374 238.223C224.843 238.223 224.376 238.12 223.973 237.915C223.572 237.707 223.258 237.397 223.03 236.987C222.806 236.577 222.693 236.068 222.693 235.459C222.693 234.854 222.796 234.339 223.001 233.916C223.206 233.493 223.494 233.171 223.865 232.949C224.236 232.728 224.669 232.617 225.164 232.617ZM225.164 233.481C224.803 233.481 224.51 233.599 224.285 233.833C224.064 234.067 223.934 234.411 223.895 234.863H226.355C226.352 234.593 226.307 234.354 226.219 234.146C226.134 233.937 226.004 233.774 225.828 233.657C225.656 233.54 225.434 233.481 225.164 233.481ZM231.512 232.617C231.603 232.617 231.702 232.622 231.81 232.632C231.917 232.642 232.01 232.655 232.088 232.671L231.98 233.745C231.912 233.726 231.827 233.711 231.727 233.701C231.629 233.691 231.541 233.687 231.463 233.687C231.258 233.687 231.062 233.721 230.877 233.789C230.691 233.854 230.527 233.955 230.384 234.092C230.241 234.225 230.128 234.393 230.047 234.595C229.965 234.797 229.925 235.031 229.925 235.298V238.125H228.772V232.72H229.671L229.827 233.672H229.881C229.988 233.48 230.122 233.304 230.281 233.145C230.441 232.985 230.623 232.858 230.828 232.764C231.036 232.666 231.264 232.617 231.512 232.617ZM236.722 236.582C236.722 236.937 236.635 237.236 236.463 237.48C236.29 237.725 236.038 237.91 235.706 238.037C235.377 238.161 234.974 238.223 234.495 238.223C234.118 238.223 233.792 238.195 233.519 238.14C233.248 238.088 232.993 238.006 232.752 237.896V236.904C233.009 237.025 233.297 237.129 233.616 237.217C233.938 237.305 234.243 237.349 234.529 237.349C234.907 237.349 235.179 237.29 235.345 237.173C235.511 237.052 235.594 236.893 235.594 236.694C235.594 236.577 235.56 236.473 235.491 236.382C235.426 236.287 235.302 236.191 235.12 236.094C234.941 235.993 234.677 235.872 234.329 235.732C233.987 235.596 233.699 235.459 233.465 235.322C233.23 235.186 233.053 235.021 232.933 234.829C232.812 234.634 232.752 234.385 232.752 234.082C232.752 233.604 232.941 233.241 233.318 232.993C233.699 232.743 234.202 232.617 234.827 232.617C235.159 232.617 235.472 232.651 235.765 232.72C236.061 232.785 236.351 232.881 236.634 233.008L236.272 233.872C236.028 233.765 235.783 233.677 235.535 233.608C235.291 233.537 235.042 233.501 234.788 233.501C234.492 233.501 234.266 233.547 234.109 233.638C233.956 233.729 233.88 233.859 233.88 234.028C233.88 234.155 233.917 234.263 233.992 234.351C234.067 234.438 234.196 234.526 234.378 234.614C234.563 234.702 234.821 234.811 235.149 234.941C235.472 235.065 235.75 235.195 235.984 235.332C236.222 235.465 236.404 235.63 236.531 235.825C236.658 236.021 236.722 236.273 236.722 236.582Z" fill="black"/>
</g>
</a>
<defs>
<filter id="filter0_d_87_325" x="152" y="0" width="128.25" height="128.25" filterUnits="userSpaceOnUse" color-interpolation-filters="sRGB">
<feFlood flood-opacity="0" result="BackgroundImageFix"/>
<feColorMatrix in="SourceAlpha" type="matrix" values="0 0 0 0 0 0 0 0 0 0 0 0 0 0 0 0 0 0 127 0" result="hardAlpha"/>
<feOffset dy="6"/>
<feGaussianBlur stdDeviation="9"/>
<feColorMatrix type="matrix" values="0 0 0 0 0 0 0 0 0 0 0 0 0 0 0 0 0 0 0.12 0"/>
<feBlend mode="normal" in2="BackgroundImageFix" result="effect1_dropShadow_87_325"/>
<feBlend mode="normal" in="SourceGraphic" in2="effect1_dropShadow_87_325" result="shape"/>
</filter>
<filter id="filter1_d_87_325" x="304" y="304" width="128.25" height="128.25" filterUnits="userSpaceOnUse" color-interpolation-filters="sRGB">
<feFlood flood-opacity="0" result="BackgroundImageFix"/>
<feColorMatrix in="SourceAlpha" type="matrix" values="0 0 0 0 0 0 0 0 0 0 0 0 0 0 0 0 0 0 127 0" result="hardAlpha"/>
<feOffset dy="6"/>
<feGaussianBlur stdDeviation="9"/>
<feColorMatrix type="matrix" values="0 0 0 0 0 0 0 0 0 0 0 0 0 0 0 0 0 0 0.12 0"/>
<feBlend mode="normal" in2="BackgroundImageFix" result="effect1_dropShadow_87_325"/>
<feBlend mode="normal" in="SourceGraphic" in2="effect1_dropShadow_87_325" result="shape"/>
</filter>
<filter id="filter2_d_87_325" x="304" y="152" width="128.25" height="128.25" filterUnits="userSpaceOnUse" color-interpolation-filters="sRGB">
<feFlood flood-opacity="0" result="BackgroundImageFix"/>
<feColorMatrix in="SourceAlpha" type="matrix" values="0 0 0 0 0 0 0 0 0 0 0 0 0 0 0 0 0 0 127 0" result="hardAlpha"/>
<feOffset dy="6"/>
<feGaussianBlur stdDeviation="9"/>
<feColorMatrix type="matrix" values="0 0 0 0 0 0 0 0 0 0 0 0 0 0 0 0 0 0 0.12 0"/>
<feBlend mode="normal" in2="BackgroundImageFix" result="effect1_dropShadow_87_325"/>
<feBlend mode="normal" in="SourceGraphic" in2="effect1_dropShadow_87_325" result="shape"/>
</filter>
<filter id="filter3_d_87_325" x="152" y="304.25" width="128.25" height="128.25" filterUnits="userSpaceOnUse" color-interpolation-filters="sRGB">
<feFlood flood-opacity="0" result="BackgroundImageFix"/>
<feColorMatrix in="SourceAlpha" type="matrix" values="0 0 0 0 0 0 0 0 0 0 0 0 0 0 0 0 0 0 127 0" result="hardAlpha"/>
<feOffset dy="6"/>
<feGaussianBlur stdDeviation="9"/>
<feColorMatrix type="matrix" values="0 0 0 0 0 0 0 0 0 0 0 0 0 0 0 0 0 0 0.12 0"/>
<feBlend mode="normal" in2="BackgroundImageFix" result="effect1_dropShadow_87_325"/>
<feBlend mode="normal" in="SourceGraphic" in2="effect1_dropShadow_87_325" result="shape"/>
</filter>
<filter id="filter4_d_87_325" x="0" y="152.25" width="128.25" height="128.25" filterUnits="userSpaceOnUse" color-interpolation-filters="sRGB">
<feFlood flood-opacity="0" result="BackgroundImageFix"/>
<feColorMatrix in="SourceAlpha" type="matrix" values="0 0 0 0 0 0 0 0 0 0 0 0 0 0 0 0 0 0 127 0" result="hardAlpha"/>
<feOffset dy="6"/>
<feGaussianBlur stdDeviation="9"/>
<feColorMatrix type="matrix" values="0 0 0 0 0 0 0 0 0 0 0 0 0 0 0 0 0 0 0.12 0"/>
<feBlend mode="normal" in2="BackgroundImageFix" result="effect1_dropShadow_87_325"/>
<feBlend mode="normal" in="SourceGraphic" in2="effect1_dropShadow_87_325" result="shape"/>
</filter>
<filter id="filter5_d_87_325" x="456" y="152.25" width="128.25" height="128.25" filterUnits="userSpaceOnUse" color-interpolation-filters="sRGB">
<feFlood flood-opacity="0" result="BackgroundImageFix"/>
<feColorMatrix in="SourceAlpha" type="matrix" values="0 0 0 0 0 0 0 0 0 0 0 0 0 0 0 0 0 0 127 0" result="hardAlpha"/>
<feOffset dy="6"/>
<feGaussianBlur stdDeviation="9"/>
<feColorMatrix type="matrix" values="0 0 0 0 0 0 0 0 0 0 0 0 0 0 0 0 0 0 0.12 0"/>
<feBlend mode="normal" in2="BackgroundImageFix" result="effect1_dropShadow_87_325"/>
<feBlend mode="normal" in="SourceGraphic" in2="effect1_dropShadow_87_325" result="shape"/>
</filter>
<filter id="filter6_d_87_325" x="152.25" y="152" width="128.25" height="128.25" filterUnits="userSpaceOnUse" color-interpolation-filters="sRGB">
<feFlood flood-opacity="0" result="BackgroundImageFix"/>
<feColorMatrix in="SourceAlpha" type="matrix" values="0 0 0 0 0 0 0 0 0 0 0 0 0 0 0 0 0 0 127 0" result="hardAlpha"/>
<feOffset dy="6"/>
<feGaussianBlur stdDeviation="9"/>
<feColorMatrix type="matrix" values="0 0 0 0 0 0 0 0 0 0 0 0 0 0 0 0 0 0 0.12 0"/>
<feBlend mode="normal" in2="BackgroundImageFix" result="effect1_dropShadow_87_325"/>
<feBlend mode="normal" in="SourceGraphic" in2="effect1_dropShadow_87_325" result="shape"/>
</filter>
<clipPath id="clip0_87_325">
<rect width="24" height="24" fill="white" transform="translate(204.125 27.125)"/>
</clipPath>
<clipPath id="clip1_87_325">
<rect width="24" height="24" fill="white" transform="translate(356.125 331.125)"/>
</clipPath>
<clipPath id="clip2_87_325">
<rect width="24" height="24" fill="white" transform="translate(356.125 186.125)"/>
</clipPath>
<clipPath id="clip3_87_325">
<rect width="24" height="24" fill="white" transform="translate(204.125 331.375)"/>
</clipPath>
<clipPath id="clip4_87_325">
<rect width="24" height="24" fill="white" transform="translate(52.125 186.375)"/>
</clipPath>
<clipPath id="clip5_87_325">
<rect width="24" height="24" fill="white" transform="translate(508.125 186.375)"/>
</clipPath>
<clipPath id="clip6_87_325">
<rect width="24" height="24" fill="white" transform="translate(204.375 179.125)"/>
</clipPath>
</defs>
</svg>
