<svg width="16" height="16" viewBox="0 0 16 16" fill="none" xmlns="http://www.w3.org/2000/svg">
<path d="M11.3333 11.3333C11.6111 11.3333 11.8472 11.236 12.0416 11.0416C12.2361 10.8471 12.3333 10.611 12.3333 10.3333C12.3333 10.0555 12.2361 9.81936 12.0416 9.62492C11.8472 9.43047 11.6111 9.33325 11.3333 9.33325C11.0555 9.33325 10.8194 9.43047 10.625 9.62492C10.4305 9.81936 10.3333 10.0555 10.3333 10.3333C10.3333 10.611 10.4305 10.8471 10.625 11.0416C10.8194 11.236 11.0555 11.3333 11.3333 11.3333ZM11.3333 13.3333C11.6777 13.3333 11.9944 13.2527 12.2833 13.0916C12.5722 12.9305 12.8055 12.7166 12.9833 12.4499C12.7388 12.3055 12.4777 12.1944 12.2 12.1166C11.9222 12.0388 11.6333 11.9999 11.3333 11.9999C11.0333 11.9999 10.7444 12.0388 10.4666 12.1166C10.1888 12.1944 9.92774 12.3055 9.68329 12.4499C9.86107 12.7166 10.0944 12.9305 10.3833 13.0916C10.6722 13.2527 10.9888 13.3333 11.3333 13.3333ZM7.99996 14.6666C6.45552 14.2777 5.18052 13.3916 4.17496 12.0083C3.1694 10.6249 2.66663 9.08881 2.66663 7.39992V3.33325L7.99996 1.33325L13.3333 3.33325V7.11658C13.1222 7.0277 12.9055 6.94714 12.6833 6.87492C12.4611 6.8027 12.2333 6.74992 12 6.71659V4.26659L7.99996 2.76659L3.99996 4.26659V7.39992C3.99996 7.92214 4.0694 8.44436 4.20829 8.96658C4.34718 9.48881 4.54163 9.98603 4.79163 10.4583C5.04163 10.9305 5.3444 11.3666 5.69996 11.7666C6.05552 12.1666 6.44996 12.4999 6.88329 12.7666C7.00552 13.1221 7.16663 13.461 7.36663 13.7833C7.56663 14.1055 7.7944 14.3944 8.04996 14.6499C8.03885 14.6499 8.03052 14.6527 8.02496 14.6583C8.0194 14.6638 8.01107 14.6666 7.99996 14.6666ZM11.3333 14.6666C10.4111 14.6666 9.62496 14.3416 8.97496 13.6916C8.32496 13.0416 7.99996 12.2555 7.99996 11.3333C7.99996 10.411 8.32496 9.62492 8.97496 8.97492C9.62496 8.32492 10.4111 7.99992 11.3333 7.99992C12.2555 7.99992 13.0416 8.32492 13.6916 8.97492C14.3416 9.62492 14.6666 10.411 14.6666 11.3333C14.6666 12.2555 14.3416 13.0416 13.6916 13.6916C13.0416 14.3416 12.2555 14.6666 11.3333 14.6666Z" fill="#1F2328"/>
</svg>
