<svg width="14" height="19" viewBox="0 0 14 19" fill="none" xmlns="http://www.w3.org/2000/svg">
<g id="Group">
<g id="Group_2">
<path id="Vector" d="M6.99983 0C6.53983 0 6.06983 0.0400001 5.59983 0.14C2.83983 0.67 0.639827 2.9 0.119827 5.66C-0.360173 8.27 0.599828 10.67 2.33983 12.22C2.76983 12.6 2.99983 13.13 2.99983 13.69V16C2.99983 17.1 3.89983 18 4.99983 18H5.27983C5.62983 18.6 6.25983 19 6.99983 19C7.73983 19 8.37983 18.6 8.71983 18H8.99983C10.0998 18 10.9998 17.1 10.9998 16V13.69C10.9998 13.14 11.2198 12.6 11.6398 12.23C13.0898 10.95 13.9998 9.08 13.9998 7C13.9998 3.13 10.8698 0 6.99983 0ZM8.99983 14H4.99983V13H8.99983V14ZM4.99983 16V15H8.99983V16H4.99983ZM10.3098 10.74C10.2198 10.82 10.1498 10.92 10.0698 11H3.91983C3.83983 10.91 3.76983 10.81 3.67983 10.73C2.35983 9.55 1.76983 7.79 2.08983 6.03C2.44983 4.09 4.04983 2.48 5.97983 2.1C6.31983 2.03 6.65983 2 6.99983 2C9.75983 2 11.9998 4.24 11.9998 7C11.9998 8.43 11.3898 9.79 10.3098 10.74Z" fill="#1b63d2"/>
</g>
<g id="Group_3">
<path id="Vector_2" d="M7.5 8H6.5V11H7.5V8Z" fill="#202020"/>
<path id="Vector_3" d="M5.37946 5.87371L4.67236 6.58081L6.79366 8.70211L7.50076 7.99501L5.37946 5.87371Z" fill="#202020"/>
<path id="Vector_4" d="M6.50091 8.00518L7.20801 8.71228L9.32931 6.59098L8.62221 5.88388L6.50091 8.00518Z" fill="#202020"/>
</g>
</g>
</svg>
