<svg width="16" height="16" viewBox="0 0 16 16" fill="none" xmlns="http://www.w3.org/2000/svg">
<path d="M4.85329 7.39994C4.02662 7.39994 3.31996 7.11328 2.73996 6.53328C2.15996 5.95328 1.87329 5.24661 1.87329 4.41994C1.87329 3.59327 2.15996 2.88661 2.73996 2.30661C3.31996 1.72661 4.02662 1.43994 4.85329 1.43994H11.1333C11.96 1.43994 12.6666 1.72661 13.2466 2.30661C13.8266 2.88661 14.1133 3.59327 14.1133 4.41994C14.1133 5.24661 13.8266 5.95328 13.2466 6.53328C12.6666 7.11328 11.96 7.39994 11.1333 7.39994H4.85329ZM11.1333 5.73994C11.5 5.73994 11.8133 5.61327 12.0666 5.35327C12.32 5.09327 12.4533 4.78661 12.4533 4.41994C12.4533 4.05327 12.3266 3.73994 12.0666 3.48661C11.8066 3.23327 11.5 3.09994 11.1333 3.09994C10.7666 3.09994 10.4533 3.22661 10.2 3.48661C9.94662 3.74661 9.81329 4.05327 9.81329 4.41994C9.81329 4.78661 9.93996 5.09994 10.2 5.35327C10.46 5.60661 10.7666 5.73994 11.1333 5.73994Z" fill="#1F2328"/>
<path d="M4.85329 14.5601C4.02662 14.5601 3.31996 14.2734 2.73996 13.6934C2.15996 13.1134 1.87329 12.4068 1.87329 11.5801C1.87329 10.7534 2.15996 10.0468 2.73996 9.46676C3.31996 8.88676 4.02662 8.6001 4.85329 8.6001H11.1333C11.96 8.6001 12.6666 8.88676 13.2466 9.46676C13.8266 10.0468 14.1133 10.7534 14.1133 11.5801C14.1133 12.4068 13.8266 13.1134 13.2466 13.6934C12.6666 14.2734 11.96 14.5601 11.1333 14.5601H4.85329ZM4.85329 13.3401H11.1333C11.62 13.3401 12.0333 13.1668 12.3733 12.8201C12.7133 12.4734 12.8933 12.0601 12.8933 11.5801C12.8933 11.1001 12.72 10.6801 12.3733 10.3401C12.0266 10.0001 11.6133 9.8201 11.1333 9.8201H4.85329C4.36662 9.8201 3.95329 9.99343 3.61329 10.3401C3.27329 10.6868 3.09329 11.1001 3.09329 11.5801C3.09329 12.0601 3.26662 12.4801 3.61329 12.8201C3.95996 13.1601 4.37329 13.3401 4.85329 13.3401ZM4.85329 12.9001C5.21996 12.9001 5.53329 12.7734 5.78662 12.5134C6.03996 12.2534 6.17329 11.9468 6.17329 11.5801C6.17329 11.2134 6.04662 10.9001 5.78662 10.6468C5.52662 10.3934 5.21996 10.2601 4.85329 10.2601C4.48662 10.2601 4.17329 10.3868 3.91996 10.6468C3.66662 10.9068 3.53329 11.2134 3.53329 11.5801C3.53329 11.9468 3.65996 12.2601 3.91996 12.5134C4.17996 12.7668 4.48662 12.9001 4.85329 12.9001Z" fill="#1F2328"/>
</svg>
