<svg width="16" height="17" viewBox="0 0 16 17" fill="none" xmlns="http://www.w3.org/2000/svg">
<path d="M8 12.5C8.23333 12.5 8.43056 12.4194 8.59167 12.2583C8.75278 12.0972 8.83333 11.9 8.83333 11.6667C8.83333 11.4333 8.75278 11.2361 8.59167 11.075C8.43056 10.9139 8.23333 10.8333 8 10.8333C7.76667 10.8333 7.56944 10.9139 7.40833 11.075C7.24722 11.2361 7.16667 11.4333 7.16667 11.6667C7.16667 11.9 7.24722 12.0972 7.40833 12.2583C7.56944 12.4194 7.76667 12.5 8 12.5ZM7.4 9.93333H8.63333C8.63333 9.53333 8.67778 9.23889 8.76667 9.05C8.85556 8.86111 9.04445 8.62222 9.33333 8.33333C9.72222 7.94444 9.99722 7.61944 10.1583 7.35833C10.3194 7.09722 10.4 6.8 10.4 6.46667C10.4 5.87778 10.2 5.40278 9.8 5.04167C9.4 4.68056 8.86111 4.5 8.18333 4.5C7.57222 4.5 7.05278 4.65 6.625 4.95C6.19722 5.25 5.9 5.66667 5.73333 6.2L6.83333 6.63333C6.91111 6.33333 7.06667 6.09167 7.3 5.90833C7.53333 5.725 7.80556 5.63333 8.11667 5.63333C8.41667 5.63333 8.66667 5.71389 8.86667 5.875C9.06667 6.03611 9.16667 6.25 9.16667 6.51667C9.16667 6.70556 9.10556 6.90556 8.98333 7.11667C8.86111 7.32778 8.65556 7.56111 8.36667 7.81667C8 8.13889 7.74722 8.44722 7.60833 8.74167C7.46944 9.03611 7.4 9.43333 7.4 9.93333ZM3.33333 14.5C2.96667 14.5 2.65278 14.3694 2.39167 14.1083C2.13056 13.8472 2 13.5333 2 13.1667V3.83333C2 3.46667 2.13056 3.15278 2.39167 2.89167C2.65278 2.63056 2.96667 2.5 3.33333 2.5H12.6667C13.0333 2.5 13.3472 2.63056 13.6083 2.89167C13.8694 3.15278 14 3.46667 14 3.83333V13.1667C14 13.5333 13.8694 13.8472 13.6083 14.1083C13.3472 14.3694 13.0333 14.5 12.6667 14.5H3.33333ZM3.33333 13.1667H12.6667V3.83333H3.33333V13.1667Z" fill="#1b63d2"/>
</svg>
