<svg width="20" height="20" viewBox="0 0 20 20" fill="none" xmlns="http://www.w3.org/2000/svg">
<path d="M8.65967 14.3755C9.0045 14.3757 9.2844 14.6547 9.28467 14.9995C9.28467 15.3446 9.00466 15.6253 8.65967 15.6255H4.87158C4.52669 15.6253 4.24685 15.3454 4.24658 15.0005C4.24658 14.6554 4.52652 14.3756 4.87158 14.3755H8.65967ZM12.6382 14.3755C12.9831 14.3756 13.2629 14.6546 13.2632 14.9995C13.2632 15.3446 12.9833 15.6254 12.6382 15.6255H11.0425C10.6979 15.625 10.4177 15.3451 10.4175 15.0005C10.4175 14.6556 10.6978 14.376 11.0425 14.3755H12.6382ZM11.5874 11.0425C11.9325 11.0426 12.2124 11.3224 12.2124 11.6675C12.2121 12.0124 11.9323 12.2924 11.5874 12.2925H6.07471C5.72979 12.2924 5.44997 12.0124 5.44971 11.6675C5.44971 11.3224 5.72963 11.0426 6.07471 11.0425H11.5874ZM15.8267 11.0425C16.1718 11.0425 16.4517 11.3223 16.4517 11.6675C16.4514 12.0124 16.1717 12.2925 15.8267 12.2925H14.0718C13.7271 12.2921 13.447 12.0122 13.4468 11.6675C13.4468 11.3225 13.7269 11.0428 14.0718 11.0425H15.8267ZM5.97607 7.70947C6.32104 7.70973 6.60107 7.98945 6.60107 8.33447C6.60081 8.67927 6.32087 8.95922 5.97607 8.95947H3.51123C3.16627 8.95941 2.88649 8.67939 2.88623 8.33447C2.88623 7.98933 3.16611 7.70953 3.51123 7.70947H5.97607ZM15.1089 7.70947C15.4538 7.70978 15.7339 7.98949 15.7339 8.33447C15.7336 8.67923 15.4536 8.95916 15.1089 8.95947H8.43799C8.09303 8.95941 7.81325 8.67939 7.81299 8.33447C7.81299 7.98933 8.09286 7.70953 8.43799 7.70947H15.1089ZM16.6235 4.37549C16.9685 4.37573 17.2485 4.65546 17.2485 5.00049C17.2483 5.3453 16.9683 5.62525 16.6235 5.62549H3.37646C3.03129 5.62549 2.75146 5.34469 2.75146 4.99951C2.75173 4.65456 3.03145 4.37549 3.37646 4.37549H16.6235Z" fill="#1B63D2"/>
</svg>
