<svg width="24" height="24" viewBox="0 0 24 24" fill="none" xmlns="http://www.w3.org/2000/svg">
<path d="M10.3799 17.249C10.7939 17.249 11.1296 17.585 11.1299 17.999C11.1299 18.4132 10.7941 18.75 10.3799 18.75H5.80469L5.72754 18.7461C5.35004 18.7072 5.05493 18.3877 5.05469 18C5.05469 17.6121 5.34992 17.2929 5.72754 17.2539L5.80469 17.25L10.3799 17.249ZM15.1855 17.249C15.5996 17.249 15.9353 17.585 15.9355 17.999C15.9355 18.4132 15.5998 18.75 15.1855 18.75H13.2588L13.1826 18.7461C12.8049 18.7074 12.509 18.3879 12.5088 18C12.5088 17.6119 12.8048 17.2927 13.1826 17.2539L13.2588 17.25L15.1855 17.249ZM13.917 13.25C14.3311 13.2501 14.667 13.5859 14.667 14C14.667 14.4141 14.3311 14.7499 13.917 14.75H7.25879L7.18262 14.7461C6.80446 14.7077 6.50879 14.3883 6.50879 14C6.50879 13.6117 6.80446 13.2923 7.18262 13.2539L7.25879 13.25H13.917ZM19.0381 13.25C19.452 13.2503 19.7881 13.586 19.7881 14C19.7881 14.414 19.452 14.7497 19.0381 14.75H16.9189L16.8418 14.7461C16.4638 14.7075 16.1689 14.3882 16.1689 14C16.1689 13.6118 16.4638 13.2925 16.8418 13.2539L16.9189 13.25H19.0381ZM7.2168 9.25391C7.5949 9.2924 7.89062 9.61174 7.89062 10C7.89062 10.3883 7.5949 10.7076 7.2168 10.7461L7.14062 10.75H4.16309C3.74908 10.7498 3.41309 10.4141 3.41309 10C3.41309 9.58594 3.74908 9.25025 4.16309 9.25H7.14062L7.2168 9.25391ZM18.2471 9.25391C18.6251 9.2925 18.9209 9.61182 18.9209 10C18.9209 10.3882 18.6251 10.7075 18.2471 10.7461L18.1709 10.75H10.1143C9.70004 10.75 9.36426 10.4142 9.36426 10C9.36426 9.58579 9.70004 9.25 10.1143 9.25H18.1709L18.2471 9.25391ZM19.999 5.25L20.0762 5.25391C20.4541 5.2926 20.749 5.61188 20.749 6C20.7488 6.3879 20.4539 6.70742 20.0762 6.74609L19.999 6.75H4.00098C3.58697 6.74975 3.25098 6.41309 3.25098 5.99902C3.25124 5.58519 3.58713 5.24927 4.00098 5.24902L19.999 5.25Z" fill="black"/>
</svg>
