<svg width="16" height="16" viewBox="0 0 16 16" fill="none" xmlns="http://www.w3.org/2000/svg">
<g clip-path="url(#clip0_6122_2421)">
<path d="M7.00004 3.00008C7.18671 3.00008 7.33337 3.14675 7.33337 3.33341V4.66675H11.3334V8.66675H12.6667C12.8534 8.66675 13 8.81341 13 9.00008C13 9.18675 12.8534 9.33341 12.6667 9.33341H11.3334V13.3334H9.92004C9.46671 12.1667 8.32671 11.3334 7.00004 11.3334C5.67337 11.3334 4.53337 12.1667 4.08004 13.3334H2.66671V11.9201C3.83337 11.4667 4.66671 10.3267 4.66671 9.00008C4.66671 7.67341 3.84004 6.53341 2.67337 6.08008L2.66671 4.66675H6.66671V3.33341C6.66671 3.14675 6.81337 3.00008 7.00004 3.00008ZM7.00004 1.66675C6.08004 1.66675 5.33337 2.41341 5.33337 3.33341H2.66671C1.93337 3.33341 1.34004 3.93341 1.34004 4.66675V7.20008H1.53337C2.52671 7.20008 3.33337 8.00675 3.33337 9.00008C3.33337 9.99341 2.52671 10.8001 1.53337 10.8001H1.33337V13.3334C1.33337 14.0667 1.93337 14.6667 2.66671 14.6667H5.20004V14.4667C5.20004 13.4734 6.00671 12.6667 7.00004 12.6667C7.99337 12.6667 8.80004 13.4734 8.80004 14.4667V14.6667H11.3334C12.0667 14.6667 12.6667 14.0667 12.6667 13.3334V10.6667C13.5867 10.6667 14.3334 9.92008 14.3334 9.00008C14.3334 8.08008 13.5867 7.33341 12.6667 7.33341V4.66675C12.6667 3.93341 12.0667 3.33341 11.3334 3.33341H8.66671C8.66671 2.41341 7.92004 1.66675 7.00004 1.66675Z" fill="#1b63d2"/>
</g>
<defs>
<clipPath id="clip0_6122_2421">
<rect width="16" height="16" fill="white"/>
</clipPath>
</defs>
</svg>
