<svg width="16" height="16" viewBox="0 0 16 16" fill="none" xmlns="http://www.w3.org/2000/svg">
<path d="M3.7667 6.6834L5.0667 7.2334C5.22225 6.92229 5.38337 6.62229 5.55003 6.3334C5.7167 6.04451 5.90003 5.75563 6.10003 5.46674L5.1667 5.2834L3.7667 6.6834ZM6.13337 8.06674L8.03337 9.95007C8.50003 9.77229 9.00003 9.50007 9.53337 9.1334C10.0667 8.76674 10.5667 8.35007 11.0334 7.8834C11.8111 7.10563 12.4195 6.24174 12.8584 5.29174C13.2973 4.34174 13.4889 3.46674 13.4334 2.66674C12.6334 2.61118 11.7556 2.80285 10.8 3.24174C9.84448 3.68063 8.97781 4.28896 8.20003 5.06674C7.73337 5.5334 7.3167 6.0334 6.95003 6.56674C6.58337 7.10007 6.31114 7.60007 6.13337 8.06674ZM9.10003 6.9834C8.84448 6.72785 8.7167 6.41396 8.7167 6.04174C8.7167 5.66951 8.84448 5.35563 9.10003 5.10007C9.35559 4.84451 9.67226 4.71674 10.05 4.71674C10.4278 4.71674 10.7445 4.84451 11 5.10007C11.2556 5.35563 11.3834 5.66951 11.3834 6.04174C11.3834 6.41396 11.2556 6.72785 11 6.9834C10.7445 7.23896 10.4278 7.36674 10.05 7.36674C9.67226 7.36674 9.35559 7.23896 9.10003 6.9834ZM9.4167 12.3334L10.8167 10.9334L10.6334 10.0001C10.3445 10.2001 10.0556 10.3806 9.7667 10.5417C9.47781 10.7028 9.17781 10.8612 8.8667 11.0167L9.4167 12.3334ZM14.6334 1.45007C14.8445 2.79451 14.7139 4.10285 14.2417 5.37507C13.7695 6.64729 12.9556 7.86118 11.8 9.01674L12.1334 10.6667C12.1778 10.889 12.1667 11.1056 12.1 11.3167C12.0334 11.5278 11.9223 11.7112 11.7667 11.8667L8.9667 14.6667L7.5667 11.3834L4.7167 8.5334L1.43337 7.1334L4.2167 4.3334C4.37225 4.17785 4.55837 4.06674 4.77503 4.00007C4.9917 3.9334 5.21114 3.92229 5.43337 3.96674L7.08337 4.30007C8.23892 3.14451 9.45003 2.32785 10.7167 1.85007C11.9834 1.37229 13.2889 1.23896 14.6334 1.45007ZM2.6167 10.6501C3.00559 10.2612 3.48059 10.064 4.0417 10.0584C4.60281 10.0528 5.07781 10.2445 5.4667 10.6334C5.85559 11.0223 6.04726 11.4973 6.0417 12.0584C6.03614 12.6195 5.83892 13.0945 5.45003 13.4834C5.17226 13.7612 4.70837 14.0001 4.05837 14.2001C3.40837 14.4001 2.51114 14.5778 1.3667 14.7334C1.52225 13.589 1.70003 12.6917 1.90003 12.0417C2.10003 11.3917 2.33892 10.9278 2.6167 10.6501ZM3.5667 11.5834C3.45559 11.6945 3.34448 11.8973 3.23337 12.1917C3.12225 12.4862 3.04448 12.7834 3.00003 13.0834C3.30003 13.039 3.59725 12.964 3.8917 12.8584C4.18614 12.7528 4.38892 12.6445 4.50003 12.5334C4.63337 12.4001 4.70559 12.239 4.7167 12.0501C4.72781 11.8612 4.6667 11.7001 4.53337 11.5667C4.40003 11.4334 4.23892 11.3695 4.05003 11.3751C3.86114 11.3806 3.70003 11.4501 3.5667 11.5834Z" fill="#1b63d2"/>
</svg>
