<svg width="16" height="16" viewBox="0 0 16 16" fill="none" xmlns="http://www.w3.org/2000/svg">
<path fill-rule="evenodd" clip-rule="evenodd" d="M7.03331 2.11387C7.63135 1.7944 8.34935 1.7944 8.94738 2.11387L14.9009 5.29423C15.1693 5.43763 15.3443 5.66507 15.4259 5.91804C15.4722 6.00531 15.4984 6.10485 15.4984 6.21053V10.5758C15.4984 10.921 15.2186 11.2008 14.8734 11.2008C14.5282 11.2008 14.2484 10.921 14.2484 10.5758V7.57216L12.8941 8.29562V11.5627C12.8941 12.0842 12.6636 12.6426 12.1477 12.9606C11.3126 13.4754 9.81492 14.1258 7.98943 14.1258C6.16396 14.1258 4.66692 13.4754 3.83204 12.9606C3.31626 12.6426 3.08578 12.0842 3.08578 11.5627V8.29518L1.07984 7.22361C0.308675 6.81165 0.308675 5.70618 1.07984 5.29423L7.03331 2.11387ZM4.33578 8.96294V11.5627C4.33578 11.7384 4.41057 11.8488 4.48813 11.8967C5.17945 12.323 6.45153 12.8758 7.98943 12.8758C9.52742 12.8758 10.8002 12.3229 11.4918 11.8966C11.5693 11.8488 11.6441 11.7384 11.6441 11.5627V8.96337L8.94738 10.404C8.34935 10.7234 7.63135 10.7234 7.03331 10.404L4.33578 8.96294ZM8.3584 3.21641C8.12841 3.09355 7.85228 3.09355 7.62229 3.21641L1.92687 6.25892L7.62229 9.30142C7.85228 9.42428 8.12841 9.42428 8.3584 9.30142L14.0538 6.25892L8.3584 3.21641Z" fill="#1b63d2"/>
</svg>
