<svg width="24" height="24" viewBox="0 0 24 24" fill="none" xmlns="http://www.w3.org/2000/svg">
<path d="M17.7124 3.36594C18.2006 2.87826 18.992 2.87794 19.48 3.36594L21.6372 5.52317C22.094 5.98057 22.1227 6.7043 21.7231 7.19504L21.6372 7.29075L20.3618 8.56516C20.4493 8.77011 20.4976 8.99624 20.4976 9.23313V18.2507C20.4973 19.7693 19.2662 21.0007 17.7476 21.0007H4.74756C3.22894 21.0007 1.99782 19.7693 1.99756 18.2507V9.25071C1.99756 7.73192 3.22878 6.50071 4.74756 6.50071H14.5776L17.7124 3.36594ZM4.74756 8.00071C4.0572 8.00071 3.49756 8.56035 3.49756 9.25071V18.2507C3.49782 18.9408 4.05736 19.5007 4.74756 19.5007H17.7476C18.4378 19.5007 18.9973 18.9408 18.9976 18.2507V9.93039L16.7378 12.1892C17.1435 12.5097 17.4056 13.0051 17.4058 13.5622V16.2507C17.4055 17.2168 16.6219 18.0004 15.6558 18.0007H6.84033C5.87399 18.0007 5.09059 17.217 5.09033 16.2507V13.5622C5.09053 12.5959 5.87396 11.8122 6.84033 11.8122H10.063L10.231 11.0661L10.271 10.9314C10.321 10.7995 10.3991 10.6783 10.4995 10.5779L13.0767 8.00071H4.74756ZM6.84033 13.3122C6.70238 13.3122 6.59053 13.4243 6.59033 13.5622V16.2507C6.59059 16.3886 6.70242 16.5007 6.84033 16.5007H15.6558C15.7934 16.5004 15.9055 16.3884 15.9058 16.2507V13.5622C15.9056 13.4245 15.7935 13.3125 15.6558 13.3122H15.6157L14.4243 14.5036C14.324 14.6038 14.2033 14.6822 14.0718 14.7322L13.936 14.7722L10.6978 15.4997C9.98181 15.6605 9.34274 15.0214 9.50342 14.3054L9.72607 13.3122H6.84033ZM11.6626 11.5368L11.1401 13.863L13.4663 13.3406L18.2017 8.60422L16.3979 6.80149L11.6626 11.5368ZM17.4585 5.73996L19.2622 7.54368L20.3999 6.40696L18.5962 4.60325L17.4585 5.73996Z" fill="#1b63d2"/>
</svg>
