<svg width="20" height="21" viewBox="0 0 20 21" fill="none" xmlns="http://www.w3.org/2000/svg">
<path fill-rule="evenodd" clip-rule="evenodd" d="M3.63549 7.07927C3.63549 5.40486 4.99287 4.04749 6.66727 4.04749C8.34168 4.04749 9.69906 5.40486 9.69906 7.07927C9.69906 7.98295 9.30368 8.79428 8.67648 9.34973C9.56963 9.84697 10.2532 10.6703 10.7247 11.5662C10.8928 11.4315 11.0704 11.3084 11.2574 11.1993C10.5992 10.6432 10.1812 9.81166 10.1812 8.88249C10.1812 7.20808 11.5385 5.85071 13.213 5.85071C14.8874 5.85071 16.2447 7.20808 16.2447 8.88249C16.2447 9.80781 15.8302 10.6363 15.1767 11.1924C15.629 11.4551 16.0263 11.8007 16.3655 12.1941C17.1232 13.0727 17.6163 14.2123 17.8425 15.309C18.0794 16.4573 17.1078 17.3008 16.1126 17.3008H10.3133C9.37674 17.3008 8.45903 16.5527 8.55559 15.5057H3.89044C2.8954 15.5057 1.92321 14.6621 2.16137 13.5133C2.389 12.4154 2.88494 11.2739 3.64476 10.3939C3.96568 10.0222 4.33821 9.69302 4.75974 9.43588C4.07389 8.88004 3.63549 8.03085 3.63549 7.07927ZM6.66727 5.29749C5.68322 5.29749 4.88549 6.09522 4.88549 7.07927C4.88549 8.06332 5.68322 8.86105 6.66727 8.86105C7.65132 8.86105 8.44906 8.06332 8.44906 7.07927C8.44906 6.09522 7.65132 5.29749 6.66727 5.29749ZM8.88658 14.2557C9.10959 13.6469 9.41559 13.0551 9.80343 12.5326C9.19273 11.1252 8.13097 10.1112 6.79006 10.1112C5.91799 10.1112 5.1802 10.5283 4.59087 11.2108C3.99525 11.9006 3.57834 12.8362 3.38534 13.7671C3.35968 13.8909 3.39412 13.9983 3.47746 14.0876C3.56672 14.1833 3.71406 14.2557 3.89044 14.2557H8.88658ZM13.213 7.10071C12.2289 7.10071 11.4312 7.89844 11.4312 8.88249C11.4312 9.86654 12.2289 10.6643 13.213 10.6643C14.197 10.6643 14.9947 9.86654 14.9947 8.88249C14.9947 7.89844 14.197 7.10071 13.213 7.10071ZM11.0201 13.0122C10.4224 13.7005 10.0032 14.634 9.80906 15.5633C9.78327 15.6867 9.81749 15.7937 9.90059 15.8828C9.98967 15.9784 10.1369 16.0508 10.3133 16.0508H16.1126C16.2889 16.0508 16.4364 15.9784 16.5258 15.8826C16.6093 15.7931 16.6439 15.6855 16.6183 15.5615C16.4264 14.6314 16.012 13.6981 15.4189 13.0105C14.8324 12.3304 14.0968 11.9144 13.2246 11.9144C12.3517 11.9144 11.6116 12.331 11.0201 13.0122Z" fill="currentcolor"/>
</svg>
