<svg width="24" height="24" viewBox="0 0 24 24" fill="none" xmlns="http://www.w3.org/2000/svg">
<g clip-path="url(#clip0_3415_3231)">
<path fill-rule="evenodd" clip-rule="evenodd" d="M5.6125 19.8375C7.35417 20.6125 9.48333 21 12 21C12.0157 21 12.0313 21 12.047 21C12.1168 20.6574 12.2624 20.3196 12.4939 20.0078L12.4999 19.9997L13.2906 18.9459C12.8565 18.982 12.4263 19 12 19C11.2333 19 10.45 18.9417 9.65 18.825C8.85 18.7083 8.11667 18.5542 7.45 18.3625C6.78333 18.1708 6.22917 17.9583 5.7875 17.725C5.34583 17.4917 5.08333 17.25 5 17V14.525C5.41667 14.7583 5.88333 14.9667 6.4 15.15C6.91667 15.3333 7.47083 15.4875 8.0625 15.6125C8.65417 15.7375 9.28333 15.8333 9.95 15.9C10.6167 15.9667 11.3 16 12 16C12.7 16 13.375 15.9667 14.025 15.9C14.3139 15.8704 14.597 15.835 14.8744 15.7938L14.7537 15.6427C14.3276 15.1019 14.1986 14.4615 14.3019 13.8696C14.2102 13.8803 14.1179 13.8905 14.025 13.9C13.375 13.9667 12.7 14 12 14C11.3 14 10.6167 13.9667 9.95 13.9C9.28333 13.8333 8.65417 13.7375 8.0625 13.6125C7.47083 13.4875 6.91667 13.3333 6.4 13.15C5.88333 12.9667 5.41667 12.7583 5 12.525V9.525C5.41667 9.75833 5.88333 9.96667 6.4 10.15C6.91667 10.3333 7.47083 10.4875 8.0625 10.6125C8.65417 10.7375 9.28333 10.8333 9.95 10.9C10.6167 10.9667 11.3 11 12 11C12.7 11 13.375 10.9667 14.025 10.9C14.675 10.8333 15.2958 10.7375 15.8875 10.6125C16.4792 10.4875 17.0375 10.3333 17.5625 10.15C18.0875 9.96667 18.5667 9.75833 19 9.525V12H19.4797C20.0932 12 20.6142 12.227 21 12.5836V7C21 5.9 20.1208 4.95833 18.3625 4.175C16.6042 3.39167 14.4833 3 12 3C9.51667 3 7.39583 3.39167 5.6375 4.175C3.87917 4.95833 3 5.9 3 7V17C3 18.1167 3.87083 19.0625 5.6125 19.8375ZM21 15.9504L20.9997 15.9508V16.6681L21 16.6685V15.9504ZM16.475 8.3875C14.975 8.8125 13.4833 9.025 12 9.025C10.4833 9.025 8.99583 8.81667 7.5375 8.4C6.07917 7.98333 5.23333 7.525 5 7.025C5.23333 6.525 6.07917 6.0625 7.5375 5.6375C8.99583 5.2125 10.4833 5 12 5C13.5 5 14.9958 5.21667 16.4875 5.65C17.9792 6.08333 18.8167 6.54167 19 7.025C18.8167 7.50833 17.975 7.9625 16.475 8.3875Z" fill="#202020"/>
<g clip-path="url(#clip1_3415_3231)">
<path d="M22.5502 21.7333L19.1669 17.2242V14.7917L19.9544 13.8058C20.106 13.6133 19.9719 13.3333 19.7269 13.3333H16.2735C16.0285 13.3333 15.8944 13.6133 16.046 13.8058L16.8335 14.7917V17.2242L13.4502 21.7333C13.1644 22.1183 13.4385 22.6667 13.9169 22.6667H22.0835C22.5619 22.6667 22.836 22.1183 22.5502 21.7333Z" fill="#202020"/>
</g>
</g>
<defs>
<clipPath id="clip0_3415_3231">
<rect width="24" height="24" fill="white"/>
</clipPath>
<clipPath id="clip1_3415_3231">
<rect width="14" height="14" fill="white" transform="translate(11 11)"/>
</clipPath>
</defs>
</svg>
