<svg width="50" height="51" viewBox="0 0 50 51" fill="none" xmlns="http://www.w3.org/2000/svg">
<g clip-path="url(#clip0_1483_12764)">
<path d="M25.5444 35.2559C25.4846 35.5672 25.2113 35.8026 24.8801 35.8026C24.5489 35.8026 24.2756 35.5652 24.2178 35.252C24.6487 35.3278 25.1115 35.3278 25.5424 35.2579L25.5444 35.2559Z" stroke="#1B2528" stroke-width="0.5" stroke-linejoin="round"/>
<path d="M27.3008 33.5089V33.9805C27.2888 34.3131 27.063 34.6436 26.6236 34.8976C26.3374 35.0628 25.9988 35.1757 25.634 35.2362C25.1986 35.3087 24.731 35.3067 24.2957 35.2301C23.9389 35.1656 23.6023 35.0528 23.3182 34.8915C22.8727 34.6335 22.643 34.301 22.6309 33.9644C22.6309 33.9603 22.6309 33.9563 22.6309 33.9523V33.4907C22.6651 33.5048 22.6994 33.5189 22.7337 33.5331C22.9977 33.6399 23.2819 33.7245 23.5741 33.789C24.469 33.9865 25.4647 33.9906 26.3596 33.7971C26.6539 33.7366 26.934 33.652 27.2001 33.5492C27.2343 33.5371 27.2686 33.523 27.3029 33.5068L27.3008 33.5089Z" stroke="#1B2528" stroke-width="0.5" stroke-linejoin="round"/>
<path d="M28.839 31.1709C28.835 31.2587 28.8231 31.3465 28.7991 31.4323C28.6894 31.8991 28.3223 32.35 27.7039 32.7091C27.642 32.745 27.5782 32.7789 27.5123 32.8128C27.4565 32.8388 27.4026 32.8667 27.3428 32.8926C27.269 32.9245 27.1971 32.9545 27.1213 32.9844C27.0535 33.0103 26.9837 33.0363 26.9139 33.0602C26.8819 33.0702 26.85 33.0821 26.8181 33.0921C26.7742 33.1061 26.7263 33.12 26.6804 33.134C26.6186 33.152 26.5548 33.1679 26.4929 33.1839C26.463 33.1919 26.4331 33.1978 26.4011 33.2058C26.3572 33.2158 26.3094 33.2278 26.2635 33.2358C26.1837 33.2517 26.1019 33.2677 26.0201 33.2816C25.8266 33.3136 25.6271 33.3375 25.4276 33.3495C25.3398 33.3574 25.252 33.3594 25.1642 33.3634C25.0944 33.3634 25.0226 33.3674 24.9548 33.3674H24.9488C24.877 33.3674 24.8071 33.3674 24.7373 33.3634C24.7253 33.3634 24.7114 33.3634 24.6974 33.3634C24.6316 33.3634 24.5657 33.3574 24.5019 33.3535H24.4879C24.4121 33.3475 24.3403 33.3435 24.2665 33.3335C24.073 33.3136 23.8835 33.2856 23.6959 33.2477C23.6461 33.2397 23.5962 33.2278 23.5483 33.2178C23.4206 33.1919 23.2929 33.158 23.1693 33.122C23.1014 33.1021 23.0356 33.0801 22.9698 33.0602C22.9079 33.0383 22.8461 33.0183 22.7862 32.9924C22.7762 32.9884 22.7643 32.9844 22.7523 32.9804C22.6964 32.9585 22.6426 32.9385 22.5907 32.9146C22.5668 32.9046 22.5468 32.8946 22.5249 32.8846C22.469 32.8587 22.4152 32.8348 22.3633 32.8068C22.2974 32.7749 22.2356 32.739 22.1718 32.7031C21.5394 32.338 21.1663 31.8812 21.0526 31.4063C21.0306 31.3226 21.0187 31.2388 21.0167 31.153C21.0167 31.145 21.0127 31.139 21.0167 31.131V31.0572C21.0167 31.0153 21.0207 30.9714 21.0246 30.9295C21.0326 30.8697 21.0446 30.8098 21.0606 30.75C21.0685 30.7759 21.0745 30.8039 21.0845 30.8278C21.1104 30.9076 21.1443 30.9874 21.1842 31.0652C21.3658 31.4103 21.697 31.7395 22.1718 32.0148C22.856 32.4098 23.7299 32.6293 24.6196 32.6752C24.8251 32.6851 25.0326 32.6851 25.2341 32.6752C26.1358 32.6393 27.0176 32.4218 27.7039 32.0268C27.7637 31.9929 27.8176 31.959 27.8714 31.9231C28.031 31.8173 28.1747 31.7056 28.2944 31.5879C28.456 31.4303 28.5817 31.2667 28.6694 31.0971C28.6974 31.0453 28.7233 30.9934 28.7433 30.9395C28.7512 30.9156 28.7592 30.8916 28.7672 30.8677C28.7772 30.8398 28.7871 30.8099 28.7931 30.7819C28.8111 30.8498 28.825 30.9176 28.833 30.9854C28.841 31.0492 28.841 31.1111 28.841 31.1769L28.839 31.1709Z" stroke="#1B2528" stroke-width="0.5" stroke-linejoin="round"/>
<path d="M22.7714 10.6055C23.2762 12.0618 23.5894 14.1067 22.7335 14.1067C21.8777 14.1067 22.1769 12.0618 22.7714 10.6055Z" stroke="#1B2528" stroke-width="0.5" stroke-linejoin="round"/>
<path d="M24.9618 10.7056C25.4646 12.1499 25.6661 14.0951 24.9239 14.0951C24.1818 14.0951 24.4352 12.1479 24.9618 10.7056Z" stroke="#1B2528" stroke-width="0.5" stroke-linejoin="round"/>
<path d="M27.0885 14.0489C26.3145 14.0489 26.5399 11.996 27.0307 10.5557C27.5833 11.996 27.8626 14.0489 27.0885 14.0489Z" stroke="#1B2528" stroke-width="0.5" stroke-linejoin="round"/>
<path d="M27.0885 14.0489C26.3145 14.0489 26.5399 11.996 27.0307 10.5557C27.5833 11.996 27.8626 14.0489 27.0885 14.0489Z" stroke="#1B2528" stroke-width="0.5" stroke-linejoin="round"/>
<path d="M24.9239 14.0951C24.1818 14.0951 24.4352 12.1479 24.9618 10.7056C25.4646 12.1499 25.6661 14.0951 24.9239 14.0951Z" stroke="#1B2528" stroke-width="0.5" stroke-linejoin="round"/>
<path d="M22.7335 14.1067C21.8777 14.1067 22.1769 12.0618 22.7714 10.6055C23.2762 12.0618 23.5894 14.1067 22.7335 14.1067Z" stroke="#1B2528" stroke-width="0.5" stroke-linejoin="round"/>
<path d="M45.0833 34.9106V38.5435L24.7922 50.2561V46.6232L40.6863 37.4483L43.8384 35.6288L45.0833 34.9106Z" stroke="#1B2528" stroke-width="0.5" stroke-linejoin="round"/>
<path d="M45.1591 34.857L43.9142 35.5752L41.9711 36.6964L40.7402 37.4066L24.7878 46.6344L9.24872 37.6539L8.01581 36.9417L6.05673 35.8147L4.77246 35.0635C6.01334 34.3473 7.33415 33.5822 8.57503 32.866C12.0004 30.889 15.4258 28.912 18.8532 26.9349C19.4298 26.6018 19.9345 26.3175 20.511 25.9863C20.6547 26.2796 20.7761 26.5766 20.8539 26.8778C20.9297 27.1651 20.9724 27.4155 20.9724 27.7007L21.0295 30.2998C21.0434 29.7353 21.4327 29.1913 22.1729 28.7663C22.3604 28.6546 22.5619 28.5628 22.7734 28.481C22.5639 28.5648 22.3684 28.6566 22.1828 28.7663C21.4407 29.1913 21.0508 29.714 21.0368 30.2786L21.0098 30.3566C21.0098 30.3566 21.0078 30.3606 21.0098 30.4563C21.0118 30.5521 21.0138 30.5414 21.0377 30.6371C21.0477 30.7275 21.0637 30.8152 21.0557 30.875C21.0497 30.9189 21.0477 30.9608 21.0477 31.0047V31.0765C21.0477 31.0765 21.0477 31.0905 21.0497 31.0985C21.0497 31.1842 21.0637 31.268 21.0836 31.3518C21.0617 31.4436 21.0497 31.5394 21.0477 31.6311V31.7049C21.0477 31.7049 21.0477 31.7189 21.0497 31.7269C21.0716 32.2895 21.4587 32.8461 22.2028 33.277C22.3444 33.3588 22.4921 33.4326 22.6477 33.4984V33.9673C22.6616 34.3004 22.8891 34.6316 23.33 34.8869C23.6093 35.0465 23.9444 35.1583 24.2975 35.2221C24.3534 35.5353 24.6287 35.7727 24.9579 35.7727C25.287 35.7727 25.5624 35.5373 25.6222 35.2261C25.9813 35.1662 26.3165 35.0565 26.6017 34.8909C27.0367 34.6396 27.2581 34.3144 27.2721 33.9832V33.5164C27.4337 33.4505 27.5913 33.3747 27.7369 33.289C28.471 32.864 28.8501 32.3094 28.872 31.7508C28.874 31.6271 28.8621 31.5054 28.8321 31.3837C28.8561 31.298 28.868 31.2102 28.872 31.1224C28.872 31.0586 28.872 30.9967 28.8641 30.9329C28.8561 30.865 28.8421 30.7972 28.8242 30.7294C28.8521 30.6316 28.8202 30.3546 28.8242 30.2568V30.0324V29.5898V28.0499C28.8242 27.689 28.8138 27.5291 28.8641 27.2332C28.882 27.1274 28.9805 26.7217 29.0084 26.616C29.1022 26.2688 29.2092 26.0803 29.3887 25.7432C30.0291 26.1182 30.7054 26.514 31.3458 26.889C35.9503 29.5444 40.5567 32.2017 45.1611 34.857H45.1591Z" fill="#CCFBC7" stroke="#1B2528" stroke-width="0.5" stroke-linejoin="round"/>
<path d="M24.7924 46.6233V50.2562L24.7904 50.2582L4.77271 38.7012V35.0684L6.01758 35.7886L9.14971 37.598L24.7904 46.6253L24.7924 46.6233Z" stroke="#1B2528" stroke-width="0.5" stroke-linejoin="round"/>
<path d="M25.9056 28.2589C25.9136 28.2629 25.9176 28.2629 25.9255 28.2629C25.9315 28.2629 25.9355 28.2668 25.9415 28.2668C25.9475 28.2668 25.9495 28.2668 25.9555 28.2668C25.9555 28.2668 25.9615 28.2668 25.9654 28.2668C25.9854 28.2688 26.0014 28.2747 26.0193 28.2747H26.0233C26.0293 28.2787 26.0333 28.2787 26.0373 28.2787C26.0413 28.2827 26.0432 28.2827 26.0492 28.2827C26.0891 28.2886 26.129 28.2965 26.1669 28.3045H26.1709C26.1789 28.3064 26.1849 28.3104 26.1929 28.3104C26.1969 28.3144 26.2009 28.3144 26.2048 28.3144H26.2128C26.2155 28.3144 26.2168 28.3144 26.2168 28.3144H26.2248C26.2388 28.3163 26.2527 28.3223 26.2647 28.3223C26.2966 28.3262 26.3265 28.3342 26.3565 28.3421C26.3565 28.3421 26.3624 28.3461 26.3664 28.3461C26.3784 28.348 26.3904 28.35 26.4023 28.354H26.4083C26.4143 28.354 26.4263 28.3599 26.4263 28.3599H26.4303H26.4343C26.4403 28.3619 26.4502 28.3659 26.4502 28.3659H26.4562H26.4622C26.4662 28.3659 26.4742 28.3698 26.4742 28.3698H26.4782C26.4808 28.3698 26.4821 28.3698 26.4821 28.3698H26.4901H26.4961C26.4988 28.3698 26.5001 28.3698 26.5001 28.3698C26.5141 28.3718 26.528 28.3758 26.54 28.3797C26.542 28.3837 26.548 28.3837 26.548 28.3837H26.552C26.5639 28.3857 26.5799 28.3877 26.5939 28.3936C26.5979 28.3936 26.5979 28.3936 26.5979 28.3936C26.6258 28.3995 26.6557 28.4094 26.6836 28.4193C26.6976 28.4233 26.7116 28.4253 26.7255 28.4312C26.7395 28.4352 26.7535 28.4392 26.7674 28.4431H26.7734H26.7794C26.7894 28.4451 26.7974 28.4471 26.8053 28.451H26.8113C26.814 28.451 26.8153 28.451 26.8153 28.451C26.8193 28.453 26.8233 28.457 26.8273 28.457C26.8572 28.4649 26.8871 28.4768 26.9131 28.4847C26.949 28.4986 26.9869 28.5125 27.0248 28.5263C27.0288 28.5283 27.0328 28.5323 27.0368 28.5323C27.0447 28.5342 27.0507 28.5362 27.0587 28.5402C27.0647 28.5422 27.0687 28.5441 27.0747 28.5481C27.1166 28.564 27.1584 28.5818 27.2003 28.5996C27.2163 28.6056 27.2303 28.6115 27.2422 28.6174C27.3559 28.663 27.4637 28.7145 27.5654 28.7739C27.5934 28.7878 27.6193 28.7997 27.6452 28.8155C28.4293 29.2652 28.8163 29.8575 28.7983 30.4479C28.8043 30.4419 28.8083 30.436 28.8083 30.436V27.7359C28.8083 27.4408 28.8542 27.1416 28.936 26.8465C29.0337 26.4899 29.1854 26.1313 29.3729 25.7847C29.4866 25.5707 29.6143 25.3588 29.7519 25.1527C29.9016 24.9249 30.0651 24.7031 30.2327 24.4931C30.3165 24.3881 30.4003 24.2831 30.4861 24.1841C30.6437 23.9998 30.8013 23.8235 30.9569 23.6571C31.4956 23.0886 32.0083 22.631 32.3275 22.3636C32.4392 22.2744 32.5489 22.1853 32.6586 22.0941C35.286 19.8953 36.9538 16.6069 36.9538 12.9282L36.9518 12.9263C36.9518 6.3059 31.5494 0.9375 24.8822 0.9375C18.2149 0.9375 12.8105 6.3059 12.8265 12.952C12.8265 16.6307 14.4943 19.9191 17.1217 22.1179C17.2314 22.209 17.3411 22.2982 17.4528 22.3873C17.78 22.6627 18.3127 23.1322 18.8633 23.7225C19.0189 23.8889 19.1745 24.0652 19.3321 24.2494C19.4139 24.3465 19.4957 24.4455 19.5755 24.5466C19.7391 24.7566 19.8987 24.9725 20.0483 25.1983C20.1919 25.4162 20.3256 25.6401 20.4433 25.8679C20.6229 26.2106 20.7685 26.5592 20.8603 26.9099C20.9341 27.1951 20.976 27.4784 20.976 27.7597V30.3666C20.9919 29.806 21.371 29.2533 22.1111 28.8294C22.2987 28.7205 22.5001 28.6273 22.7116 28.5481C22.7615 28.5283 22.8114 28.5105 22.8612 28.4946C22.9191 28.4728 22.977 28.455 23.0348 28.4372C23.0907 28.4174 23.1425 28.4035 23.2004 28.3896C23.2403 28.3777 23.2782 28.3678 23.3201 28.3599C23.3241 28.356 23.3281 28.356 23.3321 28.356C23.3799 28.3421 23.4278 28.3302 23.4777 28.3223C23.5296 28.3104 23.5834 28.2965 23.6393 28.2866C23.7331 28.2708 23.8308 28.2549 23.9246 28.243" stroke="#1B2528" stroke-width="0.5" stroke-linejoin="round"/>
<path d="M28.7943 30.4499V30.4639C28.7903 30.5616 28.7743 30.6594 28.7484 30.7591C28.7404 30.787 28.7325 30.817 28.7225 30.8449C28.7145 30.8688 28.7085 30.8928 28.6985 30.9167C28.6786 30.9706 28.6546 31.0224 28.6247 31.0743C28.5369 31.2439 28.4133 31.4075 28.2497 31.5651C28.13 31.6828 27.9883 31.7945 27.8267 31.9002C27.7729 31.9362 27.717 31.9701 27.6591 32.004C26.9729 32.399 26.0911 32.6184 25.1894 32.6524C24.9859 32.6603 24.7784 32.6603 24.5749 32.6524C23.6851 32.6085 22.8113 32.389 22.127 31.992C21.6502 31.7167 21.3211 31.3895 21.1395 31.0424C21.0976 30.9646 21.0637 30.8848 21.0398 30.805C21.0318 30.7791 21.0238 30.7531 21.0158 30.7272C20.9899 30.6334 20.9759 30.5377 20.9739 30.4419C20.9739 30.4339 20.97 30.4259 20.9739 30.42V30.3442C20.9879 29.7816 21.3689 29.223 22.1091 28.796C22.2946 28.6863 22.4901 28.5965 22.6996 28.5128C22.7495 28.4928 22.7994 28.4748 22.8492 28.4589C22.9071 28.4369 22.9629 28.419 23.0228 28.401C23.0787 28.3811 23.1325 28.3671 23.1884 28.3532C23.2283 28.3412 23.2662 28.3312 23.3081 28.3232C23.3121 28.3232 23.3161 28.3232 23.32 28.3192C23.3679 28.3053 23.4158 28.2933 23.4657 28.2853C23.5176 28.2734 23.5734 28.2594 23.6273 28.2494C23.721 28.2335 23.8188 28.2175 23.9126 28.2055C23.9764 28.1956 24.0382 28.1876 24.1041 28.1796C24.1699 28.1716 24.2318 28.1656 24.2976 28.1616C24.6667 28.1297 25.0417 28.1297 25.4128 28.1616C25.5165 28.1696 25.6163 28.1796 25.718 28.1936C25.73 28.1936 25.74 28.1936 25.7519 28.1975C25.7619 28.1975 25.7759 28.2015 25.7839 28.2035C25.7958 28.2035 25.8098 28.2075 25.8218 28.2075L25.8477 28.2135C25.8477 28.2135 25.8577 28.2135 25.8617 28.2135H25.8657C25.8756 28.2135 25.8876 28.2175 25.8956 28.2195C25.8956 28.2195 25.9075 28.2235 25.9155 28.2235C25.9215 28.2235 25.9255 28.2235 25.9315 28.2275C25.9375 28.2275 25.9395 28.2275 25.9455 28.2275C25.9494 28.2275 25.9534 28.2275 25.9554 28.2275C25.9754 28.2315 25.9913 28.2354 26.0093 28.2354H26.0133C26.0133 28.2354 26.0233 28.2394 26.0272 28.2394C26.0332 28.2394 26.0352 28.2434 26.0392 28.2434C26.0791 28.2494 26.119 28.2554 26.1569 28.2654H26.1609C26.1609 28.2654 26.1749 28.2694 26.1829 28.2714C26.1888 28.2714 26.1908 28.2754 26.1948 28.2754C26.1948 28.2754 26.2008 28.2754 26.2028 28.2754C26.2028 28.2754 26.2028 28.2754 26.2068 28.2754C26.2108 28.2754 26.2148 28.2754 26.2148 28.2754C26.2287 28.2793 26.2407 28.2833 26.2547 28.2833C26.2866 28.2873 26.3165 28.2933 26.3464 28.3033C26.3504 28.3033 26.3544 28.3033 26.3564 28.3073C26.3684 28.3073 26.3804 28.3113 26.3923 28.3153H26.3963C26.3963 28.3153 26.3963 28.3153 26.4003 28.3153C26.4063 28.3153 26.4103 28.3152 26.4183 28.3212H26.4223C26.4223 28.3212 26.4223 28.3212 26.4262 28.3212C26.4262 28.3212 26.4362 28.3252 26.4422 28.3272H26.4482C26.4482 28.3272 26.4522 28.3272 26.4542 28.3272C26.4582 28.3272 26.4622 28.3272 26.4661 28.3312H26.4701C26.4701 28.3312 26.4701 28.3312 26.4741 28.3312C26.4741 28.3312 26.4801 28.3312 26.4821 28.3312H26.4881C26.4881 28.3312 26.4881 28.3312 26.4921 28.3312C26.506 28.3352 26.518 28.3392 26.532 28.3412C26.532 28.3412 26.538 28.3412 26.54 28.3412C26.5519 28.3412 26.5679 28.3472 26.5819 28.3512C26.5819 28.3512 26.5832 28.3512 26.5858 28.3512C26.6138 28.3591 26.6437 28.3671 26.6716 28.3771C26.6836 28.3811 26.6976 28.3851 26.7135 28.3891C26.7255 28.395 26.7395 28.397 26.7554 28.401C26.7554 28.401 26.7594 28.401 26.7614 28.401C26.7614 28.401 26.7654 28.401 26.7674 28.401C26.7674 28.401 26.7833 28.407 26.7933 28.409C26.7933 28.409 26.7973 28.409 26.7993 28.409C26.8013 28.409 26.7993 28.409 26.8033 28.409C26.8073 28.409 26.8113 28.413 26.8153 28.415C26.8452 28.423 26.8751 28.4349 26.9011 28.4429C26.939 28.4549 26.9769 28.4689 27.0128 28.4848C27.0128 28.4848 27.0208 28.4888 27.0247 28.4908C27.0327 28.4948 27.0387 28.4968 27.0467 28.4988C27.0527 28.4988 27.0567 28.5028 27.0626 28.5068C27.1045 28.5227 27.1464 28.5407 27.1883 28.5586C27.2023 28.5646 27.2163 28.5706 27.2302 28.5766C27.3419 28.6205 27.4517 28.6743 27.5534 28.7342C27.5813 28.7482 27.6073 28.7601 27.6332 28.7761C28.4172 29.229 28.8043 29.8275 28.7863 30.42L28.7943 30.4499Z" stroke="#1B2528" stroke-width="0.5" stroke-linejoin="round"/>
<path d="M22.7715 10.6076C22.4902 9.80164 22.151 9.1792 21.9136 9.1792C21.4268 9.1792 21.1436 9.72383 21.1436 10.9089V15.8484C21.1436 17.61 22.7276 18.9886 23.6094 20.8998C23.761 21.2249 23.8907 21.5641 23.9884 21.9252C24.0602 22.1925 24.1161 22.4698 24.148 22.7591C24.1739 22.9666 24.1859 23.18 24.1859 23.4015C24.1859 23.587 24.156 24.1935 24.1101 24.9755C24.0542 25.9351 23.9784 27.16 23.9106 28.2034C23.9764 28.1914 24.0363 28.1854 24.1021 28.1775C24.168 28.1695 24.2318 28.1635 24.2956 28.1595C24.6647 28.1276 25.0398 28.1276 25.4108 28.1595C25.5146 28.1655 25.6143 28.1775 25.7161 28.1914C25.728 28.1914 25.738 28.1954 25.75 28.1954C25.76 28.1974 25.7819 28.2014 25.7819 28.2014C25.7939 28.2054 25.8098 28.2054 25.8198 28.2054L25.8457 28.2114C25.8517 28.2114 25.8597 28.2114 25.8597 28.2114H25.8637C25.8737 28.2134 25.8936 28.2174 25.8936 28.2174C25.8019 27.176 25.7001 25.9391 25.6383 24.9197C25.5984 24.3012 25.5744 23.7646 25.5744 23.3995C25.5744 23.1681 25.5904 22.9446 25.6163 22.7272C25.6502 22.4319 25.7101 22.1526 25.7859 21.8833C25.8876 21.5182 26.0213 21.1751 26.1729 20.8479C27.0627 18.9606 28.6188 17.5941 28.6188 15.8464V10.9069L28.6168 10.9089C28.6168 10.2006 28.6347 9.1792 27.9365 9.1792C27.6372 9.1792 27.2941 9.7777 27.0308 10.5577M22.7715 10.6076C22.175 12.062 21.8777 14.1088 22.7316 14.1088C23.5854 14.1088 23.2762 12.064 22.7715 10.6076ZM22.7715 10.6076C23.0986 9.80164 23.5156 9.1792 23.8787 9.1792C24.2418 9.1792 24.6607 9.8555 24.96 10.7054M24.96 10.7054C24.4333 12.1497 24.1799 14.0948 24.9221 14.0948C25.6642 14.0948 25.4647 12.1497 24.96 10.7054ZM24.96 10.7054C25.2692 9.8555 25.6742 9.1792 26.0233 9.1792C26.3525 9.1792 26.7295 9.7777 27.0308 10.5577M27.0308 10.5577C26.54 11.9981 26.3146 14.049 27.0886 14.049C27.8627 14.049 27.5834 11.9981 27.0308 10.5577Z" stroke="#1B2528" stroke-width="0.5" stroke-linejoin="round"/>
<path d="M25.8955 28.2173C26.0012 29.4422 26.095 30.3958 26.095 30.3958" stroke="#1B2528" stroke-width="0.5" stroke-linejoin="round"/>
<path d="M23.7668 30.3981C23.7668 30.3981 23.8327 29.4265 23.9105 28.2036" stroke="#1B2528" stroke-width="0.5" stroke-linejoin="round"/>
</g>
<defs>
<clipPath id="clip0_1483_12764">
<rect width="40.5541" height="49.755" fill="white" transform="translate(4.65088 0.625)"/>
</clipPath>
</defs>
</svg>
