<svg width="48" height="51" viewBox="0 0 48 51" fill="none" xmlns="http://www.w3.org/2000/svg">
<path d="M40.0096 34.0103C39.9296 34.0763 39.8416 34.1323 39.7476 34.1783C39.8356 34.1223 39.9216 34.0643 40.0096 34.0103Z" stroke="#1B2528" stroke-width="0.5" stroke-linejoin="round"/>
<path d="M34.136 24.7464V30.0924C34.136 30.1584 34.128 30.2184 34.108 30.2784C34.108 30.2844 34.106 30.2884 34.104 30.2964C34.064 30.4144 33.992 30.5124 33.9 30.5864L33.854 30.6184C33.666 30.7404 33.416 30.7664 33.194 30.6384L29.044 28.2404C28.96 28.1924 28.89 28.1244 28.838 28.0464C28.768 27.9444 28.73 27.8224 28.73 27.6964V22.3504C28.73 22.0864 28.886 21.8784 29.096 21.7824C29.188 21.7364 29.29 21.7164 29.396 21.7244C29.4 21.7244 29.404 21.7244 29.41 21.7264C29.498 21.7304 29.588 21.7564 29.674 21.8064L33.826 24.2044C34.02 24.3164 34.14 24.5244 34.14 24.7484L34.136 24.7464Z" stroke="#1B2528" stroke-width="0.5" stroke-linejoin="round"/>
<path d="M37.14 29.3723C37.134 31.0623 37.1 32.7083 37.042 34.3103V23.2163C37.114 25.2003 37.148 27.2523 37.14 29.3723Z" stroke="#1B2528" stroke-width="0.5" stroke-linejoin="round"/>
<path d="M39.2096 21.4946V33.7106C39.2096 33.9406 39.1596 34.1506 39.0676 34.3366C39.0436 34.3886 39.0136 34.4406 38.9836 34.4886C38.9636 34.5186 38.9436 34.5486 38.9216 34.5766C38.8916 34.6146 38.8596 34.6546 38.8236 34.6906C38.7956 34.7226 38.7656 34.7526 38.7356 34.7786C38.7016 34.8086 38.6696 34.8366 38.6336 34.8626C38.5576 34.9086 38.4836 34.9546 38.4076 35.0006C38.0096 35.1966 37.5216 35.2146 37.0796 34.9686C37.2636 34.8446 37.4436 34.7206 37.6276 34.5926C37.7436 34.5106 37.8596 34.4286 37.9756 34.3446C38.2056 34.1166 38.3536 33.7966 38.3536 33.4286V22.3346C38.3536 22.2946 38.3516 22.2566 38.3476 22.2166C38.3436 22.1706 38.3376 22.1226 38.3276 22.0766C38.3196 22.0366 38.3096 21.9966 38.2996 21.9586C38.2976 21.9546 38.2956 21.9506 38.2936 21.9466C38.2836 21.9086 38.2696 21.8706 38.2536 21.8346C38.2396 21.8006 38.2256 21.7686 38.2096 21.7386C38.1716 21.6646 38.1276 21.5946 38.0776 21.5306C38.0676 21.5166 38.0556 21.5026 38.0436 21.4886C38.0216 21.4626 37.9996 21.4386 37.9756 21.4146C37.9376 21.3746 37.8936 21.3366 37.8476 21.3006C37.8016 21.2666 37.7536 21.2326 37.7036 21.2046L29.0876 16.2306C28.9256 16.1386 28.7576 16.0826 28.5876 16.0646C28.5376 16.0566 28.4116 16.0466 28.2536 16.0706C28.0076 16.1066 27.8176 16.2066 27.6976 16.2866C27.4176 16.4826 27.1336 16.6786 26.8496 16.8746V16.0166C26.8496 15.5366 27.0776 15.1346 27.4096 14.8786C27.4876 14.8206 27.5716 14.7686 27.6596 14.7286C27.6976 14.7086 27.7376 14.6926 27.7776 14.6766C27.8056 14.6666 27.8356 14.6546 27.8656 14.6466C27.8856 14.6406 27.9036 14.6326 27.9236 14.6286C27.9376 14.6246 27.9516 14.6186 27.9676 14.6166C27.9836 14.6166 27.9976 14.6106 28.0136 14.6066C28.0396 14.6026 28.0656 14.5966 28.0916 14.5946C28.1416 14.5886 28.1916 14.5826 28.2436 14.5806C28.2676 14.5806 28.2936 14.5806 28.3196 14.5806C28.5496 14.5846 28.7836 14.6486 29.0036 14.7746L38.4936 20.2526C38.5216 20.2706 38.5496 20.2866 38.5756 20.3046C38.5936 20.3166 38.6116 20.3286 38.6276 20.3426C38.6696 20.3726 38.7116 20.4046 38.7476 20.4426C38.7636 20.4546 38.7776 20.4686 38.7916 20.4846C38.8136 20.5046 38.8356 20.5266 38.8576 20.5506C38.8796 20.5806 38.9036 20.6106 38.9256 20.6406C38.9416 20.6606 38.9556 20.6806 38.9676 20.7006C38.9856 20.7286 39.0016 20.7546 39.0176 20.7806C39.0336 20.8086 39.0476 20.8366 39.0636 20.8666C39.0836 20.9046 39.0976 20.9386 39.1116 20.9766C39.1216 21.0046 39.1336 21.0346 39.1416 21.0646C39.1476 21.0846 39.1556 21.1026 39.1596 21.1226C39.1676 21.1526 39.1776 21.1826 39.1816 21.2126C39.1856 21.2366 39.1896 21.2606 39.1916 21.2826C39.1936 21.2926 39.1956 21.2986 39.1956 21.3046C39.1976 21.3246 39.2016 21.3446 39.2036 21.3626C39.2076 21.4066 39.2096 21.4526 39.2096 21.4966V21.4946Z" stroke="#1B2528" stroke-width="0.5" stroke-linejoin="round"/>
<path d="M26.8497 16.8726V16.9686C26.7537 16.9886 26.6617 17.0206 26.5757 17.0626C26.6677 16.9986 26.7577 16.9366 26.8497 16.8726Z" stroke="#1B2528" stroke-width="0.5" stroke-linejoin="round"/>
<path d="M37.0798 34.9666C36.9038 35.0886 36.7278 35.2106 36.5498 35.3306C36.7018 35.2086 36.8298 35.0546 36.9158 34.8726L37.0558 34.9526C37.0558 34.9526 37.0718 34.9606 37.0798 34.9666Z" stroke="#1B2528" stroke-width="0.5" stroke-linejoin="round"/>
<path d="M37.14 29.3728C37.134 31.0628 37.1 32.7088 37.042 34.3108V23.2168C37.114 25.2008 37.148 27.2528 37.14 29.3728Z" stroke="#1B2528" stroke-width="0.5" stroke-linejoin="round"/>
<path d="M36.4658 22.1369C36.4658 22.1369 36.4478 22.1229 36.4418 22.1189C36.4398 22.1189 36.4378 22.1169 36.4358 22.1149C36.4198 22.1069 36.4078 22.0969 36.3918 22.0889L27.7758 17.1149C27.5878 17.0069 27.3918 16.9509 27.1978 16.9409C27.0798 16.9349 26.9618 16.9429 26.8498 16.9689C26.7538 16.9889 26.6618 17.0209 26.5758 17.0629C26.2898 17.1949 26.0538 17.4289 25.9238 17.7289C25.8798 17.8289 25.8198 18.0049 25.8198 18.2429C25.9338 20.0549 25.9958 21.9769 25.9918 24.0029C25.9878 25.8709 25.9238 27.6529 25.8198 29.3369C25.8198 29.5689 25.8838 29.7949 25.9938 29.9889C26.1398 30.2409 26.3418 30.3889 26.4698 30.4689C27.6738 31.1009 28.8998 31.7709 30.1458 32.4789C31.8738 33.4629 33.5198 34.4529 35.0858 35.4429C35.5438 35.7089 36.0638 35.6589 36.4518 35.4029L36.5498 35.3329C36.7018 35.2109 36.8298 35.0569 36.9158 34.8749C36.9378 34.8289 36.9578 34.7809 36.9718 34.7309C36.9858 34.6889 36.9958 34.6509 37.0058 34.6109C37.0218 34.5409 37.0298 34.4789 37.0358 34.4209V34.4149C37.0378 34.3829 37.0398 34.3469 37.0398 34.3129V23.2189C37.0398 22.7829 36.8218 22.3769 36.4618 22.1369H36.4658ZM34.1358 30.0929C34.1358 30.1589 34.1278 30.2189 34.1078 30.2789C34.1078 30.2849 34.1058 30.2889 34.1038 30.2969C34.0638 30.4149 33.9918 30.5129 33.8998 30.5869L33.8538 30.6189C33.6658 30.7409 33.4158 30.7669 33.1938 30.6389L29.0438 28.2409C28.9598 28.1929 28.8898 28.1249 28.8378 28.0469C28.7678 27.9449 28.7298 27.8229 28.7298 27.6969V22.3509C28.7298 22.0869 28.8858 21.8789 29.0958 21.7829C29.1878 21.7369 29.2898 21.7169 29.3958 21.7249C29.3998 21.7249 29.4038 21.7249 29.4098 21.7269C29.4978 21.7309 29.5878 21.7569 29.6738 21.8069L33.8258 24.2049C34.0198 24.3169 34.1398 24.5249 34.1398 24.7489V30.0949L34.1358 30.0929Z" stroke="#1B2528" stroke-width="0.5" stroke-linejoin="round"/>
<path d="M34.136 24.7469V30.0929C34.136 30.1589 34.128 30.2189 34.108 30.2789C34.108 30.2849 34.106 30.2889 34.104 30.2969C34.064 30.4149 33.992 30.5129 33.9 30.5869L33.854 30.6189C33.666 30.7409 33.416 30.7669 33.194 30.6389L29.044 28.2409C28.96 28.1929 28.89 28.1249 28.838 28.0469C28.768 27.9449 28.73 27.8229 28.73 27.6969V22.3509C28.73 22.0869 28.886 21.8789 29.096 21.7829C29.188 21.7369 29.29 21.7169 29.396 21.7249C29.4 21.7249 29.404 21.7249 29.41 21.7269C29.498 21.7309 29.588 21.7569 29.674 21.8069L33.826 24.2049C34.02 24.3169 34.14 24.5249 34.14 24.7489L34.136 24.7469Z" stroke="#1B2528" stroke-width="0.5" stroke-linejoin="round"/>
<path d="M37.14 29.3728C37.134 31.0628 37.1 32.7088 37.042 34.3108V23.2168C37.114 25.2008 37.148 27.2528 37.14 29.3728Z" stroke="#1B2528" stroke-width="0.5" stroke-linejoin="round"/>
<path d="M29.4555 27.5524L28.8355 28.0444C28.7655 27.9424 28.7275 27.8204 28.7275 27.6944V22.3484C28.7275 22.0844 28.8835 21.8764 29.0935 21.7804C29.1855 21.7344 29.2875 21.7144 29.3935 21.7224C29.3975 21.7224 29.4015 21.7224 29.4075 21.7244C29.3875 21.7804 29.3795 21.8424 29.3795 21.9064V27.2524C29.3795 27.3584 29.4075 27.4624 29.4575 27.5524H29.4555Z" stroke="#1B2528" stroke-width="0.5" stroke-linejoin="round"/>
<path d="M34.1074 30.2762C34.1074 30.2762 34.1054 30.2862 34.1034 30.2942C34.0634 30.4122 33.9914 30.5102 33.8994 30.5842L33.8534 30.6162C33.6654 30.7382 33.4154 30.7642 33.1934 30.6362L29.0434 28.2382C28.9594 28.1902 28.8894 28.1222 28.8374 28.0442L29.4574 27.5522C29.5094 27.6522 29.5894 27.7382 29.6934 27.7962L33.8454 30.1942C33.9294 30.2422 34.0194 30.2702 34.1094 30.2762H34.1074Z" stroke="#1B2528" stroke-width="0.5" stroke-linejoin="round"/>
<path d="M34.1354 24.7466V30.0926C34.1354 30.1586 34.1274 30.2186 34.1074 30.2786C34.0174 30.2726 33.9294 30.2446 33.8434 30.1966L29.6914 27.7986C29.5894 27.7406 29.5094 27.6546 29.4554 27.5546C29.4054 27.4626 29.3774 27.3606 29.3774 27.2546V21.9086C29.3774 21.8426 29.3854 21.7826 29.4054 21.7266C29.4934 21.7306 29.5834 21.7566 29.6694 21.8066L33.8214 24.2046C34.0154 24.3166 34.1354 24.5246 34.1354 24.7486V24.7466Z" stroke="#1B2528" stroke-width="0.5" stroke-linejoin="round"/>
<path d="M33.1998 2.1563C33.2118 2.1603 33.2238 2.1663 33.2358 2.1723C33.2238 2.1683 33.2118 2.1643 33.1998 2.1583C33.1978 2.1563 33.1958 2.1543 33.1938 2.1543C33.1958 2.1543 33.1978 2.1543 33.1998 2.1563Z" stroke="#1B2528" stroke-width="0.5" stroke-linejoin="round"/>
<path d="M27.8637 14.6445C27.8337 14.6525 27.8057 14.6645 27.7757 14.6745C27.7337 14.6905 27.6957 14.7065 27.6577 14.7265C27.6637 14.7365 27.7637 14.6785 27.9217 14.6265C27.9017 14.6305 27.8817 14.6365 27.8637 14.6445Z" stroke="#1B2528" stroke-width="0.5" stroke-linejoin="round"/>
<path d="M43.0398 19.0584V31.2744C43.0398 31.7404 42.8258 32.1304 42.5098 32.3884C42.0758 32.6664 41.6378 32.9424 41.1958 33.2184C41.1578 33.2584 41.1198 33.2924 41.0778 33.3284C40.3198 33.8164 39.5518 34.2964 38.7758 34.7764C38.7278 34.8044 38.6818 34.8344 38.6338 34.8624C38.6698 34.8364 38.7018 34.8084 38.7358 34.7784C38.7658 34.7524 38.7958 34.7224 38.8238 34.6904C38.8598 34.6544 38.8918 34.6144 38.9218 34.5764C38.9438 34.5484 38.9638 34.5184 38.9838 34.4884C39.0138 34.4404 39.0438 34.3884 39.0678 34.3364C39.1598 34.1504 39.2098 33.9404 39.2098 33.7104V21.4944C39.2098 21.4504 39.2078 21.4044 39.2038 21.3604C39.2018 21.3424 39.1978 21.3224 39.1958 21.3024C39.1958 21.2964 39.1938 21.2904 39.1918 21.2804C39.1898 21.2584 39.1858 21.2344 39.1818 21.2104C39.1778 21.1804 39.1678 21.1504 39.1598 21.1204C39.1558 21.1004 39.1478 21.0824 39.1418 21.0624C39.1338 21.0324 39.1218 21.0024 39.1118 20.9744L42.9918 18.7324C43.0118 18.8084 43.0318 18.9204 43.0398 19.0584Z" stroke="#1B2528" stroke-width="0.5" stroke-linejoin="round"/>
<path d="M40.0096 34.0103C39.9296 34.0763 39.8416 34.1323 39.7476 34.1783C39.8356 34.1223 39.9216 34.0643 40.0096 34.0103Z" stroke="#1B2528" stroke-width="0.5" stroke-linejoin="round"/>
<path d="M34.136 24.7464V30.0924C34.136 30.1584 34.128 30.2184 34.108 30.2784C34.108 30.2844 34.106 30.2884 34.104 30.2964C34.064 30.4144 33.992 30.5124 33.9 30.5864L33.854 30.6184C33.666 30.7404 33.416 30.7664 33.194 30.6384L29.044 28.2404C28.96 28.1924 28.89 28.1244 28.838 28.0464C28.768 27.9444 28.73 27.8224 28.73 27.6964V22.3504C28.73 22.0864 28.886 21.8784 29.096 21.7824C29.188 21.7364 29.29 21.7164 29.396 21.7244C29.4 21.7244 29.404 21.7244 29.41 21.7264C29.498 21.7304 29.588 21.7564 29.674 21.8064L33.826 24.2044C34.02 24.3164 34.14 24.5244 34.14 24.7484L34.136 24.7464Z" stroke="#1B2528" stroke-width="0.5" stroke-linejoin="round"/>
<path d="M37.14 29.3723C37.134 31.0623 37.1 32.7083 37.042 34.3103V23.2163C37.114 25.2003 37.148 27.2523 37.14 29.3723Z" stroke="#1B2528" stroke-width="0.5" stroke-linejoin="round"/>
<path d="M39.2096 21.4946V33.7106C39.2096 33.9406 39.1596 34.1506 39.0676 34.3366C39.0436 34.3886 39.0136 34.4406 38.9836 34.4886C38.9636 34.5186 38.9436 34.5486 38.9216 34.5766C38.8916 34.6146 38.8596 34.6546 38.8236 34.6906C38.7956 34.7226 38.7656 34.7526 38.7356 34.7786C38.7016 34.8086 38.6696 34.8366 38.6336 34.8626C38.5576 34.9086 38.4836 34.9546 38.4076 35.0006C38.0096 35.1966 37.5216 35.2146 37.0796 34.9686C37.2636 34.8446 37.4436 34.7206 37.6276 34.5926C37.7436 34.5106 37.8596 34.4286 37.9756 34.3446C38.2056 34.1166 38.3536 33.7966 38.3536 33.4286V22.3346C38.3536 22.2946 38.3516 22.2566 38.3476 22.2166C38.3436 22.1706 38.3376 22.1226 38.3276 22.0766C38.3196 22.0366 38.3096 21.9966 38.2996 21.9586C38.2976 21.9546 38.2956 21.9506 38.2936 21.9466C38.2836 21.9086 38.2696 21.8706 38.2536 21.8346C38.2396 21.8006 38.2256 21.7686 38.2096 21.7386C38.1716 21.6646 38.1276 21.5946 38.0776 21.5306C38.0676 21.5166 38.0556 21.5026 38.0436 21.4886C38.0216 21.4626 37.9996 21.4386 37.9756 21.4146C37.9376 21.3746 37.8936 21.3366 37.8476 21.3006C37.8016 21.2666 37.7536 21.2326 37.7036 21.2046L29.0876 16.2306C28.9256 16.1386 28.7576 16.0826 28.5876 16.0646C28.5376 16.0566 28.4116 16.0466 28.2536 16.0706C28.0076 16.1066 27.8176 16.2066 27.6976 16.2866C27.4176 16.4826 27.1336 16.6786 26.8496 16.8746V16.0166C26.8496 15.5366 27.0776 15.1346 27.4096 14.8786C27.4876 14.8206 27.5716 14.7686 27.6596 14.7286C27.6976 14.7086 27.7376 14.6926 27.7776 14.6766C27.8056 14.6666 27.8356 14.6546 27.8656 14.6466C27.8856 14.6406 27.9036 14.6326 27.9236 14.6286C27.9376 14.6246 27.9516 14.6186 27.9676 14.6166C27.9836 14.6166 27.9976 14.6106 28.0136 14.6066C28.0396 14.6026 28.0656 14.5966 28.0916 14.5946C28.1416 14.5886 28.1916 14.5826 28.2436 14.5806C28.2676 14.5806 28.2936 14.5806 28.3196 14.5806C28.5496 14.5846 28.7836 14.6486 29.0036 14.7746L38.4936 20.2526C38.5216 20.2706 38.5496 20.2866 38.5756 20.3046C38.5936 20.3166 38.6116 20.3286 38.6276 20.3426C38.6696 20.3726 38.7116 20.4046 38.7476 20.4426C38.7636 20.4546 38.7776 20.4686 38.7916 20.4846C38.8136 20.5046 38.8356 20.5266 38.8576 20.5506C38.8796 20.5806 38.9036 20.6106 38.9256 20.6406C38.9416 20.6606 38.9556 20.6806 38.9676 20.7006C38.9856 20.7286 39.0016 20.7546 39.0176 20.7806C39.0336 20.8086 39.0476 20.8366 39.0636 20.8666C39.0836 20.9046 39.0976 20.9386 39.1116 20.9766C39.1216 21.0046 39.1336 21.0346 39.1416 21.0646C39.1476 21.0846 39.1556 21.1026 39.1596 21.1226C39.1676 21.1526 39.1776 21.1826 39.1816 21.2126C39.1856 21.2366 39.1896 21.2606 39.1916 21.2826C39.1936 21.2926 39.1956 21.2986 39.1956 21.3046C39.1976 21.3246 39.2016 21.3446 39.2036 21.3626C39.2076 21.4066 39.2096 21.4526 39.2096 21.4966V21.4946Z" stroke="#1B2528" stroke-width="0.5" stroke-linejoin="round"/>
<path d="M38.3537 22.3343V33.4283C38.3537 33.7963 38.2057 34.1163 37.9757 34.3443C37.8597 34.4263 37.7457 34.5103 37.6297 34.5923C37.4477 34.7183 37.2637 34.8423 37.0817 34.9663C37.0737 34.9623 37.0657 34.9583 37.0577 34.9523L36.9177 34.8723C36.9397 34.8263 36.9597 34.7783 36.9737 34.7283C36.9877 34.6883 36.9997 34.6503 37.0077 34.6083C37.0237 34.5383 37.0317 34.4763 37.0377 34.4183V34.4123C37.0397 34.3803 37.0417 34.3443 37.0417 34.3103C37.0997 32.7083 37.1337 31.0623 37.1397 29.3723C37.1477 27.2543 37.1137 25.2003 37.0417 23.2163C37.0417 22.7803 36.8237 22.3743 36.4637 22.1343C36.4557 22.1283 36.4457 22.1203 36.4397 22.1163C36.4377 22.1163 36.4357 22.1143 36.4337 22.1123C36.4177 22.1043 36.4057 22.0943 36.3897 22.0863L27.7737 17.1123C27.5857 17.0043 27.3897 16.9483 27.1957 16.9383C27.0777 16.9323 26.9597 16.9403 26.8477 16.9663V16.8703C27.1317 16.6743 27.4137 16.4783 27.6937 16.2823C27.8137 16.2043 28.0037 16.1043 28.2497 16.0663C28.4077 16.0423 28.5357 16.0523 28.5857 16.0603C28.7557 16.0803 28.9237 16.1343 29.0837 16.2283L37.6997 21.2023C38.1017 21.4343 38.3517 21.8663 38.3517 22.3323L38.3537 22.3343Z" fill="#CCFBC7" stroke="#1B2528" stroke-width="0.5" stroke-linejoin="round"/>
<path d="M26.8497 16.8726V16.9686C26.7537 16.9886 26.6617 17.0206 26.5757 17.0626C26.6677 16.9986 26.7577 16.9366 26.8497 16.8726Z" stroke="#1B2528" stroke-width="0.5" stroke-linejoin="round"/>
<path d="M37.0798 34.9666C36.9038 35.0886 36.7278 35.2106 36.5498 35.3306C36.7018 35.2086 36.8298 35.0546 36.9158 34.8726L37.0558 34.9526C37.0558 34.9526 37.0718 34.9606 37.0798 34.9666Z" stroke="#1B2528" stroke-width="0.5" stroke-linejoin="round"/>
<path d="M37.14 29.3723C37.134 31.0623 37.1 32.7083 37.042 34.3103V23.2163C37.114 25.2003 37.148 27.2523 37.14 29.3723Z" stroke="#1B2528" stroke-width="0.5" stroke-linejoin="round"/>
<path d="M36.4658 22.1364C36.4658 22.1364 36.4478 22.1224 36.4418 22.1184C36.4398 22.1184 36.4378 22.1164 36.4358 22.1144C36.4198 22.1064 36.4078 22.0964 36.3918 22.0884L27.7758 17.1144C27.5878 17.0064 27.3918 16.9504 27.1978 16.9404C27.0798 16.9344 26.9618 16.9424 26.8498 16.9684C26.7538 16.9884 26.6618 17.0204 26.5758 17.0624C26.2898 17.1944 26.0538 17.4284 25.9238 17.7284C25.8798 17.8284 25.8198 18.0044 25.8198 18.2424C25.9338 20.0544 25.9958 21.9764 25.9918 24.0024C25.9878 25.8704 25.9238 27.6524 25.8198 29.3364C25.8198 29.5684 25.8838 29.7944 25.9938 29.9884C26.1398 30.2404 26.3418 30.3884 26.4698 30.4684C27.6738 31.1004 28.8998 31.7704 30.1458 32.4784C31.8738 33.4624 33.5198 34.4524 35.0858 35.4424C35.5438 35.7084 36.0638 35.6584 36.4518 35.4024L36.5498 35.3324C36.7018 35.2104 36.8298 35.0564 36.9158 34.8744C36.9378 34.8284 36.9578 34.7804 36.9718 34.7304C36.9858 34.6884 36.9958 34.6504 37.0058 34.6104C37.0218 34.5404 37.0298 34.4784 37.0358 34.4204V34.4144C37.0378 34.3824 37.0398 34.3464 37.0398 34.3124V23.2184C37.0398 22.7824 36.8218 22.3764 36.4618 22.1364H36.4658ZM34.1358 30.0924C34.1358 30.1584 34.1278 30.2184 34.1078 30.2784C34.1078 30.2844 34.1058 30.2884 34.1038 30.2964C34.0638 30.4144 33.9918 30.5124 33.8998 30.5864L33.8538 30.6184C33.6658 30.7404 33.4158 30.7664 33.1938 30.6384L29.0438 28.2404C28.9598 28.1924 28.8898 28.1244 28.8378 28.0464C28.7678 27.9444 28.7298 27.8224 28.7298 27.6964V22.3504C28.7298 22.0864 28.8858 21.8784 29.0958 21.7824C29.1878 21.7364 29.2898 21.7164 29.3958 21.7244C29.3998 21.7244 29.4038 21.7244 29.4098 21.7264C29.4978 21.7304 29.5878 21.7564 29.6738 21.8064L33.8258 24.2044C34.0198 24.3164 34.1398 24.5244 34.1398 24.7484V30.0944L34.1358 30.0924Z" fill="#CCFBC7" stroke="#1B2528" stroke-width="0.5" stroke-linejoin="round"/>
<path d="M34.136 24.7464V30.0924C34.136 30.1584 34.128 30.2184 34.108 30.2784C34.108 30.2844 34.106 30.2884 34.104 30.2964C34.064 30.4144 33.992 30.5124 33.9 30.5864L33.854 30.6184C33.666 30.7404 33.416 30.7664 33.194 30.6384L29.044 28.2404C28.96 28.1924 28.89 28.1244 28.838 28.0464C28.768 27.9444 28.73 27.8224 28.73 27.6964V22.3504C28.73 22.0864 28.886 21.8784 29.096 21.7824C29.188 21.7364 29.29 21.7164 29.396 21.7244C29.4 21.7244 29.404 21.7244 29.41 21.7264C29.498 21.7304 29.588 21.7564 29.674 21.8064L33.826 24.2044C34.02 24.3164 34.14 24.5244 34.14 24.7484L34.136 24.7464Z" stroke="#1B2528" stroke-width="0.5" stroke-linejoin="round"/>
<path d="M29.4555 27.5524L28.8355 28.0444C28.7655 27.9424 28.7275 27.8204 28.7275 27.6944V22.3484C28.7275 22.0844 28.8835 21.8764 29.0935 21.7804C29.1855 21.7344 29.2875 21.7144 29.3935 21.7224C29.3975 21.7224 29.4015 21.7224 29.4075 21.7244C29.3875 21.7804 29.3795 21.8424 29.3795 21.9064V27.2524C29.3795 27.3584 29.4075 27.4624 29.4575 27.5524H29.4555Z" fill="#CCFBC7" stroke="#1B2528" stroke-width="0.5" stroke-linejoin="round"/>
<path d="M34.1074 30.2762C34.1074 30.2762 34.1054 30.2862 34.1034 30.2942C34.0634 30.4122 33.9914 30.5102 33.8994 30.5842L33.8534 30.6162C33.6654 30.7382 33.4154 30.7642 33.1934 30.6362L29.0434 28.2382C28.9594 28.1902 28.8894 28.1222 28.8374 28.0442L29.4574 27.5522C29.5094 27.6522 29.5894 27.7382 29.6934 27.7962L33.8454 30.1942C33.9294 30.2422 34.0194 30.2702 34.1094 30.2762H34.1074Z" fill="#CCFBC7" stroke="#1B2528" stroke-width="0.5" stroke-linejoin="round"/>
<path d="M34.1354 24.7466V30.0926C34.1354 30.1586 34.1274 30.2186 34.1074 30.2786C34.0174 30.2726 33.9294 30.2446 33.8434 30.1966L29.6914 27.7986C29.5894 27.7406 29.5094 27.6546 29.4554 27.5546C29.4054 27.4626 29.3774 27.3606 29.3774 27.2546V21.9086C29.3774 21.8426 29.3854 21.7826 29.4054 21.7266C29.4934 21.7306 29.5834 21.7566 29.6694 21.8066L33.8214 24.2046C34.0154 24.3166 34.1354 24.5246 34.1354 24.7486V24.7466Z" fill="#CCFBC7" stroke="#1B2528" stroke-width="0.5" stroke-linejoin="round"/>
<path d="M36.5056 7.58021C36.4836 8.89621 36.4676 10.2142 36.4536 11.5342C36.4516 11.7362 36.4476 11.9382 36.4456 12.1402H36.4416L32.9036 10.0402L32.3876 9.73421C32.4296 7.33221 32.4776 5.41421 32.4776 5.41421C32.4816 5.07821 32.4676 4.73821 32.4296 4.40421C32.3956 4.09621 32.3596 3.78421 32.2496 3.41221C32.1636 3.12421 32.0016 2.70221 31.6836 2.23821C32.2376 2.23221 32.7916 2.22621 33.3456 2.22021C33.8016 2.51421 34.0676 2.67221 34.2316 2.76221C34.2376 2.76621 34.2416 2.76821 34.2496 2.77221C34.4536 2.89021 34.6296 3.01021 34.7736 3.12021C34.8016 3.14221 34.8316 3.16221 34.8596 3.18421C34.8776 3.20021 34.8976 3.21421 34.9176 3.23021C34.9356 3.24221 34.9536 3.25821 34.9696 3.27421C34.9876 3.28821 35.0036 3.30021 35.0196 3.31621C35.0516 3.34421 35.0816 3.36821 35.1076 3.39221C35.1216 3.40221 35.1336 3.41421 35.1456 3.42621C35.1816 3.45821 35.2156 3.49221 35.2516 3.52821C35.2596 3.53621 35.2696 3.54621 35.2796 3.55621L35.2876 3.56621C35.3176 3.59621 35.3476 3.62821 35.3736 3.66021C35.4736 3.77821 35.5596 3.89621 35.6376 4.01621C35.6656 4.05221 35.6876 4.09021 35.7096 4.13021C35.7776 4.23821 35.8376 4.34621 35.8896 4.45621C35.9156 4.50621 35.9376 4.55621 35.9576 4.60621C35.9816 4.65821 36.0036 4.70821 36.0236 4.75821C36.0436 4.81021 36.0636 4.86021 36.0796 4.91221C36.1036 4.97621 36.1236 5.04021 36.1436 5.10221C36.1456 5.10621 36.1476 5.11221 36.1476 5.11821C36.1716 5.19621 36.1936 5.27221 36.2156 5.34621C36.2376 5.42621 36.2596 5.50621 36.2796 5.58221C36.4516 6.23021 36.5156 6.90621 36.5056 7.58021Z" stroke="#1B2528" stroke-width="0.5" stroke-linejoin="round"/>
<path d="M36.4415 12.1384C36.4295 12.9044 36.4175 13.6724 36.4035 14.4384C36.3855 15.5644 36.3675 16.6884 36.3495 17.8144C35.0095 17.0744 33.6715 16.3344 32.3315 15.5944C32.3415 14.4524 32.3535 13.3124 32.3635 12.1704C32.3715 11.3584 32.3795 10.5464 32.3875 9.73438L32.9035 10.0404L36.4415 12.1384Z" stroke="#1B2528" stroke-width="0.5" stroke-linejoin="round"/>
<path d="M33.3359 2.27042C33.1979 2.24842 33.0779 2.23442 32.9799 2.22442C32.5899 2.22442 32.1979 2.22442 31.8079 2.22642C31.7979 2.23042 31.7919 2.23042 31.7839 2.23042C31.6019 2.24242 31.4239 2.25842 31.2439 2.28242C31.0639 2.30442 30.8819 2.32842 30.7059 2.36042H30.6979C30.3959 2.41242 30.0959 2.47642 29.7979 2.55642C29.7939 2.55642 29.7859 2.55842 29.7819 2.56042C29.7359 2.57042 29.6899 2.58242 29.6459 2.59442C29.5579 2.61642 29.4679 2.64242 29.3839 2.67242C29.2939 2.69642 29.2079 2.72442 29.1219 2.75042C29.0439 2.77442 28.9679 2.80242 28.8919 2.82642C28.8679 2.83442 28.8479 2.84042 28.8259 2.85042C28.7519 2.87442 28.6779 2.90242 28.6059 2.92842C28.5299 2.95642 28.4539 2.98442 28.3799 3.01442C28.1139 3.11842 27.8499 3.23042 27.5919 3.35242C27.2719 3.49642 26.9559 3.65842 26.6459 3.83242C26.4439 3.94042 26.2439 4.05642 26.0459 4.17642C25.9639 4.22642 25.8839 4.27442 25.8059 4.32442C25.3739 4.59442 24.9499 4.88442 24.5359 5.19042C24.4619 5.24442 24.3859 5.30042 24.3119 5.35842C24.1479 5.48642 23.9799 5.61842 23.8139 5.74842C18.3979 9.73242 14.6459 16.4544 14.1479 17.4364C12.4899 20.7024 11.7039 23.8184 11.3079 25.9284C11.2919 26.0124 11.2759 26.0984 11.2659 26.1804C11.2339 26.4024 11.2099 26.6264 11.1979 26.8504C11.1979 27.0124 11.1959 27.1744 11.1959 27.3384V27.3424C11.1919 27.8504 11.1899 28.3584 11.1879 28.8684C11.1859 29.2304 11.1839 29.5904 11.1819 29.9524C11.1819 30.0824 11.1799 30.2104 11.1799 30.3404L11.1739 30.3344C11.1719 30.2044 11.1679 30.0744 11.1679 29.9444C11.1619 29.5884 11.1619 29.2244 11.1639 28.8564C11.1639 28.4864 11.1739 28.1244 11.1839 27.7704V27.7544C11.1859 27.6404 11.1899 27.5284 11.1939 27.4164C11.1919 27.4164 11.1879 27.4124 11.1859 27.4104C11.1759 27.4044 11.1639 27.3964 11.1539 27.3904C10.9419 27.2484 10.7239 27.1084 10.5099 26.9684C9.50386 26.3144 8.50186 25.6764 7.50586 25.0544C7.51586 24.6744 7.55586 24.2964 7.62586 23.9244C7.88186 22.5504 8.32386 19.5284 10.4639 15.4304C11.5139 13.4164 14.4179 7.99042 20.0319 3.86642C20.4819 3.53842 23.9699 1.01842 27.0019 0.794419C28.5559 0.682419 30.1219 0.970419 30.1219 0.970419C31.2799 1.18042 32.0359 1.48242 32.0359 1.48242C32.1139 1.52642 32.1899 1.57042 32.2659 1.61242H32.2679C32.3319 1.65042 32.3979 1.68442 32.4599 1.72242C32.4619 1.72242 32.4639 1.72242 32.4659 1.72442C32.7199 1.86442 32.9699 2.00642 33.2199 2.14842C33.2199 2.14842 33.2219 2.14842 33.2219 2.15042C33.2239 2.15242 33.2259 2.15242 33.2279 2.15442C33.2419 2.19642 33.3279 2.18442 33.3459 2.21842C33.3499 2.22642 33.3519 2.24242 33.3359 2.26842V2.27042Z" stroke="#1B2528" stroke-width="0.5" stroke-linejoin="round"/>
<path d="M11.1856 32.1802C11.1856 32.1802 11.1756 32.1882 11.1716 32.1902C11.1656 32.1902 11.1616 32.1962 11.1576 32.2002C11.1476 32.2062 11.1376 32.2122 11.1276 32.2182C10.7736 32.0182 10.4176 31.8182 10.0636 31.6182C10.0596 31.6162 10.0576 31.6142 10.0536 31.6122C10.0336 31.6022 10.0156 31.5902 9.99561 31.5782C9.47761 31.2722 8.95961 30.9662 8.44361 30.6602C8.22561 30.5302 8.00761 30.4022 7.78961 30.2742C7.77961 30.2662 7.76561 30.2582 7.75561 30.2522C7.65361 30.1862 7.55161 30.1182 7.45361 30.0522C7.45361 30.0342 7.45361 30.0182 7.45561 30.0002C7.45361 29.9862 7.45561 29.9722 7.45561 29.9582C7.45561 29.8822 7.45561 29.8062 7.45761 29.7302V29.6702C7.45761 29.4962 7.45961 29.3242 7.46161 29.1502V29.0082C7.46161 28.9462 7.46361 28.8842 7.46561 28.8222V28.7842C7.46561 28.7082 7.46561 28.6322 7.46761 28.5582C7.46961 28.4082 7.46961 28.2562 7.47161 28.1062C7.47361 28.0362 7.47361 27.9662 7.47361 27.8962C7.47561 27.8542 7.47561 27.8122 7.47561 27.7702C7.48361 26.9102 7.49161 26.0482 7.50161 25.1862C7.50161 25.1442 7.50361 25.0982 7.50561 25.0542C8.50761 25.6922 9.50961 26.3302 10.5096 26.9682C10.7256 27.1042 10.9396 27.2402 11.1536 27.3782V27.3902C11.1576 27.8762 11.1616 28.3662 11.1636 28.8542C11.1636 29.2182 11.1676 29.5822 11.1716 29.9462C11.1716 30.0742 11.1716 30.2042 11.1736 30.3342C11.1756 30.9502 11.1796 31.5622 11.1856 32.1802Z" stroke="#1B2528" stroke-width="0.5" stroke-linejoin="round"/>
<path d="M33.2358 2.1723C33.2238 2.1683 33.2118 2.1643 33.1998 2.1583C33.1978 2.1563 33.1958 2.1543 33.1938 2.1543C33.1958 2.1543 33.1978 2.1543 33.1998 2.1563C33.2118 2.1603 33.2238 2.1663 33.2358 2.1723Z" stroke="#1B2528" stroke-width="0.5" stroke-linejoin="round"/>
<path d="M27.8637 14.6445C27.8337 14.6525 27.8057 14.6645 27.7757 14.6745C27.7337 14.6905 27.6957 14.7065 27.6577 14.7265C27.6637 14.7365 27.7637 14.6785 27.9217 14.6265C27.9017 14.6305 27.8817 14.6365 27.8637 14.6445Z" stroke="#1B2528" stroke-width="0.5" stroke-linejoin="round"/>
<path d="M43.0398 19.0585V31.2745C43.0398 31.7405 42.8258 32.1305 42.5098 32.3885C42.0758 32.6665 41.6378 32.9425 41.1958 33.2185C41.1578 33.2585 41.1198 33.2925 41.0778 33.3285C40.3198 33.8165 39.5518 34.2965 38.7758 34.7765C38.7278 34.8045 38.6818 34.8345 38.6338 34.8625C38.6698 34.8365 38.7018 34.8085 38.7358 34.7785C38.7658 34.7525 38.7958 34.7225 38.8238 34.6905C38.8598 34.6545 38.8918 34.6145 38.9218 34.5765C38.9438 34.5485 38.9638 34.5185 38.9838 34.4885C39.0138 34.4405 39.0438 34.3885 39.0678 34.3365C39.1598 34.1505 39.2098 33.9405 39.2098 33.7105V21.4945C39.2098 21.4505 39.2078 21.4045 39.2038 21.3605C39.2018 21.3425 39.1978 21.3225 39.1958 21.3025C39.1958 21.2965 39.1938 21.2905 39.1918 21.2805C39.1898 21.2585 39.1858 21.2345 39.1818 21.2105C39.1778 21.1805 39.1678 21.1505 39.1598 21.1205C39.1558 21.1005 39.1478 21.0825 39.1418 21.0625C39.1338 21.0325 39.1218 21.0025 39.1118 20.9745L42.9918 18.7325L42.9998 18.7285C43.0258 18.8365 43.0398 18.9445 43.0398 19.0585Z" stroke="#1B2528" stroke-width="0.5" stroke-linejoin="round"/>
<path d="M42.9917 18.7323L39.1117 20.9743C39.0977 20.9363 39.0837 20.9023 39.0637 20.8643C39.0477 20.8343 39.0337 20.8063 39.0177 20.7783C39.0017 20.7503 38.9857 20.7223 38.9677 20.6983C38.9557 20.6783 38.9417 20.6583 38.9257 20.6383C38.9037 20.6083 38.8797 20.5783 38.8577 20.5483C38.8357 20.5243 38.8157 20.5023 38.7917 20.4823C38.7777 20.4663 38.7637 20.4523 38.7477 20.4403C38.7117 20.4023 38.6697 20.3703 38.6277 20.3403C38.6117 20.3263 38.5937 20.3143 38.5757 20.3023C38.5497 20.2843 38.5217 20.2683 38.4937 20.2503L29.0037 14.7723C28.8677 14.6803 28.6877 14.5963 28.4757 14.5683C28.2817 14.5443 28.1057 14.5743 27.9677 14.6163C27.9517 14.6183 27.9377 14.6243 27.9237 14.6283C27.9037 14.6323 27.8857 14.6403 27.8657 14.6463C27.8357 14.6543 27.8057 14.6663 27.7777 14.6763C27.7377 14.6923 27.6977 14.7083 27.6597 14.7283C27.7557 14.6563 27.8537 14.5903 27.9517 14.5183C27.9517 14.5163 27.9537 14.5163 27.9577 14.5163C27.9657 14.5083 27.9737 14.5023 27.9837 14.4963C29.1697 13.6503 30.3637 12.9083 31.5497 12.2583C31.7957 12.1523 32.0717 12.1143 32.3477 12.1603L32.3637 12.1703C32.3537 13.3123 32.3417 14.4523 32.3317 15.5943C33.6717 16.3343 35.0097 17.0743 36.3497 17.8143C36.3677 16.6883 36.3857 15.5643 36.4037 14.4383L37.4797 15.0403L38.8857 15.8303C38.8857 15.8303 39.1317 15.9723 39.1417 15.9783C39.2017 16.0123 39.2577 16.0463 39.3157 16.0783C40.8557 16.9363 42.1837 17.3643 42.7517 18.2003C42.7657 18.2143 42.7777 18.2323 42.7877 18.2503C42.8677 18.3783 42.9297 18.5163 42.9737 18.6643C42.9777 18.6803 42.9857 18.7043 42.9917 18.7323Z" stroke="#1B2528" stroke-width="0.5" stroke-linejoin="round"/>
<path d="M38.886 15.8305L37.48 15.0405V15.0205C37.95 15.2905 38.418 15.5605 38.886 15.8305Z" stroke="#1B2528" stroke-width="0.5" stroke-linejoin="round"/>
<path d="M27.952 14.5161C27.854 14.5881 27.756 14.6561 27.66 14.7281C27.654 14.7181 27.736 14.6541 27.952 14.5161Z" stroke="#1B2528" stroke-width="0.5" stroke-linejoin="round"/>
<path d="M42.9996 18.7285L42.9916 18.7325C42.9856 18.7045 42.9776 18.6805 42.9736 18.6625C42.9296 18.5145 42.8676 18.3765 42.7856 18.2485C42.8856 18.3925 42.9576 18.5565 42.9996 18.7285Z" stroke="#1B2528" stroke-width="0.5" stroke-linejoin="round"/>
<path d="M17.1097 34.2444V46.4604C17.1097 46.4804 17.1097 46.5004 17.1077 46.5204C17.0957 46.6244 17.0877 46.8344 16.9837 47.0544C16.8937 47.2464 16.7677 47.3804 16.6717 47.4624C15.4117 48.2664 14.1477 49.0724 12.8877 49.8784C12.9197 49.8524 12.9557 49.8184 12.9897 49.7824C12.9897 49.7824 13.0697 49.6944 13.1377 49.5584C13.1417 49.5524 13.1437 49.5464 13.1457 49.5424C13.1517 49.5344 13.1557 49.5224 13.1577 49.5144C13.1697 49.4864 13.1817 49.4564 13.1917 49.4264C13.1917 49.4224 13.1957 49.4164 13.1997 49.4104C13.2017 49.4024 13.2037 49.3944 13.2057 49.3884C13.2077 49.3764 13.2117 49.3644 13.2157 49.3504C13.2197 49.3384 13.2257 49.3244 13.2277 49.3124C13.2297 49.3064 13.2297 49.3044 13.2317 49.3004C13.2357 49.2804 13.2397 49.2584 13.2417 49.2384C13.2457 49.2204 13.2497 49.2024 13.2517 49.1844C13.2577 49.1524 13.2617 49.1204 13.2657 49.0864C13.2657 49.0804 13.2677 49.0684 13.2677 49.0684V49.0624C13.2837 48.9364 13.2797 48.8484 13.2797 48.8304C13.2777 48.7064 13.3237 46.1044 13.3417 43.3124C13.3617 40.5984 13.3597 37.7024 13.2737 36.7304C13.2737 36.5244 13.2297 36.3224 13.1457 36.1404L17.0597 33.8804H17.0617C17.0917 33.9984 17.1097 34.1204 17.1097 34.2444Z" stroke="#1B2528" stroke-width="0.5" stroke-linejoin="round"/>
<path d="M17.0617 33.8822L13.1477 36.1422C13.1197 36.0782 13.0877 36.0182 13.0477 35.9622C13.0357 35.9382 13.0197 35.9142 13.0057 35.8922C12.9897 35.8722 12.9757 35.8542 12.9617 35.8362C12.9157 35.7782 12.8657 35.7242 12.8117 35.6742C12.7917 35.6562 12.7697 35.6362 12.7477 35.6202C12.6897 35.5722 12.6257 35.5282 12.5577 35.4882L10.4557 34.2742L9.79974 33.8962L8.44374 33.1122L5.74774 31.5562L4.23974 30.6862L4.12574 30.6202H4.12374C3.89174 30.4782 3.71574 30.3682 3.59774 30.2902C3.42574 30.1722 2.88374 29.7822 2.14774 29.7642H2.14374C2.10174 29.7582 2.06374 29.7522 2.02374 29.7482C2.00774 29.7442 1.99174 29.7422 1.97574 29.7402C1.96774 29.7402 1.95974 29.7442 1.94974 29.7502C1.94574 29.7502 1.93974 29.7522 1.93574 29.7542C1.91974 29.7582 1.90374 29.7642 1.89174 29.7742H1.88574C2.75374 29.2482 3.62174 28.7242 4.49174 28.2002H4.49374C4.90374 27.9362 5.31374 27.6742 5.72374 27.4102C5.87974 27.3682 6.10174 27.3282 6.36574 27.3422C6.79574 27.3662 7.11774 27.5242 7.28774 27.6242C7.34974 27.6722 7.41174 27.7222 7.47574 27.7702C7.47574 27.8122 7.47574 27.8542 7.47374 27.8962C7.47374 27.9662 7.47374 28.0362 7.47174 28.1062C7.46974 28.2562 7.46974 28.4082 7.46774 28.5582C7.46574 28.6322 7.46574 28.7082 7.46574 28.7842V28.8222C7.46574 28.8842 7.46174 28.9462 7.46174 29.0082V29.1502C7.45974 29.3242 7.45774 29.4962 7.45774 29.6702V29.7302C7.45574 29.8062 7.45574 29.8822 7.45574 29.9582C7.45574 29.9722 7.45374 29.9862 7.45574 30.0002C7.45374 30.0182 7.45374 30.0342 7.45374 30.0522C7.55174 30.1182 7.65374 30.1862 7.75574 30.2522C7.76774 30.2602 7.77774 30.2662 7.78974 30.2742C8.00774 30.4022 8.22574 30.5302 8.44374 30.6602C8.95974 30.9662 9.47774 31.2722 9.99574 31.5782C10.0157 31.5902 10.0337 31.6022 10.0537 31.6122C10.0577 31.6142 10.0597 31.6162 10.0637 31.6182C10.4177 31.8182 10.7737 32.0182 11.1277 32.2182C11.1377 32.2122 11.1477 32.2062 11.1577 32.2002C11.1617 32.1962 11.1657 32.1922 11.1717 32.1902C11.1757 32.1882 11.1817 32.1842 11.1857 32.1822C11.1817 31.5682 11.1797 30.9562 11.1797 30.3402C11.1797 30.2102 11.1817 30.0822 11.1817 29.9522L12.6817 30.8362V30.8902C12.6817 30.8902 12.6837 30.8902 12.6857 30.8902C12.9957 31.0562 13.3097 31.2282 13.6277 31.4062C13.9257 31.5782 14.2237 31.7502 14.5217 31.9222H14.5237C14.6077 31.9702 14.6937 32.0202 14.7777 32.0682C15.3157 32.3802 15.8517 32.6902 16.3897 33.0002C16.3997 33.0062 16.4097 33.0122 16.4177 33.0182C16.4917 33.0602 16.5597 33.1122 16.6237 33.1682C16.6597 33.1982 16.6937 33.2302 16.7257 33.2682C16.8597 33.4122 16.9637 33.5842 17.0277 33.7722C17.0317 33.7802 17.0337 33.7882 17.0357 33.7962C17.0457 33.8242 17.0537 33.8522 17.0617 33.8802V33.8822Z" stroke="#1B2528" stroke-width="0.5" stroke-linejoin="round"/>
<path d="M7.46591 28.8223C7.46591 28.9323 7.46591 29.0403 7.46191 29.1503V29.0083C7.46191 28.9463 7.46391 28.8843 7.46591 28.8223Z" stroke="#1B2528" stroke-width="0.5" stroke-linejoin="round"/>
<path d="M13.2739 36.7305C13.2619 36.6085 13.2399 36.3824 13.1399 36.1444C13.1139 36.0844 13.0839 36.0204 13.0459 35.9604C13.0859 36.0164 13.1179 36.0764 13.1459 36.1404C13.2299 36.3224 13.2739 36.5245 13.2739 36.7305Z" stroke="#1B2528" stroke-width="0.5" stroke-linejoin="round"/>
<path d="M13.276 36.7322V48.9502C13.276 48.9882 13.272 49.0282 13.27 49.0642V49.0702C13.27 49.0702 13.268 49.0822 13.268 49.0882C13.264 49.1222 13.26 49.1542 13.254 49.1862C13.252 49.2042 13.248 49.2222 13.244 49.2402C13.242 49.2602 13.238 49.2822 13.234 49.3022C13.232 49.3062 13.232 49.3082 13.23 49.3142C13.228 49.3262 13.222 49.3402 13.218 49.3522C13.214 49.3662 13.21 49.3782 13.208 49.3902C13.206 49.3962 13.204 49.4042 13.202 49.4122C13.198 49.4182 13.196 49.4242 13.194 49.4282C13.184 49.4582 13.172 49.4882 13.16 49.5162C13.158 49.5242 13.154 49.5362 13.148 49.5442C13.146 49.5482 13.144 49.5542 13.14 49.5602C13.12 49.5922 13.098 49.6202 13.076 49.6502H13.074C13.058 49.6762 13.036 49.7022 13.014 49.7262C12.994 49.7522 12.97 49.7742 12.948 49.7982C12.918 49.8262 12.888 49.8562 12.854 49.8822C12.848 49.8882 12.844 49.8922 12.838 49.8982C12.83 49.9042 12.824 49.9102 12.82 49.9142C12.784 49.9442 12.744 49.9702 12.704 49.9962C12.634 50.0422 12.558 50.0842 12.48 50.1162C12.088 50.2822 11.624 50.2802 11.204 50.0382L1.718 44.5602C1.274 44.3022 1 43.8282 1 43.3162V31.1002C1 30.6802 1.172 30.3222 1.436 30.0682L1.444 30.0602C1.476 30.0302 1.508 30.0022 1.544 29.9742C1.546 29.9722 1.55 29.9702 1.552 29.9682C1.556 29.9682 1.558 29.9622 1.564 29.9582C1.582 29.9442 1.604 29.9282 1.624 29.9142C1.64 29.9042 1.652 29.8962 1.668 29.8882C1.718 29.8542 1.772 29.8262 1.826 29.8002C1.84 29.7922 1.852 29.7862 1.868 29.7822C1.872 29.7802 1.876 29.7782 1.88 29.7762C1.882 29.7762 1.886 29.7742 1.886 29.7742H1.892C1.904 29.7642 1.92 29.7582 1.936 29.7542C1.94 29.7542 1.946 29.7502 1.95 29.7502C1.96 29.7442 1.968 29.7422 1.976 29.7402C1.992 29.7402 2.008 29.7442 2.024 29.7482C2.064 29.7522 2.102 29.7582 2.144 29.7642H2.148C2.216 29.7762 2.288 29.7882 2.362 29.8062C2.386 29.8082 2.41 29.8142 2.434 29.8182C2.674 29.8742 2.886 29.9402 3.07 30.0102L4.124 30.6202H4.126L4.24 30.6862L5.748 31.5562L8.444 33.1122L9.8 33.8962L10.456 34.2742L12.558 35.4882C12.626 35.5282 12.69 35.5722 12.748 35.6202C12.77 35.6362 12.792 35.6562 12.812 35.6742C12.866 35.7242 12.916 35.7782 12.962 35.8362C12.976 35.8542 12.99 35.8722 13.006 35.8922C13.02 35.9142 13.036 35.9382 13.048 35.9622C13.088 36.0182 13.12 36.0782 13.148 36.1422C13.232 36.3242 13.276 36.5262 13.276 36.7322Z" stroke="#1B2528" stroke-width="0.5" stroke-linejoin="round"/>
<path d="M18.5896 44.8221C18.5896 44.9121 18.5736 45.1241 18.4696 45.3681C18.3356 45.6821 18.1056 45.8641 17.8556 46.0641C17.6876 46.1981 17.4416 46.3721 17.1096 46.5221C17.1116 46.5021 17.1116 46.4821 17.1116 46.4621V34.2461C17.1116 34.1221 17.0936 34.0001 17.0636 33.8821C17.0556 33.8541 17.0476 33.8261 17.0356 33.7981C17.0336 33.7901 17.0316 33.7821 17.0276 33.7741C16.9636 33.5861 16.8596 33.4141 16.7256 33.2701C16.6936 33.2321 16.6596 33.2001 16.6236 33.1701C16.5596 33.1141 16.4916 33.0621 16.4176 33.0201C16.4096 33.0141 16.3996 33.0081 16.3896 33.0021C15.8516 32.6921 15.3156 32.3821 14.7776 32.0701L12.6856 30.8381L12.6636 30.8321L11.1816 29.9521C11.1836 29.5901 11.1856 29.2301 11.1876 28.8701L12.6856 29.7121L12.7876 29.7701C13.3896 30.1381 14.0176 30.5081 14.6756 30.8781C15.2516 31.1981 15.8176 31.5041 16.3696 31.7881L16.4036 31.8061L16.7816 31.9981C16.7816 31.9981 17.2856 32.1681 17.9356 32.6001C18.0156 32.6521 18.2396 32.8081 18.4076 33.0741C18.4596 33.1561 18.5036 33.2481 18.5336 33.3481C18.5896 33.5241 18.5896 33.6701 18.5896 33.7281C18.5856 34.6541 18.4496 38.0281 18.4596 39.2701C18.4596 39.5201 18.4696 39.8861 18.4836 40.3161C18.5256 41.8121 18.6156 44.0761 18.5896 44.8221Z" fill="#CCFBC7" stroke="#1B2528" stroke-width="0.5" stroke-linejoin="round"/>
<path d="M43.0398 25.2861C43.8198 25.7201 44.5438 26.2241 45.3238 26.6581C48.1258 28.2181 48.1478 32.2421 45.3638 33.8321C42.4758 35.4821 39.6458 37.0641 36.7578 38.7141" stroke="#1B2528" stroke-width="0.5" stroke-linejoin="round"/>
<path d="M37.1838 39.7302V43.5182C37.1838 44.0762 36.8878 44.5902 36.4058 44.8702L33.0778 46.7882C32.6018 47.0582 32.0758 47.0542 31.6398 46.8502C31.5738 46.8122 31.5138 46.7782 31.4478 46.7462C31.4418 46.7442 31.4398 46.7402 31.4378 46.7402V46.7322C31.4378 46.7322 31.4318 46.7182 31.4218 46.7042C31.3758 46.6422 31.2198 46.5182 31.0798 46.3642C31.0518 46.3362 31.0258 46.3062 30.9998 46.2742C30.9838 46.2582 30.9718 46.2422 30.9578 46.2282C30.9478 46.2082 30.9358 46.1962 30.9258 46.1782C30.9118 46.1582 30.9038 46.1402 30.8938 46.1182C30.8558 46.0382 30.8218 45.9602 30.7998 45.8722C30.7918 45.8502 30.7838 45.8262 30.7798 45.8042C30.7698 45.7602 30.7598 45.7162 30.7558 45.6722C30.7458 45.5982 30.7358 45.5162 30.7358 45.4362V41.6482C30.7358 41.0902 31.0338 40.5762 31.5158 40.2962L34.2398 38.7242L34.8438 38.3762C34.8878 38.3522 34.9318 38.3302 34.9758 38.3102C35.0278 38.2862 35.0818 38.2642 35.1378 38.2482C35.1818 38.2322 35.2258 38.2182 35.2698 38.2062C35.2898 38.2042 35.3018 38.1982 35.3158 38.1962H35.3238C35.3338 38.1942 35.3458 38.1882 35.3558 38.1882C35.3658 38.1862 35.3718 38.1862 35.3798 38.1862H35.3878C35.3978 38.1862 35.4038 38.1842 35.4158 38.1842C35.6918 38.1422 35.9638 38.1842 36.2098 38.2822C36.2178 38.2842 36.2198 38.2842 36.2298 38.2882C36.2798 38.3182 36.3338 38.3422 36.3858 38.3682C36.4518 38.4062 36.5118 38.4442 36.5698 38.4922C36.5798 38.5002 36.5918 38.5082 36.5998 38.5202C36.6078 38.5282 36.6198 38.5342 36.6278 38.5422C36.8598 38.7342 37.0418 38.9942 37.1278 39.3022C37.1598 39.4362 37.1818 39.5822 37.1818 39.7302H37.1838Z" stroke="#1B2528" stroke-width="0.5" stroke-linejoin="round"/>
<path d="M36.1615 38.3037C35.9155 38.2057 35.6435 38.1637 35.3675 38.2057C35.3575 38.2057 35.3515 38.2077 35.3395 38.2077H35.3175C35.3175 38.2077 35.3095 38.2077 35.3075 38.2097C35.2975 38.2097 35.2855 38.2157 35.2755 38.2177H35.2675C35.2535 38.2197 35.2395 38.2257 35.2215 38.2277C35.1775 38.2377 35.1335 38.2517 35.0895 38.2697C35.0355 38.2857 34.9795 38.3077 34.9275 38.3317C34.8835 38.3517 34.8395 38.3737 34.7955 38.3977L34.1915 38.7457L31.4675 40.3177C30.9855 40.5977 30.6875 41.1117 30.6875 41.6697V45.4577C30.6875 45.5377 30.6955 45.6197 30.7075 45.6937C30.7135 45.7377 30.7215 45.7817 30.7315 45.8257C30.7335 45.8477 30.7415 45.8717 30.7515 45.8937C30.7735 45.9817 30.8055 46.0597 30.8455 46.1397C30.8555 46.1617 30.8655 46.1817 30.8775 46.1997C30.8875 46.2157 30.8995 46.2297 30.9095 46.2497C31.0215 46.4597 31.1895 46.6297 31.3895 46.7617C31.3455 46.8417 30.1875 46.2817 29.2455 45.6117C29.0675 45.4857 28.8015 45.2857 28.6415 44.9277C28.5215 44.6737 28.4995 44.4297 28.4995 44.2757V40.4937C28.4995 39.9357 28.7975 39.4177 29.2795 39.1397L32.6075 37.2177C32.7495 37.1437 32.9515 37.0597 33.2095 37.0157C33.6275 36.9477 33.9735 37.0257 34.1655 37.0837C34.6395 37.3497 35.0095 37.5597 35.2895 37.7297C35.9635 38.1257 36.1795 38.2737 36.1635 38.3037H36.1615Z" stroke="#1B2528" stroke-width="0.5" stroke-linejoin="round"/>
</svg>
