<svg width="24" height="24" viewBox="0 0 24 24" fill="none" xmlns="http://www.w3.org/2000/svg">
<path fill-rule="evenodd" clip-rule="evenodd" d="M3.76339 9.76333C3.31119 10.2144 3 11.0205 3 12.5429V16.4429C3 17.9708 3.31413 18.7814 3.76874 19.2349C4.22387 19.6889 5.03506 20 6.55714 20H10.4429C11.9733 20 12.7831 19.6884 13.2358 19.2358C13.6884 18.7831 14 17.9733 14 16.4429V12.5429C14 11.0206 13.6888 10.2138 13.2375 9.76246C12.7862 9.31117 11.9794 9 10.4571 9H6.55714C5.02671 9 4.21621 9.31161 3.76339 9.76333ZM2.3509 8.34739C3.36236 7.33839 4.83043 7 6.55714 7H10.4571C12.1777 7 13.6423 7.33883 14.6517 8.34825C15.6612 9.35767 16 10.8223 16 12.5429V16.4429C16 18.1695 15.6616 19.6383 14.65 20.65C13.6383 21.6616 12.1695 22 10.4429 22H6.55714C4.83637 22 3.36899 21.6611 2.35625 20.6508C1.34301 19.64 1 18.172 1 16.4429V12.5429C1 10.8223 1.33881 9.35701 2.3509 8.34739Z" fill="#1B2528" />
<path fill-rule="evenodd" clip-rule="evenodd" d="M9.76252 3.75883C9.31172 4.20743 9 5.01215 9 6.54286V6.57143H10.8714C12.5982 6.57143 14.0662 6.90982 15.0777 7.91882C16.0898 8.92844 16.4286 10.3937 16.4286 12.1143V14H16.4429C17.9733 14 18.7831 13.6884 19.2358 13.2358C19.6884 12.7831 20 11.9733 20 10.4429V6.54286C20 5.02059 19.6888 4.21376 19.2375 3.76246C18.7862 3.31117 17.9794 3 16.4571 3H12.5572C11.0242 3 10.2145 3.30909 9.76252 3.75883ZM8.35177 2.34117C9.36411 1.33377 10.8329 1 12.5572 1H16.4571C18.1777 1 19.6423 1.33883 20.6518 2.34825C21.6612 3.35767 22 4.82226 22 6.54286V10.4429C22 12.1695 21.6616 13.6383 20.65 14.65C19.6383 15.6616 18.1695 16 16.4429 16H15.4286C14.8763 16 14.4286 15.5523 14.4286 15V12.1143C14.4286 10.592 14.1174 9.78585 13.6652 9.33475C13.2124 8.88303 12.4019 8.57143 10.8714 8.57143H8C7.44772 8.57143 7 8.12371 7 7.57143V6.54286C7 4.81642 7.33828 3.34971 8.35177 2.34117Z" fill="#1B2528" />
</svg>
