<!--
  tags: ["action","settings","system","restart"]
-->
<svg xmlns="http://www.w3.org/2000/svg" width="20" height="20" fill="currentColor" viewBox="0 0 20 20">
  <path fill-rule="evenodd" d="M15.279 2.5c.345 0 .625.28.625.625v2.71a.775.775 0 0 1-.775.776H12.42a.625.625 0 1 1 0-1.25h1.508a5.982 5.982 0 0 0-7.062-.795 5.994 5.994 0 0 0-2.76 6.84.626.626 0 0 1-1.201.347 7.245 7.245 0 0 1 3.337-8.27 7.23 7.23 0 0 1 8.41.847V3.125c0-.345.28-.625.626-.625Zm.614 6.093a.626.626 0 0 1 1.201-.347 7.245 7.245 0 0 1-3.337 8.27 7.23 7.23 0 0 1-8.41-.847v1.205a.625.625 0 1 1-1.25 0v-2.71c0-.428.346-.775.774-.775H7.58a.625.625 0 1 1 0 1.25H6.071a5.982 5.982 0 0 0 7.062.794 5.994 5.994 0 0 0 2.76-6.84Z" clip-rule="evenodd"/>
</svg>
