<!--
  tags: ["sort","text","organization","filters"]
-->
<svg xmlns="http://www.w3.org/2000/svg" width="20" height="20" fill="currentColor" viewBox="0 0 20 20">
  <path fill-rule="evenodd" d="M6.346 6.31c-.316-1.08-1.844-1.08-2.16 0l-2.162 7.389a.625.625 0 0 0 1.2.35l.499-1.704H6.81l.499 1.705a.625.625 0 1 0 1.2-.351l-2.163-7.39Zm.098 4.785L5.266 7.07l-1.178 4.025h2.356Zm5.807-4.908c0-.346.28-.625.625-.625h4.29c.66 0 1.059.73.7 1.285l-4.076 6.311h3.535a.625.625 0 0 1 0 1.25h-4.3a.833.833 0 0 1-.7-1.285L16.4 6.812h-3.525a.625.625 0 0 1-.625-.625Zm-.855 4.31H9.563a.625.625 0 0 1 0-1.25h1.833a.625.625 0 1 1 0 1.25Z" clip-rule="evenodd"/>
</svg>
