<!--
  tags: ["user","profile","identity","authentication"]
-->
<svg xmlns="http://www.w3.org/2000/svg" width="20" height="20" fill="currentColor" viewBox="0 0 20 20">
  <path fill-rule="evenodd" d="M14.042 15.407A6.72 6.72 0 0 1 10 16.75a6.72 6.72 0 0 1-3.974-1.293c.494-1.803 1.94-3.49 4.027-3.49 2.066 0 3.489 1.654 3.989 3.44Zm1.007-.927c-.506-1.32-1.47-2.612-2.864-3.285a3.482 3.482 0 1 0-4.33.032c-1.388.693-2.347 1.996-2.845 3.319a6.75 6.75 0 1 1 10.04-.066ZM18 10a8 8 0 1 1-16 0 8 8 0 0 1 16 0Zm-8-3.747a2.232 2.232 0 1 0 0 4.463 2.232 2.232 0 0 0 0-4.463Z" clip-rule="evenodd"/>
</svg>
