<!--
  tags: ["user","settings","preferences","access"]
-->
<svg xmlns="http://www.w3.org/2000/svg" width="20" height="20" fill="currentColor" viewBox="0 0 20 20">
  <path fill-rule="evenodd" d="M5.15 5.457a2.207 2.207 0 1 1 4.414 0 2.207 2.207 0 0 1-4.414 0Zm2.207-3.458a3.458 3.458 0 0 0-2.101 6.204 5.397 5.397 0 0 0-1.547 1.29c-.88 1.052-1.445 2.413-1.68 3.71-.207 1.137.747 1.98 1.749 1.98h4.157l.397.687a.876.876 0 0 0 1.025.396l.908-.29.692.401.202.934c.088.402.444.69.856.69h1.471a.876.876 0 0 0 .856-.69l.203-.934.692-.401.908.29a.876.876 0 0 0 1.025-.396l.71-1.231a.876.876 0 0 0-.17-1.086l-.706-.64.002-.8.707-.643a.875.875 0 0 0 .17-1.085l-.713-1.237a.876.876 0 0 0-1.026-.396l-.907.29-.692-.401-.203-.933a.876.876 0 0 0-.856-.69h-1.47a.876.876 0 0 0-.857.69l-.202.933-.481.28a5.032 5.032 0 0 0-1.008-.725 3.458 3.458 0 0 0-2.11-6.197Zm.434 11.554a.873.873 0 0 0-.245.38H3.778a.573.573 0 0 1-.417-.17.374.374 0 0 1-.102-.337c.204-1.12.691-2.272 1.41-3.13.711-.85 1.62-1.381 2.7-1.381.356 0 .691.057 1.007.164a.88.88 0 0 0-.044.069l-.714 1.236a.876.876 0 0 0 .17 1.086l.707.643.001.8-.705.64Zm4.527-5.284-.174.8a.876.876 0 0 1-.416.57l-.979.569a.875.875 0 0 1-.706.077l-.779-.25-.411.713.605.55c.182.165.287.4.287.646l.003 1.132a.876.876 0 0 1-.287.65l-.605.55.408.707.779-.25a.876.876 0 0 1 .706.077l.979.568a.875.875 0 0 1 .416.572l.174.8h.866l.174-.8a.875.875 0 0 1 .416-.572l.979-.568a.876.876 0 0 1 .706-.077l.779.25.407-.707-.605-.55a.876.876 0 0 1-.287-.65l.002-1.132a.879.879 0 0 1 .287-.646l.606-.55-.41-.712-.779.249a.876.876 0 0 1-.706-.077l-.98-.568a.876.876 0 0 1-.415-.572l-.174-.8h-.866Zm-.54 4.24a.997.997 0 1 1 1.995 0 .997.997 0 0 1-1.994 0Zm.998-2.248a2.248 2.248 0 1 0 0 4.497 2.248 2.248 0 0 0 0-4.497Z" clip-rule="evenodd"/>
</svg>
