<!--
  tags: ["automation","intelligence","tools","analysis"]
-->
<svg xmlns="http://www.w3.org/2000/svg" width="20" height="20" fill="currentColor" viewBox="0 0 20 20">
  <path fill-rule="evenodd" d="m14.728 9.618.678-1.695a.625.625 0 0 1 .348-.348l1.695-.678c.734-.293.734-1.332 0-1.625l-1.695-.678a.625.625 0 0 1-.348-.348l-.678-1.695c-.293-.733-1.331-.733-1.625 0l-.678 1.695a.625.625 0 0 1-.348.348l-1.695.678c-.733.293-.733 1.332 0 1.625l1.695.678c.159.063.285.19.348.348l.678 1.695c.294.733 1.332.733 1.625 0Zm-.812-1.335-.33-.824a1.875 1.875 0 0 0-1.045-1.045l-.824-.33.824-.33c.477-.19.854-.567 1.045-1.044l.33-.824.33.824c.19.477.568.854 1.044 1.045l.825.33-.825.33a1.87 1.87 0 0 0-1.044 1.044l-.33.824ZM2 14.873C2 16.6 3.4 18 5.125 18h9.072c1.726 0 3.125-1.4 3.125-3.125v-4.778a.625.625 0 0 0-1.25 0v4.778c0 1.035-.84 1.875-1.875 1.875H5.125a1.875 1.875 0 0 1-1.875-1.875V6.288c0-1.036.84-1.875 1.875-1.875h4.293a.625.625 0 1 0 0-1.25H5.125A3.125 3.125 0 0 0 2 6.288v8.586Zm9.398-5.007a.625.625 0 1 0-1.25 0v1.433a.625.625 0 0 0 1.25 0V9.866ZM5.76 9.252c.346 0 .625.28.625.625v1.517a.625.625 0 0 1-1.25 0V9.877c0-.345.28-.625.625-.625Zm1.454 4.295a.625.625 0 1 0-.884.884 2.773 2.773 0 0 0 3.917 0 .625.625 0 1 0-.884-.884 1.523 1.523 0 0 1-2.15 0Z" clip-rule="evenodd"/>
</svg>
