<!--
  tags: ["developer","integration","security","access"]
-->
<svg xmlns="http://www.w3.org/2000/svg" width="20" height="20" fill="currentColor" viewBox="0 0 20 20">
  <path fill-rule="evenodd" d="M14.872 11.173a4.274 4.274 0 1 0-7.02-1.505.883.883 0 0 1-.199.938L3.9 14.36l.226 1.514 1.514.226.644-.644-.293-.293a.875.875 0 0 1 0-1.238l1.018-1.017a.875.875 0 0 1 1.237 0l.293.293.855-.854a.883.883 0 0 1 .938-.2 4.275 4.275 0 0 0 4.54-.974Zm.884-6.929a5.525 5.525 0 0 1-5.644 9.152l-.954.954a.875.875 0 0 1-1.237 0l-.294-.293-.487.487.293.293a.875.875 0 0 1 0 1.238l-1.042 1.043a.875.875 0 0 1-.748.246l-1.976-.294a.875.875 0 0 1-.737-.737l-.294-1.976a.875.875 0 0 1 .246-.747l3.722-3.722a5.525 5.525 0 0 1 9.152-5.644Zm-3.394 4.364a.685.685 0 1 1-.969-.97.685.685 0 0 1 .969.97Zm-1.853.884a1.935 1.935 0 1 0 2.737-2.737 1.935 1.935 0 0 0-2.737 2.737Z" clip-rule="evenodd"/>
</svg>
