<!--
  tags: ["experimentation","targeting","bucketing","source"]
-->
<svg xmlns="http://www.w3.org/2000/svg" width="20" height="20" fill="currentColor" viewBox="0 0 20 20">
  <path fill-rule="evenodd" d="M4.642 2.002a.625.625 0 0 0 0 1.25h.705V4.94c0 .06-.014.118-.041.171l-3.037 5.906c-.813 1.58.334 3.461 2.112 3.461h3.706v.962c0 .47.215.87.511 1.183.293.31.688.56 1.127.756.881.393 2.055.62 3.317.62 1.263 0 2.436-.227 3.317-.62.44-.197.834-.447 1.127-.756.296-.313.512-.713.512-1.183v-5.235h-.003a1.67 1.67 0 0 0 .003-.1c0-.939-.812-1.581-1.636-1.953-.882-.399-2.056-.629-3.32-.629-.103 0-.206.002-.308.005l-1.27-2.419a.375.375 0 0 1-.042-.174V3.252h.659a.625.625 0 1 0 0-1.25H4.642Zm6.75 5.659-1.034-1.97a1.626 1.626 0 0 1-.186-.756V3.252H6.597V4.94c0 .258-.061.513-.18.743L3.38 11.589a1.125 1.125 0 0 0 1 1.64h3.707v-3.024h.004a1.606 1.606 0 0 1-.004-.1c0-.939.813-1.581 1.636-1.953a6.96 6.96 0 0 1 1.67-.491Zm-1.154 1.63c-.743.336-.9.671-.9.813 0 .143.157.478.9.814.686.31 1.677.518 2.805.518 1.128 0 2.119-.208 2.804-.518.744-.336.901-.671.901-.814 0-.142-.157-.477-.9-.813-.686-.31-1.677-.518-2.805-.518-1.128 0-2.12.208-2.805.518Zm6.124 2.766c.13-.059.26-.124.385-.196v.898c0 .065-.026.173-.169.323-.145.154-.385.32-.729.474-.686.307-1.678.513-2.807.513s-2.12-.206-2.807-.513c-.344-.153-.584-.32-.73-.474-.135-.143-.165-.247-.168-.313v-.909c.126.073.256.138.386.197.882.398 2.056.628 3.32.628 1.263 0 2.437-.23 3.319-.628Zm.386 2.445a4.65 4.65 0 0 1-.389.196c-.881.393-2.054.62-3.317.62-1.263 0-2.436-.227-3.317-.62a4.621 4.621 0 0 1-.388-.195v.937c0 .065.027.173.169.324.145.153.385.32.73.473.685.307 1.677.513 2.806.513 1.13 0 2.121-.206 2.807-.513.344-.153.584-.32.73-.473.142-.15.169-.259.169-.324v-.938Z" clip-rule="evenodd"/>
</svg>
