<svg xmlns="http://www.w3.org/2000/svg" width="20" height="20" fill="currentColor" viewBox="0 0 20 20">
  <path fill-rule="evenodd" d="M7.902 3.803c1.043-1.698 3.308-2.304 5.059-1.354a3.38 3.38 0 0 1 1.282 4.794l-4.216 6.864a2.258 2.258 0 0 1-2.968.794 1.983 1.983 0 0 1-.752-2.812l4.264-6.942a.666.666 0 0 1 .876-.234.586.586 0 0 1 .223.83l-4.265 6.942a.812.812 0 0 0 .308 1.15.924.924 0 0 0 1.215-.324l4.216-6.864a2.21 2.21 0 0 0-.838-3.133c-1.144-.62-2.624-.225-3.305.885l-4.17 6.786c-1.112 1.81-.499 4.1 1.37 5.114 1.867 1.014 4.283.368 5.396-1.443l4.216-6.864c.18-.294.573-.4.877-.234a.586.586 0 0 1 .222.83l-4.216 6.864c-1.474 2.4-4.675 3.255-7.15 1.912-2.475-1.342-3.287-4.376-1.813-6.775l4.169-6.786Z" clip-rule="evenodd"/>
</svg>
