<!--
  tags: ["analytics","automation","session-replay","tracking"]
-->
<svg xmlns="http://www.w3.org/2000/svg" width="20" height="20" fill="currentColor" viewBox="0 0 20 20">
  <path fill-rule="evenodd" d="M4.652 2.502A2.152 2.152 0 0 0 2.5 4.654v2.998a.652.652 0 0 0 1.304 0V4.654c0-.468.38-.848.848-.848h2.99a.652.652 0 0 0 0-1.304h-2.99Zm7.698 0a.652.652 0 1 0 0 1.304h2.998c.468 0 .848.38.848.848v2.998a.652.652 0 1 0 1.304 0V4.654a2.152 2.152 0 0 0-2.152-2.152H12.35Zm-8.546 9.854a.652.652 0 1 0-1.304 0v2.991c0 1.189.964 2.153 2.152 2.153h2.99a.652.652 0 0 0 0-1.305h-2.99a.848.848 0 0 1-.848-.848v-2.99Zm13.696 0a.652.652 0 0 0-1.304 0v2.991c0 .469-.38.848-.848.848H12.35a.652.652 0 0 0 0 1.305h2.998a2.152 2.152 0 0 0 2.152-2.153v-2.99ZM12.27 10a2.27 2.27 0 1 1-4.54 0 2.27 2.27 0 0 1 4.54 0Zm1.304 0a3.574 3.574 0 1 1-7.148 0 3.574 3.574 0 0 1 7.148 0Z" clip-rule="evenodd"/>
</svg>
