<!--
  tags: ["optimization","automation","experimentation","tuning"]
-->
<svg xmlns="http://www.w3.org/2000/svg" width="20" height="20" fill="currentColor" viewBox="0 0 20 20">
  <path fill-rule="evenodd" d="M10.16 2.31a.625.625 0 0 1 .884 0l1.516 1.516a.876.876 0 0 1 0 1.238l-1.516 1.517a.625.625 0 1 1-.885-.885l.585-.585a6.752 6.752 0 0 0-6.812 9.662.625.625 0 1 1-1.126.548 8.003 8.003 0 0 1 8.02-11.459l-.667-.667a.625.625 0 0 1 0-.885Zm3.576 3.088c.2-.282.59-.348.872-.148a8.063 8.063 0 0 1 2.598 10.054.626.626 0 0 1-1.126-.545 6.811 6.811 0 0 0-2.196-8.489.625.625 0 0 1-.148-.872Zm-2.523 3.37c-.51-1.003-1.943-1.003-2.453 0l-.856 1.683-1.866.294c-1.111.176-1.554 1.538-.758 2.333l1.337 1.335-.297 1.865c-.177 1.111.982 1.953 1.984 1.442l1.683-.86 1.682.86c1.002.51 2.16-.331 1.984-1.442l-.297-1.865 1.337-1.335c.796-.795.353-2.157-.758-2.332l-1.866-.295-.856-1.683Zm-1.337.567a.124.124 0 0 1 .222 0l.943 1.854c.127.25.367.425.644.468l2.055.324c.1.016.14.14.069.211l-1.473 1.47a.875.875 0 0 0-.245.758l.326 2.055a.124.124 0 0 1-.18.13l-1.852-.946a.876.876 0 0 0-.796 0l-1.854.946a.124.124 0 0 1-.18-.13l.328-2.055a.876.876 0 0 0-.246-.757l-1.473-1.47a.124.124 0 0 1 .069-.212l2.055-.324a.875.875 0 0 0 .644-.468l.944-1.854Z" clip-rule="evenodd"/>
</svg>
