<!--
  tags: ["automation","enhancement","magic","delight"]
-->
<svg xmlns="http://www.w3.org/2000/svg" width="20" height="20" fill="currentColor" viewBox="0 0 20 20">
  <path fill-rule="evenodd" d="M2.904 8.521c-.873-.349-.873-1.585 0-1.934l1.789-.715c.423-.17.759-.505.928-.929l.716-1.788c.349-.873 1.585-.873 1.934 0l.715 1.788c.17.424.505.76.929.929l1.788.715c.873.35.873 1.585 0 1.934l-1.788.716c-.424.17-.76.505-.929.928l-.715 1.789c-.35.873-1.585.873-1.934 0l-.716-1.789a1.667 1.667 0 0 0-.928-.928l.464-1.16A2.917 2.917 0 0 1 6.782 9.7l.522 1.305.522-1.305A2.917 2.917 0 0 1 9.45 8.076l1.304-.522-1.304-.522a2.917 2.917 0 0 1-1.625-1.625l-.522-1.304-.522 1.304a2.917 2.917 0 0 1-1.625 1.625l-1.305.522 1.305.522-.464 1.16-1.789-.715Zm12.583 7.063-.51 1.272c-.343.859-1.559.859-1.903 0l-.508-1.272a.625.625 0 0 0-.349-.348l-1.272-.51c-.859-.343-.859-1.559 0-1.903l1.272-.508a.625.625 0 0 0 .349-.349l.508-1.272c.344-.859 1.56-.859 1.904 0l.509 1.272c.063.16.189.285.348.349l1.272.508c.859.344.859 1.56 0 1.904l-1.272.509a.625.625 0 0 0-.348.348Zm-1.76-.464.3.75.3-.75c.19-.477.567-.854 1.044-1.045l.75-.3-.75-.3a1.875 1.875 0 0 1-1.045-1.044l-.3-.75-.3.75c-.19.476-.568.854-1.044 1.044l-.75.3.75.3c.476.19.854.568 1.044 1.045Z" clip-rule="evenodd"/>
</svg>
