<!--
  tags: ["experimentation","targeting","segmentation","cohorts"]
-->
<svg xmlns="http://www.w3.org/2000/svg" width="20" height="20" fill="currentColor" viewBox="0 0 20 20">
  <path fill-rule="evenodd" d="M4.947 2.931a.625.625 0 0 0-.883 0L2.182 4.813a.625.625 0 0 0 0 .883l1.882 1.882a.625.625 0 0 0 .883-.884l-.814-.814h11.734l-.814.814a.625.625 0 1 0 .884.884l1.881-1.882a.625.625 0 0 0 0-.883L15.937 2.93a.625.625 0 0 0-.884.884l.814.815H4.133l.814-.815a.625.625 0 0 0 0-.884Zm1.629 13.195c0 .622-.504 1.125-1.125 1.125H3.353a1.125 1.125 0 0 1-1.125-1.125v-5.742a.625.625 0 1 1 1.25 0v5.617h1.848v-5.617a.625.625 0 1 1 1.25 0v5.742Zm4.473 1.125c.621 0 1.125-.503 1.125-1.125v-5.742a.625.625 0 1 0-1.25 0v5.617H9.076v-5.617a.625.625 0 1 0-1.25 0v5.742c0 .622.504 1.125 1.125 1.125h2.098Zm5.597 0c.622 0 1.125-.503 1.125-1.125v-5.742a.625.625 0 0 0-1.25 0v5.617h-1.847v-5.617a.625.625 0 1 0-1.25 0v5.742c0 .622.503 1.125 1.125 1.125h2.097Z" clip-rule="evenodd"/>
</svg>
