<!--
  tags: ["issue","error","debugging","QA"]
-->
<svg xmlns="http://www.w3.org/2000/svg" width="20" height="20" fill="currentColor" viewBox="0 0 20 20">
  <path fill-rule="evenodd" d="M6.516 3.112a.625.625 0 0 1 1.158-.47l.933 2.305a5.205 5.205 0 0 1 2.746-.011l.928-2.293a.625.625 0 0 1 1.159.469l-.928 2.291A5.209 5.209 0 0 1 15.024 8.6h.08c.414 0 .789-.245.955-.624l.658-1.505a.625.625 0 0 1 1.146.501l-.66 1.505a2.292 2.292 0 0 1-1.988 1.37l.068.767c.01.125.018.25.023.375h2.071a.625.625 0 1 1 0 1.25h-2.125l-.067.763a5.26 5.26 0 0 1-.047.376 2.292 2.292 0 0 1 2.066 1.373l.659 1.505a.625.625 0 0 1-1.145.5l-.66-1.504a1.042 1.042 0 0 0-.954-.624h-.333a5.206 5.206 0 0 1-9.541 0h-.335c-.414 0-.788.245-.954.624l-.659 1.505a.625.625 0 0 1-1.145-.502l.659-1.504a2.292 2.292 0 0 1 2.067-1.373 5.266 5.266 0 0 1-.047-.376l-.067-.763H2.623a.625.625 0 1 1 0-1.25h2.072c.005-.125.013-.25.024-.375l.067-.767a2.292 2.292 0 0 1-1.99-1.37l-.659-1.505a.625.625 0 0 1 1.145-.501l.659 1.505c.166.379.54.624.954.624h.082a5.209 5.209 0 0 1 2.475-3.175l-.936-2.312Zm-.064 5.103a3.955 3.955 0 0 1 7.116.04.632.632 0 0 0-.064.054c-.41.4-1.383.985-3.465.985-2.08 0-3.053-.586-3.464-.985a.626.626 0 0 0-.123-.094Zm-.38 1.3a4.03 4.03 0 0 0-.01.1l-.098 1.108a6.042 6.042 0 0 0 0 1.061l.097 1.108a3.954 3.954 0 0 0 7.879 0l.097-1.108a6.046 6.046 0 0 0 0-1.061l-.097-1.108-.005-.048c-.679.473-1.72.874-3.27.96v2.387a.625.625 0 1 1-1.25 0v-2.387c-1.607-.089-2.667-.516-3.343-1.012Z" clip-rule="evenodd"/>
</svg>
