<!--
  tags: ["organization","metadata","filters","grouping"]
-->
<svg xmlns="http://www.w3.org/2000/svg" width="20" height="20" fill="currentColor" viewBox="0 0 20 20">
  <path fill-rule="evenodd" d="M11.16 3.175a1.375 1.375 0 0 0-2.364 0L6.322 7.337a1.375 1.375 0 0 0 1.182 2.078h4.947a1.375 1.375 0 0 0 1.182-2.078L11.16 3.175Zm-1.29.638a.125.125 0 0 1 .215 0l2.474 4.163a.125.125 0 0 1-.108.189H7.504a.125.125 0 0 1-.107-.19L9.87 3.814Zm-.734 8.631c0-1.035-.84-1.875-1.875-1.875h-3.01c-1.036 0-1.876.84-1.876 1.875v3.01c0 1.036.84 1.875 1.875 1.875h3.011c1.036 0 1.875-.84 1.875-1.875v-3.01Zm-1.875-.625c.345 0 .625.28.625.625v3.01c0 .345-.28.625-.625.625h-3.01a.625.625 0 0 1-.626-.625v-3.01c0-.345.28-.625.625-.625h3.011Zm9.113 2.12a2.31 2.31 0 1 1-4.621 0 2.31 2.31 0 0 1 4.621 0Zm1.25 0a3.56 3.56 0 1 1-7.121 0 3.56 3.56 0 0 1 7.121 0Z" clip-rule="evenodd"/>
</svg>
