<!--
  tags: ["analytics","visualization","data","metrics"]
-->
<svg xmlns="http://www.w3.org/2000/svg" width="20" height="20" fill="currentColor" viewBox="0 0 20 20">
  <path fill-rule="evenodd" d="M4 3.876a.625.625 0 1 0-1.25 0v10.748c0 1.174.952 2.125 2.125 2.125h11.75a.625.625 0 1 0 0-1.25H4.875A.875.875 0 0 1 4 14.624V3.876Zm12.728 2.145a.625.625 0 1 0-1.209-.32l-.128.5c-.165.658-.364 1.444-.646 2.17-.178.456-.378.854-.6 1.158-.225.304-.443.472-.648.54a1.046 1.046 0 0 1-.836-.043c-.3-.147-.675-.479-1.086-1.172-.477-.803-.99-1.361-1.572-1.66-.609-.312-1.217-.301-1.78-.114-.517.173-.924.547-1.24.957-.32.414-.586.912-.806 1.412-.404.917-.692 1.924-.882 2.588l-.048.166a.625.625 0 1 0 1.201.346l.047-.161c.192-.673.458-1.6.826-2.435.198-.45.416-.849.65-1.152.239-.308.458-.472.646-.535.303-.1.556-.093.815.04.287.148.65.484 1.068 1.187.483.812 1.016 1.364 1.612 1.656.615.3 1.228.29 1.78.106.536-.179.946-.56 1.259-.985.313-.426.56-.936.758-1.445.315-.808.539-1.697.705-2.358.041-.164.079-.315.114-.446Z" clip-rule="evenodd"/>
</svg>
