<!--
  tags: ["input","selection","confirmation","form"]
-->
<svg xmlns="http://www.w3.org/2000/svg" width="20" height="20" fill="currentColor" viewBox="0 0 20 20">
  <path fill-rule="evenodd" d="M2.501 15.375c0 1.174.952 2.125 2.125 2.125h10.748a2.125 2.125 0 0 0 2.125-2.125V4.625A2.125 2.125 0 0 0 15.374 2.5H4.626a2.125 2.125 0 0 0-2.125 2.125v10.75Zm12.066-7.556a.625.625 0 0 0-.883-.884l-4.878 4.867-2.49-2.485a.625.625 0 0 0-.883.885l2.826 2.82a.775.775 0 0 0 1.095 0l5.213-5.203Z" clip-rule="evenodd"/>
</svg>
