<!--
  tags: ["input","selection","UI","form"]
-->
<svg xmlns="http://www.w3.org/2000/svg" width="20" height="20" fill="currentColor" viewBox="0 0 20 20">
  <path fill-rule="evenodd" d="M4.626 17.5a2.125 2.125 0 0 1-2.125-2.125V4.625c0-1.174.952-2.125 2.125-2.125h10.748c1.174 0 2.125.951 2.125 2.125v10.75a2.125 2.125 0 0 1-2.125 2.125H4.626Zm-.875-2.125c0 .483.392.875.875.875h10.748a.875.875 0 0 0 .875-.875V4.625a.875.875 0 0 0-.875-.875H4.626a.875.875 0 0 0-.875.875v10.75Z" clip-rule="evenodd"/>
</svg>
