<!--
  tags: ["analytics","interaction","engagement","events"]
-->
<svg xmlns="http://www.w3.org/2000/svg" width="20" height="20" fill="currentColor" viewBox="0 0 20 20">
  <path d="M13.338 6.157a4.888 4.888 0 1 0-7.372 5.892.608.608 0 0 1-.717.98 6.104 6.104 0 1 1 9.204-7.356.608.608 0 1 1-1.115.484Z"/>
  <path d="M5.505 7.07a3.562 3.562 0 0 1 6.567-.51.608.608 0 0 1-1.084.548 2.347 2.347 0 1 0-3.632 2.835.607.607 0 1 1-.796.918A3.563 3.563 0 0 1 5.505 7.07Z"/>
  <path fill-rule="evenodd" d="M16.602 12.476c1.228.915.602 2.866-.928 2.896l-1.623.032a.892.892 0 0 0-.746.431l-.839 1.389c-.791 1.31-2.794.877-2.972-.644l-.707-6.02c-.19-1.619 1.648-2.68 2.955-1.706l4.86 3.622Zm-.953 1.681a.392.392 0 0 0 .227-.707l-4.86-3.622a.642.642 0 0 0-1.022.59l.707 6.02a.392.392 0 0 0 .725.158l.84-1.39a2.108 2.108 0 0 1 1.761-1.016l1.622-.033Z" clip-rule="evenodd"/>
</svg>
