<!--
  tags: ["UI","dismiss","close","interaction"]
-->
<svg xmlns="http://www.w3.org/2000/svg" width="20" height="20" fill="currentColor" viewBox="0 0 20 20">
  <path fill-rule="evenodd" d="M4.652 17.5A2.152 2.152 0 0 1 2.5 15.348V4.65c0-1.188.964-2.152 2.152-2.152h10.696c1.188 0 2.152.964 2.152 2.152v10.698a2.152 2.152 0 0 1-2.152 2.152H4.652Zm-.848-2.152c0 .469.38.848.848.848h7.741V3.802h-7.74a.848.848 0 0 0-.849.848v10.698Zm9.893-11.546v12.394h1.65c.47 0 .849-.38.849-.848V4.65a.848.848 0 0 0-.848-.848h-1.65Zm-7.152 3.42a.652.652 0 0 1 .92-.07l2.518 2.163a.902.902 0 0 1 0 1.369l-2.519 2.163a.652.652 0 0 1-.85-.99L8.778 10 6.614 8.141a.652.652 0 0 1-.07-.92Z" clip-rule="evenodd"/>
</svg>
