<!--
  tags: ["infrastructure","upload","storage","integration"]
-->
<svg xmlns="http://www.w3.org/2000/svg" width="20" height="20" fill="currentColor" viewBox="0 0 20 20">
  <path fill-rule="evenodd" d="M5.143 8.045A4.808 4.808 0 0 1 9.87 4.124c2.584 0 4.725 2.051 4.807 4.64l.02.647.315.023a3.225 3.225 0 0 1-.236 6.44h-9.12a3.657 3.657 0 0 1-.734-7.24l.116-.023.105-.566ZM9.87 5.374a3.558 3.558 0 0 0-3.498 2.898l-.146.789a.913.913 0 0 1-.714.729l-.34.07a2.407 2.407 0 0 0 .484 4.765h9.12a1.975 1.975 0 0 0 .145-3.944l-.63-.046a.898.898 0 0 1-.833-.868l-.03-.963c-.06-1.908-1.642-3.43-3.558-3.43Z" clip-rule="evenodd"/>
</svg>
