<!--
  tags: ["developer","integration","implementation","API"]
-->
<svg xmlns="http://www.w3.org/2000/svg" width="20" height="20" fill="currentColor" viewBox="0 0 20 20">
  <path fill-rule="evenodd" d="M4.376 3.126a2.125 2.125 0 0 0-2.125 2.125v9.497c0 1.174.951 2.125 2.125 2.125h11.248a2.125 2.125 0 0 0 2.125-2.125V5.25a2.125 2.125 0 0 0-2.125-2.125H4.376Zm-.875 2.125c0-.483.392-.875.875-.875h11.248c.483 0 .875.392.875.875v9.497a.875.875 0 0 1-.875.875H4.376a.875.875 0 0 1-.875-.875V5.25Zm8.043 1.39a.625.625 0 0 0-1.207-.324l-1.889 7.05a.625.625 0 1 0 1.208.323l1.888-7.05Zm.901 1.096a.625.625 0 0 1 .884 0l1.822 1.821a.625.625 0 0 1 0 .884l-1.822 1.821a.625.625 0 1 1-.884-.884l1.38-1.38-1.38-1.378a.625.625 0 0 1 0-.884Zm-5.782 0a.625.625 0 0 1 .884.884L6.167 10l1.38 1.38a.625.625 0 0 1-.884.883l-1.821-1.821a.625.625 0 0 1 0-.884l1.82-1.821Z" clip-rule="evenodd"/>
</svg>
