<!--
  tags: ["teamwork","communication","feedback","shared-work"]
-->
<svg xmlns="http://www.w3.org/2000/svg" width="20" height="20" fill="currentColor" viewBox="0 0 20 20">
  <path fill-rule="evenodd" d="M2.981 10.297a3.956 3.956 0 0 1 .178-5.405l1.413-1.413a3.966 3.966 0 0 1 5.132-.406 4.065 4.065 0 0 1 5.234.435l1.656 1.656a4.8 4.8 0 0 1 0 6.788l-5.184 5.185a1.866 1.866 0 0 1-3.183-1.211 1.86 1.86 0 0 1-1.207-.543 1.859 1.859 0 0 1-.544-1.21 1.859 1.859 0 0 1-1.213-.544 1.86 1.86 0 0 1-.543-1.21 1.863 1.863 0 0 1-1.739-2.122Zm7.706-6.368 1.682 1.518a2.013 2.013 0 1 1-2.707 2.98L7.797 6.72l-3.402 3.402a.614.614 0 0 0 .855.88l.013-.012 2.364-2.364a.626.626 0 1 1 .885.887l-2.363 2.363-.013.012a.614.614 0 0 0 .881.855L9.38 10.38a.626.626 0 0 1 .888 0 .626.626 0 0 1 0 .886l-2.363 2.363a.614.614 0 0 0 .866.869l2.363-2.364a.625.625 0 1 1 .888.885l-2.363 2.364-.03.029a.614.614 0 0 0 .895.84l5.185-5.185a3.548 3.548 0 0 0 0-5.018l-1.656-1.656a2.813 2.813 0 0 0-3.366-.464ZM8.288 5.473l2.22 2.03a.76.76 0 1 0 1.022-1.127L9.193 4.268a2.713 2.713 0 0 0-3.736.096L4.044 5.777a2.704 2.704 0 0 0-.396 3.321l3.695-3.694a.626.626 0 0 1 .945.069Z" clip-rule="evenodd"/>
</svg>
