<!--
  tags: ["data","table","layout","UI"]
-->
<svg xmlns="http://www.w3.org/2000/svg" width="20" height="20" fill="currentColor" viewBox="0 0 20 20">
  <path fill-rule="evenodd" d="M7.554 17.38a2.125 2.125 0 0 1-2.125-2.125V4.745c0-1.173.951-2.125 2.125-2.125h4.893c1.174 0 2.125.952 2.125 2.125v10.51a2.125 2.125 0 0 1-2.125 2.125H7.554Zm-.875-2.125c0 .483.391.875.875.875h4.893a.875.875 0 0 0 .875-.875v-2.414H6.68v2.414Zm6.643-6.844v3.18H6.68V8.41h6.643Zm0-1.25H6.68V4.745c0-.483.391-.875.875-.875h4.893c.484 0 .875.392.875.875v2.416Zm-8.89.614a.625.625 0 0 0-.625-.625h-.683c-.621 0-1.125.504-1.125 1.125v3.43c0 .622.504 1.126 1.125 1.126h.684a.625.625 0 1 0 0-1.25h-.559V8.4h.558c.346 0 .625-.28.625-.626Zm11.136 0c0-.345.28-.625.625-.625h.683c.621 0 1.125.504 1.125 1.125v3.43c0 .622-.504 1.126-1.125 1.126h-.683a.625.625 0 1 1 0-1.25h.558V8.4h-.558a.625.625 0 0 1-.625-.626Z" clip-rule="evenodd"/>
</svg>
