<!--
  tags: ["data","merge","analytics","transformation"]
-->
<svg xmlns="http://www.w3.org/2000/svg" width="20" height="20" fill="currentColor" viewBox="0 0 20 20">
  <path fill-rule="evenodd" d="M8.114 15.124A.875.875 0 0 1 7.24 16H4.623a.875.875 0 0 1-.875-.875V4.875c0-.483.392-.875.875-.875H7.24c.483 0 .875.392.875.875v.656a4.85 4.85 0 0 0 0 8.937v.656Zm1.25-.317v.317A2.125 2.125 0 0 1 7.24 17.25H4.623a2.125 2.125 0 0 1-2.125-2.125V4.875c0-1.174.951-2.125 2.125-2.125H7.24c1.174 0 2.125.951 2.125 2.125v.317a4.894 4.894 0 0 1 1.272 0v-.317c0-1.174.951-2.125 2.125-2.125h2.616c1.173 0 2.125.951 2.125 2.125v10.25a2.125 2.125 0 0 1-2.125 2.124H12.76a2.125 2.125 0 0 1-2.125-2.125v-.317a4.9 4.9 0 0 1-1.272 0Zm2.522-.339v.656c0 .483.391.875.875.875h2.616a.875.875 0 0 0 .875-.875V4.875A.875.875 0 0 0 15.377 4H12.76a.875.875 0 0 0-.875.875v.656a4.85 4.85 0 0 1 0 8.937ZM6.4 10a3.599 3.599 0 1 1 7.198 0A3.599 3.599 0 0 1 6.4 10Zm4.224-2.019a.625.625 0 1 0-1.25 0v1.392H7.982a.625.625 0 1 0 0 1.25h1.393v1.394a.625.625 0 1 0 1.25 0v-1.394h1.393a.625.625 0 1 0 0-1.25h-1.393V7.981Z" clip-rule="evenodd"/>
</svg>
