<!--
  tags: ["data","merge","tracking","analytics"]
-->
<svg xmlns="http://www.w3.org/2000/svg" width="20" height="20" fill="currentColor" viewBox="0 0 20 20">
  <path fill-rule="evenodd" d="M5.273 12.602c0 1.174.951 2.125 2.125 2.125h6.08v.898a.875.875 0 0 1-.875.875H4.376a.875.875 0 0 1-.875-.875V7.403c0-.483.392-.875.875-.875h.897v6.074Zm0-7.324h-.897a2.125 2.125 0 0 0-2.125 2.125v8.222c0 1.173.952 2.125 2.125 2.125h8.227a2.125 2.125 0 0 0 2.125-2.125v-.898h.896a2.125 2.125 0 0 0 2.125-2.125V4.376a2.125 2.125 0 0 0-2.125-2.125H7.398a2.125 2.125 0 0 0-2.125 2.125v.902Zm1.25 1.25v6.074c0 .483.392.875.875.875h6.08V7.403a.875.875 0 0 0-.875-.875h-6.08Zm8.205 6.949V7.403a2.125 2.125 0 0 0-2.125-2.125h-6.08v-.902c0-.483.392-.875.875-.875h8.226c.483 0 .875.392.875.875v8.226a.875.875 0 0 1-.875.875h-.896Zm-7.08-3.476c0-.345.28-.625.624-.625h1.102V8.272a.625.625 0 1 1 1.25 0v1.104h1.104a.625.625 0 1 1 0 1.25h-1.104v1.102a.625.625 0 1 1-1.25 0v-1.102H8.272A.625.625 0 0 1 7.647 10Z" clip-rule="evenodd"/>
</svg>
