<!--
  tags: ["device","technology","access","platform"]
-->
<svg xmlns="http://www.w3.org/2000/svg" width="20" height="20" fill="currentColor" viewBox="0 0 20 20">
  <path d="M10.79 7.238a.625.625 0 0 0 0-1.25H9.195a.625.625 0 1 0 0 1.25h1.595Z"/>
  <path fill-rule="evenodd" d="M3.393 5.623c0-1.174.951-2.125 2.125-2.125h8.965c1.173 0 2.125.951 2.125 2.125v6.914h.518c.484 0 .875.392.875.875v.715a2.375 2.375 0 0 1-2.375 2.375H4.374a2.375 2.375 0 0 1-2.375-2.375v-.715c0-.483.391-.875.875-.875h.52V5.623Zm-.144 8.164v.34c0 .621.503 1.125 1.125 1.125h11.253c.62 0 1.124-.504 1.124-1.125v-.34H3.25Zm12.109-8.164v6.914H4.643V5.623c0-.483.392-.875.875-.875h8.965c.483 0 .875.392.875.875Z" clip-rule="evenodd"/>
</svg>
