<!--
  tags: ["analytics","goals","product-impact","tracking"]
-->
<svg xmlns="http://www.w3.org/2000/svg" width="20" height="20" fill="currentColor" viewBox="0 0 20 20">
  <path fill-rule="evenodd" d="M2.501 6.04a3.54 3.54 0 1 1 7.082.001 3.54 3.54 0 0 1-7.082 0Zm3.541-2.29a2.29 2.29 0 1 0 0 4.582 2.29 2.29 0 0 0 0-4.582Z" clip-rule="evenodd"/>
  <path d="M15.723 4.828V7.03l.7-.7a.625.625 0 0 1 .884.884l-1.768 1.768a.625.625 0 0 1-.884 0l-1.768-1.768a.625.625 0 1 1 .884-.884l.701.701V4.828a.875.875 0 0 0-.874-.875h-2.14a.625.625 0 1 1 0-1.25h2.14c1.173 0 2.124.951 2.124 2.125ZM4.283 12.96l-.7.7a.625.625 0 1 1-.884-.883l1.767-1.768a.625.625 0 0 1 .884 0l1.768 1.768a.625.625 0 1 1-.884.883l-.7-.7v2.202c0 .483.391.875.874.875h2.14a.625.625 0 1 1 0 1.25h-2.14a2.125 2.125 0 0 1-2.125-2.125v-2.203Z"/>
  <path fill-rule="evenodd" d="M13.957 10.418a3.542 3.542 0 1 0 0 7.084 3.542 3.542 0 0 0 0-7.084Zm-2.291 3.541a2.292 2.292 0 1 1 4.583.001 2.292 2.292 0 0 1-4.583 0Z" clip-rule="evenodd"/>
</svg>
