<!--
  tags: ["action","clipboard","interaction","duplication"]
-->
<svg xmlns="http://www.w3.org/2000/svg" width="20" height="20" fill="currentColor" viewBox="0 0 20 20">
  <path fill-rule="evenodd" d="M6.77 5.521v-.898c0-.483.391-.875.875-.875h7.73c.484 0 .876.392.876.875v7.731a.875.875 0 0 1-.875.875h-.896V7.646a2.125 2.125 0 0 0-2.125-2.125H6.77Zm-1.25 0v-.898c0-1.174.951-2.125 2.125-2.125h7.73c1.174 0 2.126.951 2.126 2.125v7.731a2.125 2.125 0 0 1-2.125 2.125h-.896v.899a2.125 2.125 0 0 1-2.125 2.125H4.624a2.125 2.125 0 0 1-2.125-2.125V7.646c0-1.173.951-2.125 2.125-2.125h.896Zm-.896 10.732a.875.875 0 0 1-.875-.875V7.646c0-.483.392-.875.875-.875h7.731c.483 0 .875.392.875.875v7.732a.875.875 0 0 1-.875.875H4.624Z" clip-rule="evenodd"/>
</svg>
