<!--
  tags: ["experimentation","statistics","analysis","data-framework"]
-->
<svg xmlns="http://www.w3.org/2000/svg" width="20" height="20" fill="currentColor" viewBox="0 0 20 20">
  <path fill-rule="evenodd" d="M10 3.377c.563 0 .95.229 1.322.693.397.497.727 1.204 1.15 2.111l.018.038c.84 1.8 1.952 4.141 4.546 5.814a.625.625 0 1 0 .678-1.05c-2.266-1.462-3.253-3.498-4.091-5.293l-.058-.124c-.387-.83-.774-1.66-1.267-2.277-.55-.688-1.272-1.162-2.298-1.162-1.027 0-1.748.474-2.298 1.162-.493.617-.88 1.446-1.267 2.277l-.058.124c-.838 1.795-1.825 3.831-4.091 5.293a.625.625 0 0 0 .677 1.05C5.558 10.36 6.67 8.02 7.51 6.22l.018-.038c.424-.907.753-1.614 1.151-2.111.371-.464.76-.693 1.322-.693Zm-.973 12.366-1.945 1.945a.625.625 0 0 1-.884-.884l1.054-1.054H2.63a.625.625 0 1 1 0-1.25h4.624L6.2 13.446a.625.625 0 0 1 .884-.884l1.943 1.943a.875.875 0 0 1 0 1.238Zm1.94 0a.875.875 0 0 1 0-1.237l1.945-1.945a.625.625 0 0 1 .884.884L12.74 14.5h4.631a.625.625 0 1 1 0 1.25h-4.63l1.055 1.056a.625.625 0 1 1-.884.883l-1.946-1.945Z" clip-rule="evenodd"/>
</svg>
