<!--
  tags: ["analytics","overview","metrics","workspace"]
-->
<svg xmlns="http://www.w3.org/2000/svg" width="20" height="20" fill="currentColor" viewBox="0 0 20 20">
  <path fill-rule="evenodd" d="M8.333 7.503c0 1.035-.84 1.875-1.875 1.875H4.374a1.875 1.875 0 0 1-1.875-1.875V4.75c0-1.036.839-1.875 1.875-1.875h2.084c1.036 0 1.875.84 1.875 1.875v2.752Zm-1.875.625c.345 0 .625-.28.625-.625V4.75a.625.625 0 0 0-.625-.625H4.374a.625.625 0 0 0-.625.625v2.752c0 .345.28.625.625.625h2.084Zm-2.084 2.495c-1.036 0-1.875.84-1.875 1.875v2.752c0 1.035.84 1.875 1.875 1.875H8.55c1.036 0 1.875-.84 1.875-1.876v-2.751c0-1.036-.84-1.875-1.875-1.875H4.374Zm-.625 1.875c0-.345.28-.625.625-.625H8.55c.345 0 .625.28.625.625v2.752c0 .345-.28.624-.625.624H4.374a.625.625 0 0 1-.625-.625v-2.751Zm9.802-1.875c-1.036 0-1.875.84-1.875 1.875v2.752c0 1.035.84 1.875 1.875 1.875h2.075c1.036 0 1.875-.84 1.875-1.876v-2.751c0-1.036-.84-1.875-1.875-1.875h-2.075Zm-.625 1.875c0-.345.28-.625.625-.625h2.075c.345 0 .625.28.625.625v2.752c0 .345-.28.624-.625.624h-2.075a.625.625 0 0 1-.625-.625v-2.751Zm2.7-3.12c1.036 0 1.875-.84 1.875-1.875V4.75c0-1.036-.84-1.875-1.875-1.875H11.46c-1.036 0-1.875.84-1.875 1.875v2.752c0 1.035.84 1.875 1.875 1.875h4.166Zm.625-1.875c0 .345-.28.625-.625.625H11.46a.625.625 0 0 1-.625-.625V4.75c0-.345.28-.625.625-.625h4.166c.345 0 .625.28.625.625v2.752Z" clip-rule="evenodd"/>
</svg>
