<!--
  tags: ["experimentation","outcome","logic","analysis"]
-->
<svg xmlns="http://www.w3.org/2000/svg" width="20" height="20" fill="currentColor" viewBox="0 0 20 20">
  <path fill-rule="evenodd" d="M7.887 5.864a2.113 2.113 0 1 1 4.226 0 2.113 2.113 0 0 1-4.226 0ZM10 2.5a3.363 3.363 0 0 0-.625 6.667v1.88l-5.001 4.3v-1.074a.625.625 0 1 0-1.25 0v2.6c0 .345.28.625.625.625h2.6a.625.625 0 1 0 0-1.25H5.244L10 12.16l4.757 4.09H13.65a.625.625 0 1 0 0 1.25h2.602c.345 0 .625-.28.625-.625v-2.601a.625.625 0 1 0-1.25 0v1.075l-5.001-4.3v-1.88A3.364 3.364 0 0 0 10 2.501Z" clip-rule="evenodd"/>
</svg>
