<!--
  tags: ["action","remove","trash","destructive"]
-->
<svg xmlns="http://www.w3.org/2000/svg" width="20" height="20" fill="currentColor" viewBox="0 0 20 20">
  <path d="M7.206 3.252a.625.625 0 1 1 0-1.25h5.588a.625.625 0 1 1 0 1.25H7.206Zm1.073 5.114c.345 0 .625.28.625.625v4.725a.625.625 0 0 1-1.25 0V8.99c0-.345.28-.625.625-.625Zm3.441 0c.346 0 .626.28.626.625v4.725a.625.625 0 0 1-1.25 0V8.99c0-.345.28-.625.625-.625Z"/>
  <path fill-rule="evenodd" d="M3.125 4.553a.625.625 0 1 0 0 1.25h.48l.696 10.214a2.125 2.125 0 0 0 2.12 1.981h7.158a2.125 2.125 0 0 0 2.12-1.98l.696-10.215h.48a.625.625 0 1 0 0-1.25H3.125Zm12.017 1.25H4.858l.69 10.13a.875.875 0 0 0 .873.815h7.158c.46 0 .842-.357.873-.816l.69-10.129Z" clip-rule="evenodd"/>
</svg>
