<!--
  tags: ["metadata","details","documentation","info"]
-->
<svg xmlns="http://www.w3.org/2000/svg" width="20" height="20" fill="currentColor" viewBox="0 0 20 20">
  <path fill-rule="evenodd" d="M2.875 5.002c0-1.174.952-2.125 2.125-2.125h10c1.173 0 2.124.951 2.124 2.125v6.903c0 .566-.225 1.108-.626 1.507l-3.109 3.093a2.125 2.125 0 0 1-1.498.618H5a2.125 2.125 0 0 1-2.126-2.125V5.002ZM5 4.127a.875.875 0 0 0-.875.875v9.996c0 .483.392.875.875.875h6.26v-2.735c0-1.036.84-1.875 1.876-1.875h2.738V5.002A.875.875 0 0 0 15 4.127H5Zm10.616 8.399-3.105 3.09v-2.478c0-.345.28-.625.625-.625h2.493l-.013.013Zm-2.893-2.947a.625.625 0 1 0 0-1.25H6.432a.625.625 0 1 0 0 1.25h6.291Zm.625-3.142c0 .345-.28.625-.625.625H6.432a.625.625 0 1 1 0-1.25h6.291c.346 0 .625.28.625.625ZM9.357 12.09a.625.625 0 1 0 0-1.25H6.432a.625.625 0 0 0 0 1.25h2.925Z" clip-rule="evenodd"/>
</svg>
