<!--
  tags: ["debugging","insights","performance","system-health"]
-->
<svg xmlns="http://www.w3.org/2000/svg" width="20" height="20" fill="currentColor" viewBox="0 0 20 20">
  <path fill-rule="evenodd" d="M3.781 8.548h2.723l1.39-3.22c.293-.678 1.28-.6 1.463.116l1.48 5.789.944-2.16a.875.875 0 0 1 .801-.525h2.96a5.913 5.913 0 0 0-11.76 0Zm11.76 1.25h-2.713L11.428 13c-.294.676-1.277.596-1.46-.118L8.49 7.101l-.936 2.17a.875.875 0 0 1-.803.527H3.784a5.913 5.913 0 0 0 11.756 0ZM2.5 9.161a7.162 7.162 0 1 1 12.167 5.123l2.65 2.65a.625.625 0 0 1-.884.883l-2.737-2.737A7.162 7.162 0 0 1 2.5 9.16Z" clip-rule="evenodd"/>
</svg>
