<!--
  tags: ["communication","collaboration","feedback","comments"]
-->
<svg xmlns="http://www.w3.org/2000/svg" width="20" height="20" fill="currentColor" viewBox="0 0 20 20">
  <path fill-rule="evenodd" d="M2 5.124c0-1.174.951-2.125 2.125-2.125h9.1c1.173 0 2.124.951 2.124 2.125V7.67h.776c1.036 0 1.875.84 1.875 1.875v3.835c0 .976-.745 1.777-1.698 1.867v.979a.775.775 0 0 1-1.242.618l-2.101-1.59H10.2a1.875 1.875 0 0 1-1.875-1.874v-.537L5.74 14.597a.775.775 0 0 1-1.21-.641V12.58h-.404A2.125 2.125 0 0 1 2 10.455V5.124Zm13.35 5.33V8.92h.775c.346 0 .625.28.625.625v3.835c0 .345-.28.625-.625.625h-.298a.775.775 0 0 0-.775.775v.491l-1.373-1.039a1.125 1.125 0 0 0-.678-.227h-2.8a.625.625 0 0 1-.625-.625v-.8h3.648a2.125 2.125 0 0 0 2.125-2.125ZM4.124 4.25a.875.875 0 0 0-.875.875v5.33c0 .484.392.876.875.876h.78c.483 0 .874.392.874.875v.855l2.356-1.597a.776.776 0 0 1 .435-.133h4.654a.875.875 0 0 0 .875-.875V5.124a.875.875 0 0 0-.875-.875H4.125Zm1.269 2.879a.82.82 0 1 0 0 1.64.82.82 0 0 0 0-1.64Zm5.742.82a.82.82 0 1 1 1.64 0 .82.82 0 0 1-1.64 0Zm-2.461-.82a.82.82 0 1 0 0 1.64.82.82 0 0 0 0-1.64Z" clip-rule="evenodd"/>
</svg>
