<!--
  tags: ["analytics","data","visualization","stats"]
-->
<svg xmlns="http://www.w3.org/2000/svg" width="20" height="20" fill="currentColor" viewBox="0 0 20 20">
  <path d="M11.55 3.372C11.101 3.125 10.587 3 10 3c-.588 0-1.102.124-1.55.37a3.2 3.2 0 0 0-1.07.99c-.53.757-.873 1.774-1.21 2.779l-.018.054c-.71 2.113-1.51 4.452-3.879 6.06a.623.623 0 1 0 .7 1.032c2.734-1.856 3.643-4.56 4.343-6.644l.017-.05c.363-1.08.653-1.924 1.068-2.513a1.95 1.95 0 0 1 .651-.615c.24-.132.542-.216.948-.216.406 0 .708.084.948.216.242.133.454.333.652.615.414.59.704 1.433 1.067 2.512l.017.051c.7 2.083 1.61 4.788 4.342 6.644a.623.623 0 1 0 .7-1.031c-2.368-1.609-3.167-3.948-3.878-6.061l-.018-.054c-.337-1.005-.68-2.022-1.21-2.778a3.199 3.199 0 0 0-1.07-.99ZM2.623 15.75a.623.623 0 0 0 0 1.247h14.754a.623.623 0 1 0 0-1.246H2.623Z"/>
</svg>
