<!--
  tags: ["file","info","content","metadata"]
-->
<svg xmlns="http://www.w3.org/2000/svg" viewBox="0 0 20 20">
    <path d="M4.752 4.531c0-.5.405-.904.904-.904h4.605v2.868a1.9 1.9 0 0 0 1.899 1.9h3.088v7.074c0 .5-.405.904-.904.904H5.656a.904.904 0 0 1-.904-.904V4.531Zm10.136 2.613L11.511 3.9v2.595c0 .358.29.65.649.65h2.728ZM5.656 2.377c-1.19 0-2.154.964-2.154 2.154V15.47c0 1.19.964 2.154 2.154 2.154h8.688c1.19 0 2.154-.964 2.154-2.154V7.875c0-.587-.24-1.148-.662-1.554l-3.481-3.343a2.154 2.154 0 0 0-1.492-.601H5.656Zm.848 11.25c0-.345.28-.625.625-.625h3.194a.625.625 0 1 1 0 1.25H7.13a.625.625 0 0 1-.625-.625Zm.625-3.186a.625.625 0 1 0 0 1.25h5.33a.625.625 0 1 0 0-1.25h-5.33Z" />
  </svg>
