<!--
  tags: ["file","action","export","data"]
-->
<svg xmlns="http://www.w3.org/2000/svg" width="20" height="20" fill="currentColor" viewBox="0 0 20 20">
  <path fill-rule="evenodd" d="M14.906 8.079a.625.625 0 0 1 0 .884L11.15 12.72a1.625 1.625 0 0 1-2.298 0L5.094 8.963a.625.625 0 1 1 .884-.884l3.397 3.397V2.751a.625.625 0 1 1 1.25 0v8.725l3.397-3.397a.625.625 0 0 1 .884 0ZM4.85 16.129a.975.975 0 0 1-.975-.975v-4.157a.625.625 0 1 0-1.25 0v4.158c0 1.228.996 2.225 2.225 2.225h10.3a2.225 2.225 0 0 0 2.225-2.225v-4.158a.625.625 0 1 0-1.25 0v4.158a.975.975 0 0 1-.975.975H4.85Z" clip-rule="evenodd"/>
</svg>
