<!--
  tags: ["UI","reorder","interaction","drag"]
-->
<svg xmlns="http://www.w3.org/2000/svg" width="20" height="20" fill="currentColor" viewBox="0 0 20 20">
  <path fill-rule="evenodd" d="M9.125 4.75a1.75 1.75 0 1 0-3.5 0 1.75 1.75 0 0 0 3.5 0Zm0 5.26a1.75 1.75 0 1 0-3.5 0 1.75 1.75 0 0 0 3.5 0Zm-1.75 3.49a1.75 1.75 0 1 1 0 3.5 1.75 1.75 0 0 1 0-3.5Zm7-3.49a1.75 1.75 0 1 0-3.5 0 1.75 1.75 0 0 0 3.5 0ZM12.625 3a1.75 1.75 0 1 1 0 3.5 1.75 1.75 0 0 1 0-3.5Zm1.75 12.25a1.75 1.75 0 1 0-3.5 0 1.75 1.75 0 0 0 3.5 0Z" clip-rule="evenodd"/>
</svg>
