<!--
  tags: ["UI","move","interaction","drag"]
-->
<svg xmlns="http://www.w3.org/2000/svg" width="20" height="20" fill="currentColor" viewBox="0 0 20 20">
  <path fill-rule="evenodd" d="M11.148 2.728a1.625 1.625 0 0 0-2.298 0L7.026 4.552a.625.625 0 0 0 .884.883l1.465-1.464v5.507H3.869l1.57-1.571a.625.625 0 1 0-.883-.884l-1.83 1.829a1.625 1.625 0 0 0 0 2.298l1.825 1.823a.625.625 0 1 0 .883-.884l-1.361-1.361h5.302v5.3L7.907 14.56a.625.625 0 1 0-.884.884l1.829 1.829a1.625 1.625 0 0 0 2.298 0l1.823-1.824a.625.625 0 0 0-.884-.884l-1.464 1.464v-5.301h5.301l-1.366 1.366a.625.625 0 0 0 .884.883l1.829-1.828a1.625 1.625 0 0 0 0-2.298l-1.824-1.824a.625.625 0 0 0-.884.884l1.567 1.567h-5.507V3.972l1.468 1.468a.625.625 0 0 0 .884-.883l-1.829-1.83Z" clip-rule="evenodd"/>
</svg>
