<!--
  tags: ["feature-flags","settings","environment","customization"]
-->
<svg xmlns="http://www.w3.org/2000/svg" width="20" height="20" fill="currentColor" viewBox="0 0 20 20">
  <path fill-rule="evenodd" d="M6.934 2.75a2.292 2.292 0 0 0-2.292 2.292v1.167c0 1.43-.89 2.709-2.232 3.204a.625.625 0 0 0 0 1.174 3.416 3.416 0 0 1 2.232 3.204v1.168a2.292 2.292 0 0 0 2.292 2.291h.361a2.3 2.3 0 0 0 .392-.033l.31-.054a.625.625 0 0 0-.215-1.231l-.308.053c-.06.01-.119.015-.179.015h-.361a1.042 1.042 0 0 1-1.042-1.041V13.79A4.664 4.664 0 0 0 3.947 10a4.667 4.667 0 0 0 1.945-3.792V5.042C5.892 4.466 6.36 4 6.934 4h.361c.06 0 .12.005.179.015l.308.054a.625.625 0 0 0 .214-1.232l-.309-.053a2.292 2.292 0 0 0-.392-.034h-.361Zm8.425 2.292a2.292 2.292 0 0 0-2.292-2.292h-.362a2.29 2.29 0 0 0-.392.034l-.308.053a.625.625 0 0 0 .213 1.232l.31-.054c.058-.01.118-.015.177-.015h.362c.575 0 1.042.466 1.042 1.042v1.167c0 1.528.744 2.93 1.945 3.791a4.666 4.666 0 0 0-1.945 3.791v1.167c0 .576-.467 1.042-1.042 1.042h-.362a1.06 1.06 0 0 1-.178-.015l-.308-.054a.625.625 0 0 0-.214 1.232l.308.053c.13.023.261.034.392.034h.362a2.292 2.292 0 0 0 2.292-2.292v-1.167c0-1.43.89-2.709 2.232-3.204a.625.625 0 0 0 0-1.174 3.416 3.416 0 0 1-2.232-3.204V5.042Z" clip-rule="evenodd"/>
</svg>
