<!--
  tags: ["communication","message","notification","contact"]
-->
<svg xmlns="http://www.w3.org/2000/svg" width="20" height="20" fill="currentColor" viewBox="0 0 20 20">
  <path fill-rule="evenodd" d="M4.501 5.025h10.993c.483 0 .875.392.875.875v.705L10.5 10.68a.875.875 0 0 1-.998 0L3.626 6.602v-.701c0-.484.392-.876.875-.876Zm-.874 3.1.004 5.976c0 .483.392.874.875.874h10.993a.875.875 0 0 0 .875-.875l-.003-5.974-5.16 3.58a2.125 2.125 0 0 1-2.422 0L3.627 8.125Zm11.867-4.35H4.501a2.125 2.125 0 0 0-2.125 2.127l.005 8.2c0 1.173.952 2.123 2.125 2.123h10.993a2.125 2.125 0 0 0 2.125-2.126l-.005-8.2a2.125 2.125 0 0 0-2.125-2.124Z" clip-rule="evenodd"/>
</svg>
