<!--
  tags: ["deployment","configuration"]
-->
<svg xmlns="http://www.w3.org/2000/svg" width="20" height="20" fill="currentColor" viewBox="0 0 20 20">
  <path fill-rule="evenodd" d="M10.116 4.582c0 1.15.932 2.083 2.083 2.083h2.593a2.083 2.083 0 0 0 0-4.166h-2.593c-1.15 0-2.083.933-2.083 2.083Zm2.083.833a.833.833 0 0 1 0-1.666h2.593a.833.833 0 0 1 0 1.666h-2.593ZM10.116 10c0 1.15.932 2.083 2.083 2.083h2.593a2.083 2.083 0 0 0 0-4.166h-2.593c-1.15 0-2.083.932-2.083 2.083Zm2.083.833a.833.833 0 0 1 0-1.666h2.593a.833.833 0 0 1 0 1.666h-2.593Zm0 6.668a2.083 2.083 0 1 1 0-4.166h2.593a2.083 2.083 0 0 1 0 4.166h-2.593Zm-.833-2.083c0 .46.373.833.833.833h2.593a.833.833 0 1 0 0-1.666h-2.593a.833.833 0 0 0-.833.833ZM3.75 3.957a.625.625 0 1 0 0 1.25h4.393a.625.625 0 0 0 0-1.25H3.75ZM3.125 10c0-.345.28-.625.625-.625h4.393a.625.625 0 0 1 0 1.25H3.75A.625.625 0 0 1 3.125 10Zm.625 4.793a.625.625 0 1 0 0 1.25h4.393a.625.625 0 1 0 0-1.25H3.75Z" clip-rule="evenodd"/>
</svg>
