<!--
  tags: ["status","issue","failure","alert"]
-->
<svg xmlns="http://www.w3.org/2000/svg" width="20" height="20" fill="currentColor" viewBox="0 0 20 20">
  <path fill-rule="evenodd" d="m12.95 3.405 3.645 3.644a.528.528 0 0 1 .155.374v5.154c0 .14-.056.274-.155.373l-3.644 3.645a.528.528 0 0 1-.374.155H7.423a.528.528 0 0 1-.374-.155l-3.644-3.644a.528.528 0 0 1-.155-.374V7.423a.53.53 0 0 1 .155-.374l3.644-3.644a.528.528 0 0 1 .374-.155h5.154c.14 0 .274.056.373.155ZM12.578 2c.472 0 .924.187 1.257.52l3.645 3.646c.334.333.521.785.521 1.257v5.154c0 .472-.187.924-.52 1.257l-3.646 3.645a1.774 1.774 0 0 1-1.257.521H7.423c-.472 0-.924-.187-1.257-.52L2.52 13.833A1.778 1.778 0 0 1 2 12.577V7.423c0-.472.187-.924.52-1.257L6.167 2.52C6.499 2.187 6.95 2 7.423 2h5.154Zm-2.575 3.387a.65.65 0 0 1 .65.65v4.682a.65.65 0 1 1-1.3 0V6.037a.65.65 0 0 1 .65-.65ZM9 13.611a1.002 1.002 0 1 1 2.003 0 1.002 1.002 0 0 1-2.003 0Z" clip-rule="evenodd"/>
</svg>
