<!--
  tags: ["user","events","tracking","analytics"]
-->
<svg xmlns="http://www.w3.org/2000/svg" width="20" height="20" fill="currentColor" viewBox="0 0 20 20">
  <path fill-rule="evenodd" d="M6.103 3.523v-.9a.625.625 0 1 0-1.25 0v.9h-.728A2.125 2.125 0 0 0 2 5.648v7.136c0 1.174.95 2.125 2.125 2.125h4.662A4.758 4.758 0 0 0 18 13.246a4.756 4.756 0 0 0-2.544-4.212V5.648a2.125 2.125 0 0 0-2.125-2.125h-.747v-.9a.625.625 0 1 0-1.25 0v.9h-5.23Zm8.103 5.064v-.882H3.25v5.08c0 .483.391.874.875.874h4.38a4.756 4.756 0 0 1 5.7-5.073Zm0-2.94v.808H3.25v-.807c0-.484.391-.875.875-.875h9.206c.483 0 .875.391.875.875Zm-.962 11.105a3.49 3.49 0 0 0 1.75-.468c-.323-.698-.935-1.23-1.722-1.23-.795 0-1.417.544-1.742 1.25a3.49 3.49 0 0 0 1.714.448Zm1.652-2.463c.454.302.812.718 1.07 1.166a3.506 3.506 0 1 0-5.417.034c.257-.45.612-.87 1.063-1.178a2.166 2.166 0 1 1 3.284-.022Zm-2.568-1.402a.916.916 0 1 1 1.833 0 .916.916 0 0 1-1.833 0Z" clip-rule="evenodd"/>
</svg>
