<!--
  tags: ["analytics","tracking","events","data"]
-->
<svg xmlns="http://www.w3.org/2000/svg" width="20" height="20" fill="currentColor" viewBox="0 0 20 20">
  <path fill-rule="evenodd" d="M2.125 3.998c0-.345.28-.625.625-.625h7.237a.625.625 0 0 1 0 1.25H2.75a.625.625 0 0 1-.625-.625Zm.625 3.256a.625.625 0 1 1 0-1.25h4.062a.625.625 0 1 1 0 1.25H2.75Zm0 1.383a.625.625 0 1 0 0 1.25h3.083a.625.625 0 0 0 0-1.25H2.75Zm9.725-1.749a3.369 3.369 0 1 0 0 6.738 3.369 3.369 0 0 0 0-6.738Zm-4.619 3.37a4.62 4.62 0 1 1 7.842 3.308l1.994 1.994a.625.625 0 0 1-.884.884l-2.127-2.127a4.619 4.619 0 0 1-6.825-4.06Z" clip-rule="evenodd"/>
</svg>
