<!--
  tags: ["analytics","tracking","interaction","data"]
-->
<svg xmlns="http://www.w3.org/2000/svg" width="20" height="20" fill="currentColor" viewBox="0 0 20 20">
  <path fill-rule="evenodd" d="M6.832 4.274V3.127a.625.625 0 0 0-1.25 0v1.147H4.374A2.125 2.125 0 0 0 2.249 6.4v8.974c0 1.174.95 2.125 2.125 2.125h11.253a2.125 2.125 0 0 0 2.125-2.125V6.4a2.125 2.125 0 0 0-2.125-2.125h-1.229V3.127a.625.625 0 1 0-1.25 0v1.147H6.832Zm6.941 1.25H6.23a.634.634 0 0 1-.046 0h-1.81a.875.875 0 0 0-.875.875v1.284h13.003V6.399a.875.875 0 0 0-.875-.875h-1.854ZM3.5 15.375V8.932h13.003v6.44a.875.875 0 0 1-.875.875H4.374a.875.875 0 0 1-.875-.875Zm2.705-5.148c-.621 0-1.125.504-1.125 1.126v2.436c0 .622.504 1.126 1.125 1.126h2.437c.621 0 1.125-.504 1.125-1.126v-2.436c0-.622-.504-1.126-1.125-1.126H6.204Zm.126 3.437v-2.186h2.185v2.186H6.33Z" clip-rule="evenodd"/>
</svg>
