<!--
  tags: ["UI","view","control","layout"]
-->
<svg xmlns="http://www.w3.org/2000/svg" width="20" height="20" fill="currentColor" viewBox="0 0 20 20">
  <path d="M13.88 8a1.875 1.875 0 0 1-1.874-1.875V3.373a.625.625 0 0 1 1.25 0v2.752c0 .345.28.625.625.625h2.744a.625.625 0 1 1 0 1.25h-2.744Zm-5.886 5.876C7.994 12.84 7.154 12 6.12 12H3.375a.625.625 0 1 0 0 1.25h2.744c.345 0 .625.28.625.625v2.752a.625.625 0 0 0 1.25 0v-2.752Zm4.012 0c0-1.036.84-1.875 1.875-1.875h2.744a.625.625 0 1 1 0 1.25h-2.744a.625.625 0 0 0-.625.625v2.752a.625.625 0 0 1-1.25 0v-2.752ZM7.995 6.125C7.995 7.161 7.155 8 6.12 8H3.375a.625.625 0 1 1 0-1.25H6.12c.345 0 .625-.28.625-.625V3.373a.625.625 0 0 1 1.25 0v2.752Z"/>
</svg>
