<!--
  tags: ["UI","toggle","resize","view"]
-->
<svg xmlns="http://www.w3.org/2000/svg" width="20" height="20" fill="currentColor" viewBox="0 0 20 20">
  <path d="M3.873 2.501a.625.625 0 1 0 0 1.25h12.254a.625.625 0 0 0 0-1.25H3.873Zm5.333 2.844a1.123 1.123 0 0 1 1.59 0l2.122 2.122a.625.625 0 0 1-.883.884l-1.407-1.407v6.138l1.406-1.406a.625.625 0 1 1 .884.884l-2.123 2.123c-.44.44-1.151.44-1.59 0L7.082 12.56a.625.625 0 0 1 .883-.884l1.412 1.412V6.94l-1.41 1.412a.625.625 0 0 1-.884-.884l2.123-2.123Zm-5.958 11.53c0-.346.28-.625.625-.625h12.254a.625.625 0 0 1 0 1.25H3.873a.625.625 0 0 1-.625-.625Z"/>
</svg>
