<!--
  tags: ["A/B-testing","analysis","product-testing"]
-->
<svg xmlns="http://www.w3.org/2000/svg" width="20" height="20" fill="currentColor" viewBox="0 0 20 20">
  <path fill-rule="evenodd" d="M6.158 3.5a.625.625 0 1 0 0 1.25h.74v1.73a.625.625 0 0 1-.067.282l-3.35 6.656c-.712 1.414.316 3.082 1.9 3.082h9.239c1.583 0 2.61-1.668 1.9-3.082l-3.35-6.656a.625.625 0 0 1-.067-.282V4.75h.693a.625.625 0 1 0 0-1.25H6.158Zm1.99 2.98V4.75h3.704v1.73c0 .293.069.582.2.844l1.283 2.55c-.122.081-.28.17-.477.242-.506.187-1.321.286-2.467-.27a4.826 4.826 0 0 0-3.56-.302l1.118-2.22c.131-.262.2-.55.2-.844Zm-2.25 4.917-1.3 2.583a.876.876 0 0 0 .783 1.27h9.239a.876.876 0 0 0 .782-1.27L13.9 10.996c-.17.104-.373.207-.61.294-.83.306-1.997.384-3.445-.318a3.585 3.585 0 0 0-2.82-.177 4.168 4.168 0 0 0-1.086.57l-.04.032Z" clip-rule="evenodd"/>
</svg>
