<!--
  tags: ["navigation","redirect","action","link"]
-->
<svg xmlns="http://www.w3.org/2000/svg" width="20" height="20" fill="currentColor" viewBox="0 0 20 20">
  <path fill-rule="evenodd" d="M2.625 15.252c0 1.173.951 2.124 2.125 2.124h10.5a2.125 2.125 0 0 0 2.125-2.125v-2.68a.625.625 0 1 0-1.25 0v2.68a.875.875 0 0 1-.875.876H4.75a.875.875 0 0 1-.875-.875V4.748c0-.483.392-.875.875-.875h2.679a.625.625 0 1 0 0-1.25H4.75a2.125 2.125 0 0 0-2.125 2.125v10.503Zm7.387-12.003c0-.345.28-.625.625-.625H15.5c1.035 0 1.875.84 1.875 1.875v4.856a.625.625 0 1 1-1.25 0V4.758l-5.899 5.9a.625.625 0 1 1-.883-.884l5.898-5.9h-4.604a.625.625 0 0 1-.625-.625Z" clip-rule="evenodd"/>
</svg>
