<!--
  tags: ["bookmark","priority","user-action","preference"]
-->
<svg xmlns="http://www.w3.org/2000/svg" width="20" height="20" fill="currentColor" viewBox="0 0 20 20">
  <path fill-rule="evenodd" d="M8.993 2.798a1.13 1.13 0 0 1 2.015 0l1.899 3.734 4.138.653a1.13 1.13 0 0 1 .623 1.916l-2.965 2.96.659 4.137a1.13 1.13 0 0 1-1.63 1.184L10 15.478l-3.732 1.904a1.13 1.13 0 0 1-1.63-1.184l.659-4.137-2.965-2.96a1.13 1.13 0 0 1 .623-1.916l4.138-.653 1.9-3.734Zm1.008.786L8.183 7.157a1.13 1.13 0 0 1-.831.604l-3.96.625 2.836 2.832c.257.256.375.62.318.978l-.63 3.959 3.57-1.823a1.13 1.13 0 0 1 1.028 0l3.571 1.823-.63-3.96a1.13 1.13 0 0 1 .318-.977l2.837-2.832-3.96-.625a1.13 1.13 0 0 1-.832-.604l-1.817-3.573Z" clip-rule="evenodd"/>
</svg>
