<!--
  tags: ["action","file","duplication","content"]
-->
<svg xmlns="http://www.w3.org/2000/svg" width="20" height="20" fill="currentColor" viewBox="0 0 20 20">
  <path fill-rule="evenodd" d="M7.701 2a2.125 2.125 0 0 0-2.125 2.125v.357h-.453a2.125 2.125 0 0 0-2.125 2.126v9.267C2.998 17.05 3.95 18 5.123 18H12.3a2.125 2.125 0 0 0 2.125-2.125v-.357h.453a2.125 2.125 0 0 0 2.125-2.125V7.702c0-.574-.233-1.124-.645-1.525l-3.683-3.576A2.125 2.125 0 0 0 11.194 2H7.7Zm6.723 12.268h.453a.875.875 0 0 0 .874-.875V7.702a.875.875 0 0 0-.265-.628l-3.683-3.576a.875.875 0 0 0-.61-.248H7.701a.875.875 0 0 0-.874.875v.357h1.788c.553 0 1.084.216 1.48.601L13.78 8.66c.412.4.645.95.645 1.524v4.084Zm-9.3-8.535a.875.875 0 0 0-.875.875v9.267c0 .483.391.875.874.875H12.3a.875.875 0 0 0 .874-.875V10.45h-3.27a1.625 1.625 0 0 1-1.625-1.625V5.733H5.123Zm4.404.542L12.54 9.2H9.903a.375.375 0 0 1-.375-.375v-2.55Z" clip-rule="evenodd"/>
</svg>
