<!--
  tags: ["targeting","segmentation","user-event","birthday"]
-->
<svg xmlns="http://www.w3.org/2000/svg" width="20" height="20" fill="currentColor" viewBox="0 0 20 20">
  <path fill-rule="evenodd" d="M9.848 2.689c-.354.367-.801.865-.88 1.456-.064.468.12.877.406 1.123v1.03H7.239a2.125 2.125 0 0 0-2.125 2.124v2.565h-.108a2.125 2.125 0 0 0-2.125 2.125v3.012h-.004a.625.625 0 0 0 0 1.25h14.245a.625.625 0 1 0 0-1.25h-.005v-3.012a2.125 2.125 0 0 0-2.125-2.125h-.105V8.422a2.125 2.125 0 0 0-2.125-2.125h-2.138v-1.03c.285-.246.47-.654.406-1.122-.079-.59-.53-1.09-.88-1.456a.21.21 0 0 0-.302 0Zm6.02 13.435H4.13v-3.012c0-.483.392-.875.875-.875h9.986c.484 0 .875.392.875.875v3.012ZM9.96 7.547a.629.629 0 0 0 .078 0h2.724c.483 0 .875.392.875.875v2.565H6.364V8.422c0-.483.391-.875.875-.875H9.96Z" clip-rule="evenodd"/>
</svg>
