<!--
  tags: ["feature-flags","status","targeting","rollout"]
-->
<svg xmlns="http://www.w3.org/2000/svg" width="20" height="20" fill="currentColor" viewBox="0 0 20 20">
  <path fill-rule="evenodd" d="M3.756 3.125v13.749a.625.625 0 1 0 1.25 0V12.41c1.592.429 3.574.396 5.352-.284 1.463-.56 3.412-.769 5.07-.097a.78.78 0 0 0 1.074-.72V4.437a.773.773 0 0 0-.462-.708c-2.052-.898-4.357-.65-6.129.028a7.58 7.58 0 0 1-4.905.14v-.772a.625.625 0 1 0-1.25 0ZM5.006 5.2v5.905c1.372.456 3.243.49 4.905-.147 1.49-.57 3.48-.85 5.341-.31v-5.89c-1.599-.591-3.417-.399-4.894.167-1.793.686-3.738.705-5.352.275Z" clip-rule="evenodd"/>
</svg>
