<!--
  tags: ["power","status","alerts","UI"]
-->
<svg xmlns="http://www.w3.org/2000/svg" width="20" height="20" fill="currentColor" viewBox="0 0 20 20">
  <path fill-rule="evenodd" d="M3.07 2.182a.625.625 0 1 0-.884.884l3.693 3.693-2.457 3.125c-.71.902-.067 2.225 1.081 2.225H8.74l-.032 4.757c-.008 1.072 1.346 1.546 2.009.703l2.628-3.344 3.594 3.593a.625.625 0 1 0 .883-.884l-3.698-3.698 2.454-3.122c.71-.902.066-2.226-1.082-2.225l-4.233.003.03-4.759c.006-1.071-1.347-1.544-2.01-.702L6.658 5.77 3.07 2.182Zm3.7 5.467-2.365 3.007a.125.125 0 0 0 .098.203h4.363c.624 0 1.13.508 1.125 1.132L9.96 16.51l2.495-3.174L6.77 7.65Zm6.463 4.696L7.548 6.66l2.492-3.17-.027 4.52a1.125 1.125 0 0 0 1.125 1.132l4.359-.003c.104 0 .162.12.098.203l-2.362 3.003Z" clip-rule="evenodd"/>
</svg>
