<!--
  tags: ["styling","UI","visual","design"]
-->
<svg xmlns="http://www.w3.org/2000/svg" width="20" height="20" fill="currentColor" viewBox="0 0 20 20">
  <path fill-rule="evenodd" d="M5.526 2.707a1.988 1.988 0 0 1 2.812 0l.78.78 7.165 7.165a.775.775 0 0 1-.53 1.323L14.695 12a.209.209 0 0 0-.142.061l-4.484 4.484c-.83.83-2.175.83-3.005 0l-4.442-4.441a2.125 2.125 0 0 1 0-3.005l3.242-3.242-.338-.338a1.988 1.988 0 0 1 0-2.812Zm1.222 2.266L7.792 3.93l-.338-.338A.738.738 0 1 0 6.41 4.635l.338.338Zm1.928-.16L7.19 6.299 5.524 7.965c1.182.001 2.44.477 3.418 1.642.718.856 1.394 1.456 2.13 1.733.702.264 1.544.264 2.678-.267a.62.62 0 0 1 .072-.028c.229-.173.505-.276.794-.292l-5.94-5.94Zm-5.17 5.17.026-.026a.63.63 0 0 0 .048-.04c.939-.883 3.026-1.15 4.405.493.758.904 1.603 1.707 2.647 2.1.46.173.943.26 1.452.253L9.185 15.66a.875.875 0 0 1-1.237 0l-4.442-4.44a.875.875 0 0 1 0-1.237Zm13.296 3.468c.433.757 1.089 1.98 1.179 2.659.132 1-.432 1.766-1.357 1.766s-1.49-.765-1.357-1.766c.1-.757.747-1.92 1.177-2.66a.206.206 0 0 1 .358 0Z" clip-rule="evenodd"/>
</svg>
