<!--
  tags: ["analytics","configuration","data-model","logic"]
-->
<svg xmlns="http://www.w3.org/2000/svg" width="20" height="20" fill="currentColor" viewBox="0 0 20 20">
  <path d="M7.056 5.393a2.306 2.306 0 0 1 2.3-2.144h.123c1.005 0 1.894.65 2.198 1.607l.147.462a.629.629 0 0 1-1.199.381l-.147-.462a1.048 1.048 0 0 0-.999-.73h-.123c-.55 0-1.006.425-1.045.974l-.15 2.132h1.464a.629.629 0 0 1 0 1.258H8.073l-.401 5.72a2.306 2.306 0 0 1-2.3 2.145h-.054a2.306 2.306 0 0 1-2.107-1.37l-.282-.634a.629.629 0 0 1 1.15-.51l.281.634c.168.379.544.623.958.623h.054c.55 0 1.007-.426 1.045-.975l.395-5.633H5.104a.629.629 0 1 1 0-1.258h1.797l.155-2.22Z"/>
  <path d="M11.729 11.283a.629.629 0 0 0-1.128-.08l-.123.214a.629.629 0 0 1-1.09-.629l.124-.214c.787-1.36 2.794-1.22 3.383.238l.47 1.164 1.947-2.061a.629.629 0 0 1 .889-.028.629.629 0 0 1 .023.889l-2.342 2.48.745 1.844a.629.629 0 0 0 1.116.098l.22-.352a.629.629 0 1 1 1.066.666l-.219.352c-.817 1.307-2.772 1.136-3.35-.293l-.528-1.31-2.15 2.278a.629.629 0 0 1-.89.028.629.629 0 0 1-.023-.89l2.546-2.695-.686-1.7Z"/>
</svg>
