<!--
  tags: ["text","styling","formatting","UI"]
-->
<svg xmlns="http://www.w3.org/2000/svg" width="20" height="20" fill="currentColor" viewBox="0 0 20 20">
  <path fill-rule="evenodd" d="M4.626 3.752c0-.345.28-.625.625-.625h4.542a3.634 3.634 0 0 1 2.643 6.13 3.866 3.866 0 0 1-.926 7.616H5.25a.625.625 0 0 1-.615-.735.63.63 0 0 1-.01-.108V9.783a.626.626 0 0 1 0-.026V3.752Zm1.25.625v4.768h4a2.385 2.385 0 0 0-.083-4.768H5.876Zm0 6.019v5.227h5.634a2.614 2.614 0 1 0 0-5.228H9.894a3.428 3.428 0 0 1-.101 0H5.876Z" clip-rule="evenodd"/>
</svg>
