<!--
  tags: ["text","organization","layout","formatting"]
-->
<svg xmlns="http://www.w3.org/2000/svg" width="20" height="20" fill="currentColor" viewBox="0 0 20 20">
  <path fill-rule="evenodd" d="M2.5 4.123c0-.345.28-.625.625-.625h1.177c.428 0 .775.347.775.775v3.884a.625.625 0 1 1-1.25 0V4.748h-.702a.625.625 0 0 1-.625-.625Zm5.44 1.219c0-.345.279-.625.624-.625h8.312a.625.625 0 1 1 0 1.25H8.564a.625.625 0 0 1-.625-.625Zm0 4.63c0-.345.279-.625.624-.625h8.312a.625.625 0 1 1 0 1.25H8.564a.625.625 0 0 1-.625-.625Zm.624 4.015a.625.625 0 1 0 0 1.25h8.312a.625.625 0 1 0 0-1.25H8.564Zm-3.853-2.35c-.92-.375-1.817.11-2.14.73a.625.625 0 1 0 1.108.578.47.47 0 0 1 .56-.15.36.36 0 0 1 .195.236c.022.086.025.232-.154.424a5.26 5.26 0 0 1-.312.284c-.147.129-.328.288-.504.465-.328.327-.757.823-.854 1.422-.087.53.357.875.754.875H5.11a.625.625 0 1 0 0-1.25h-.917c.046-.052.098-.107.155-.163a9.26 9.26 0 0 1 .444-.409l.032-.028c.127-.111.27-.235.37-.343.452-.485.586-1.065.45-1.59a1.61 1.61 0 0 0-.933-1.08Z" clip-rule="evenodd"/>
</svg>
