<!--
  tags: ["UI","view","expand","layout"]
-->
<svg xmlns="http://www.w3.org/2000/svg" width="20" height="20" fill="currentColor" viewBox="0 0 20 20">
  <path d="M15.123 3.001c1.036 0 1.875.84 1.875 1.875v2.598a.625.625 0 1 1-1.25 0V4.876a.625.625 0 0 0-.625-.625h-2.59a.625.625 0 1 1 0-1.25h2.59Zm-10.247.001c-1.036 0-1.875.84-1.875 1.875v2.59a.625.625 0 1 0 1.25 0v-2.59c0-.345.28-.625.625-.625h2.598a.625.625 0 0 0 0-1.25H4.876Zm10.248 13.995a1.874 1.874 0 0 0 1.875-1.874v-2.591a.625.625 0 0 0-1.25 0v2.59c0 .346-.28.626-.625.626h-2.599a.625.625 0 1 0 0 1.25h2.599ZM3.001 15.124c0 1.036.84 1.875 1.875 1.875h2.591a.625.625 0 0 0 0-1.25h-2.59a.625.625 0 0 1-.626-.625v-2.599a.625.625 0 1 0-1.25 0v2.599Z"/>
</svg>
