<!--
  tags: ["analytics","conversion","events","flow"]
-->
<svg xmlns="http://www.w3.org/2000/svg" width="20" height="20" fill="currentColor" viewBox="0 0 20 20">
  <path fill-rule="evenodd" d="M3.137 5.056C2.362 3.98 3.13 2.479 4.455 2.479h11.086c1.327 0 2.094 1.504 1.316 2.579l-2.121 2.93-2.122 2.93v4.294c0 .444-.261.847-.667 1.028l-2.993 1.334a1.125 1.125 0 0 1-1.584-1.027V10.92L3.137 5.056Zm1.318-1.327a.375.375 0 0 0-.304.595l4.257 5.898c.138.191.212.422.212.658v5.474l2.744-1.223v-4.254c0-.237.075-.468.214-.66l4.267-5.893a.375.375 0 0 0-.304-.595H4.455Z" clip-rule="evenodd"/>
</svg>
