<!--
  tags: ["system","diagnostics","status","monitoring"]
-->
<svg xmlns="http://www.w3.org/2000/svg" width="20" height="20" fill="currentColor" viewBox="0 0 20 20">
  <path fill-rule="evenodd" d="M2.501 15.375c0 1.174.952 2.125 2.125 2.125h10.747a2.125 2.125 0 0 0 2.125-2.125V4.626a2.125 2.125 0 0 0-2.125-2.125H4.626a2.125 2.125 0 0 0-2.125 2.125v10.75Zm2.125.875a.875.875 0 0 1-.875-.875V10.65h3.212a.902.902 0 0 0 .844-.584l.961-2.549 1.57 6.543c.207.865 1.408.94 1.721.108l1.325-3.518h2.864v4.725a.875.875 0 0 1-.875.875H4.626Zm11.622-6.904h-3.142a.902.902 0 0 0-.844.584l-.962 2.552L9.732 5.94C9.524 5.075 8.324 5 8.01 5.832L6.685 9.346H3.75v-4.72c0-.483.392-.875.875-.875h10.747c.484 0 .875.392.875.875v4.72Z" clip-rule="evenodd"/>
</svg>
