<!--
  tags: ["visibility","access-control","UI","toggle"]
-->
<svg xmlns="http://www.w3.org/2000/svg" width="20" height="20" fill="currentColor" viewBox="0 0 20 20">
  <path fill-rule="evenodd" d="M3.07 2.182a.625.625 0 1 0-.884.884l2.858 2.858a9 9 0 0 0-.933.738 8.536 8.536 0 0 0-1.53 1.806 5.102 5.102 0 0 0-.412.802c-.092.234-.164.49-.164.73s.073.497.165.732c.098.247.237.518.413.801a8.553 8.553 0 0 0 1.534 1.806c1.34 1.205 3.328 2.285 5.893 2.285a8.593 8.593 0 0 0 3.842-.892l3.087 3.086a.625.625 0 1 0 .883-.884l-2.857-2.857a9.2 9.2 0 0 0 .933-.738 8.534 8.534 0 0 0 1.53-1.807c.175-.283.314-.555.411-.801.092-.235.165-.491.165-.73 0-.24-.073-.498-.166-.732a5.104 5.104 0 0 0-.412-.802 8.552 8.552 0 0 0-1.535-1.806c-1.339-1.205-3.327-2.284-5.893-2.284a8.593 8.593 0 0 0-3.842.892L3.07 2.182Zm2.875 4.643.39.39a3.919 3.919 0 0 0 5.05 5.05l1.525 1.525a7.365 7.365 0 0 1-2.9.584c-2.194 0-3.896-.92-5.057-1.964a7.306 7.306 0 0 1-1.309-1.536 3.868 3.868 0 0 1-.311-.601 1.54 1.54 0 0 1-.065-.198.382.382 0 0 1-.013-.075c0-.002 0-.026.013-.074.012-.051.033-.117.065-.199.064-.164.166-.368.31-.6A7.29 7.29 0 0 1 4.948 7.59c.297-.268.63-.527.997-.765Zm8.119 6.35c.367-.237.7-.497.997-.765a7.292 7.292 0 0 0 1.304-1.536 3.82 3.82 0 0 0 .31-.6 1.57 1.57 0 0 0 .066-.2.427.427 0 0 0 .013-.074.433.433 0 0 0-.013-.074 1.534 1.534 0 0 0-.066-.199 3.869 3.869 0 0 0-.311-.6 7.308 7.308 0 0 0-1.309-1.537 7.822 7.822 0 0 0-1.836-1.235c.443.635.704 1.408.704 2.242a3.91 3.91 0 0 1-1.42 3.018l1.56 1.56Zm-2.45-2.45a2.669 2.669 0 1 0-3.739-3.739l3.739 3.74Zm-1.252.517L7.359 8.239a2.669 2.669 0 0 0 3.003 3.003Z" clip-rule="evenodd"/>
</svg>
