<!--
  tags: ["organization","structure","levels","relationships"]
-->
<svg xmlns="http://www.w3.org/2000/svg" width="20" height="20" fill="currentColor" viewBox="0 0 20 20">
  <path fill-rule="evenodd" d="M13.3 5.294A3.3 3.3 0 0 0 10 2a3.299 3.299 0 0 0-3.3 3.295 3.3 3.3 0 0 0 2.69 3.24v1.708l-3.662.002a2.125 2.125 0 0 0-2.124 2.125v1.284A2.218 2.218 0 0 0 4.216 18a2.217 2.217 0 0 0 .638-4.34v-1.293c0-.483.391-.875.874-.875l3.662-.001v2.16A2.218 2.218 0 0 0 10 18a2.217 2.217 0 0 0 .64-4.34v-2.17h3.66c.484 0 .876.393.876.876v1.284a2.218 2.218 0 0 0 .608 4.35 2.217 2.217 0 0 0 .642-4.34v-1.294a2.125 2.125 0 0 0-2.125-2.125H10.64V8.528a3.3 3.3 0 0 0 2.66-3.234ZM10 3.25a2.05 2.05 0 0 1 2.05 2.045 2.05 2.05 0 0 1-4.1 0A2.05 2.05 0 0 1 10 3.25Zm0 11.568a.967.967 0 1 1-.002 1.934.967.967 0 0 1 .001-1.934Zm-4.818.967a.967.967 0 1 0-1.934 0 .967.967 0 0 0 1.934 0Zm10.602-.967a.967.967 0 1 1-.001 1.934.967.967 0 0 1 0-1.934Z" clip-rule="evenodd"/>
</svg>
