<!--
  tags: ["time","events","logs","analytics"]
-->
<svg xmlns="http://www.w3.org/2000/svg" width="20" height="20" fill="currentColor" viewBox="0 0 20 20">
  <path fill-rule="evenodd" d="M10 3.751a6.238 6.238 0 0 0-4.948 2.432h1.692a.625.625 0 1 1 0 1.25H3.819a.875.875 0 0 1-.875-.875V3.634a.625.625 0 0 1 1.25 0v1.62A7.499 7.499 0 1 1 2.501 10v-.047l.001-.186a.625.625 0 1 1 1.25.037V10A6.249 6.249 0 1 0 10 3.75Zm.62 2.722a.625.625 0 1 0-1.25 0v3.704c0 .275.177.509.424.592l3.093 1.554a.625.625 0 1 0 .56-1.117l-2.827-1.42V6.472Z" clip-rule="evenodd"/>
</svg>
