<!--
  tags: ["visualization","analytics","data","chart"]
-->
<svg xmlns="http://www.w3.org/2000/svg" width="20" height="20" fill="currentColor" viewBox="0 0 20 20">
  <path fill-rule="evenodd" d="M4.124 3.376c-.621 0-1.125.504-1.125 1.125V6c0 .621.504 1.125 1.125 1.125h11.752c.622 0 1.125-.504 1.125-1.125V4.501c0-.621-.503-1.125-1.125-1.125H4.124Zm.125 2.499V4.626h11.502v1.249H4.25ZM2.999 9.25c0-.621.504-1.125 1.125-1.125h9.003c.62 0 1.124.504 1.124 1.125v1.499c0 .621-.503 1.125-1.124 1.125H4.123a1.125 1.125 0 0 1-1.125-1.125V9.25Zm1.25.125v1.249h8.753V9.375H4.248Zm-1.25 4.624c0-.621.504-1.125 1.125-1.125H8.98c.621 0 1.125.504 1.125 1.125v1.5c0 .62-.504 1.124-1.125 1.124H4.124a1.125 1.125 0 0 1-1.125-1.125V14Zm1.25.125v1.25h4.606v-1.25H4.25Z" clip-rule="evenodd"/>
</svg>
