<!--
  tags: ["experimentation","testing","logic","research"]
-->
<svg xmlns="http://www.w3.org/2000/svg" width="20" height="20" fill="currentColor" viewBox="0 0 20 20">
  <path fill-rule="evenodd" d="M10 16.376A6.376 6.376 0 1 0 3.624 10a5.02 5.02 0 0 0 1.509 3.578l-.873.895A6.27 6.27 0 0 1 2.374 10 7.626 7.626 0 1 1 10 17.626H4.055c-1.229 0-1.743-1.57-.752-2.296l.026-.02h.002l.396-.29.522-.383a.108.108 0 0 0 .01-.164l.874-.895c.587.574.546 1.56-.145 2.067l-.946.693a.158.158 0 0 0-.01.009.072.072 0 0 0 .009.028l.014.001H10Zm.002-9.328c-.874 0-1.447.606-1.512 1.215a.625.625 0 0 1-1.243-.133c.137-1.28 1.279-2.332 2.755-2.332.701 0 1.37.199 1.88.609.523.418.846 1.032.873 1.767a2.302 2.302 0 0 1-.416 1.455c-.268.378-.626.652-.955.87-.508.339-.759.734-.759 1.196a.625.625 0 0 1-1.25 0c0-1.014.589-1.752 1.317-2.236.289-.192.493-.364.626-.551.12-.17.2-.379.188-.688a1.076 1.076 0 0 0-.405-.838c-.249-.2-.625-.334-1.099-.334Zm.678 6.51a.679.679 0 1 0-1.357 0 .679.679 0 0 0 1.357 0Z" clip-rule="evenodd"/>
</svg>
