<!--
  tags: ["identity","user","metadata","authentication"]
-->
<svg xmlns="http://www.w3.org/2000/svg" width="20" height="20" fill="currentColor" viewBox="0 0 20 20">
  <path fill-rule="evenodd" d="M16.118 4.749H3.876a.625.625 0 0 0-.625.625l.006 9.252c0 .3.21.549.49.61.02-.971.383-2.07 1.045-2.944a4.2 4.2 0 0 1 1.42-1.216 2.796 2.796 0 1 1 3.334-.005 4.17 4.17 0 0 1 1.426 1.223c.66.878 1.017 1.984 1.033 2.957h4.118c.346 0 .626-.28.625-.625l-.005-9.252a.625.625 0 0 0-.625-.625Zm-5.363 10.502c-.016-.704-.285-1.544-.783-2.207-.504-.671-1.208-1.118-2.086-1.118-.88 0-1.588.447-2.098 1.12-.502.664-.774 1.504-.79 2.205h5.756ZM3.876 3.499h12.242c1.035 0 1.874.839 1.875 1.874l.005 9.252a1.873 1.873 0 0 1-1.875 1.875H3.882a1.875 1.875 0 0 1-1.875-1.874l-.006-9.252c0-1.036.84-1.876 1.875-1.876Zm8.029 4.198c0-.345.28-.625.625-.625h2.528a.625.625 0 1 1 0 1.25H12.53a.625.625 0 0 1-.625-.625Zm.625 1.89a.625.625 0 1 0 0 1.25h2.528a.625.625 0 0 0 0-1.25H12.53ZM7.876 7.281a1.546 1.546 0 1 0 .001 3.093 1.546 1.546 0 0 0-.001-3.093Z" clip-rule="evenodd"/>
</svg>
