<!--
  tags: ["media","file","UI","visual"]
-->
<svg xmlns="http://www.w3.org/2000/svg" width="20" height="20" fill="currentColor" viewBox="0 0 20 20">
  <path fill-rule="evenodd" d="M7.709 5.234a2.48 2.48 0 1 0-.001 4.96 2.48 2.48 0 0 0 0-4.96Zm-1.23 2.48a1.23 1.23 0 1 1 2.459 0 1.23 1.23 0 0 1-2.46 0Z" clip-rule="evenodd"/>
  <path fill-rule="evenodd" d="M4.624 17.498a2.125 2.125 0 0 1-2.125-2.125V4.626c0-1.174.951-2.125 2.125-2.125h10.752c1.173 0 2.125.951 2.125 2.125v10.747a2.125 2.125 0 0 1-2.125 2.125H4.624Zm0-1.25a.875.875 0 0 1-.782-.482l2.528-2.941a.68.68 0 0 1 1.03 0L8.412 14a1.06 1.06 0 0 0 1.607 0l2.472-2.875a.68.68 0 0 1 1.03 0l2.73 3.177v1.07a.875.875 0 0 1-.875.875H4.624ZM16.251 4.626v7.759l-1.782-2.073a1.93 1.93 0 0 0-2.926 0l-2.327 2.707-.868-1.01a1.93 1.93 0 0 0-2.926 0l-1.673 1.947v-9.33c0-.483.392-.875.875-.875h10.752c.483 0 .875.392.875.875Z" clip-rule="evenodd"/>
</svg>
