<!--
  tags: ["automation","scalability","continuous","logic"]
-->
<svg xmlns="http://www.w3.org/2000/svg" width="20" height="20" fill="currentColor" viewBox="0 0 20 20">
  <path fill-rule="evenodd" d="M12.088 8.92 10.921 10l1.167 1.079c.85.734 1.602 1.293 2.402 1.293 1.227 0 2.261-1.04 2.261-2.372 0-1.333-1.034-2.373-2.26-2.373-.801 0-1.553.56-2.403 1.293ZM10 10.85l1.247 1.154.008.007.008.007c.793.686 1.889 1.604 3.227 1.604 1.961 0 3.511-1.644 3.511-3.622s-1.55-3.623-3.51-3.623c-1.34 0-2.435.918-3.228 1.605l-.008.006-.008.007L10 9.148 8.753 7.995l-.008-.007-.007-.006c-.794-.687-1.889-1.605-3.228-1.605C3.55 6.377 2 8.022 2 10c0 1.978 1.55 3.622 3.51 3.622 1.339 0 2.434-.918 3.228-1.604l.007-.007.008-.007L10 10.85ZM9.08 10l-1.168 1.079c-.85.734-1.601 1.293-2.402 1.293-1.226 0-2.26-1.04-2.26-2.372 0-1.333 1.034-2.373 2.26-2.373.801 0 1.553.56 2.402 1.293L9.08 10Z" clip-rule="evenodd"/>
</svg>
