<!--
  tags: ["data","pipeline","tracking","backend"]
-->
<svg xmlns="http://www.w3.org/2000/svg" width="20" height="20" fill="currentColor" viewBox="0 0 20 20">
  <path fill-rule="evenodd" d="M14.807 4.22a.97.97 0 1 1 1.941 0 .97.97 0 0 1-1.94 0Zm.97-2.22a2.222 2.222 0 0 0-.624 4.354v.754a.874.874 0 0 1-.875.875h-1.246V6.6c0-1.033-.835-1.793-1.782-2.257-.988-.484-2.309-.765-3.733-.765-1.425 0-2.746.281-3.734.766-.946.464-1.782 1.224-1.782 2.257v6.747c0 1.04.827 1.813 1.778 2.289.989.495 2.311.782 3.738.782 1.426 0 2.748-.288 3.737-.782.952-.476 1.778-1.249 1.778-2.289v-1.325h1.247c.483 0 .874.392.874.875v.747a2.223 2.223 0 1 0 1.251 0V12.9a2.126 2.126 0 0 0-2.125-2.126h-1.247v-1.54h1.246a2.126 2.126 0 0 0 2.126-2.126v-.754A2.223 2.223 0 0 0 15.778 2Zm0 14.75a.97.97 0 1 1 0-1.94.97.97 0 0 1 0 1.94ZM3.253 6.602c0-.29.26-.73 1.082-1.134.782-.383 1.907-.638 3.183-.638 1.276 0 2.4.255 3.182.638.823.403 1.082.842 1.082 1.133v.003c-.002.292-.262.73-1.082 1.132-.782.384-1.906.639-3.182.639s-2.4-.255-3.183-.639c-.823-.403-1.082-.842-1.082-1.134Zm8.529 1.955a4.79 4.79 0 0 1-.53.302c-.989.485-2.31.767-3.734.767-1.425 0-2.746-.282-3.734-.766a4.841 4.841 0 0 1-.53-.302v1.28c.002.31.272.757 1.086 1.164.78.39 1.903.65 3.178.65 1.274 0 2.397-.26 3.178-.65.818-.41 1.086-.859 1.086-1.17V8.558Zm-8.53 4.793v-1.533c.168.113.345.214.527.305.989.495 2.311.783 3.738.783 1.426 0 2.748-.288 3.737-.783.182-.09.36-.192.527-.305v1.533c0 .31-.268.76-1.086 1.17-.781.39-1.904.65-3.178.65-1.275 0-2.397-.26-3.178-.65-.819-.41-1.087-.86-1.087-1.17Z" clip-rule="evenodd"/>
</svg>
