<!--
  tags: ["debugging","analysis","developer","events"]
-->
<svg xmlns="http://www.w3.org/2000/svg" width="20" height="20" fill="currentColor" viewBox="0 0 20 20">
  <path fill-rule="evenodd" d="M10.488 2.249c.567 0 1.11.226 1.509.629l1.942 1.958c.395.398.616.935.616 1.496v3.219a3.932 3.932 0 0 1 1.234 5.732l1.402 1.402a.625.625 0 1 1-.884.883l-1.404-1.404a3.915 3.915 0 0 1-2.294.738 3.916 3.916 0 0 1-2.374-.797H4.75a2.125 2.125 0 0 1-2.125-2.125V4.374c0-1.174.951-2.125 2.125-2.125h5.737ZM9.156 14.855a3.933 3.933 0 0 1 4.149-5.758V6.333a.875.875 0 0 0-.253-.616l-1.943-1.958a.875.875 0 0 0-.62-.259H4.75a.875.875 0 0 0-.875.875v9.606c0 .483.392.875.875.875h4.405Zm3.453-4.569a2.683 2.683 0 1 0 0 5.366 2.683 2.683 0 0 0 0-5.366Z" clip-rule="evenodd"/>
</svg>
