<!--
  tags: ["connections","API","tools","external-systems"]
-->
<svg xmlns="http://www.w3.org/2000/svg" width="20" height="20" fill="currentColor" viewBox="0 0 20 20">
  <path fill-rule="evenodd" d="M8.761 3.375a1.393 1.393 0 0 0-1.36 1.695c.104.467-.215 1.052-.827 1.052H4.592c-.597 0-1.081.484-1.081 1.081v1.53c.036-.002.072-.002.108-.002a2.643 2.643 0 1 1-.108 5.283v1.53c0 .597.484 1.081 1.081 1.081h1.58a2.644 2.644 0 0 1 5.18 0h1.579a1.08 1.08 0 0 0 1.081-1.08V13.56c0-.612.586-.93 1.054-.827a1.393 1.393 0 1 0 0-2.719c-.468.104-1.054-.214-1.054-.827V7.203a1.08 1.08 0 0 0-1.081-1.08h-1.982c-.612 0-.93-.586-.828-1.053a1.393 1.393 0 0 0-1.36-1.695Zm0-1.25a2.643 2.643 0 0 1 2.641 2.747h1.529a2.331 2.331 0 0 1 2.331 2.331v1.53l.108-.002a2.643 2.643 0 1 1-.108 5.283v1.53a2.331 2.331 0 0 1-2.331 2.331h-2.056a.722.722 0 0 1-.72-.723 1.393 1.393 0 1 0-2.786 0c0 .38-.303.723-.721.723H4.592a2.331 2.331 0 0 1-2.331-2.33V13.56c0-.612.585-.931 1.053-.827a1.393 1.393 0 1 0 0-2.719c-.466.104-1.053-.213-1.053-.827V7.203a2.331 2.331 0 0 1 2.331-2.33h1.529a2.643 2.643 0 0 1 2.64-2.747Z" clip-rule="evenodd"/>
</svg>
