<!--
  tags: ["data","list","resources","assets"]
-->
<svg xmlns="http://www.w3.org/2000/svg" width="20" height="20" fill="currentColor" viewBox="0 0 20 20">
  <path fill-rule="evenodd" d="M2.375 4.76c0-.903.731-1.634 1.634-1.634h11.983c.902 0 1.634.731 1.634 1.634v1.175c0 .71-.454 1.315-1.087 1.54v7.265a2.134 2.134 0 0 1-2.133 2.133H5.594A2.134 2.134 0 0 1 3.46 14.74V7.475a1.634 1.634 0 0 1-1.085-1.54V4.76Zm2.353 2.809h10.544v7.17a.866.866 0 0 1-.866.867H5.594a.866.866 0 0 1-.866-.866V7.569Zm-.72-3.176a.366.366 0 0 0-.366.367v1.175c0 .203.164.367.367.367h11.983a.366.366 0 0 0 .366-.367V4.76a.366.366 0 0 0-.366-.367H4.009Zm4.299 4.84a.634.634 0 1 0 0 1.268h3.386a.634.634 0 0 0 0-1.267H8.307Z" clip-rule="evenodd"/>
</svg>
