<!--
  tags: ["collaboration","user","sharing","access"]
-->
<svg xmlns="http://www.w3.org/2000/svg" width="20" height="20" fill="currentColor" viewBox="0 0 20 20">
  <path fill-rule="evenodd" d="M9.545 4.128c.28-.17.63-.17.91 0l5.5 3.348c.26.158.42.442.42.747v.149l-5.931 3.489a.875.875 0 0 1-.888 0L3.625 8.37v-.148c0-.305.16-.589.42-.747l5.5-3.348Zm-5.92 5.694v5.303c0 .483.392.875.875.875h11a.875.875 0 0 0 .875-.875V9.822l-5.298 3.116a2.125 2.125 0 0 1-2.154 0L3.625 9.822Zm7.48-6.762a2.125 2.125 0 0 0-2.21 0l-5.5 3.348a2.125 2.125 0 0 0-1.02 1.815v6.902c0 1.174.951 2.125 2.125 2.125h11a2.125 2.125 0 0 0 2.125-2.125V8.223c0-.742-.387-1.43-1.02-1.815l-5.5-3.348Z" clip-rule="evenodd"/>
</svg>
