<!--
  tags: ["structure","UI","design","organization"]
-->
<svg xmlns="http://www.w3.org/2000/svg" width="20" height="20" fill="currentColor" viewBox="0 0 20 20">
  <path fill-rule="evenodd" d="m10.143 3.918 6.126 4.244a.25.25 0 0 1 0 .411l-6.126 4.245a.25.25 0 0 1-.285 0L3.732 8.573a.25.25 0 0 1 0-.41l6.126-4.245a.25.25 0 0 1 .285 0ZM9.146 2.89a1.5 1.5 0 0 1 1.708 0l6.127 4.245a1.5 1.5 0 0 1 0 2.466l-6.127 4.245a1.5 1.5 0 0 1-1.708 0L3.02 9.6a1.5 1.5 0 0 1 0-2.466L9.146 2.89Zm8.208 9.797a.625.625 0 0 0-.712-1.027l-6.286 4.355a.625.625 0 0 1-.712 0L3.358 11.66a.625.625 0 0 0-.712 1.027l6.286 4.356a1.875 1.875 0 0 0 2.136 0l6.286-4.356Z" clip-rule="evenodd"/>
</svg>
