<!--
  tags: ["experimentation","flow","status","stages"]
-->
<svg xmlns="http://www.w3.org/2000/svg" width="20" height="20" fill="currentColor" viewBox="0 0 20 20">
  <path fill-rule="evenodd" d="M14.65 5.343a5.908 5.908 0 0 0-8.364.251.625.625 0 1 1-.91-.856A7.158 7.158 0 0 1 15.46 4.39l-.04-.707a.625.625 0 0 1 1.248-.069l.11 1.988a.875.875 0 0 1-.826.922l-1.988.109a.625.625 0 1 1-.068-1.248l.753-.042Zm1.614 2.642a.625.625 0 0 1 1.2-.35 7.158 7.158 0 0 1-4.759 8.84l.641.324a.625.625 0 0 1-.565 1.116l-1.773-.898a.875.875 0 0 1-.385-1.176l.898-1.774a.625.625 0 0 1 1.115.565l-.334.66a5.908 5.908 0 0 0 3.962-7.306Zm-11.431.32.388.56a.625.625 0 0 0 1.028-.712L5.117 6.52A.875.875 0 0 0 3.9 6.299L2.266 7.43a.625.625 0 0 0 .712 1.028l.639-.442a7.158 7.158 0 0 0 5.276 8.575.625.625 0 1 0 .296-1.214 5.908 5.908 0 0 1-4.357-7.073Z" clip-rule="evenodd"/>
</svg>
