<!--
  tags: ["UI","appearance","theme","settings"]
-->
<svg xmlns="http://www.w3.org/2000/svg" width="20" height="20" fill="currentColor" viewBox="0 0 20 20">
  <path fill-rule="evenodd" d="M9.375 4.753a.625.625 0 1 0 1.25 0V3a.625.625 0 1 0-1.25 0v1.752Zm6.016-.145a.625.625 0 0 1 0 .884L14.155 6.73a.625.625 0 0 1-.884-.884l1.236-1.237a.625.625 0 0 1 .884 0ZM8.966 8.966a1.462 1.462 0 1 0 2.068 2.068 1.462 1.462 0 0 0-2.068-2.068Zm-.884 2.952a2.712 2.712 0 1 1 3.836-3.836 2.712 2.712 0 0 1-3.836 3.836Zm-1.354 2.237a.625.625 0 0 0-.884-.884L4.61 14.507a.625.625 0 0 0 .884.884l1.235-1.236Zm8.663 1.236a.625.625 0 0 1-.884 0l-1.239-1.24a.625.625 0 1 1 .884-.883l1.24 1.239a.625.625 0 0 1 0 .884ZM5.848 6.73a.625.625 0 1 0 .884-.884L5.493 4.61a.625.625 0 1 0-.884.884L5.848 6.73ZM17.624 10c0 .345-.28.625-.625.625H15.25a.625.625 0 0 1 0-1.25H17c.345 0 .625.28.625.625Zm-12.876.625a.625.625 0 1 0 0-1.25H3.001a.625.625 0 1 0 0 1.25h1.747Zm5.252 7a.625.625 0 0 1-.625-.626v-1.752a.625.625 0 1 1 1.25 0v1.752c0 .345-.28.625-.625.625Z" clip-rule="evenodd"/>
</svg>
