<!--
  tags: ["connection","navigation","reference","integration"]
-->
<svg xmlns="http://www.w3.org/2000/svg" width="20" height="20" fill="currentColor" viewBox="0 0 20 20">
  <path fill-rule="evenodd" d="M4.674 15.326a3.971 3.971 0 0 1 0-5.616l.856-.856a.625.625 0 1 0-.883-.884l-.857.856a5.221 5.221 0 1 0 7.384 7.384l.857-.856a.625.625 0 1 0-.884-.884l-.857.856a3.971 3.971 0 0 1-5.616 0ZM7.97 4.646a.625.625 0 1 0 .884.883l.856-.856a3.971 3.971 0 1 1 5.616 5.616l-.856.857a.625.625 0 1 0 .884.884l.856-.857A5.221 5.221 0 1 0 8.827 3.79l-.856.857Zm-.55 7.05a.625.625 0 0 0 .883.883l4.276-4.275a.625.625 0 1 0-.884-.884L7.42 11.695Z" clip-rule="evenodd"/>
</svg>
