<!--
  tags: ["access","broken-link","disconnection","status"]
-->
<svg xmlns="http://www.w3.org/2000/svg" width="20" height="20" fill="currentColor" viewBox="0 0 20 20">
  <path fill-rule="evenodd" d="M3.07 2.187a.625.625 0 0 0-.884.884l6.929 6.928-1.698 1.698a.626.626 0 1 0 .885.885L10 10.884l6.937 6.937a.625.625 0 0 0 .884-.884L10.883 10l1.7-1.7a.626.626 0 0 0-.885-.885l-1.7 1.7L3.07 2.187Zm1.597 7.522a3.976 3.976 0 1 0 5.624 5.624l.857-.858a.626.626 0 0 1 .886.885l-.858.858a5.228 5.228 0 0 1-7.394-7.394l.858-.858a.626.626 0 0 1 .885.885l-.858.858Zm3.301-4.186a.626.626 0 0 1 0-.885l.858-.858a5.228 5.228 0 1 1 7.394 7.394l-.858.858a.626.626 0 1 1-.885-.885l.858-.858A3.976 3.976 0 1 0 9.71 4.665l-.858.858a.626.626 0 0 1-.885 0Z" clip-rule="evenodd"/>
</svg>
