<!--
  tags: ["UI","layout","display","structure"]
-->
<svg xmlns="http://www.w3.org/2000/svg" width="20" height="20" fill="currentColor" viewBox="0 0 20 20">
  <path fill-rule="evenodd" d="M4.078 6.535a1.329 1.329 0 1 0-.001-2.657 1.329 1.329 0 0 0 .001 2.657Zm1.338 3.458c0 .734-.596 1.33-1.332 1.33a1.331 1.331 0 0 1-1.332-1.33c0-.735.596-1.33 1.332-1.33.736 0 1.333.595 1.333 1.33Zm2.558-.624a.625.625 0 0 0 0 1.25h8.65a.625.625 0 1 0 0-1.25h-8.65Zm-2.568 5.425a1.329 1.329 0 1 1-2.657.002 1.329 1.329 0 0 1 2.657-.002ZM7.35 5.207c0-.346.28-.625.625-.625h8.65a.625.625 0 1 1 0 1.25h-8.65a.625.625 0 0 1-.625-.625Zm.625 8.963a.625.625 0 1 0 0 1.25h8.65a.625.625 0 1 0 0-1.25h-8.65Z" clip-rule="evenodd"/>
</svg>
