<!--
  tags: ["analytics","custom","product","scoped"]
-->
<svg xmlns="http://www.w3.org/2000/svg" width="20" height="20" fill="currentColor" viewBox="0 0 20 20">
  <path fill-rule="evenodd" d="M5.104 15.045a1.87 1.87 0 0 0 2.645 0l.743-.742A4.822 4.822 0 0 0 18 13.18a4.822 4.822 0 0 0-3.701-4.69l.738-.738c.73-.73.73-1.916 0-2.647l-2.556-2.558a1.87 1.87 0 0 0-2.645 0L2.547 9.84a1.873 1.873 0 0 0 0 2.647l2.557 2.558Zm7.526-6.654 1.523-1.523a.622.622 0 0 0 0-.88l-2.555-2.557a.62.62 0 0 0-.878 0l-.607.607 1.002 1.002a.625.625 0 0 1-.884.884L9.23 4.922l-.826.826L9.405 6.75a.625.625 0 0 1-.884.884l-1-1.002-.825.825 1 1a.625.625 0 0 1-.883.885l-1-1-.826.825 1.001 1.002a.625.625 0 0 1-.884.884l-1-1.002-.673.674a.622.622 0 0 0 0 .878l2.556 2.558a.62.62 0 0 0 .879 0l1.524-1.524a4.822 4.822 0 0 1 4.24-4.246Zm.55 8.359a3.57 3.57 0 1 1 0-7.14 3.57 3.57 0 0 1 0 7.14Zm.551-5.343a.625.625 0 0 0-1.25 0v1.734a.625.625 0 0 0 .312.565l1.517.876a.625.625 0 1 0 .625-1.083l-1.204-.695v-1.397Z" clip-rule="evenodd"/>
</svg>
