<!--
  tags: ["session","user","action","auth"]
-->
<svg xmlns="http://www.w3.org/2000/svg" width="20" height="20" fill="currentColor" viewBox="0 0 20 20">
  <path fill-rule="evenodd" d="M12.258 5.094a.625.625 0 0 1 .883 0L16.9 8.851a1.625 1.625 0 0 1 0 2.298l-3.758 3.757a.625.625 0 0 1-.883-.884l3.397-3.397H6.93a.625.625 0 1 1 0-1.25h8.725l-3.397-3.397a.625.625 0 0 1 0-.884ZM3.875 4.85c0-.538.437-.975.975-.975h4.158a.625.625 0 1 0 0-1.25H4.85A2.225 2.225 0 0 0 2.625 4.85v10.3c0 1.229.997 2.225 2.225 2.225h4.158a.625.625 0 1 0 0-1.25H4.85a.975.975 0 0 1-.975-.975V4.85Z" clip-rule="evenodd"/>
</svg>
