<!--
  tags: ["visualization","location","structure","navigation"]
-->
<svg xmlns="http://www.w3.org/2000/svg" width="20" height="20" fill="currentColor" viewBox="0 0 20 20">
  <path fill-rule="evenodd" d="m8.25 4.554-.003 9.69 3.502 1.201v-9.69l-3.5-1.201ZM13 5.756v9.69l3.498-1.203.002-9.69L13 5.757Zm-6.003 8.488L7 4.554 3.502 5.756l-.002 9.69 3.497-1.203Zm.019-11.017a1.875 1.875 0 0 1 1.218 0l3.938 1.352a.625.625 0 0 0 .406 0l3.682-1.264c.73-.251 1.49.292 1.49 1.064l-.002 9.954c0 .48-.305.907-.76 1.063l-4.004 1.377a1.875 1.875 0 0 1-1.218 0l-3.94-1.353a.625.625 0 0 0-.406 0l-3.68 1.264a1.125 1.125 0 0 1-1.49-1.064l.002-9.953c0-.48.305-.908.76-1.064l4.004-1.376Z" clip-rule="evenodd"/>
</svg>
