<!--
  tags: ["analytics","data","origin","pipeline"]
-->
<svg xmlns="http://www.w3.org/2000/svg" width="20" height="20" fill="currentColor" viewBox="0 0 20 20">
  <path fill-rule="evenodd" d="M5.103 15.022a1.85 1.85 0 0 0 2.616 0l.369-.369v.788c0 .47.215.87.511 1.182.293.31.688.56 1.127.756.881.394 2.055.621 3.317.621 1.263 0 2.436-.227 3.317-.62.44-.197.834-.447 1.127-.756.296-.313.512-.714.512-1.183v-5.236h-.003a1.58 1.58 0 0 0 .003-.1c0-.938-.812-1.58-1.636-1.953a6.647 6.647 0 0 0-1.345-.429l.005-.005a1.85 1.85 0 0 0 0-2.616l-2.56-2.56a1.85 1.85 0 0 0-2.617 0l-.956.956-.006.006-.005.005-1.77 1.77a.628.628 0 0 0-.028.028L5.32 7.068a.588.588 0 0 0-.03.028L3.53 8.857a.606.606 0 0 0-.028.028l-.96.96a1.85 1.85 0 0 0 0 2.617l2.56 2.56Zm8.406-7.488.665-.664a.65.65 0 0 0 0-.92l-2.56-2.56a.65.65 0 0 0-.92 0l-.537.538 1.063 1.063a.6.6 0 0 1-.848.849L9.309 4.777l-.941.94L9.43 6.78a.6.6 0 0 1-.849.849L7.52 6.566l-.94.94L7.642 8.57a.6.6 0 1 1-.849.849L5.73 8.355l-.94.94 1.063 1.063a.6.6 0 1 1-.849.849l-1.063-1.063-.55.55a.65.65 0 0 0 0 .919l2.56 2.56a.65.65 0 0 0 .92 0l1.217-1.217v-2.751h.004a1.603 1.603 0 0 1-.004-.1c0-.938.813-1.58 1.636-1.953.882-.398 2.056-.628 3.32-.628.156 0 .312.003.465.01Zm-3.27 1.757c-.743.336-.9.672-.9.814 0 .142.157.478.9.813.686.31 1.677.518 2.805.518 1.128 0 2.119-.208 2.804-.518.744-.335.901-.67.901-.813 0-.142-.157-.478-.9-.814-.686-.31-1.677-.517-2.805-.517-1.128 0-2.12.208-2.805.517Zm6.124 2.767c.13-.059.26-.124.385-.197v.899c0 .065-.026.173-.169.323-.145.153-.385.32-.729.474-.686.306-1.678.512-2.807.512s-2.12-.206-2.807-.512c-.344-.154-.584-.32-.73-.474-.135-.143-.165-.248-.168-.313v-.91c.126.073.256.139.386.198.882.398 2.056.628 3.32.628 1.263 0 2.437-.23 3.319-.628Zm.386 2.445c-.125.07-.255.135-.389.195-.881.394-2.054.621-3.317.621-1.263 0-2.436-.227-3.317-.62a4.65 4.65 0 0 1-.388-.196v.938c0 .065.027.173.169.323.145.154.385.32.73.474.685.306 1.677.512 2.806.512 1.13 0 2.121-.206 2.807-.512.344-.154.584-.32.73-.474.142-.15.169-.258.169-.323v-.938Z" clip-rule="evenodd"/>
</svg>
