<!--
  tags: ["media","sound","content","playful"]
-->
<svg xmlns="http://www.w3.org/2000/svg" width="20" height="20" fill="currentColor" viewBox="0 0 20 20">
  <path fill-rule="evenodd" d="M16.247 4.765v5.653a2.673 2.673 0 1 0 1.25 2.156V4.627c0-.665-.574-1.185-1.236-1.12l-8.652.86a1.125 1.125 0 0 0-1.013 1.12v6.076a2.673 2.673 0 1 0 1.25 2.274V5.6l8.401-.835Zm-.414 6.911c.257.258.396.59.414.927v.092l.001.039a1.422 1.422 0 1 1-.415-1.058ZM4.168 12.82a1.422 1.422 0 1 1 2.01 2.01 1.422 1.422 0 0 1-2.01-2.01Z" clip-rule="evenodd"/>
</svg>
