<!--
  tags: ["deny","close","action","reject"]
-->
<svg xmlns="http://www.w3.org/2000/svg" width="20" height="20" fill="currentColor" viewBox="0 0 20 20">
  <path fill-rule="evenodd" d="M11.27 3.87a.62.62 0 1 0-1.239 0v5.91a.625.625 0 1 1-1.25 0V5.601a.62.62 0 1 0-1.24 0v5.75c.262.182.546.392.86.636a.625.625 0 0 1-.768.987c-1.327-1.032-2.028-1.373-2.706-1.617-.715-.257-1.025-.006-1.112.136-.097.157-.135.5.274.85a32.938 32.938 0 0 1 1.798 1.685l.133.131c.556.55 1.033 1.01 1.545 1.39.983.73 2.14 1.2 4.265 1.2 1.755 0 2.833-.511 3.477-1.197.653-.695.944-1.657.944-2.711v-6.6a.616.616 0 1 0-1.233 0v3.546a.625.625 0 0 1-.812.596.625.625 0 0 1-.447-.599V4.677a.62.62 0 1 0-1.239 0V9.78a.625.625 0 1 1-1.25 0V3.87Zm3.73.615a1.87 1.87 0 0 0-2.693-1.482 1.87 1.87 0 0 0-3.526.834 1.87 1.87 0 0 0-2.49 1.764v4.985a7.87 7.87 0 0 0-.94-.406c-1.096-.393-2.113-.132-2.6.657-.478.774-.263 1.781.525 2.455a31.727 31.727 0 0 1 1.735 1.628l.13.129c.552.544 1.086 1.063 1.679 1.504 1.227.911 2.655 1.446 5.01 1.446 2.004 0 3.45-.592 4.388-1.591.931-.991 1.283-2.296 1.283-3.567v-6.6A1.866 1.866 0 0 0 15 4.485Z" clip-rule="evenodd"/>
</svg>
