<!--
  tags: ["alerts","updates","messages","status"]
-->
<svg xmlns="http://www.w3.org/2000/svg" width="20" height="20" fill="currentColor" viewBox="0 0 20 20">
  <path fill-rule="evenodd" d="M2.5 13.486a3 3 0 0 1 .505-1.665l.71-1.065a1.5 1.5 0 0 0 .247-.702l.237-2.72a5.845 5.845 0 0 1 11.646.001l.239 2.735c.02.244.102.48.235.685l.698 1.077a3 3 0 0 1 .483 1.632v.138a2 2 0 0 1-2 2h-2.116c-.299 1.44-1.795 2.4-3.384 2.4s-3.085-.96-3.384-2.4H4.5a2 2 0 0 1-2-2v-.116Zm10.905.866H4.5a.75.75 0 0 1-.75-.75v-.116c0-.346.102-.684.294-.971l.711-1.065a2.75 2.75 0 0 0 .452-1.288l.238-2.719a4.595 4.595 0 0 1 9.155 0l.238 2.736c.04.448.188.88.432 1.256l.698 1.077c.184.284.282.614.282.952v.138a.75.75 0 0 1-.75.75h-2.095Zm-5.475 1.25c.277.622 1.029 1.15 2.07 1.15s1.793-.528 2.07-1.15H7.93Z" clip-rule="evenodd"/>
</svg>
