<!--
  tags: ["analytics","data","input","type"]
-->
<svg xmlns="http://www.w3.org/2000/svg" width="20" height="20" fill="currentColor" viewBox="0 0 20 20">
  <path fill-rule="evenodd" d="M11.913 16.998a.626.626 0 0 1-.576-.672l.212-2.758H7.902l-.22 2.854a.626.626 0 0 1-1.248-.096l.212-2.758h-3.02a.626.626 0 0 1 0-1.252h3.116l.357-4.63H3.626a.626.626 0 1 1 0-1.253h3.569l.22-2.855a.626.626 0 0 1 1.248.096l-.212 2.76h3.647l.22-2.856a.626.626 0 0 1 1.248.096l-.212 2.76h3.02a.626.626 0 0 1 0 1.251h-3.117l-.356 4.63h3.473a.626.626 0 1 1 0 1.253h-3.57l-.219 2.854a.626.626 0 0 1-.672.576ZM8.354 7.685l-.356 4.63h3.647l.357-4.63H8.354Z" clip-rule="evenodd"/>
</svg>
