<!--
  tags: ["configuration","variables","environment","settings"]
-->
<svg xmlns="http://www.w3.org/2000/svg" width="20" height="20" fill="currentColor" viewBox="0 0 20 20">
  <path fill-rule="evenodd" d="M7.874 2.124a2.125 2.125 0 0 0-2.125 2.125V8.5c0 .312.067.609.188.875H4.248A2.125 2.125 0 0 0 2.123 11.5v4.252c0 1.173.951 2.125 2.125 2.125h4.253a2.12 2.12 0 0 0 1.5-.62c.383.383.913.62 1.498.62h4.253a2.125 2.125 0 0 0 2.125-2.125V11.5a2.125 2.125 0 0 0-2.125-2.125h-1.688c.12-.266.188-.563.188-.875V4.25a2.125 2.125 0 0 0-2.125-2.125H7.874Zm1.5 9.376v-.041a.875.875 0 0 0-.864-.834H4.248a.875.875 0 0 0-.875.875v4.252c0 .483.392.875.875.875h4.253a.875.875 0 0 0 .873-.875V11.5ZM11.5 9.375h.636a.875.875 0 0 0 .867-.875V4.25a.875.875 0 0 0-.875-.875H7.874a.875.875 0 0 0-.875.875V8.5c0 .48.387.87.866.875H11.5Zm0 7.252a.875.875 0 0 1-.873-.875v-4.293a.875.875 0 0 1 .865-.834h4.261c.483 0 .875.392.875.875v4.252a.875.875 0 0 1-.875.875H11.5ZM9.158 4.76a.625.625 0 0 0 0 1.25h1.683a.625.625 0 1 0 0-1.25H9.158Zm-4.197 7.762c0-.345.28-.625.625-.625H7.27a.625.625 0 1 1 0 1.25H5.586a.625.625 0 0 1-.625-.625Zm7.772-.625a.625.625 0 1 0 0 1.25h1.682a.625.625 0 0 0 0-1.25h-1.682Z" clip-rule="evenodd"/>
</svg>
