<!--
  tags: ["analytics","visualization","data","chart"]
-->
<svg xmlns="http://www.w3.org/2000/svg" width="20" height="20" fill="currentColor" viewBox="0 0 20 20">
  <path fill-rule="evenodd" d="M11.599 3.334v2.828a4.164 4.164 0 0 1 2.197 2.055h2.852c-.659-2.428-2.605-4.32-5.05-4.883Zm-1.25-.462c0-.518.46-.947 1.004-.86 3.328.536 5.972 3.118 6.628 6.42a.868.868 0 0 1-.854 1.035h-3.57a.887.887 0 0 1-.817-.551 2.91 2.91 0 0 0-1.777-1.656.887.887 0 0 1-.614-.84V2.871Zm-2.259.582a6.87 6.87 0 0 0-4.838 6.58 6.87 6.87 0 0 0 4.838 6.58v-2.92a4.17 4.17 0 0 1-2.16-3.66 4.17 4.17 0 0 1 2.16-3.66v-2.92Zm.192-1.343a.867.867 0 0 1 1.058.849V6.6a.887.887 0 0 1-.506.798 2.919 2.919 0 0 0-1.654 2.636c0 1.165.677 2.17 1.654 2.637.292.14.506.44.506.798v3.64c0 .54-.497.977-1.058.85-3.598-.82-6.28-4.059-6.28-7.925 0-3.865 2.682-7.103 6.28-7.923Zm5.514 9.67a4.163 4.163 0 0 1-2.197 2.057v2.828c2.444-.564 4.39-2.455 5.049-4.885h-2.852Zm-.239-1.25h3.57c.53 0 .964.481.854 1.035-.656 3.303-3.3 5.885-6.628 6.421a.868.868 0 0 1-1.004-.86V13.58c0-.403.27-.727.614-.84a2.91 2.91 0 0 0 1.777-1.656.887.887 0 0 1 .817-.552Z" clip-rule="evenodd"/>
</svg>
