<!--
  tags: ["bookmark","fix","UI","save"]
-->
<svg xmlns="http://www.w3.org/2000/svg" width="20" height="20" fill="currentColor" viewBox="0 0 20 20">
  <path fill-rule="evenodd" d="M13.45 4.248 9.965 2.241a.878.878 0 0 0-1.262.461L7.394 6.31c-.032.09-.143.2-.344.235-1.404.242-3.107 1.179-4.288 3.305a1.1 1.1 0 0 0 .422 1.487l4.08 2.349-1.885 3.254a.623.623 0 0 0 .229.853c.299.172.682.07.855-.23l1.884-3.254 4.08 2.349c.503.29 1.18.155 1.503-.38 1.257-2.083 1.22-4.021.728-5.354-.07-.191-.03-.342.032-.415l2.48-2.932a.872.872 0 0 0-.232-1.32l-3.487-2.008Zm-5.018 8.667 4.502 2.591c.98-1.704.901-3.195.55-4.15-.188-.506-.17-1.157.25-1.652l2.19-2.59-3.1-1.784-3.098-1.784-1.155 3.186c-.22.61-.777.95-1.31 1.042-1.006.174-2.341.851-3.331 2.55l4.502 2.591Z" clip-rule="evenodd"/>
</svg>
