<!--
  tags: ["statistics","experimentation","planning","analysis"]
-->
<svg xmlns="http://www.w3.org/2000/svg" width="20" height="20" fill="currentColor" viewBox="0 0 20 20">
  <path fill-rule="evenodd" d="M16.526 2.002c.345 0 .625.28.625.625v7.974a.625.625 0 0 1-1.25 0V2.627c0-.345.28-.625.625-.625Zm-5.32 1.544a.625.625 0 1 0-1.25 0v4.432a5.313 5.313 0 0 0-1.748-.61v-2.34a.6.6 0 0 0-1.2 0V7.31a5.35 5.35 0 1 0 5.626 6.159h4.743a.625.625 0 1 0 0-1.25h-4.698a5.33 5.33 0 0 0-1.473-3.275V3.546Zm2.348 1.044c.345 0 .625.28.625.625v5.387a.625.625 0 1 1-1.25 0V5.215c0-.345.28-.625.625-.625ZM7.347 8.5a4.148 4.148 0 1 0 0 8.297 4.148 4.148 0 0 0 0-8.297Zm-.262 1.422c.345 0 .625.28.625.625v1.728l1.536.434a.625.625 0 0 1-.34 1.203l-1.94-.548a.625.625 0 0 1-.506-.614v-2.203c0-.345.28-.625.625-.625Z" clip-rule="evenodd"/>
</svg>
