<!--
  tags: ["access-control","permissions","user","visibility"]
-->
<svg xmlns="http://www.w3.org/2000/svg" width="20" height="20" fill="currentColor" viewBox="0 0 20 20">
  <path fill-rule="evenodd" d="M7.483 6.016v1.578h5.034V6.016a2.517 2.517 0 1 0-5.034 0Zm-1.25 0v1.578H5A2.125 2.125 0 0 0 2.875 9.72v5.906c0 1.174.951 2.125 2.125 2.125h10a2.125 2.125 0 0 0 2.125-2.125V9.72A2.125 2.125 0 0 0 15 7.594h-1.233V6.016a3.767 3.767 0 0 0-7.534 0ZM5 8.844a.875.875 0 0 0-.875.875v5.906c0 .484.392.875.875.875h10a.875.875 0 0 0 .875-.875V9.72A.875.875 0 0 0 15 8.844H5Zm5 5.267a1.4 1.4 0 1 0 0-2.8 1.4 1.4 0 0 0 0 2.8Z" clip-rule="evenodd"/>
</svg>
