<!--
  tags: ["workspace","planning","structure","collaboration"]
-->
<svg xmlns="http://www.w3.org/2000/svg" width="20" height="20" fill="currentColor" viewBox="0 0 20 20">
  <path fill-rule="evenodd" d="M4.754 4.749a.875.875 0 0 0-.875.875l-.003 8.752c0 .483.392.875.875.875h10.495a.875.875 0 0 0 .875-.875l.003-6.718a.875.875 0 0 0-.875-.875h-5.007c-.335 0-.653-.15-.867-.408L8.032 4.749H4.754Zm-2.125.874c0-1.173.951-2.124 2.125-2.124H8.09c.335 0 .653.15.867.408L10.3 5.533h4.948c1.173 0 2.125.952 2.125 2.126l-.003 6.718a2.125 2.125 0 0 1-2.125 2.124H4.751a2.125 2.125 0 0 1-2.125-2.126l.003-8.752Z" clip-rule="evenodd"/>
</svg>
