<!--
  tags: ["AI","input","content","interaction"]
-->
<svg xmlns="http://www.w3.org/2000/svg" width="20" height="20" fill="currentColor" viewBox="0 0 20 20">
  <path fill-rule="evenodd" d="M2.374 4.749c0-1.174.95-2.125 2.125-2.125h11.003c1.173 0 2.124.951 2.124 2.125v7.594a2.125 2.125 0 0 1-2.125 2.125h-6.31l-2.79 2.664a.875.875 0 0 1-1.48-.632v-2.032H4.5a2.125 2.125 0 0 1-2.125-2.125V4.749Zm2.125-.875a.875.875 0 0 0-.875.875v7.594c0 .483.391.875.875.875h.798c.483 0 .875.392.875.875v1.53l2.193-2.094c.21-.2.487-.311.777-.311h6.36a.875.875 0 0 0 .874-.875V4.749a.875.875 0 0 0-.875-.875H4.5Zm5.016 6.597c0-.345.28-.625.625-.625h2.967a.625.625 0 0 1 0 1.25H10.14a.625.625 0 0 1-.625-.625Zm-2.18-4.403a.625.625 0 1 0-.884.884L7.989 8.49l-1.538 1.54a.625.625 0 0 0 .884.884l1.98-1.98a.625.625 0 0 0 0-.885l-1.98-1.98Z" clip-rule="evenodd"/>
</svg>
