<!--
  tags: ["AI","input","automation","content"]
-->
<svg xmlns="http://www.w3.org/2000/svg" width="20" height="20" fill="currentColor" viewBox="0 0 20 20">
  <path fill-rule="evenodd" d="M5.372 3.501a.625.625 0 0 0 0-1.25H2.625a.625.625 0 1 0 0 1.25h.756v12.997h-.756a.625.625 0 1 0 0 1.25h2.747a.625.625 0 1 0 0-1.25h-.741V3.501h.741Zm7.127 10.75.777-1.943a2.75 2.75 0 0 1 1.532-1.532l1.943-.777-1.943-.777a2.75 2.75 0 0 1-1.532-1.532L12.5 5.747l-.777 1.943a2.75 2.75 0 0 1-1.532 1.532l-1.942.777 1.942.777a2.75 2.75 0 0 1 1.532 1.532l.777 1.942Zm1.938-1.479-.777 1.943c-.42 1.047-1.902 1.047-2.321 0l-.777-1.943a1.5 1.5 0 0 0-.836-.836l-1.943-.777c-1.047-.419-1.047-1.902 0-2.32l1.943-.778a1.5 1.5 0 0 0 .836-.836l.777-1.942c.419-1.048 1.902-1.048 2.32 0l.778 1.942a1.5 1.5 0 0 0 .836.836l1.942.777c1.048.42 1.048 1.902 0 2.321l-1.942.777a1.5 1.5 0 0 0-.836.836Z" clip-rule="evenodd"/>
</svg>
