<!--
  tags: ["access","visibility","permissions","sharing"]
-->
<svg xmlns="http://www.w3.org/2000/svg" width="20" height="20" fill="currentColor" viewBox="0 0 20 20">
  <path fill-rule="evenodd" d="M10.015 16.75a6.751 6.751 0 0 0 6.678-5.871l-1.508 1.063a2.625 2.625 0 0 1-3.052-.02l-.63-.457a3.291 3.291 0 0 1-1.341-3.025l.014-.128a.875.875 0 0 0-1.108-.937l-.504.142a2.125 2.125 0 0 1-2.702-2.045v-.805A6.739 6.739 0 0 0 3.25 10c0 .749.122 1.469.347 2.142h1.49a.375.375 0 0 0 .313-.17l.579-.878a1.625 1.625 0 0 1 2.739.038l.745 1.203c.517.835.755 1.813.678 2.793l-.126 1.622Zm-1.245-.112.125-1.607a3.375 3.375 0 0 0-.495-2.038l-.745-1.203a.375.375 0 0 0-.632-.01l-.579.88c-.3.457-.81.732-1.357.732h-.924a6.757 6.757 0 0 0 4.607 3.246Zm5.695-5.718 2.252-1.588a6.75 6.75 0 0 0-9.605-5.435v1.575c0 .58.554 1 1.112.842l.505-.142a2.125 2.125 0 0 1 2.69 2.277l-.015.127c-.08.73.238 1.447.832 1.877l.63.457a1.375 1.375 0 0 0 1.6.01ZM10 18a8 8 0 1 0 0-16 8 8 0 0 0 0 16Z" clip-rule="evenodd"/>
</svg>
