<!--
  tags: ["evaluation","performance","analytics","ranking"]
-->
<svg xmlns="http://www.w3.org/2000/svg" width="20" height="20" fill="currentColor" viewBox="0 0 20 20">
  <path fill-rule="evenodd" d="M6.364 3.626c0-.621.504-1.125 1.125-1.125h5.022c.621 0 1.125.504 1.125 1.125v.097h1.485c1.173 0 2.124.95 2.125 2.124l.004 9.526a2.125 2.125 0 0 1-2.125 2.127H4.88a2.125 2.125 0 0 1-2.125-2.124L2.75 5.849a2.124 2.124 0 0 1 2.125-2.126h1.49v-.097Zm7.272 1.423v-.076h1.485c.483 0 .874.391.875.874L16 15.374a.875.875 0 0 1-.875.876H4.88a.875.875 0 0 1-.875-.875L4 5.848c0-.483.391-.875.875-.875h1.49v.076c0 .622.503 1.125 1.124 1.125h5.022c.621 0 1.125-.503 1.125-1.125ZM7.614 3.751v1.173h4.772V3.751H7.614ZM7.41 9.22a.452.452 0 1 1 .903 0 .452.452 0 0 1-.903 0Zm.451-1.702a1.702 1.702 0 1 0 0 3.403 1.702 1.702 0 0 0 0-3.403ZM6.59 13.924a.625.625 0 1 0 .906.86l5.902-6.209a.625.625 0 0 0-.906-.86L6.59 13.923Zm5.55-1.104a.452.452 0 1 0 0 .903.452.452 0 0 0 0-.903Zm-1.701.451a1.702 1.702 0 1 1 3.403 0 1.702 1.702 0 0 1-3.403 0Z" clip-rule="evenodd"/>
</svg>
