<!--
  tags: ["help","support","info","inquiry"]
-->
<svg xmlns="http://www.w3.org/2000/svg" width="20" height="20" fill="currentColor" viewBox="0 0 20 20">
  <path d="M9.99 6.366c-1.074 0-1.796.75-1.879 1.528a.625.625 0 1 1-1.243-.133C7.022 6.316 8.31 5.116 9.99 5.116c.802 0 1.56.228 2.137.693.587.472.95 1.163.981 1.996.051 1.396-.845 2.098-1.526 2.617-.624.475-.97.989-.97 1.52a.625.625 0 1 1-1.25 0c0-1.11.718-1.948 1.463-2.515.689-.524 1.06-.874 1.034-1.577-.017-.471-.212-.823-.516-1.068-.313-.252-.779-.416-1.353-.416Zm.01 7.046a.725.725 0 1 1 0 1.45.725.725 0 0 1 0-1.45Z"/>
  <path fill-rule="evenodd" d="M18 10a8 8 0 1 1-16 0 8 8 0 0 1 16 0Zm-1.25 0a6.75 6.75 0 1 1-13.5 0 6.75 6.75 0 0 1 13.5 0Z" clip-rule="evenodd"/>
</svg>
