<!--
  tags: ["AI","personalization","targeting","insights"]
-->
<svg xmlns="http://www.w3.org/2000/svg" width="20" height="20" fill="currentColor" viewBox="0 0 20 20">
  <path fill-rule="evenodd" d="M7.401 4.136a.626.626 0 1 1-1.085.626l-.692-1.196a.626.626 0 1 1 1.086-.627l.691 1.197ZM5.657 5.447a.626.626 0 1 1-.627 1.086l-1.197-.69a.626.626 0 1 1 .627-1.086l1.197.69Zm5.832 9.806a.777.777 0 0 1-1.443 0l-1.189-2.97-4.913 4.907a.627.627 0 0 1-.887-.886l4.957-4.951-3.117-1.246a.777.777 0 0 1 0-1.443l3.33-1.332a.873.873 0 0 0 .487-.486l1.332-3.329a.777.777 0 0 1 1.443 0l1.332 3.33a.873.873 0 0 0 .487.485l3.33 1.332a.777.777 0 0 1 0 1.443l-3.33 1.331a.873.873 0 0 0-.487.486l-1.332 3.33Zm-.721-1.572.89-2.222c.216-.54.644-.969 1.184-1.185l2.224-.889-2.224-.889a2.126 2.126 0 0 1-1.185-1.184l-.89-2.223-.889 2.223c-.216.54-.645.968-1.185 1.184l-2.223.89 2.223.888c.54.216.969.644 1.185 1.185l.89 2.222Z" clip-rule="evenodd"/>
</svg>
