<!--
  tags: ["navigation","link","routing","action"]
-->
<svg xmlns="http://www.w3.org/2000/svg" width="20" height="20" fill="currentColor" viewBox="0 0 20 20">
  <path fill-rule="evenodd" d="M15.074 3.332a.625.625 0 0 1 .884 0l1.857 1.857a.625.625 0 0 1 0 .884L15.958 7.93a.625.625 0 1 1-.884-.884l.79-.79H14.65c-1.56 0-3.003.831-3.785 2.18L9.987 9.95l.877 1.512a4.375 4.375 0 0 0 3.785 2.18h1.215l-.79-.789a.625.625 0 0 1 .884-.884l1.857 1.857a.625.625 0 0 1 0 .884l-1.857 1.856a.625.625 0 0 1-.884-.884l.79-.79H14.65a5.625 5.625 0 0 1-4.867-2.803l-.517-.893-.518.893a5.625 5.625 0 0 1-4.866 2.804H2.627a.625.625 0 1 1 0-1.25h1.254c1.56 0 3.002-.831 3.785-2.181l.876-1.512-.876-1.512a4.375 4.375 0 0 0-3.785-2.18H2.627a.625.625 0 1 1 0-1.25h1.254A5.625 5.625 0 0 1 8.747 7.81l.518.893.517-.893a5.625 5.625 0 0 1 4.867-2.804h1.215l-.79-.79a.625.625 0 0 1 0-.884Z" clip-rule="evenodd"/>
</svg>
