<!--
  tags: ["AI","automation","retry","creation"]
-->
<svg xmlns="http://www.w3.org/2000/svg" width="20" height="20" fill="currentColor" viewBox="0 0 20 20">
  <path fill-rule="evenodd" d="M10 4.001a6 6 0 0 0-5.999 6 .625.625 0 0 1-1.25 0 7.25 7.25 0 0 1 13.14-4.227V4.692a.625.625 0 1 1 1.25 0v2.4a.875.875 0 0 1-.875.875h-2.4a.625.625 0 1 1 0-1.25h1.157A5.994 5.994 0 0 0 10 4.001Zm6.624 5.374c.345 0 .625.28.625.625a7.25 7.25 0 0 1-13.103 4.277v1.029a.625.625 0 1 1-1.25 0v-2.4c0-.482.391-.874.875-.874h2.398a.625.625 0 1 1 0 1.25H4.976A6 6 0 0 0 16 10c0-.346.28-.626.625-.626Z" clip-rule="evenodd"/>
</svg>
