<!--
  tags: ["deployment","dev-tools","release","flow"]
-->
<svg xmlns="http://www.w3.org/2000/svg" width="20" height="20" fill="currentColor" viewBox="0 0 20 20">
  <path fill-rule="evenodd" d="M15.2 4.684a.625.625 0 0 1 .883 0l1.73 1.73a.625.625 0 0 1 0 .884l-1.73 1.73a.625.625 0 0 1-.884-.883l.653-.653H2.626a.625.625 0 0 1 0-1.25h13.247l-.674-.674a.625.625 0 0 1 0-.884Zm-7.524 9.44c0 .759.615 1.374 1.375 1.374h1.888c.76 0 1.375-.615 1.375-1.375v-1.888c0-.76-.616-1.375-1.375-1.375H9.05c-.76 0-1.375.616-1.375 1.375v1.888Zm1.375.124a.125.125 0 0 1-.125-.125v-1.888c0-.07.056-.125.125-.125h1.888c.069 0 .125.056.125.125v1.888c0 .07-.056.125-.125.125H9.05Zm4.309-.124c0 .76.616 1.375 1.375 1.375h1.888c.76 0 1.375-.616 1.375-1.375v-1.889c0-.759-.615-1.375-1.375-1.375h-1.888c-.76 0-1.375.616-1.375 1.375v1.889Zm1.375.125a.125.125 0 0 1-.125-.125v-1.889c0-.069.056-.125.125-.125h1.888c.07 0 .125.056.125.125v1.889a.125.125 0 0 1-.125.125h-1.888ZM3.018 15.473a1 1 0 0 1-1-1v-2.585a1 1 0 0 1 1-1h2.584a1 1 0 0 1 1 1v2.585a1 1 0 0 1-1 1H3.018Z" clip-rule="evenodd"/>
</svg>
