<!--
  tags: ["drag","UI","interaction","organization"]
-->
<svg xmlns="http://www.w3.org/2000/svg" width="20" height="20" fill="currentColor" viewBox="0 0 20 20">
  <path fill-rule="evenodd" d="M2 3.253c0-.622.504-1.126 1.126-1.126h4.468c.622 0 1.126.504 1.126 1.126v1.768c0 .622-.504 1.127-1.126 1.127H3.126A1.126 1.126 0 0 1 2 5.02V3.253Zm1.252.126v1.517h4.217V3.38H3.252ZM2 8.906c0-.622.504-1.126 1.126-1.126h4.468c.622 0 1.126.504 1.126 1.126v1.768c0 .622-.504 1.127-1.126 1.127H3.126A1.126 1.126 0 0 1 2 10.674V8.906Zm1.252.125v1.518h4.217V9.031H3.252Zm-.126 4.402c-.622 0-1.126.504-1.126 1.126v1.768c0 .622.504 1.127 1.126 1.127h4.468c.622 0 1.126-.505 1.126-1.127V14.56c0-.622-.504-1.126-1.126-1.126H3.126Zm.126 2.77v-1.518h4.217v1.517H3.252Z" clip-rule="evenodd"/>
  <path d="m12.05 14.818.728-.728a.626.626 0 0 0-.885-.886l-1.619 1.62a.88.88 0 0 0 0 1.246l1.62 1.62a.625.625 0 1 0 .884-.886l-.734-.734h3.828A2.128 2.128 0 0 0 18 13.942V5.64a2.128 2.128 0 0 0-2.128-2.128h-5.246a.626.626 0 1 0 0 1.252h5.246c.484 0 .877.392.877.876v8.302a.876.876 0 0 1-.877.876H12.05Z"/>
</svg>
