<!--
  tags: ["analytics","output","experiments","data"]
-->
<svg xmlns="http://www.w3.org/2000/svg" width="20" height="20" fill="currentColor" viewBox="0 0 20 20">
  <path fill-rule="evenodd" d="M2.501 15.375c0 1.174.952 2.125 2.125 2.125h10.747a2.125 2.125 0 0 0 2.125-2.125V4.626a2.125 2.125 0 0 0-2.125-2.125H4.626a2.125 2.125 0 0 0-2.125 2.125v10.75Zm2.125.875a.875.875 0 0 1-.875-.875V4.626c0-.483.392-.875.875-.875h10.747c.484 0 .875.392.875.875v10.75a.875.875 0 0 1-.875.874H4.626Zm9.286-10.785c.346 0 .625.28.625.625v7.82a.625.625 0 0 1-1.25 0V6.09c0-.346.28-.625.625-.625Zm-5.216 2.31c.345 0 .625.28.625.626v5.509a.625.625 0 1 1-1.25 0V8.4c0-.344.28-.624.625-.624Zm-2.608 3.251c.345 0 .625.28.625.625v2.26a.625.625 0 1 1-1.25 0v-2.26c0-.345.28-.625.625-.625Zm5.84-1.464a.625.625 0 1 0-1.25 0v4.348a.625.625 0 1 0 1.25 0V9.562Z" clip-rule="evenodd"/>
</svg>
