<!--
  tags: ["analytics","visualization","product","users"]
-->
<svg xmlns="http://www.w3.org/2000/svg" width="20" height="20" fill="currentColor" viewBox="0 0 20 20">
  <path fill-rule="evenodd" d="M4 3.876a.625.625 0 1 0-1.25 0v10.748c0 1.174.952 2.125 2.125 2.125h11.75a.625.625 0 1 0 0-1.25H4.875A.875.875 0 0 1 4 14.624V3.876Zm2.705.157a.625.625 0 0 0-1.25 0c0 .96.002 2.163.162 3.376.16 1.211.483 2.479 1.157 3.556.927 1.483 2.359 2.272 4.01 2.691 1.635.415 3.541.481 5.496.481a.625.625 0 1 0 0-1.25c-1.953 0-3.72-.07-5.189-.443-1.453-.368-2.555-1.018-3.257-2.142-.541-.865-.83-1.934-.978-3.057-.148-1.12-.15-2.245-.15-3.212Z" clip-rule="evenodd"/>
</svg>
