<!--
  tags: ["analytics","product","behavior","users"]
-->
<svg xmlns="http://www.w3.org/2000/svg" width="20" height="20" fill="currentColor" viewBox="0 0 20 20">
  <path fill-rule="evenodd" d="M17.5 16.374c0 .623-.504 1.128-1.127 1.128H3.628A1.128 1.128 0 0 1 2.5 16.374V3.628c0-.623.506-1.128 1.128-1.128h3.58c.623 0 1.128.505 1.128 1.128v3.433h3.455c.622 0 1.127.505 1.127 1.128v3.477h3.455c.623 0 1.127.505 1.127 1.128v3.58ZM3.754 7.061h3.329V3.753h-3.33v3.308Zm4.582 1.253h3.33v3.33h-3.33v-3.33Zm-1.253.024v3.306H3.754V8.338h3.329Zm1.253 7.911h3.33v-3.33h-3.33v3.33Zm-1.253 0h-3.33v-3.33h3.33v3.33Zm5.835-3.33v3.33h3.33v-3.33h-3.33Z" clip-rule="evenodd"/>
</svg>
