<!--
  tags: ["feedback","collaboration","approval","content"]
-->
<svg xmlns="http://www.w3.org/2000/svg" width="20" height="20" fill="currentColor" viewBox="0 0 20 20">
  <path fill-rule="evenodd" d="M5.824 4.49H5.14a.875.875 0 0 0-.875.874v9.423c0 .483.392.875.875.875h3.455a4.796 4.796 0 0 1 5.398-7.08V5.365a.875.875 0 0 0-.875-.875h-.65a1.459 1.459 0 0 1-1.445 1.26H7.27a1.459 1.459 0 0 1-1.445-1.26Zm6.64-1.25h.653c1.173 0 2.125.95 2.125 2.124V9.13a4.796 4.796 0 1 1-5.572 7.782H5.14a2.125 2.125 0 0 1-2.126-2.125V5.364c0-1.173.952-2.125 2.125-2.125h.688A1.459 1.459 0 0 1 7.269 2h3.753a1.456 1.456 0 0 1 1.442 1.24Zm-5.403.216c0-.115.093-.208.208-.208h3.753c.115 0 .208.093.208.208v.834a.208.208 0 0 1-.208.208H7.27a.208.208 0 0 1-.208-.208v-.834Zm2.107 9.75a3.546 3.546 0 1 0 7.091 0 3.546 3.546 0 0 0-7.091 0Zm4.068-1.67a.625.625 0 1 0-1.25 0v1.67c0 .24.135.449.334.553l1.42.82a.625.625 0 1 0 .625-1.082l-1.13-.652v-1.309Z" clip-rule="evenodd"/>
</svg>
