<!--
  tags: ["action","execution","process","experiment"]
-->
<svg xmlns="http://www.w3.org/2000/svg" width="20" height="20" fill="currentColor" viewBox="0 0 20 20">
  <path fill-rule="evenodd" d="M13.316 11.168a1.372 1.372 0 0 0 0-2.337l-3.999-2.46a1.372 1.372 0 0 0-2.09 1.17v4.918a1.372 1.372 0 0 0 2.09 1.169l4-2.46Zm-.653-1.274a.124.124 0 0 1 0 .212l-4 2.46a.125.125 0 0 1-.19-.107V7.54c0-.097.108-.157.19-.106l4 2.46Z" clip-rule="evenodd"/>
  <path fill-rule="evenodd" d="M2 10a8 8 0 1 0 16 0 8 8 0 0 0-16 0Zm1.25 0a6.75 6.75 0 1 0 13.5 0 6.75 6.75 0 0 0-13.5 0Z" clip-rule="evenodd"/>
</svg>
