<!--
  tags: ["feature-flags","control","rollout","safety"]
-->
<svg xmlns="http://www.w3.org/2000/svg" width="20" height="20" fill="currentColor" viewBox="0 0 20 20">
  <path fill-rule="evenodd" d="M11.274 2.415c-.769-.516-1.796-.47-2.53.046-.992.698-2.515 1.49-4.103 1.728-.935.14-1.766.92-1.766 1.968v3.166c0 2.803 1.435 4.97 2.987 6.415a11.014 11.014 0 0 0 2.311 1.656c.357.189.694.336.993.438.287.098.58.168.835.168s.548-.07.835-.168a7.08 7.08 0 0 0 .992-.438 11.01 11.01 0 0 0 2.31-1.656c1.552-1.445 2.987-3.612 2.987-6.415V6.152c0-1.055-.845-1.817-1.758-1.98-1.582-.283-3.088-1.083-4.093-1.757Zm-1.81 1.068c.334-.235.798-.242 1.114-.03 1.079.724 2.75 1.624 4.569 1.95.446.08.728.423.728.749v3.17c0 2.348-1.198 4.207-2.588 5.5a9.762 9.762 0 0 1-2.043 1.467 5.79 5.79 0 0 1-.812.36 1.59 1.59 0 0 1-.431.101c-.053 0-.194-.02-.432-.1a5.795 5.795 0 0 1-.812-.361 9.764 9.764 0 0 1-2.043-1.466c-1.39-1.295-2.59-3.154-2.59-5.5V6.157c0-.338.283-.67.702-.732 1.843-.275 3.548-1.174 4.638-1.942Zm2.194 6.04a1.658 1.658 0 1 1-3.317 0 1.658 1.658 0 0 1 3.317 0Zm1.25 0a2.908 2.908 0 1 1-5.817 0 2.908 2.908 0 0 1 5.817 0Z" clip-rule="evenodd"/>
</svg>
