<!--
  tags: ["statistics","data","experiments","testing"]
-->
<svg xmlns="http://www.w3.org/2000/svg" width="20" height="20" fill="currentColor" viewBox="0 0 20 20">
  <path fill-rule="evenodd" d="M4.623 17.002a2.125 2.125 0 0 1-2.125-2.125V5.122c0-1.174.951-2.125 2.125-2.125h10.754c1.174 0 2.125.951 2.125 2.125v9.755a2.125 2.125 0 0 1-2.125 2.125H4.623Zm-.875-2.125c0 .483.392.875.875.875h10.754a.875.875 0 0 0 .875-.875V12.75H3.748v2.127Zm0-3.377h12.504V8.498H3.748V11.5Zm12.504-6.378v2.126H3.748V5.122c0-.483.392-.875.875-.875h10.754c.484 0 .875.392.875.875Z" clip-rule="evenodd"/>
</svg>
