<!--
  tags: ["action","file","state","persistence"]
-->
<svg xmlns="http://www.w3.org/2000/svg" width="20" height="20" fill="currentColor" viewBox="0 0 20 20">
  <path fill-rule="evenodd" d="M4.635 17.511a2.124 2.124 0 0 1-2.125-2.124V4.633c0-1.173.951-2.124 2.125-2.124h7.58c.563 0 1.103.223 1.501.621l3.171 3.168c.4.399.623.94.623 1.503v7.586a2.124 2.124 0 0 1-2.124 2.124H4.635Zm-.876-2.124c0 .484.392.876.876.876h.826v-4.847c0-.897.728-1.625 1.625-1.625h5.858c.897 0 1.625.728 1.625 1.625v4.847h.817a.876.876 0 0 0 .876-.876V7.801a.876.876 0 0 0-.257-.62l-3.171-3.168a.876.876 0 0 0-.62-.256h-.052v2.245c0 .898-.727 1.625-1.624 1.625H7.086A1.624 1.624 0 0 1 5.46 6.002V3.757h-.826a.876.876 0 0 0-.876.876v10.754Zm9.561.876v-4.847a.376.376 0 0 0-.376-.376H7.087a.376.376 0 0 0-.376.376v4.847h6.61ZM6.71 3.757h4.204v2.245a.376.376 0 0 1-.376.376H7.086a.376.376 0 0 1-.376-.376V3.757Z" clip-rule="evenodd"/>
</svg>
