<!--
  tags: ["learning","training","documentation","onboarding"]
-->
<svg xmlns="http://www.w3.org/2000/svg" width="20" height="20" fill="currentColor" viewBox="0 0 20 20">
  <path fill-rule="evenodd" d="M8.983 3.631a2.125 2.125 0 0 1 2.03 0l6.397 3.48c.312.17.5.45.563.753a.627.627 0 0 1 .027.182v4.764a.625.625 0 1 1-1.25 0V9.446l-1.541.838v3.623c0 .54-.236 1.114-.762 1.447a8.566 8.566 0 0 1-4.45 1.273 8.561 8.561 0 0 1-4.45-1.273c-.526-.333-.761-.908-.761-1.447v-3.624l-2.2-1.196a1.125 1.125 0 0 1 0-1.977l6.397-3.479Zm-2.947 7.332v2.944c0 .197.083.329.179.39a7.313 7.313 0 0 0 3.782 1.08 7.33 7.33 0 0 0 3.783-1.08c.096-.061.179-.193.179-.39v-2.943l-2.946 1.602a2.125 2.125 0 0 1-2.03 0l-2.947-1.603Zm4.38-6.234a.875.875 0 0 0-.836 0L3.385 8.1l6.195 3.37c.26.14.575.14.836 0l6.195-3.37-6.195-3.37Z" clip-rule="evenodd"/>
</svg>
