<!--
  tags: ["targeting","analytics","users","breakdown"]
-->
<svg xmlns="http://www.w3.org/2000/svg" width="20" height="20" fill="currentColor" viewBox="0 0 20 20">
  <path fill-rule="evenodd" d="M9.42 4.308a6.098 6.098 0 1 0 6.273 6.271h-4.398A1.875 1.875 0 0 1 9.42 8.705V4.308Zm7.524 5.991.001.104a7.348 7.348 0 1 1-7.244-7.347c.337-.547.954-.91 1.696-.78a7.803 7.803 0 0 1 6.327 6.327c.13.742-.233 1.358-.78 1.696ZM10.67 4.034a.58.58 0 0 1 .172-.421.38.38 0 0 1 .34-.106 6.553 6.553 0 0 1 5.311 5.31.38.38 0 0 1-.106.34.58.58 0 0 1-.42.173h-4.672a.625.625 0 0 1-.625-.625V4.034Z" clip-rule="evenodd"/>
</svg>
