<!--
  tags: ["communication","message","action","UI"]
-->
<svg xmlns="http://www.w3.org/2000/svg" width="20" height="20" fill="currentColor" viewBox="0 0 20 20">
  <path fill-rule="evenodd" d="M15.913 4.967 11.857 16.09a.232.232 0 0 1-.085.12.265.265 0 0 1-.138.043.264.264 0 0 1-.141-.03.232.232 0 0 1-.095-.113L9.413 11.9a2.737 2.737 0 0 0-.152-.28l6.652-6.652Zm-.882-.88L8.38 10.738a2.724 2.724 0 0 0-.279-.151L3.89 8.602a.232.232 0 0 1-.111-.095.264.264 0 0 1-.031-.141.264.264 0 0 1 .043-.138.232.232 0 0 1 .12-.085l11.12-4.056Zm.458-1.493c1.194-.436 2.353.723 1.917 1.917l-4.378 12.006c-.455 1.248-2.191 1.327-2.758.125L8.286 12.43a1.495 1.495 0 0 0-.716-.716L3.358 9.73c-1.202-.567-1.123-2.303.125-2.758L15.49 2.594Z" clip-rule="evenodd"/>
</svg>
