<!--
  tags: ["analytics","playback","behavior","product"]
-->
<svg xmlns="http://www.w3.org/2000/svg" width="20" height="20" fill="currentColor" viewBox="0 0 20 20">
  <path d="M15.955 5.04V3.953a.624.624 0 1 1 1.248 0v2.346a.87.87 0 0 1-.87.869h-2.345a.624.624 0 0 1 0-1.248h1.077A6.502 6.502 0 1 0 16.503 10v-.204a.624.624 0 1 1 1.247-.037c.002.061 0 .136 0 .19V10a7.75 7.75 0 1 1-1.795-4.96Z"/>
  <path fill-rule="evenodd" d="M13.316 8.83a1.372 1.372 0 0 1 0 2.338l-3.999 2.46a1.372 1.372 0 0 1-2.09-1.17V7.54a1.372 1.372 0 0 1 2.09-1.169l4 2.46Zm-.653 1.276a.125.125 0 0 0 0-.213l-3.999-2.46a.125.125 0 0 0-.19.107v4.919c0 .097.107.157.19.106l3.999-2.46Z" clip-rule="evenodd"/>
</svg>
