<!--
  tags: ["configuration","control","user","environment"]
-->
<svg xmlns="http://www.w3.org/2000/svg" width="20" height="20" fill="currentColor" viewBox="0 0 20 20">
  <path fill-rule="evenodd" d="M10 6.901a3.098 3.098 0 1 0 0 6.197 3.098 3.098 0 0 0 0-6.197ZM8.15 10a1.848 1.848 0 1 1 3.697 0 1.848 1.848 0 0 1-3.697 0Z" clip-rule="evenodd"/>
  <path fill-rule="evenodd" d="M9.592 2.025c-.882 0-1.644.615-1.831 1.476l-.129.593a.625.625 0 0 1-.297.407l-.811.471a.625.625 0 0 1-.504.055l-.574-.184a1.874 1.874 0 0 0-2.194.848l-.376.651c-.44.764-.29 1.731.363 2.324l.448.407c.13.118.205.286.205.461l.002.939a.625.625 0 0 1-.204.463l-.446.406a1.874 1.874 0 0 0-.363 2.324l.37.642a1.874 1.874 0 0 0 2.195.848l.574-.184a.624.624 0 0 1 .504.055l.811.471c.152.088.26.236.297.408l.129.592c.187.862.95 1.476 1.83 1.476h.818c.882 0 1.644-.614 1.832-1.476l.128-.592a.625.625 0 0 1 .297-.408l.812-.47a.624.624 0 0 1 .504-.056l.573.184a1.874 1.874 0 0 0 2.194-.849l.37-.642c.44-.763.29-1.73-.363-2.323l-.446-.405a.624.624 0 0 1-.205-.464l.003-.939a.62.62 0 0 1 .204-.46l.45-.408c.651-.593.803-1.56.362-2.323l-.375-.65a1.874 1.874 0 0 0-2.194-.85l-.573.184a.625.625 0 0 1-.504-.055l-.812-.47a.625.625 0 0 1-.297-.408l-.128-.593a1.874 1.874 0 0 0-1.832-1.476h-.817Zm-.61 1.742a.625.625 0 0 1 .61-.492h.817c.294 0 .548.204.61.492l.13.592c.111.514.434.958.89 1.223l.812.47a1.874 1.874 0 0 0 1.511.165l.574-.184c.28-.09.584.029.731.283l.375.65a.625.625 0 0 1-.12.775l-.45.408c-.39.354-.612.856-.614 1.382l-.002.939c-.001.53.222 1.035.614 1.391l.446.406c.218.197.268.52.122.774l-.37.642a.625.625 0 0 1-.732.283l-.574-.183a1.874 1.874 0 0 0-1.511.164l-.812.47a1.874 1.874 0 0 0-.89 1.224l-.13.592a.625.625 0 0 1-.61.492h-.817a.625.625 0 0 1-.61-.492l-.13-.592a1.874 1.874 0 0 0-.89-1.223l-.811-.471a1.874 1.874 0 0 0-1.512-.164l-.574.183a.625.625 0 0 1-.731-.282l-.371-.643a.625.625 0 0 1 .12-.775l.447-.405c.392-.356.615-.861.613-1.391l-.002-.939a1.874 1.874 0 0 0-.614-1.382L4.08 7.74a.625.625 0 0 1-.121-.774l.376-.651a.625.625 0 0 1 .731-.283l.574.184a1.874 1.874 0 0 0 1.512-.164l.811-.471c.456-.265.78-.708.89-1.223l.13-.592Z" clip-rule="evenodd"/>
</svg>
