<!--
  tags: ["collaboration","access","content","communication"]
-->
<svg xmlns="http://www.w3.org/2000/svg" width="20" height="20" fill="currentColor" viewBox="0 0 20 20">
  <path fill-rule="evenodd" d="M12.537 5.545a1.92 1.92 0 1 0 3.839 0 1.92 1.92 0 0 0-3.839 0Zm-1.208.52a3.17 3.17 0 1 1 .453 1.182L8.584 9.093a3.17 3.17 0 0 1 0 1.82l3.196 1.846a3.17 3.17 0 1 1-.451 1.183l-3.335-1.925a3.17 3.17 0 1 1 0-4.028l3.335-1.925Zm-5.783 5.858a1.92 1.92 0 1 1 0-3.84 1.92 1.92 0 0 1 0 3.84Zm8.91 4.454a1.92 1.92 0 1 1 0-3.838 1.92 1.92 0 0 1 0 3.838Z" clip-rule="evenodd"/>
</svg>
