<!--
  tags: ["action","communication","redirect","UI"]
-->
<svg xmlns="http://www.w3.org/2000/svg" width="20" height="20" fill="currentColor" viewBox="0 0 20 20">
  <path fill-rule="evenodd" d="M9.98 3.768c0-.674.808-1.024 1.305-.565l6.359 5.87c.48.443.479 1.197 0 1.64l-6.359 5.868c-.497.459-1.306.109-1.306-.565v-3.472c-1.235.066-2.193.341-3.116.895-1.064.637-2.122 1.668-3.5 3.291-.47.555-1.39.215-1.366-.519.103-3.242 1.361-5.485 3.05-6.92 1.52-1.29 3.356-1.899 4.932-2.026V3.768Zm1.253 1.088v2.857c0 .424-.34.764-.762.774-1.42.03-3.185.542-4.609 1.751-1.159.985-2.12 2.454-2.472 4.57.984-1.068 1.881-1.87 2.825-2.436 1.272-.762 2.587-1.07 4.233-1.088.43-.005.785.34.785.77v2.874l5.456-5.035-5.456-5.037Z" clip-rule="evenodd"/>
</svg>
