<!--
  tags: ["analytics","metrics","KPI","visualization"]
-->
<svg xmlns="http://www.w3.org/2000/svg" width="20" height="20" fill="currentColor" viewBox="0 0 20 20">
  <path fill-rule="evenodd" d="M3.862 12.109V6.053l-.553.315a.625.625 0 1 1-.619-1.086l1.177-.67a.833.833 0 0 1 1.245.725v6.772a.625.625 0 1 1-1.25 0Zm6.173-7.39c-1.38-.61-2.687.2-3.128 1.118a.625.625 0 1 0 1.127.542 1.166 1.166 0 0 1 1.495-.517c.529.234 1.024 1.186.227 2.113-.112.129-.291.3-.54.536l-.054.052c-.264.25-.576.55-.876.88-.575.636-1.214 1.499-1.282 2.473a.744.744 0 0 0 .745.793h3.12a.625.625 0 0 0 0-1.25H8.393c.162-.373.45-.769.819-1.176.265-.292.547-.564.81-.814l.072-.068c.226-.215.453-.431.608-.61 1.367-1.589.596-3.513-.668-4.072Zm5.245 1.04c-.61 0-1.154.473-1.216.978a.625.625 0 1 1-1.24-.154c.15-1.216 1.305-2.074 2.457-2.074 1.309 0 2.344 1.07 2.344 2.37 0 .546-.24 1.08-.548 1.482a2.85 2.85 0 0 1-.248.283c.086.083.166.172.24.264.31.388.556.902.556 1.458 0 1.298-1.035 2.368-2.345 2.368-1.151 0-2.306-.857-2.457-2.073a.625.625 0 0 1 1.24-.154c.063.505.606.977 1.217.977.6 0 1.095-.49 1.095-1.118 0-.191-.092-.438-.284-.678-.19-.24-.428-.404-.619-.468a.625.625 0 0 1 .07-1.205c.132-.027.347-.158.543-.414.192-.251.29-.524.29-.723 0-.627-.495-1.119-1.095-1.119ZM2.873 15.5a.625.625 0 1 1 0-1.25h14.254a.625.625 0 1 1 0 1.25H2.873Z" clip-rule="evenodd"/>
</svg>
