<!--
  tags: ["media","navigation","control","UI"]
-->
<svg xmlns="http://www.w3.org/2000/svg" width="20" height="20" fill="currentColor" viewBox="0 0 20 20">
  <path d="M14.252 15.375V4.625a.625.625 0 1 1 1.25 0v10.75a.625.625 0 0 1-1.25 0Z"/>
  <path fill-rule="evenodd" d="M6.769 4.358c-.892-.766-2.271-.132-2.271 1.043v9.222c0 1.176 1.38 1.809 2.271 1.043l5.368-4.61a1.375 1.375 0 0 0 0-2.087l-5.368-4.61ZM5.748 5.401c0-.107.125-.164.207-.095l5.367 4.611c.059.05.059.14 0 .19l-5.367 4.61a.125.125 0 0 1-.207-.094V5.401Z" clip-rule="evenodd"/>
</svg>
