<!--
  tags: ["media","navigation","control","UI"]
-->
<svg xmlns="http://www.w3.org/2000/svg" width="20" height="20" fill="currentColor" viewBox="0 0 20 20">
  <path d="M5.749 15.375V4.625a.625.625 0 0 0-1.25 0v10.75a.625.625 0 1 0 1.25 0Z"/>
  <path fill-rule="evenodd" d="M13.231 4.358c.892-.766 2.271-.132 2.271 1.043v9.222c0 1.176-1.38 1.809-2.271 1.043l-5.368-4.61a1.375 1.375 0 0 1 0-2.087l5.368-4.61Zm1.021 1.043a.125.125 0 0 0-.207-.095L8.678 9.917a.125.125 0 0 0 0 .19l5.369 4.61c.08.07.206.013.206-.094V5.401Z" clip-rule="evenodd"/>
</svg>
