<!--
  tags: ["integrations","collaboration","notifications","messaging"]
-->
<svg xmlns="http://www.w3.org/2000/svg" width="20" height="20" fill="currentColor" viewBox="0 0 20 20">
  <path d="M6.263 3.611c0 .887.72 1.613 1.606 1.613h1.616v-1.62a1.61 1.61 0 0 0-3.222.007Zm5.866-1.506c-.887 0-1.613.719-1.613 1.605v4.062a1.612 1.612 0 0 0 3.225 0V3.71c0-.886-.726-1.605-1.612-1.605Zm4.259 4.158c-.887 0-1.613.72-1.613 1.606v1.616h1.62a1.61 1.61 0 0 0-.007-3.222ZM9.483 16.288c0 .887-.725 1.606-1.612 1.606a1.611 1.611 0 0 1-1.612-1.606v-4.061c0-.887.725-1.606 1.612-1.606.887 0 1.612.719 1.612 1.606v4.061Zm-5.871-2.552c.887 0 1.613-.719 1.613-1.606v-1.615h-1.62a1.61 1.61 0 0 0 .007 3.22Zm12.677-3.219a1.612 1.612 0 0 1 0 3.224h-4.062a1.611 1.611 0 0 1-1.605-1.612 1.61 1.61 0 0 1 1.605-1.612h4.062Zm-2.553 5.87a1.61 1.61 0 0 0-1.605-1.612h-1.616v1.619a1.61 1.61 0 0 0 3.221-.007ZM3.71 9.483A1.611 1.611 0 0 1 2.106 7.87c0-.886.719-1.612 1.606-1.612h4.061a1.612 1.612 0 0 1 0 3.225H3.711Z"/>
</svg>
