<!--
  tags: ["performance","diagnostics","system","status"]
-->
<svg xmlns="http://www.w3.org/2000/svg" width="20" height="20" fill="currentColor" viewBox="0 0 20 20">
  <path fill-rule="evenodd" d="M13.291 2.667c.32-.127.684.03.812.35l.71 1.79a3.18 3.18 0 0 1 .173-.006h.547c.053 0 .106.002.159.005l.714-1.79a.625.625 0 1 1 1.161.464l-.687 1.722A2.464 2.464 0 0 1 17 9.25l-.51.377c-.432.32-.73.789-.837 1.316l-.551 2.725a4.005 4.005 0 0 1-.93 1.865l-.44.495a4.005 4.005 0 0 1-2.995 1.347H3.963c-.635 0-1.245-.276-1.594-.749a1.374 1.374 0 0 1-.278-.886 1.45 1.45 0 0 1 .41-.918c.476-.51 1.118-.942 1.81-1.25a4.623 4.623 0 0 1-1.013-.9c-.852-1.016-1.296-2.388-1.296-3.86 0-3.04 2.45-5.512 5.48-5.512 2.086 0 3.978 1.107 4.932 2.824.306-.43.714-.772 1.18-1.001l-.653-1.645a.625.625 0 0 1 .35-.812ZM3.251 8.814c.001-2.358 1.9-4.263 4.232-4.263 2.376 0 4.33 1.79 4.33 4.106v.025c.026.623-.1 1.494-.527 2.247a3.14 3.14 0 0 1-.64.798 4.445 4.445 0 0 0 .14-1.966c-.189-1.224-.907-2.415-2.034-2.792-2.049-.685-3.453.686-3.635 1.91-.239 1.604.88 2.615 1.91 2.827a.625.625 0 0 0 .254-1.224c-.508-.105-1.05-.592-.928-1.42.077-.517.75-1.326 2.003-.907.523.174 1.047.84 1.194 1.795.14.914-.1 1.942-.905 2.704-.13.106-.36.216-.68.298a4.227 4.227 0 0 1-1.028.125c-1.156 0-2.058-.465-2.682-1.208-.632-.754-1.003-1.826-1.003-3.055Zm5.027 5.349c.363-.094.736-.238 1.043-.454 1.52-.309 2.486-1.17 3.051-2.162.567-.996.721-2.106.69-2.903a5.33 5.33 0 0 0-.077-.898l.261-.574a1.91 1.91 0 0 1 1.74-1.12h.547a1.217 1.217 0 0 1 .723 2.194l-.51.377a3.423 3.423 0 0 0-1.319 2.074l-.55 2.725a2.764 2.764 0 0 1-.64 1.283l-.44.494a2.755 2.755 0 0 1-2.06.927H3.963c-.299 0-.509-.134-.588-.241-.036-.048-.036-.075-.035-.082 0-.005.002-.048.075-.127.732-.784 2.043-1.35 3.054-1.35.04 0 .08-.003.117-.01a5.48 5.48 0 0 0 1.692-.153Z" clip-rule="evenodd"/>
</svg>
