<!--
  tags: ["UI","organization","data","table"]
-->
<svg xmlns="http://www.w3.org/2000/svg" width="20" height="20" fill="currentColor" viewBox="0 0 20 20">
  <path fill-rule="evenodd" d="M14.102 15.67c.44.44 1.151.44 1.59 0l2.125-2.124a.625.625 0 0 0-.883-.884l-1.412 1.411V4.626a.625.625 0 1 0-1.25 0v9.447l-1.41-1.41a.625.625 0 1 0-.883.885l2.123 2.123ZM2.624 14.123a.625.625 0 0 0 0 1.25h3.38a.625.625 0 1 0 0-1.25h-3.38Zm0-3.5a.625.625 0 1 1 0-1.25h6.001a.625.625 0 0 1 0 1.25H2.624Zm-.625-5.375c0-.345.28-.625.625-.625h8.74a.625.625 0 1 1 0 1.25h-8.74a.625.625 0 0 1-.625-.625Z" clip-rule="evenodd"/>
</svg>
