<!--
  tags: ["data","tracking","integration","origin"]
-->
<svg xmlns="http://www.w3.org/2000/svg" width="20" height="20" fill="currentColor" viewBox="0 0 20 20">
  <path fill-rule="evenodd" d="M17.5 15.375a2.125 2.125 0 0 1-2.124 2.125H4.625A2.125 2.125 0 0 1 2.5 15.375v-2.09a.625.625 0 1 1 1.25 0v2.09c0 .483.391.875.875.875h10.75a.875.875 0 0 0 .876-.875V4.626a.875.875 0 0 0-.875-.875H4.625a.875.875 0 0 0-.875.875v2.125a.625.625 0 0 1-1.25 0V4.626c0-1.174.95-2.125 2.125-2.125h10.75c1.174 0 2.126.951 2.126 2.125v10.749Zm-3.347-4.755a.875.875 0 0 0 0-1.238l-3.067-3.066a.625.625 0 1 0-.883.884l2.174 2.174H3.125a.625.625 0 1 0 0 1.25h9.255l-2.173 2.174a.625.625 0 1 0 .884.884l3.062-3.062Z" clip-rule="evenodd"/>
</svg>
