<!--
  tags: ["analytics","chart","data","trend"]
-->
<svg xmlns="http://www.w3.org/2000/svg" width="20" height="20" fill="currentColor" viewBox="0 0 20 20">
  <path fill-rule="evenodd" d="M16.605 4.198a.625.625 0 0 0-.867-.9L11.05 7.815 8.035 5.75a1.125 1.125 0 0 0-1.456.158l-3.9 4.158a.625.625 0 0 0 .912.856l3.826-4.08 3.012 2.062c.44.302 1.032.252 1.416-.118l4.76-4.588Zm.895 2.614a.875.875 0 0 0-1.471-.64l-4.872 4.542-2.964-2.102a1.125 1.125 0 0 0-1.48.158l-3.917 4.273a1.13 1.13 0 0 0-.296.76v1.95c0 .621.504 1.125 1.125 1.125h12.75c.622 0 1.125-.504 1.125-1.125V6.812Zm-5.565 4.886 4.315-4.024v7.954H3.75v-1.776l3.81-4.156 2.957 2.097a1.125 1.125 0 0 0 1.418-.095Z" clip-rule="evenodd"/>
</svg>
