<!--
  tags: ["analytics","chart","visualization","data"]
-->
<svg xmlns="http://www.w3.org/2000/svg" width="20" height="20" fill="currentColor" viewBox="0 0 20 20">
  <path fill-rule="evenodd" d="M16.877 15.752c0 .621-.504 1.125-1.125 1.125h-1.647a1.125 1.125 0 0 1-1.125-1.125V4.248c0-.621.504-1.125 1.125-1.125h1.647c.621 0 1.125.504 1.125 1.125v11.504Zm-2.647-.125h1.397V8.304H14.23v7.323Zm0-8.573V4.373h1.397v2.68H14.23Zm-8.335 9.823c.622 0 1.125-.504 1.125-1.125v-7.26c0-.62-.503-1.124-1.125-1.124H4.25c-.622 0-1.125.503-1.125 1.125v7.259c0 .621.503 1.125 1.125 1.125h1.646Zm-.125-1.25H4.374v-3.09H5.77v3.09Zm-1.396-7.01v2.67H5.77v-2.67H4.374Zm4.925 7.01v-4.78h1.397v4.78H9.299Zm1.397-8.715v2.685H9.299V6.912h1.397Zm.125 9.965c.621 0 1.125-.504 1.125-1.125V6.787c0-.621-.504-1.125-1.125-1.125H9.174c-.621 0-1.125.504-1.125 1.125v8.965c0 .621.504 1.125 1.125 1.125h1.647Z" clip-rule="evenodd"/>
</svg>
