<!--
  tags: ["system","diagnostics","health","monitoring"]
-->
<svg xmlns="http://www.w3.org/2000/svg" width="20" height="20" fill="currentColor" viewBox="0 0 20 20">
  <path fill-rule="evenodd" d="M10.626 5.7a.625.625 0 1 1-1.25 0V2.629a.625.625 0 1 1 1.25 0V5.7Zm0 11.675a.625.625 0 1 1-1.25 0v-3.073a.625.625 0 1 1 1.25 0v3.073ZM2.002 10c0 .346.28.625.625.625H5.7a.625.625 0 0 0 0-1.25H2.627a.625.625 0 0 0-.625.625Zm12.3.625a.625.625 0 0 1 0-1.25h3.073a.625.625 0 1 1 0 1.25h-3.073Zm-9.957 5.032c.244.244.64.244.884 0l2.173-2.173a.625.625 0 0 0-.884-.884l-2.173 2.173a.625.625 0 0 0 0 .884Zm9.139-8.255a.625.625 0 0 1-.884-.884l2.173-2.173a.625.625 0 0 1 .884.884l-2.173 2.173Zm-9.14-3.056a.625.625 0 0 0 0 .884l2.174 2.172a.625.625 0 0 0 .884-.884L5.229 4.347a.625.625 0 0 0-.884 0Zm8.256 9.138a.625.625 0 0 1 .884-.884l2.173 2.173a.625.625 0 0 1-.884.884L12.6 13.485Z" clip-rule="evenodd"/>
</svg>
