<!--
  tags: ["text","formatting","UI","style"]
-->
<svg xmlns="http://www.w3.org/2000/svg" width="20" height="20" fill="currentColor" viewBox="0 0 20 20">
  <path fill-rule="evenodd" d="M6.672 7.058c-.052-.737.233-1.386.79-1.865.564-.486 1.433-.816 2.546-.816 2.148 0 3.326 1.592 3.326 2.725a.625.625 0 1 0 1.25 0c0-1.877-1.791-3.975-4.576-3.975-1.353 0-2.53.402-3.363 1.12-.84.724-1.301 1.75-1.22 2.899.073 1.047.6 1.745 1.297 2.23H2.75a.625.625 0 1 0 0 1.25h7.159l.293.087c.816.244 1.54.46 2.112.784.619.35.967.773 1.015 1.446.052.737-.234 1.386-.79 1.865-.564.486-1.434.816-2.547.816-2.148 0-3.325-1.592-3.325-2.725a.625.625 0 1 0-1.25 0c0 1.876 1.79 3.975 4.575 3.975 1.354 0 2.53-.402 3.363-1.12.84-.724 1.302-1.75 1.22-2.899-.073-1.046-.603-1.744-1.3-2.23h3.977a.625.625 0 1 0 0-1.25h-7.158l-.312-.093c-.814-.243-1.534-.458-2.102-.78-.613-.348-.96-.77-1.007-1.444Z" clip-rule="evenodd"/>
</svg>
