<!--
  tags: ["media","captions","accessibility","toggle"]
-->
<svg xmlns="http://www.w3.org/2000/svg" width="20" height="20" fill="currentColor" viewBox="0 0 20 20">
  <path fill-rule="evenodd" d="M3.07 2.187a.625.625 0 0 0-.884.884l.993.993a1.875 1.875 0 0 0-1.055 1.688l.005 8.498c0 1.035.84 1.874 1.875 1.874H15.24l1.697 1.697a.625.625 0 0 0 .884-.884l-1.001-1a1.875 1.875 0 0 0 1.056-1.69l-.005-8.497c0-1.035-.84-1.874-1.875-1.874H4.759L3.07 2.187Zm1.172 2.939h-.243a.625.625 0 0 0-.625.625l.005 8.498c0 .345.28.625.625.625h9.986l-1.193-1.193h-.112a.625.625 0 0 1-.617-.728l-1.716-1.717h-.987a.625.625 0 0 1-.222-1.209L4.242 5.126Zm6.628 4.86-4.86-4.86h9.986c.345 0 .625.28.625.625l.005 8.498c0 .345-.28.625-.625.625h-.243l-1.194-1.193h.19a.625.625 0 1 0 0-1.25h-1.44l-1.194-1.195h2.633a.625.625 0 1 0 0-1.25H10.87Zm-6.26.625c0-.345.28-.625.625-.625H6.89a.625.625 0 1 1 0 1.25H5.235a.625.625 0 0 1-.625-.625Zm5.595 3.07a.625.625 0 0 0 0-1.25h-4.97a.625.625 0 0 0 0 1.25h4.97Z" clip-rule="evenodd"/>
</svg>
