<!--
  tags: ["media","captions","accessibility","UI"]
-->
<svg xmlns="http://www.w3.org/2000/svg" width="20" height="20" fill="currentColor" viewBox="0 0 20 20">
  <path fill-rule="evenodd" d="M15.996 5.126H3.999a.625.625 0 0 0-.625.625l.005 8.498c0 .345.28.625.625.625H16c.346 0 .626-.28.625-.625l-.005-8.498a.625.625 0 0 0-.625-.625ZM3.999 3.876h11.997c1.035 0 1.874.839 1.875 1.874l.005 8.498a1.875 1.875 0 0 1-1.875 1.876H4.004a1.875 1.875 0 0 1-1.875-1.874l-.005-8.498a1.875 1.875 0 0 1 1.875-1.876Zm4.741 6.735c0-.345.28-.625.625-.625h5.388a.625.625 0 1 1 0 1.25H9.365a.625.625 0 0 1-.625-.625Zm-3.505-.625a.625.625 0 1 0 0 1.25H6.89a.625.625 0 1 0 0-1.25H5.235Zm5.595 3.07c0 .345-.28.625-.625.625h-4.97a.625.625 0 1 1 0-1.25h4.97c.345 0 .625.28.625.625Zm3.923.625a.625.625 0 1 0 0-1.25h-2.068a.625.625 0 0 0 0 1.25h2.068Z" clip-rule="evenodd"/>
</svg>
