<!--
  tags: ["data","UI","display","structure"]
-->
<svg xmlns="http://www.w3.org/2000/svg" width="20" height="20" fill="currentColor" viewBox="0 0 20 20">
  <path fill-rule="evenodd" d="M4.626 17.5a2.125 2.125 0 0 1-2.125-2.125V4.626c0-1.174.952-2.125 2.125-2.125h10.747c1.174 0 2.125.951 2.125 2.125v10.749a2.125 2.125 0 0 1-2.125 2.125H4.626Zm11.622-5.481V9.103h-3.23v2.916h3.23Zm-3.23 1.25h3.23v2.106a.875.875 0 0 1-.875.875h-2.356v-2.98Zm-1.25-1.25V9.103h-3.54v2.916h3.54Zm-3.54 1.25h3.54v2.981h-3.54v-2.98Zm-1.25-1.25V9.103H3.751v2.916h3.227Zm-3.227 1.25h3.227v2.981H4.626a.875.875 0 0 1-.875-.875V13.27Zm12.497-8.643v3.227H3.751V4.626c0-.483.392-.875.875-.875h10.747c.484 0 .875.392.875.875Z" clip-rule="evenodd"/>
</svg>
