<!--
  tags: ["labeling","organization","content","metadata"]
-->
<svg xmlns="http://www.w3.org/2000/svg" width="20" height="20" fill="currentColor" viewBox="0 0 20 20">
  <path fill-rule="evenodd" d="M10.531 2.874a2.125 2.125 0 0 0-1.918-.58l-3.878.773c-.842.168-1.5.826-1.668 1.668l-.774 3.878c-.14.697.079 1.417.58 1.919l6.595 6.594c.83.83 2.175.83 3.005 0l4.652-4.652c.83-.83.83-2.175 0-3.005l-6.594-6.595Zm-1.673.645a.875.875 0 0 1 .79.24l6.594 6.593a.875.875 0 0 1 0 1.238l-4.653 4.652a.875.875 0 0 1-1.237 0L3.758 9.648a.875.875 0 0 1-.24-.79l.774-3.878a.875.875 0 0 1 .687-.687l3.879-.774ZM6.763 7.835a.758.758 0 1 0 1.072-1.072.758.758 0 0 0-1.072 1.072Zm1.956.884a2.008 2.008 0 1 1-2.84-2.84 2.008 2.008 0 0 1 2.84 2.84Z" clip-rule="evenodd"/>
</svg>
