<!--
  tags: ["infrastructure","integration","API","system"]
-->
<svg xmlns="http://www.w3.org/2000/svg" width="20" height="20" fill="currentColor" viewBox="0 0 20 20">
  <path fill-rule="evenodd" d="M10.627 2.625a.625.625 0 1 0-1.25 0v1.144a6.262 6.262 0 0 0-5.604 5.605H2.625a.625.625 0 1 0 0 1.25h1.148a6.262 6.262 0 0 0 5.6 5.603v1.15a.625.625 0 1 0 1.25 0v-1.15a6.262 6.262 0 0 0 5.608-5.6h1.144a.625.625 0 1 0 0-1.25h-1.143a6.262 6.262 0 0 0-5.605-5.608V2.625ZM4.992 9.998a5.01 5.01 0 1 0 10.02 0 5.01 5.01 0 0 0-10.02 0Zm5.01 2.013a2.012 2.012 0 1 0 0-4.024 2.012 2.012 0 0 0 0 4.024Z" clip-rule="evenodd"/>
</svg>
