<!--
  tags: ["reusable","content","structure","design"]
-->
<svg xmlns="http://www.w3.org/2000/svg" width="20" height="20" fill="currentColor" viewBox="0 0 20 20">
  <path fill-rule="evenodd" d="M2.5 15.377c0 1.173.951 2.125 2.125 2.125h10.75a2.125 2.125 0 0 0 2.125-2.125V4.624a2.125 2.125 0 0 0-2.125-2.125H4.625A2.125 2.125 0 0 0 2.5 4.624v10.753Zm2.125.875a.875.875 0 0 1-.875-.875v-4.752h4.974v5.627H4.625Zm5.35 0h5.4a.875.875 0 0 0 .875-.875v-4.752H9.974v5.627Zm6.275-6.877H3.75V4.624c0-.483.392-.875.875-.875h10.75c.483 0 .875.392.875.875v4.75Z" clip-rule="evenodd"/>
</svg>
