<!--
  tags: ["feedback","rating","user","response"]
-->
<svg xmlns="http://www.w3.org/2000/svg" width="20" height="20" fill="currentColor" viewBox="0 0 20 20">
  <path fill-rule="evenodd" d="M11.101 2.002h-.003l-5.856.002a1.838 1.838 0 0 0-1.528 2.859 1.833 1.833 0 0 0-.31 2.469c-.37.336-.602.821-.602 1.36 0 .451.162.864.431 1.184a1.838 1.838 0 0 0 1.355 3.08l4.92.003c.214.001.339.094.393.176.047.072.074.183-.013.34l-.157.28c-.242.433-.508.909-.725 1.37-.265.563-.332 1.115-.186 1.607.147.493.488.854.898 1.059.8.4 1.893.233 2.56-.606a77.63 77.63 0 0 1 1.74-2.09l.368-.43c.617-.726 1.163-1.388 1.604-2.059.909-1.383 1.356-2.784 1.243-4.899-.106-1.992-.87-3.442-2.038-4.384-1.152-.93-2.631-1.314-4.094-1.321ZM7.973 9.28h.004a.625.625 0 1 1 0 1.25H4.588a.588.588 0 1 0 0 1.176l4.922.003h.002c.596.002 1.129.277 1.433.74.311.472.342 1.082.036 1.632l-.168.3v.001c-.24.43-.48.858-.676 1.275-.167.354-.158.587-.119.718.039.13.127.232.26.298.286.144.734.097 1.023-.266.648-.815 1.244-1.512 1.772-2.13.124-.145.245-.285.36-.422.618-.726 1.118-1.336 1.512-1.935.761-1.158 1.139-2.295 1.04-4.146-.09-1.684-.717-2.786-1.575-3.478-.873-.705-2.051-1.038-3.313-1.044l-5.854.002a.588.588 0 0 0-.036 1.174H7.97a.625.625 0 1 1 .006 1.251H5.242l-.062-.001H4.9a.587.587 0 0 0 0 1.175h3.07a.625.625 0 1 1-.003 1.252H4.64a.587.587 0 0 0 0 1.175h3.333Z" clip-rule="evenodd"/>
</svg>
