<!--
  tags: ["UI","layout","events","visualization"]
-->
<svg xmlns="http://www.w3.org/2000/svg" width="20" height="20" fill="currentColor" viewBox="0 0 20 20">
  <path fill-rule="evenodd" d="M3.375 3.124c-.622 0-1.125.504-1.125 1.125v1.5c0 .62.503 1.124 1.125 1.124h6.704c.621 0 1.125-.504 1.125-1.125V4.25c0-.621-.504-1.125-1.125-1.125H3.375Zm.125 2.5v-1.25h6.454v1.25H3.5Zm3.202 3.62c0-.621.503-1.125 1.125-1.125h5.488V3.75a.625.625 0 0 1 1.25 0v4.37h2.06c.622 0 1.126.504 1.126 1.125v1.5c0 .62-.504 1.124-1.125 1.124h-2.061v4.383a.625.625 0 1 1-1.25 0v-4.383H7.827a1.125 1.125 0 0 1-1.125-1.125v-1.5Zm1.25.125v1.25H16.5v-1.25H7.95Zm-3.478 4.883c0-.621.504-1.125 1.125-1.125h4.94c.621 0 1.125.504 1.125 1.125v1.499c0 .621-.504 1.125-1.125 1.125H5.6a1.125 1.125 0 0 1-1.125-1.125v-1.499Zm1.25.125v1.249h4.69v-1.249h-4.69Z" clip-rule="evenodd"/>
</svg>
