<!--
  tags: ["dev-tools","configuration","customization","features"]
-->
<svg xmlns="http://www.w3.org/2000/svg" width="20" height="20" fill="currentColor" viewBox="0 0 20 20">
  <path fill-rule="evenodd" d="M3.809 7.174c-.224 1.267.2 2.7 1.177 3.677a3.881 3.881 0 0 0 4.241.839 1.164 1.164 0 0 1 1.307.277l3.549 3.877a1.247 1.247 0 1 0 1.76-1.765l-3.88-3.54a1.166 1.166 0 0 1-.278-1.309 3.886 3.886 0 0 0-.838-4.243C9.87 4.01 8.437 3.586 7.172 3.81l2.217 2.218a.877.877 0 0 1 .23.829L9.2 8.563a.876.876 0 0 1-.64.641l-1.705.42a.876.876 0 0 1-.829-.232L3.809 7.174Zm-1.005-1.06c.235-.63 1.005-.711 1.417-.3l2.54 2.543 1.278-.315.314-1.278-2.54-2.542c-.412-.412-.331-1.183.3-1.418 1.874-.698 4.149-.174 5.62 1.297a5.14 5.14 0 0 1 1.128 5.562l3.826 3.49a2.502 2.502 0 0 1 .083 3.617 2.499 2.499 0 0 1-3.61-.08l-3.5-3.824a5.133 5.133 0 0 1-5.56-1.129C2.63 10.266 2.106 7.99 2.804 6.115Z" clip-rule="evenodd"/>
</svg>
