<!--
  tags: ["analytics","data","metrics","performance"]
-->
<svg xmlns="http://www.w3.org/2000/svg" width="20" height="20" fill="currentColor" viewBox="0 0 20 20">
  <path fill-rule="evenodd" d="M12.592 14.31a.625.625 0 1 1 0-1.25h3.25L11.72 8.848a.625.625 0 0 0-.94.054l-1.56 2.004a1.875 1.875 0 0 1-2.82.16L2.177 6.75a.625.625 0 1 1 .894-.874l4.221 4.313c.265.27.707.246.94-.053l1.561-2.005a1.875 1.875 0 0 1 2.82-.159l4.138 4.229v-3.3a.625.625 0 1 1 1.25 0v4.284c0 .62-.504 1.124-1.125 1.124h-4.284Z" clip-rule="evenodd"/>
</svg>
