<!--
  tags: ["analytics","data","metrics","growth"]
-->
<svg xmlns="http://www.w3.org/2000/svg" width="20" height="20" fill="currentColor" viewBox="0 0 20 20">
  <path fill-rule="evenodd" d="M12.592 5.688a.625.625 0 1 0 0 1.25h3.25l-4.123 4.214a.625.625 0 0 1-.94-.053L9.22 9.093a1.875 1.875 0 0 0-2.82-.16l-4.222 4.314a.625.625 0 1 0 .894.874l4.22-4.311a.625.625 0 0 1 .94.053l1.561 2.005c.698.895 2.026.97 2.82.159l4.138-4.229v3.3a.625.625 0 1 0 1.25 0V6.814c0-.62-.504-1.125-1.125-1.125h-4.284Z" clip-rule="evenodd"/>
</svg>
