<!--
  tags: ["version","product","plan","enhancement"]
-->
<svg xmlns="http://www.w3.org/2000/svg" width="20" height="20" fill="currentColor" viewBox="0 0 20 20">
  <path fill-rule="evenodd" d="m4.585 8.785 5.397-4.99 5.43 4.99h-1.715a.875.875 0 0 0-.875.875v3.554H7.144V9.66a.875.875 0 0 0-.875-.875H4.585Zm6.159-5.99a1.125 1.125 0 0 0-1.526.003l-6.185 5.72c-.585.54-.202 1.517.594 1.517h2.267v3.304c0 .621.504 1.125 1.125 1.125h5.928c.622 0 1.125-.504 1.125-1.125v-3.304h2.301c.798 0 1.18-.98.592-1.519l-6.221-5.72Zm-4.22 13.456a.625.625 0 1 0 0 1.25h6.955a.625.625 0 0 0 0-1.25H6.524Z" clip-rule="evenodd"/>
</svg>
