<!--
  tags: ["file","action","system","input"]
-->
<svg xmlns="http://www.w3.org/2000/svg" width="20" height="20" fill="currentColor" viewBox="0 0 20 20">
  <path fill-rule="evenodd" d="M5.094 7.743a.625.625 0 0 1 0-.884l3.757-3.757a1.625 1.625 0 0 1 2.298 0l3.757 3.757a.625.625 0 0 1-.884.884l-3.397-3.397v8.725a.625.625 0 0 1-1.25 0V4.346L5.978 7.743a.625.625 0 0 1-.884 0Zm-.244 8.382a.975.975 0 0 1-.975-.975v-4.157a.625.625 0 1 0-1.25 0v4.157c0 1.229.996 2.225 2.225 2.225h10.3a2.225 2.225 0 0 0 2.225-2.225v-4.157a.625.625 0 1 0-1.25 0v4.157a.975.975 0 0 1-.975.975H4.85Z" clip-rule="evenodd"/>
</svg>
