<!--
  tags: ["analytics","behavior","flow","product"]
-->
<svg xmlns="http://www.w3.org/2000/svg" width="20" height="20" fill="currentColor" viewBox="0 0 20 20">
  <path fill-rule="evenodd" d="M14.482 2.127c.621 0 1.125.504 1.125 1.125V4.84h1.766a.625.625 0 1 1 0 1.25h-1.766v1.588c0 .62-.504 1.125-1.125 1.125h-2.147a1.125 1.125 0 0 1-1.125-1.125V6.09h-1.185a.625.625 0 0 0-.625.625v2.038c0 .48-.18.918-.477 1.25.298.331.479.77.479 1.25v2.032c0 .346.28.625.625.625h1.183v-1.588c0-.621.503-1.125 1.125-1.125h2.147c.621 0 1.125.504 1.125 1.125v1.588h1.766a.625.625 0 1 1 0 1.25h-1.766v1.588c0 .621-.504 1.125-1.125 1.125h-2.147a1.125 1.125 0 0 1-1.125-1.125V15.16h-1.183a1.875 1.875 0 0 1-1.875-1.875v-2.032a.625.625 0 0 0-.612-.625H6.399v1.917c0 .621-.504 1.125-1.125 1.125H3.127a1.125 1.125 0 0 1-1.125-1.125V7.409c0-.622.504-1.125 1.125-1.125h2.147c.621 0 1.125.503 1.125 1.125v1.97h1.14a.625.625 0 0 0 .61-.626V6.715c0-1.035.84-1.875 1.876-1.875h1.185V3.252c0-.621.503-1.125 1.125-1.125h2.147Zm-.125 1.25H12.46v4.176h1.897V3.377ZM5.149 7.534H3.252v4.886h1.897V7.534Zm7.31 4.913h1.898v4.176H12.46v-4.176Z" clip-rule="evenodd"/>
</svg>
