<!--
  tags: ["status","access","confirmation","trust"]
-->
<svg xmlns="http://www.w3.org/2000/svg" width="20" height="20" fill="currentColor" viewBox="0 0 20 20">
  <path fill-rule="evenodd" d="M11.36 2.49a2.123 2.123 0 0 0-2.704-.01l-1.13.925a.877.877 0 0 1-.476.195l-1.399.128a2.123 2.123 0 0 0-1.919 1.904l-.145 1.454a.877.877 0 0 1-.198.474L2.49 8.64a2.123 2.123 0 0 0-.011 2.703l.926 1.131c.11.136.179.301.195.476l.128 1.398a2.123 2.123 0 0 0 1.904 1.919l1.455.145a.877.877 0 0 1 .473.197l1.087.901c.783.65 1.917.653 2.703.007l1.124-.924a.88.88 0 0 1 .476-.196l1.404-.13a2.123 2.123 0 0 0 1.916-1.907l.142-1.447a.876.876 0 0 1 .198-.476l.898-1.079c.65-.782.655-1.915.01-2.702l-.926-1.133a.877.877 0 0 1-.195-.474l-.13-1.405a2.123 2.123 0 0 0-1.908-1.916l-1.447-.142a.877.877 0 0 1-.475-.198l-1.079-.898Zm-1.914.953a.877.877 0 0 1 1.116.005l1.079.897c.326.272.727.44 1.15.481l1.448.142a.877.877 0 0 1 .787.792l.132 1.405c.039.421.203.82.47 1.148l.928 1.132a.877.877 0 0 1-.005 1.117l-.897 1.078a2.12 2.12 0 0 0-.481 1.15l-.142 1.448a.877.877 0 0 1-.792.788l-1.404.13c-.422.04-.823.205-1.15.474l-1.125.924a.877.877 0 0 1-1.117-.003l-1.086-.9a2.123 2.123 0 0 0-1.145-.48l-1.456-.144a.877.877 0 0 1-.786-.793l-.129-1.398a2.123 2.123 0 0 0-.471-1.151l-.926-1.132a.877.877 0 0 1 .004-1.116l.899-1.08a2.13 2.13 0 0 0 .48-1.147l.145-1.454a.877.877 0 0 1 .793-.787l1.399-.128a2.123 2.123 0 0 0 1.15-.472l1.132-.926Zm4.304 5.344a.623.623 0 0 0-.881-.88l-3.783 3.782L7.13 9.735a.623.623 0 0 0-.881.88l2.077 2.078a1.073 1.073 0 0 0 1.517 0l3.906-3.906Z" clip-rule="evenodd"/>
</svg>
