<!--
  tags: ["media","audio","mute","status"]
-->
<svg xmlns="http://www.w3.org/2000/svg" width="20" height="20" fill="currentColor" viewBox="0 0 20 20">
  <path fill-rule="evenodd" d="M9.954 4.916a.116.116 0 0 1 .065-.036.132.132 0 0 1 .072.01.132.132 0 0 1 .057.044c.01.014.02.034.02.07v9.99c0 .037-.01.058-.02.072a.132.132 0 0 1-.057.044.133.133 0 0 1-.072.01.117.117 0 0 1-.065-.036l-2.07-2.046a2.125 2.125 0 0 0-1.494-.613H4.124a.875.875 0 0 1-.875-.875v-3.1c0-.483.392-.875.875-.875H6.39c.559 0 1.096-.22 1.493-.613l2.071-2.047Zm1.463.089c0-1.221-1.473-1.837-2.341-.978L7.005 6.073a.875.875 0 0 1-.615.253H4.124a2.125 2.125 0 0 0-2.125 2.125v3.099c0 1.173.951 2.125 2.125 2.125H6.39c.23 0 .451.09.615.252l2.071 2.046c.869.858 2.341.243 2.341-.978v-9.99Zm6.402 2.56a.625.625 0 0 1 0 .884L16.268 10l1.55 1.551a.625.625 0 0 1-.884.884l-1.55-1.55-1.551 1.55a.625.625 0 1 1-.884-.884L14.5 10l-1.55-1.55a.625.625 0 1 1 .884-.884l1.55 1.55 1.55-1.55a.625.625 0 0 1 .884 0Z" clip-rule="evenodd"/>
</svg>
