<!--
  tags: ["status","delay","system","progress"]
-->
<svg xmlns="http://www.w3.org/2000/svg" width="20" height="20" fill="currentColor" viewBox="0 0 20 20">
  <path fill-rule="evenodd" d="M3.75 2.874a.625.625 0 0 0 0 1.25h.337v.645c0 1.863.784 3.64 2.162 4.896l.06.056a.375.375 0 0 1 0 .554l-.07.064a6.625 6.625 0 0 0-2.161 4.874l-.002.664H3.75a.625.625 0 0 0 0 1.25h12.5a.625.625 0 1 0 0-1.25h-.314l-.002-.664a6.625 6.625 0 0 0-2.162-4.874l-.07-.064a.375.375 0 0 1 0-.554l.061-.056a6.625 6.625 0 0 0 2.162-4.896v-.645h.325a.625.625 0 0 0 0-1.25H3.75Zm10.936 13.003h-9.36l.002-.66a5.375 5.375 0 0 1 1.754-3.955l.07-.063a1.625 1.625 0 0 0 0-2.402L7.09 8.74a5.375 5.375 0 0 1-1.754-3.972v-.645h9.338v.645A5.375 5.375 0 0 1 12.92 8.74l-.061.056a1.625 1.625 0 0 0 0 2.402l.07.063a5.375 5.375 0 0 1 1.754 3.955l.002.66Zm-1.372-9.932-.095.268a4.638 4.638 0 0 1-2.727 2.791 1.394 1.394 0 0 1-.99 0 4.63 4.63 0 0 1-2.72-2.786l-.096-.273a.395.395 0 0 1 .373-.527h5.882c.273 0 .464.27.373.527Z" clip-rule="evenodd"/>
</svg>
