<!--
  tags: ["alert","system","diagnostics","error"]
-->
<svg xmlns="http://www.w3.org/2000/svg" width="20" height="20" fill="currentColor" viewBox="0 0 20 20">
  <path fill-rule="evenodd" d="M16.68 15.251 10.436 4.255a.5.5 0 0 0-.87 0L3.319 15.25a.5.5 0 0 0 .436.748h12.49a.5.5 0 0 0 .436-.748ZM11.525 3.637c-.672-1.183-2.376-1.183-3.047 0L2.23 14.633a1.752 1.752 0 0 0 1.524 2.617h12.49a1.752 1.752 0 0 0 1.524-2.617L11.524 3.637Z" clip-rule="evenodd"/>
  <path fill-rule="evenodd" d="M10.652 7.617a.65.65 0 0 0-1.3 0v3.72a.65.65 0 1 0 1.3 0v-3.72ZM10 12.87a1.002 1.002 0 1 0 .002 2.003A1.002 1.002 0 0 0 10 12.871Z" clip-rule="evenodd"/>
</svg>
