<!--
  tags: ["view","UI","focus","expand"]
-->
<svg xmlns="http://www.w3.org/2000/svg" width="20" height="20" fill="currentColor" viewBox="0 0 20 20">
  <path fill-rule="evenodd" d="M9.662 3.249a5.912 5.912 0 1 0 0 11.824 5.912 5.912 0 0 0 0-11.824ZM2.5 9.161a7.162 7.162 0 1 1 12.167 5.123l2.65 2.65a.625.625 0 0 1-.884.883l-2.737-2.737A7.162 7.162 0 0 1 2.5 9.16Zm7.162-4.247c.345 0 .625.28.625.625v2.997h2.997a.625.625 0 1 1 0 1.25h-2.997v2.997a.625.625 0 1 1-1.25 0V9.786H6.04a.625.625 0 1 1 0-1.25h2.997V5.539c0-.345.28-.625.625-.625Z" clip-rule="evenodd"/>
</svg>
