<svg width="120" height="21" viewBox="0 0 120 21" fill="none" xmlns="http://www.w3.org/2000/svg">
<path d="M19.6789 5.00179L13.2178 14.6616L10.1099 10.0291L2.91085 20.7608L2.94245 20.8088H15.8963C16.3424 20.8088 16.7588 20.5874 17.006 20.2184L22.9522 11.35C23.2496 10.9054 23.2496 10.328 22.9522 9.88336L19.677 4.99994L19.6789 5.00179Z" fill="#202020"/>
<path d="M10.1099 6.21196L13.2141 10.8408L20.1808 0.426392H7.27898C6.83287 0.426392 6.4165 0.647778 6.16929 1.01676L0.223053 9.88329C-0.0743512 10.3279 -0.0743512 10.9054 0.223053 11.35L3.44246 16.1504L10.1099 6.21196Z" fill="#202020"/>
<path d="M102.149 18.4431H98.4373V2.75903H102.149V18.4431Z" fill="#202020"/>
<path d="M66.4248 15.989L58.8886 15.9767L57.8635 18.4459H53.8408L60.8719 2.73988L64.4196 2.73303L71.4767 18.439L67.4253 18.4459L66.4248 15.989ZM62.9866 7.7439C62.8921 7.51669 62.6444 6.82275 62.6444 6.82275C62.6444 6.82275 62.4021 7.50437 62.3132 7.72747C62.1653 8.09566 60.1807 12.8875 60.1807 12.8875H65.1122C65.1122 12.8875 63.2124 8.28865 62.9866 7.7439Z" fill="#202020"/>
<path d="M55.1579 5.9413H51.1421V18.4418H47.4534V5.9413H43.428V2.75903H55.1565V5.9413H55.1579Z" fill="#202020"/>
<path d="M81.8893 5.9413H77.8735V18.4418H74.1848V5.9413H70.1594V2.75903H81.8879V5.9413H81.8893Z" fill="#202020"/>
<path d="M112.797 12.5075H116.584V14.5921C116.02 14.9739 115.08 15.5324 113.229 15.5324C109.821 15.5324 108.003 13.582 108.003 10.6023C108.003 7.62256 109.895 5.65846 113.28 5.65846C114.836 5.65846 115.939 6.03622 117.393 7.16678L119.167 4.52242C117.576 3.08254 115.404 2.46661 113.306 2.46661C108.248 2.46661 104.371 5.82955 104.371 10.6242C104.371 15.4188 108.17 18.7352 113.092 18.7352C116.703 18.7352 119.075 17.1899 120 16.4713V9.34578H112.799V12.5075H112.797Z" fill="#202020"/>
<path d="M33.8563 7.09659C33.8563 6.28084 34.9458 5.72651 36.4678 5.72651C37.883 5.72651 38.8548 5.98519 39.8868 6.50941L41.7113 3.78978L41.7278 3.76377L41.7319 3.75829C40.266 2.95212 38.7344 2.45117 36.5677 2.45117C32.775 2.45117 29.9678 4.35232 30.0116 7.35391C30.0116 13.1039 38.8781 11.2739 38.8781 14.0264C38.8781 15.0639 37.6038 15.48 36.0777 15.48C34.323 15.48 32.6587 14.8079 31.2242 14.0237L29.3628 16.7994C30.763 17.763 33.2198 18.784 36.038 18.784C40.0046 18.784 42.6612 17.0992 42.6612 13.739C42.6612 7.75494 33.8563 9.97089 33.8563 7.09659Z" fill="#202020"/>
<path d="M87.411 7.09665C87.411 6.2809 88.5005 5.72657 90.0225 5.72657C91.4377 5.72657 92.4095 5.98525 93.4415 6.50947L95.266 3.78984L95.2824 3.76383L95.2866 3.75836C93.8207 2.95218 92.2891 2.45123 90.1224 2.45123C86.3297 2.45123 83.5225 4.35238 83.5663 7.35397C83.5663 13.1039 92.4328 11.274 92.4328 14.0265C92.4328 15.0639 91.1585 15.48 89.6324 15.48C87.8777 15.48 86.2133 14.808 84.7789 14.0237L82.9175 16.7995C84.3177 17.763 86.7745 18.7841 89.5927 18.7841C93.5592 18.7841 96.2159 17.0992 96.2159 13.739C96.2159 7.755 87.411 9.97095 87.411 7.09665Z" fill="#202020"/>
</svg>
