<svg width="120" height="21" viewBox="0 0 120 21" fill="none" xmlns="http://www.w3.org/2000/svg">
<path d="M19.6789 4.76659L13.2178 14.4264L10.1099 9.79391L2.91085 20.5256L2.94245 20.5736H15.8963C16.3424 20.5736 16.7588 20.3522 17.006 19.9832L22.9522 11.1148C23.2496 10.6702 23.2496 10.0928 22.9522 9.64816L19.677 4.76474L19.6789 4.76659Z" fill="#F9FAFA"/>
<path d="M10.1099 5.97676L13.2141 10.6056L20.1808 0.191193H7.27898C6.83287 0.191193 6.4165 0.412579 6.16929 0.781557L0.223053 9.64809C-0.0743512 10.0927 -0.0743512 10.6702 0.223053 11.1148L3.44246 15.9152L10.1099 5.97676Z" fill="#F9FAFA"/>
<path d="M102.149 18.2079H98.4373V2.52383H102.149V18.2079Z" fill="#F9FAFA"/>
<path d="M66.4248 15.7538L58.8886 15.7415L57.8635 18.2107H53.8408L60.8719 2.50468L64.4196 2.49783L71.4767 18.2038L67.4253 18.2107L66.4248 15.7538ZM62.9866 7.5087C62.8921 7.28149 62.6444 6.58755 62.6444 6.58755C62.6444 6.58755 62.4021 7.26917 62.3132 7.49228C62.1653 7.86046 60.1807 12.6523 60.1807 12.6523H65.1122C65.1122 12.6523 63.2124 8.05345 62.9866 7.5087Z" fill="#F9FAFA"/>
<path d="M55.1579 5.7061H51.1421V18.2066H47.4534V5.7061H43.428V2.52383H55.1565V5.7061H55.1579Z" fill="#F9FAFA"/>
<path d="M81.8896 5.7061H77.8738V18.2066H74.1851V5.7061H70.1597V2.52383H81.8882V5.7061H81.8896Z" fill="#F9FAFA"/>
<path d="M112.796 12.2722H116.584V14.3568C116.02 14.7387 115.079 15.2971 113.229 15.2971C109.821 15.2971 108.003 13.3467 108.003 10.367C108.003 7.3873 109.895 5.4232 113.28 5.4232C114.836 5.4232 115.939 5.80096 117.393 6.93152L119.166 4.28716C117.576 2.84728 115.404 2.23135 113.306 2.23135C108.248 2.23135 104.371 5.59429 104.371 10.3889C104.371 15.1835 108.17 18.4999 113.092 18.4999C116.703 18.4999 119.075 16.9546 120 16.236V9.11052H112.799V12.2722H112.796Z" fill="#F9FAFA"/>
<path d="M33.8563 6.86136C33.8563 6.04561 34.9458 5.49128 36.4678 5.49128C37.883 5.49128 38.8548 5.74996 39.8868 6.27418L41.7113 3.55455L41.7278 3.52854L41.7319 3.52307C40.266 2.71689 38.7344 2.21594 36.5677 2.21594C32.775 2.21594 29.9678 4.11709 30.0116 7.11868C30.0116 12.8687 38.8781 11.0387 38.8781 13.7912C38.8781 14.8287 37.6038 15.2447 36.0777 15.2447C34.323 15.2447 32.6587 14.5727 31.2242 13.7884L29.3628 16.5642C30.763 17.5278 33.2198 18.5488 36.038 18.5488C40.0046 18.5488 42.6612 16.8639 42.6612 13.5037C42.6612 7.51971 33.8563 9.73566 33.8563 6.86136Z" fill="#F9FAFA"/>
<path d="M87.411 6.86139C87.411 6.04564 88.5005 5.49131 90.0225 5.49131C91.4377 5.49131 92.4095 5.74999 93.4415 6.27421L95.266 3.55458L95.2824 3.52857L95.2866 3.5231C93.8207 2.71692 92.2891 2.21597 90.1224 2.21597C86.3297 2.21597 83.5225 4.11712 83.5663 7.11871C83.5663 12.8687 92.4328 11.0387 92.4328 13.7912C92.4328 14.8287 91.1585 15.2448 89.6324 15.2448C87.8777 15.2448 86.2133 14.5727 84.7789 13.7885L82.9175 16.5642C84.3177 17.5278 86.7745 18.5488 89.5927 18.5488C93.5592 18.5488 96.2159 16.864 96.2159 13.5038C96.2159 7.51974 87.411 9.73569 87.411 6.86139Z" fill="#F9FAFA"/>
</svg>
