<svg width="160" height="20" viewBox="0 0 160 20" fill="none" xmlns="http://www.w3.org/2000/svg">
<path d="M115.958 15.5H112.015V3.86364H116.038C117.193 3.86364 118.185 4.09659 119.015 4.5625C119.848 5.02462 120.488 5.68939 120.935 6.55682C121.382 7.42424 121.606 8.46212 121.606 9.67045C121.606 10.8826 121.38 11.9242 120.93 12.7955C120.483 13.6667 119.837 14.3352 118.992 14.8011C118.151 15.267 117.14 15.5 115.958 15.5ZM114.123 13.6761H115.856C116.666 13.6761 117.343 13.5284 117.884 13.233C118.426 12.9337 118.833 12.4886 119.106 11.8977C119.379 11.303 119.515 10.5606 119.515 9.67045C119.515 8.7803 119.379 8.04167 119.106 7.45455C118.833 6.86364 118.43 6.42235 117.896 6.13068C117.365 5.83523 116.706 5.6875 115.918 5.6875H114.123V13.6761ZM134.006 9.68182C134.006 10.9356 133.772 12.0095 133.302 12.9034C132.836 13.7936 132.2 14.4754 131.393 14.9489C130.59 15.4223 129.679 15.6591 128.66 15.6591C127.641 15.6591 126.728 15.4223 125.921 14.9489C125.118 14.4716 124.482 13.7879 124.012 12.8977C123.546 12.0038 123.313 10.9318 123.313 9.68182C123.313 8.42803 123.546 7.35606 124.012 6.46591C124.482 5.57197 125.118 4.88826 125.921 4.41477C126.728 3.94129 127.641 3.70455 128.66 3.70455C129.679 3.70455 130.59 3.94129 131.393 4.41477C132.2 4.88826 132.836 5.57197 133.302 6.46591C133.772 7.35606 134.006 8.42803 134.006 9.68182ZM131.887 9.68182C131.887 8.79924 131.749 8.05492 131.472 7.44886C131.2 6.83902 130.821 6.37879 130.336 6.06818C129.851 5.75379 129.292 5.59659 128.66 5.59659C128.027 5.59659 127.469 5.75379 126.984 6.06818C126.499 6.37879 126.118 6.83902 125.842 7.44886C125.569 8.05492 125.433 8.79924 125.433 9.68182C125.433 10.5644 125.569 11.3106 125.842 11.9205C126.118 12.5265 126.499 12.9867 126.984 13.3011C127.469 13.6117 128.027 13.767 128.66 13.767C129.292 13.767 129.851 13.6117 130.336 13.3011C130.821 12.9867 131.2 12.5265 131.472 11.9205C131.749 11.3106 131.887 10.5644 131.887 9.68182ZM145.96 7.78977H143.835C143.774 7.44129 143.662 7.13258 143.499 6.86364C143.336 6.59091 143.134 6.35985 142.891 6.17045C142.649 5.98106 142.372 5.83901 142.062 5.74432C141.755 5.64583 141.424 5.59659 141.067 5.59659C140.435 5.59659 139.874 5.75568 139.386 6.07386C138.897 6.38826 138.514 6.85038 138.238 7.46023C137.961 8.06629 137.823 8.80682 137.823 9.68182C137.823 10.572 137.961 11.322 138.238 11.9318C138.518 12.5379 138.901 12.9962 139.386 13.3068C139.874 13.6136 140.433 13.767 141.062 13.767C141.41 13.767 141.736 13.7216 142.039 13.6307C142.346 13.536 142.621 13.3977 142.863 13.2159C143.109 13.0341 143.316 12.8106 143.482 12.5455C143.653 12.2803 143.77 11.9773 143.835 11.6364L145.96 11.6477C145.88 12.2008 145.708 12.7197 145.442 13.2045C145.181 13.6894 144.838 14.1174 144.414 14.4886C143.99 14.8561 143.494 15.1439 142.925 15.3523C142.357 15.5568 141.727 15.6591 141.033 15.6591C140.011 15.6591 139.098 15.4223 138.295 14.9489C137.492 14.4754 136.859 13.7917 136.397 12.8977C135.935 12.0038 135.704 10.9318 135.704 9.68182C135.704 8.42803 135.937 7.35606 136.403 6.46591C136.869 5.57197 137.503 4.88826 138.306 4.41477C139.109 3.94129 140.018 3.70455 141.033 3.70455C141.681 3.70455 142.283 3.79545 142.84 3.97727C143.397 4.15909 143.893 4.42614 144.329 4.77841C144.764 5.12689 145.122 5.55492 145.403 6.0625C145.687 6.56629 145.872 7.14205 145.96 7.78977ZM154.214 7.0625C154.161 6.56629 153.937 6.17992 153.543 5.90341C153.153 5.62689 152.646 5.48864 152.021 5.48864C151.581 5.48864 151.204 5.55492 150.89 5.6875C150.576 5.82008 150.335 6 150.168 6.22727C150.002 6.45455 149.916 6.71402 149.913 7.00568C149.913 7.24811 149.968 7.45833 150.077 7.63636C150.191 7.81439 150.344 7.96591 150.538 8.09091C150.731 8.21212 150.945 8.31439 151.18 8.39773C151.415 8.48106 151.651 8.55114 151.89 8.60795L152.981 8.88068C153.42 8.98295 153.843 9.12121 154.248 9.29545C154.657 9.4697 155.022 9.68939 155.344 9.95455C155.67 10.2197 155.928 10.5398 156.117 10.9148C156.307 11.2898 156.401 11.7292 156.401 12.233C156.401 12.9148 156.227 13.5152 155.879 14.0341C155.53 14.5492 155.026 14.9527 154.367 15.2443C153.712 15.5322 152.918 15.6761 151.987 15.6761C151.081 15.6761 150.295 15.536 149.629 15.2557C148.966 14.9754 148.447 14.5663 148.072 14.0284C147.701 13.4905 147.5 12.8352 147.469 12.0625H149.543C149.574 12.4678 149.699 12.8049 149.918 13.0739C150.138 13.3428 150.424 13.5436 150.776 13.6761C151.132 13.8087 151.53 13.875 151.969 13.875C152.428 13.875 152.829 13.8068 153.174 13.6705C153.522 13.5303 153.795 13.3371 153.992 13.0909C154.189 12.8409 154.29 12.5492 154.293 12.2159C154.29 11.9129 154.201 11.6629 154.026 11.4659C153.852 11.2652 153.608 11.0985 153.293 10.9659C152.983 10.8295 152.619 10.7083 152.202 10.6023L150.879 10.2614C149.92 10.0152 149.163 9.64205 148.606 9.14205C148.053 8.63826 147.776 7.9697 147.776 7.13636C147.776 6.45076 147.962 5.85038 148.333 5.33523C148.708 4.82008 149.218 4.42045 149.862 4.13636C150.505 3.84848 151.235 3.70455 152.049 3.70455C152.875 3.70455 153.598 3.84848 154.219 4.13636C154.844 4.42045 155.335 4.81629 155.691 5.32386C156.047 5.82765 156.231 6.4072 156.242 7.0625H154.214Z" fill="#727882"/>
<path d="M30.05 16.0395C29.0986 16.0395 28.1737 15.9229 27.278 15.6871C26.3823 15.4512 25.6535 15.1385 25.0944 14.7463L26.1862 12.2923C26.7135 12.6395 27.3231 12.9204 28.0174 13.1324C28.7117 13.3444 29.3954 13.4504 30.0685 13.4504C31.3459 13.4504 31.9845 13.1324 31.9845 12.4937C31.9845 12.1572 31.799 11.9107 31.4307 11.7544C31.0729 11.5874 30.4899 11.4125 29.6816 11.2323C28.7965 11.0415 28.0571 10.8401 27.4635 10.6281C26.8699 10.4028 26.3611 10.0504 25.9344 9.56808C25.5078 9.08577 25.2958 8.43651 25.2958 7.61764C25.2958 6.89947 25.4919 6.25551 25.8841 5.68574C26.2763 5.10273 26.8593 4.64427 27.6331 4.30771C28.4175 3.97115 29.3742 3.8042 30.5058 3.8042C31.2796 3.8042 32.0402 3.8943 32.7901 4.07186C33.5401 4.23881 34.2026 4.49322 34.7724 4.82712L33.7468 7.29698C32.6258 6.69276 31.5393 6.39066 30.4872 6.39066C29.8274 6.39066 29.3451 6.49136 29.0429 6.69277C28.7408 6.88357 28.5898 7.13532 28.5898 7.44803C28.5898 7.76074 28.77 7.99659 29.1278 8.15295C29.4855 8.3093 30.0632 8.47096 30.8582 8.64056C31.754 8.83136 32.4933 9.03807 33.0763 9.26332C33.67 9.47533 34.1788 9.82249 34.6054 10.3048C35.0427 10.7765 35.26 11.4205 35.26 12.2367C35.26 12.9416 35.0639 13.5803 34.6717 14.1527C34.2795 14.7251 33.6912 15.1836 32.9067 15.5307C32.1223 15.8673 31.171 16.0342 30.05 16.0342V16.0395Z" fill="#1B63D2"/>
<path d="M39.8526 6.67691H36.2379V4.04011H46.7746V6.67691H43.1784V15.8037H39.8526V6.67691Z" fill="#1B63D2"/>
<path d="M54.4219 4.04011H51.1438L45.9497 15.8037H49.3444L50.1023 13.9301C50.203 13.681 50.4468 13.5194 50.7145 13.5194H54.8857C55.103 13.5194 55.2964 13.6492 55.3786 13.8506L56.1683 15.8037H59.6293L54.4219 4.04011ZM51.3319 10.8455L52.6093 7.66804C52.6623 7.53288 52.8531 7.53288 52.9061 7.66804L54.1834 10.8455C54.2258 10.9515 54.1489 11.0654 54.035 11.0654H51.483C51.369 11.0654 51.2922 10.9515 51.3346 10.8455H51.3319Z" fill="#1B63D2"/>
<path d="M62.3317 6.67691H58.7197V4.04011H69.2563V6.67691H65.6602V15.8037H62.3317V6.67691Z" fill="#1B63D2"/>
<path d="M75.299 16.0395C74.3476 16.0395 73.4228 15.9229 72.527 15.6871C71.6313 15.4512 70.9026 15.1385 70.3434 14.7463L71.4352 12.2923C71.9626 12.6395 72.5721 12.9204 73.2664 13.1324C73.9607 13.3444 74.6444 13.4504 75.3175 13.4504C76.5949 13.4504 77.2335 13.1324 77.2335 12.4937C77.2335 12.1572 77.048 11.9107 76.6797 11.7544C76.3219 11.5874 75.7389 11.4125 74.9306 11.2323C74.0455 11.0415 73.3062 10.8401 72.7125 10.6281C72.1189 10.4028 71.6101 10.0504 71.1835 9.56808C70.7568 9.08577 70.5448 8.43651 70.5448 7.61764C70.5448 6.89947 70.7409 6.25551 71.1331 5.68574C71.5253 5.10273 72.1083 4.64427 72.8821 4.30771C73.6666 3.97115 74.6232 3.8042 75.7548 3.8042C76.5286 3.8042 77.2892 3.8943 78.0392 4.07186C78.7891 4.23881 79.4516 4.49322 80.0214 4.82712L78.9958 7.29698C77.8749 6.69276 76.7883 6.39066 75.7363 6.39066C75.0764 6.39066 74.5941 6.49136 74.292 6.69277C73.9899 6.88357 73.8388 7.13532 73.8388 7.44803C73.8388 7.76074 74.019 7.99659 74.3768 8.15295C74.7345 8.3093 75.3122 8.47096 76.1073 8.64056C77.003 8.83136 77.7424 9.03807 78.3254 9.26332C78.919 9.47533 79.4278 9.82249 79.8545 10.3048C80.2917 10.7765 80.509 11.4205 80.509 12.2367C80.509 12.9416 80.3129 13.5803 79.9207 14.1527C79.5285 14.7251 78.9402 15.1836 78.1558 15.5307C77.3714 15.8673 76.42 16.0342 75.299 16.0342V16.0395Z" fill="#1B63D2"/>
<path d="M86.09 4.0401H82.7615V15.8037H86.09V4.0401Z" fill="#1B63D2"/>
<path d="M96.7909 9.66878H99.7325V14.0096C99.7325 14.3514 99.5549 14.6747 99.2607 14.8496C98.7042 15.1836 98.0894 15.4512 97.4137 15.65C96.5391 15.907 95.6646 16.0369 94.7928 16.0369C93.5605 16.0369 92.4501 15.7798 91.4643 15.2631C90.4785 14.7357 89.7046 14.0096 89.1455 13.0794C88.5863 12.1492 88.3054 11.0972 88.3054 9.92054C88.3054 8.74391 88.5863 7.69184 89.1455 6.76167C89.7046 5.83149 90.4838 5.10803 91.4802 4.59392C92.4766 4.06656 93.6029 3.8042 94.859 3.8042C95.9561 3.8042 96.9419 3.9897 97.8165 4.35806C98.691 4.72907 99.4198 5.25908 100 5.9534L97.8827 7.86939C97.0877 6.99487 96.1337 6.55761 95.0259 6.55761C94.0163 6.55761 93.2054 6.86502 92.5879 7.48248C91.9704 8.0867 91.663 8.90027 91.663 9.92054C91.663 10.5698 91.8035 11.1528 92.0844 11.6696C92.3653 12.1731 92.7575 12.5706 93.261 12.8621C93.7645 13.143 94.3422 13.2835 94.9915 13.2835C95.6408 13.2835 96.2291 13.1536 96.7909 12.8966V9.66878Z" fill="#1B63D2"/>
<path fill-rule="evenodd" clip-rule="evenodd" d="M5.15272 1.61743H13.9428C14.2142 1.61743 14.4653 1.76218 14.5997 1.9958L18.9973 9.62156C19.1317 9.85772 19.1317 10.1472 18.9973 10.3808L14.6022 18.0041C14.4653 18.2377 14.2167 18.3824 13.9454 18.3824H5.15272C4.88136 18.3824 4.63028 18.2377 4.49587 18.0041L0.10081 10.3808C-0.0336033 10.1447 -0.0336033 9.85518 0.10081 9.62156L4.49587 1.9958C4.63282 1.76218 4.88136 1.61743 5.15272 1.61743ZM15.9233 6.90942C15.9842 6.89418 16.0501 6.9145 16.0907 6.96528H16.0933C16.1338 7.01607 16.144 7.0821 16.1186 7.1405L14.777 10.2411C14.7517 10.2944 14.7035 10.3325 14.6451 10.3401H14.6223C14.5716 10.3401 14.5259 10.3173 14.493 10.2792L13.968 9.65195L10.7827 12.4402C10.7091 12.5062 10.595 12.4986 10.5291 12.425L8.33533 9.93636L6.00212 11.9704C6.02495 12.072 6.03763 12.1761 6.03763 12.2827C6.03763 13.0776 5.39092 13.7251 4.59712 13.7251C3.80332 13.7251 3.15662 13.0776 3.15662 12.2827C3.15662 11.4879 3.80332 10.8404 4.59712 10.8404C4.76958 10.8404 4.93442 10.8734 5.08913 10.9293L8.26939 8.15625C8.37337 8.06484 8.53568 8.07499 8.62698 8.17911L10.7725 10.6118L13.0778 8.59303L12.5503 7.9658C12.5123 7.92009 12.4996 7.85915 12.5199 7.80328C12.5376 7.74741 12.5833 7.70678 12.6416 7.69409L15.9233 6.90942Z" fill="#1B63D2"/>
</svg>
