<svg width="1157" height="177" viewBox="0 0 1157 177" fill="none" xmlns="http://www.w3.org/2000/svg">
<g clip-path="url(#clip0_10_2)">
<path fill-rule="evenodd" clip-rule="evenodd" d="M36.2921 31.8684H98.2994C100.213 31.8684 101.984 32.8895 102.933 34.5376L133.955 88.3312C134.902 89.997 134.902 92.0392 133.955 93.6872L102.951 147.463C101.984 149.111 100.231 150.132 98.3175 150.132H36.2921C34.3779 150.132 32.6068 149.111 31.6586 147.463L0.654993 93.6872C-0.293201 92.0213 -0.293201 89.9791 0.654993 88.3312L31.6586 34.5376C32.6247 32.8895 34.3779 31.8684 36.2921 31.8684ZM112.272 69.1997C112.701 69.0922 113.166 69.2355 113.452 69.5937H113.47C113.756 69.952 113.829 70.4177 113.649 70.8296L104.186 92.7019C104.006 93.078 103.666 93.3467 103.255 93.4005H103.094C102.737 93.4005 102.415 93.2392 102.181 92.9705L98.4786 88.5459L76.0078 108.214C75.4897 108.681 74.6841 108.627 74.2189 108.107L58.7439 90.5522L42.2855 104.9C42.4465 105.617 42.536 106.352 42.536 107.105C42.536 112.711 37.974 117.28 32.3744 117.28C26.7749 117.28 22.2128 112.711 22.2128 107.105C22.2128 101.497 26.7749 96.9294 32.3744 96.9294C33.591 96.9294 34.7537 97.1623 35.8451 97.5563L58.28 77.9951C59.0133 77.3501 60.1578 77.4217 60.8022 78.1562L75.9369 95.3172L92.1994 81.076L88.4772 76.6515C88.2092 76.3291 88.1203 75.8991 88.2633 75.5051C88.3883 75.111 88.7105 74.8244 89.1217 74.7348L112.272 69.1997Z" fill="#1B2528"/>
<path d="M211.465 134.063C204.768 134.063 198.258 133.242 191.952 131.583C185.648 129.921 180.518 127.721 176.582 124.96L184.268 107.687C187.979 110.13 192.27 112.108 197.157 113.599C202.044 115.092 206.857 115.838 211.595 115.838C220.587 115.838 225.082 113.599 225.082 109.105C225.082 106.735 223.776 105.001 221.183 103.9C218.665 102.725 214.561 101.493 208.872 100.225C202.641 98.8819 197.437 97.4641 193.258 95.9719C189.08 94.3862 185.498 91.9052 182.495 88.5102C179.491 85.1152 178 80.5451 178 74.7809C178 69.7258 179.38 65.1929 182.141 61.1823C184.901 57.0784 189.005 53.8512 194.452 51.4822C199.973 49.1131 206.708 47.938 214.673 47.938C220.12 47.938 225.473 48.5722 230.752 49.822C236.032 50.9972 240.695 52.788 244.707 55.1384L237.487 72.5238C229.597 68.2708 221.948 66.1442 214.543 66.1442C209.898 66.1442 206.502 66.853 204.376 68.2708C202.25 69.6138 201.186 71.3859 201.186 73.5872C201.186 75.7883 202.455 77.4484 204.973 78.5491C207.491 79.6497 211.558 80.7876 217.154 81.9813C223.459 83.3245 228.663 84.7795 232.768 86.3651C236.945 87.8574 240.527 90.301 243.53 93.696C246.609 97.0165 248.138 101.549 248.138 107.295C248.138 112.256 246.758 116.752 243.997 120.781C241.236 124.81 237.095 128.038 231.573 130.481C226.052 132.851 219.355 134.026 211.465 134.026V134.063Z" fill="#1B2528"/>
<path d="M280.467 68.1591H255.022V49.5984H329.19V68.1591H303.878V132.403H280.467V68.1591Z" fill="#1B2528"/>
<path d="M383.021 49.5984H359.946L323.383 132.403H347.279L352.615 119.215C353.324 117.462 355.04 116.324 356.924 116.324H386.285C387.815 116.324 389.176 117.238 389.754 118.655L395.314 132.403H419.675L383.021 49.5984ZM361.27 97.5017L370.261 75.1356C370.635 74.1844 371.978 74.1844 372.35 75.1356L381.342 97.5017C381.64 98.2478 381.099 99.0501 380.297 99.0501H362.333C361.532 99.0501 360.99 98.2478 361.289 97.5017H361.27Z" fill="#1B2528"/>
<path d="M438.698 68.1591H413.273V49.5984H487.441V68.1591H462.128V132.403H438.698V68.1591Z" fill="#1B2528"/>
<path d="M529.976 134.063C523.279 134.063 516.768 133.242 510.464 131.583C504.158 129.921 499.029 127.721 495.093 124.96L502.777 107.687C506.49 110.13 510.78 112.108 515.668 113.599C520.555 115.092 525.368 115.838 530.105 115.838C539.097 115.838 543.593 113.599 543.593 109.105C543.593 106.735 542.287 105.001 539.694 103.9C537.176 102.725 533.072 101.493 527.383 100.225C521.152 98.8819 515.948 97.4641 511.769 95.9719C507.59 94.3862 504.009 91.9052 501.005 88.5102C498.002 85.1152 496.511 80.5451 496.511 74.7809C496.511 69.7258 497.89 65.1929 500.651 61.1823C503.412 57.0784 507.516 53.8512 512.964 51.4822C518.484 49.1131 525.219 47.938 533.184 47.938C538.63 47.938 543.984 48.5722 549.264 49.822C554.543 50.9972 559.207 52.788 563.216 55.1384L555.997 72.5238C548.107 68.2708 540.459 66.1442 533.054 66.1442C528.408 66.1442 525.014 66.853 522.887 68.2708C520.761 69.6138 519.697 71.3859 519.697 73.5872C519.697 75.7883 520.965 77.4484 523.484 78.5491C526.002 79.6497 530.069 80.7876 535.665 81.9813C541.97 83.3245 547.175 84.7795 551.277 86.3651C555.457 87.8574 559.039 90.301 562.041 93.696C565.119 97.0165 566.648 101.549 566.648 107.295C566.648 112.256 565.269 116.752 562.508 120.781C559.747 124.81 555.605 128.038 550.084 130.481C544.562 132.851 537.866 134.026 529.976 134.026V134.063Z" fill="#1B2528"/>
<path d="M605.933 49.5984H582.504V132.403H605.933V49.5984Z" fill="#1B2528"/>
<path d="M681.259 89.2191H701.964V119.774C701.964 122.181 700.714 124.456 698.645 125.688C694.727 128.038 690.399 129.921 685.642 131.321C679.486 133.13 673.331 134.045 667.193 134.045C658.52 134.045 650.703 132.235 643.764 128.598C636.825 124.885 631.378 119.774 627.442 113.227C623.506 106.68 621.529 99.2736 621.529 90.9912C621.529 82.7088 623.506 75.3033 627.442 68.7558C631.378 62.2083 636.863 57.1156 643.877 53.4969C650.89 49.7847 658.818 47.938 667.66 47.938C675.382 47.938 682.322 49.2437 688.478 51.8366C694.634 54.4481 699.763 58.179 703.849 63.0663L688.945 76.5531C683.347 70.3973 676.632 67.3194 668.835 67.3194C661.728 67.3194 656.02 69.4833 651.674 73.8297C647.327 78.0827 645.163 83.8095 645.163 90.9912C645.163 95.5615 646.152 99.6653 648.129 103.303C650.107 106.846 652.867 109.645 656.411 111.696C659.956 113.674 664.022 114.663 668.593 114.663C673.163 114.663 677.304 113.749 681.259 111.94V89.2191Z" fill="#1B2528"/>
</g>
<rect x="769.389" y="0.713013" width="387.222" height="176.222" rx="6.94444" fill="#1B2528"/>
<path d="M824.847 128.324V49.8172H862.625C888.125 49.8172 899.694 68.2338 899.694 88.8935C899.694 109.671 888.125 128.324 862.625 128.324H824.847ZM842.792 114.039H858.611C874.667 114.039 881.042 105.539 881.042 88.8935C881.042 72.1297 874.549 63.9838 858.611 63.9838H842.792V114.039ZM939.084 130.213C915.591 130.213 906.383 115.22 906.383 98.6922C906.383 82.4005 915.591 67.4074 939.084 67.4074C962.696 67.4074 971.786 82.5185 971.786 98.6922C971.786 115.102 962.696 130.213 939.084 130.213ZM923.973 98.8102C923.973 111.914 928.459 116.519 939.084 116.519C949.827 116.519 954.314 111.914 954.314 98.8102C954.314 85.706 949.827 81.1019 939.084 81.1019C928.459 81.1019 923.973 85.706 923.973 98.8102ZM978.323 98.8102C978.323 82.2824 987.768 67.4074 1010.67 67.4074C1031.09 67.4074 1041.13 78.7408 1041.6 93.2616H1024.6C1024.01 85.9422 1020 81.1019 1011.02 81.1019C1001.58 81.1019 995.913 85.588 995.913 98.8102C995.913 112.15 1001.34 116.519 1010.79 116.519C1020.11 116.519 1024.25 111.088 1024.96 104.005H1041.96C1041.6 117.817 1031.8 130.213 1011.02 130.213C988.004 130.213 978.323 115.338 978.323 98.8102ZM1063.08 109.081C1063.55 114.748 1067.8 119.234 1076.65 119.234C1084.56 119.234 1087.28 116.519 1087.28 112.387C1087.28 108.845 1085.63 106.248 1079.01 105.421L1065.79 103.769C1054.69 102.352 1048.67 96.4491 1048.67 86.5324C1048.67 73.4283 1059.77 67.2894 1075.47 67.2894C1091.41 67.2894 1102.15 73.5463 1103.22 86.5324H1087.04C1086.45 81.6922 1082.79 78.2685 1075.47 78.2685C1067.92 78.2685 1064.85 81.1019 1064.85 84.8797C1064.85 87.831 1066.38 90.1922 1072.29 90.9005L1084.68 92.3172C1098.73 94.088 1104.04 100.109 1104.04 110.616C1104.04 122.185 1096.72 130.213 1076.42 130.213C1055.4 130.213 1047.49 120.296 1047.14 109.081H1063.08Z" fill="#FAFAFA"/>
<defs>
<clipPath id="clip0_10_2">
<rect width="787" height="118" fill="white" transform="translate(0 32)"/>
</clipPath>
</defs>
</svg>
