<svg width="270" height="270" viewBox="0 0 270 270" fill="none" xmlns="http://www.w3.org/2000/svg">
<g clip-path="url(#clip0_1594_1287)">
<rect width="270" height="270" fill="#EAECEE"/>
<path d="M189.835 96.9415L146.048 162.406L124.986 131.012L76.1975 203.74L76.4117 204.066H164.2C167.223 204.066 170.045 202.565 171.72 200.065L212.018 139.964C214.033 136.95 214.033 133.037 212.018 130.024L189.822 96.929L189.835 96.9415Z" fill="url(#paint0_linear_1594_1287)"/>
<path d="M124.986 105.143L146.022 136.512L193.236 65.934H105.8C102.777 65.934 99.9554 67.4344 98.28 69.9349L57.9823 130.023C55.9668 133.037 55.9668 136.95 57.9823 139.963L79.8003 172.495L124.986 105.143Z" fill="url(#paint1_linear_1594_1287)"/>
</g>
<defs>
<linearGradient id="paint0_linear_1594_1287" x1="193.5" y1="65.934" x2="102.5" y2="204.066" gradientUnits="userSpaceOnUse">
<stop stop-color="#343941"/>
<stop offset="1" stop-color="#202020"/>
</linearGradient>
<linearGradient id="paint1_linear_1594_1287" x1="193.5" y1="65.934" x2="102.5" y2="204.066" gradientUnits="userSpaceOnUse">
<stop stop-color="#343941"/>
<stop offset="1" stop-color="#202020"/>
</linearGradient>
<clipPath id="clip0_1594_1287">
<rect width="270" height="270" fill="white"/>
</clipPath>
</defs>
</svg>
