<svg width="270" height="270" viewBox="0 0 270 270" fill="none" xmlns="http://www.w3.org/2000/svg">
<g clip-path="url(#clip0_1594_1285)">
<rect width="270" height="270" fill="url(#paint0_linear_1594_1285)"/>
<path d="M189.835 96.9415L146.048 162.406L124.986 131.012L76.1975 203.74L76.4117 204.066H164.2C167.223 204.066 170.045 202.565 171.72 200.065L212.018 139.964C214.033 136.95 214.033 133.037 212.018 130.024L189.822 96.929L189.835 96.9415Z" fill="#EAECEE"/>
<path d="M124.986 105.143L146.022 136.512L193.236 65.934H105.8C102.777 65.934 99.9554 67.4344 98.28 69.9349L57.9823 130.023C55.9668 133.037 55.9668 136.95 57.9823 139.963L79.8003 172.495L124.986 105.143Z" fill="#EAECEE"/>
<path d="M189.835 96.9419L146.048 162.407L124.986 131.012L76.1975 203.741L76.4117 204.066H164.2C167.223 204.066 170.045 202.566 171.72 200.065L212.018 139.964C214.033 136.951 214.033 133.038 212.018 130.024L189.822 96.9294L189.835 96.9419Z" fill="url(#paint1_linear_1594_1285)"/>
<path d="M124.986 105.143L146.022 136.513L193.236 65.9344H105.8C102.777 65.9344 99.9554 67.4348 98.28 69.9353L57.9823 130.024C55.9668 133.037 55.9668 136.95 57.9823 139.964L79.8003 172.496L124.986 105.143Z" fill="url(#paint2_linear_1594_1285)"/>
</g>
<defs>
<linearGradient id="paint0_linear_1594_1285" x1="135" y1="3.44984e-07" x2="135" y2="270" gradientUnits="userSpaceOnUse">
<stop stop-color="#343941"/>
<stop offset="1" stop-color="#202020"/>
</linearGradient>
<linearGradient id="paint1_linear_1594_1285" x1="100" y1="204.066" x2="230.446" y2="131.01" gradientUnits="userSpaceOnUse">
<stop stop-color="white" stop-opacity="0"/>
<stop offset="1" stop-color="#F9F9F9"/>
</linearGradient>
<linearGradient id="paint2_linear_1594_1285" x1="100" y1="204.066" x2="230.446" y2="131.01" gradientUnits="userSpaceOnUse">
<stop stop-color="white" stop-opacity="0"/>
<stop offset="1" stop-color="#F9F9F9"/>
</linearGradient>
<clipPath id="clip0_1594_1285">
<rect width="270" height="270" fill="white"/>
</clipPath>
</defs>
</svg>
