<svg width="22" height="17" viewBox="0 0 22 17" fill="none" xmlns="http://www.w3.org/2000/svg">
<g id="Group">
<g id="Group_2">
<path id="Vector" d="M20 5C18.55 5 17.74 6.44 18.07 7.51L14.52 11.07C14.22 10.98 13.78 10.98 13.48 11.07L10.93 8.52C11.27 7.45 10.46 6 9 6C7.55 6 6.73 7.44 7.07 8.52L2.51 13.07C1.44 12.74 0 13.55 0 15C0 16.1 0.9 17 2 17C3.45 17 4.26 15.56 3.93 14.49L8.48 9.93C8.78 10.02 9.22 10.02 9.52 9.93L12.07 12.48C11.73 13.55 12.54 15 14 15C15.45 15 16.27 13.56 15.93 12.48L19.49 8.93C20.56 9.26 22 8.45 22 7C22 5.9 21.1 5 20 5Z" fill="#1b63d2"/>
<path id="Vector_2" d="M14 6L14.94 3.93L17 3L14.94 2.07L14 0L13.08 2.07L11 3L13.08 3.93L14 6Z" fill="#1b63d2"/>
<path id="Vector_3" d="M2.5 8L3 6L5 5.5L3 5L2.5 3L2 5L0 5.5L2 6L2.5 8Z" fill="#1b63d2"/>
</g>
</g>
</svg>
