<svg width="16" height="16" viewBox="0 0 16 16" fill="none" xmlns="http://www.w3.org/2000/svg">
<path d="M8 14C6.32222 14 4.90278 13.7417 3.74167 13.225C2.58056 12.7083 2 12.0778 2 11.3333V4.66667C2 3.93333 2.58611 3.30556 3.75833 2.78333C4.93056 2.26111 6.34444 2 8 2C9.65556 2 11.0694 2.26111 12.2417 2.78333C13.4139 3.30556 14 3.93333 14 4.66667V11.3333C14 12.0778 13.4194 12.7083 12.2583 13.225C11.0972 13.7417 9.67778 14 8 14ZM8 6.01667C8.98889 6.01667 9.98333 5.875 10.9833 5.59167C11.9833 5.30833 12.5444 5.00556 12.6667 4.68333C12.5444 4.36111 11.9861 4.05556 10.9917 3.76667C9.99722 3.47778 9 3.33333 8 3.33333C6.98889 3.33333 5.99722 3.475 5.025 3.75833C4.05278 4.04167 3.48889 4.35 3.33333 4.68333C3.48889 5.01667 4.05278 5.32222 5.025 5.6C5.99722 5.87778 6.98889 6.01667 8 6.01667ZM8 9.33333C8.46667 9.33333 8.91667 9.31111 9.35 9.26667C9.78333 9.22222 10.1972 9.15833 10.5917 9.075C10.9861 8.99167 11.3583 8.88889 11.7083 8.76667C12.0583 8.64444 12.3778 8.50556 12.6667 8.35V6.35C12.3778 6.50556 12.0583 6.64444 11.7083 6.76667C11.3583 6.88889 10.9861 6.99167 10.5917 7.075C10.1972 7.15833 9.78333 7.22222 9.35 7.26667C8.91667 7.31111 8.46667 7.33333 8 7.33333C7.53333 7.33333 7.07778 7.31111 6.63333 7.26667C6.18889 7.22222 5.76944 7.15833 5.375 7.075C4.98056 6.99167 4.61111 6.88889 4.26667 6.76667C3.92222 6.64444 3.61111 6.50556 3.33333 6.35V8.35C3.61111 8.50556 3.92222 8.64444 4.26667 8.76667C4.61111 8.88889 4.98056 8.99167 5.375 9.075C5.76944 9.15833 6.18889 9.22222 6.63333 9.26667C7.07778 9.31111 7.53333 9.33333 8 9.33333ZM8 12.6667C8.51111 12.6667 9.03056 12.6278 9.55833 12.55C10.0861 12.4722 10.5722 12.3694 11.0167 12.2417C11.4611 12.1139 11.8333 11.9694 12.1333 11.8083C12.4333 11.6472 12.6111 11.4833 12.6667 11.3167V9.68333C12.3778 9.83889 12.0583 9.97778 11.7083 10.1C11.3583 10.2222 10.9861 10.325 10.5917 10.4083C10.1972 10.4917 9.78333 10.5556 9.35 10.6C8.91667 10.6444 8.46667 10.6667 8 10.6667C7.53333 10.6667 7.07778 10.6444 6.63333 10.6C6.18889 10.5556 5.76944 10.4917 5.375 10.4083C4.98056 10.325 4.61111 10.2222 4.26667 10.1C3.92222 9.97778 3.61111 9.83889 3.33333 9.68333V11.3333C3.38889 11.5 3.56389 11.6611 3.85833 11.8167C4.15278 11.9722 4.52222 12.1139 4.96667 12.2417C5.41111 12.3694 5.9 12.4722 6.43333 12.55C6.96667 12.6278 7.48889 12.6667 8 12.6667Z" fill="#1F2328"/>
</svg>
