<svg width="24" height="24" viewBox="0 0 24 24" fill="none" xmlns="http://www.w3.org/2000/svg">
<g id="Hierarchy">
<path id="Vector" d="M5.48994 11.175C5.48994 10.49 6.07494 9.935 6.78994 9.935H17.2049C17.9249 9.935 18.5049 10.49 18.5049 11.175H5.48494H5.48994ZM11.3799 18.39V4.75H12.6199V18.39H11.3799ZM5.48994 18.39V11.175H6.72994V18.39H5.48994ZM17.2699 18.39V11.175H18.5099V18.39H17.2699ZM14.1699 4.75C14.1699 5.95 13.1999 6.92 11.9999 6.92C10.7999 6.92 9.82994 5.95 9.82994 4.75C9.82994 3.55 10.7999 2.58 11.9999 2.58C13.1999 2.58 14.1699 3.55 14.1699 4.75ZM8.27994 18.39C8.27994 19.59 7.30994 20.56 6.10994 20.56C4.90994 20.56 3.93994 19.59 3.93994 18.39C3.93994 17.19 4.90994 16.22 6.10994 16.22C7.30994 16.22 8.27994 17.19 8.27994 18.39ZM14.1699 18.39C14.1699 19.59 13.1999 20.56 11.9999 20.56C10.7999 20.56 9.82994 19.59 9.82994 18.39C9.82994 17.19 10.7999 16.22 11.9999 16.22C13.1999 16.22 14.1699 17.19 14.1699 18.39ZM20.0599 18.39C20.0599 19.59 19.0899 20.56 17.8899 20.56C16.6899 20.56 15.7199 19.59 15.7199 18.39C15.7199 17.19 16.6899 16.22 17.8899 16.22C19.0899 16.22 20.0599 17.19 20.0599 18.39Z" fill="#202020"/>
</g>
</svg>
