<svg width="16" height="16" viewBox="0 0 16 16" fill="none" xmlns="http://www.w3.org/2000/svg">
<path d="M8.00004 14.6666C4.31814 14.6666 1.33337 11.6818 1.33337 7.99992C1.33337 4.31802 4.31814 1.33325 8.00004 1.33325C11.6819 1.33325 14.6667 4.31802 14.6667 7.99992C14.6667 11.6818 11.6819 14.6666 8.00004 14.6666ZM6.47339 13.1115C5.83166 11.7505 5.43825 10.2494 5.35158 8.66658H2.70797C2.97204 10.7843 4.47763 12.5164 6.47339 13.1115ZM6.68717 8.66658C6.78744 10.2925 7.25191 11.8197 8.00004 13.1679C8.74817 11.8197 9.21264 10.2925 9.31291 8.66658H6.68717ZM13.2921 8.66658H10.6485C10.5618 10.2494 10.1684 11.7505 9.52671 13.1115C11.5224 12.5164 13.028 10.7843 13.2921 8.66658ZM2.70797 7.33325H5.35158C5.43825 5.75043 5.83166 4.2493 6.47339 2.88829C4.47763 3.48347 2.97204 5.21558 2.70797 7.33325ZM6.68717 7.33325H9.31291C9.21264 5.7074 8.74817 4.18009 8.00004 2.83191C7.25191 4.18009 6.78744 5.7074 6.68717 7.33325ZM9.52671 2.88829C10.1684 4.2493 10.5618 5.75043 10.6485 7.33325H13.2921C13.028 5.21558 11.5224 3.48347 9.52671 2.88829Z" fill="#1b63d2"/>
</svg>
