<svg width="52" height="52" viewBox="0 0 52 52" fill="none" xmlns="http://www.w3.org/2000/svg">
<g id="Group 1778">
<path id="Vector" d="M36.8771 18.6846V41.1928L51 33.0347V10.7251L36.8771 18.6846Z" stroke="#1B2528" stroke-width="0.75" stroke-linecap="round" stroke-linejoin="round"/>
<path id="Vector_2" d="M36.8771 18.6847L20.1794 9.03778L34.0938 1L51 10.7252L36.8771 18.6847Z" stroke="#1B2528" stroke-width="0.75" stroke-linecap="round" stroke-linejoin="round"/>
<path id="Vector_3" d="M45.0344 17.8902V21.5781L48.2308 19.7362V16.0483L45.0344 17.8902Z" stroke="#1B2528" stroke-width="0.75" stroke-linecap="round" stroke-linejoin="round"/>
<path id="Vector_4" d="M39.887 20.8575V24.5454L43.0833 22.7035V19.0156L39.887 20.8575Z" stroke="#1B2528" stroke-width="0.75" stroke-linecap="round" stroke-linejoin="round"/>
<path id="Vector_5" d="M45.0344 23.8697V27.5575L48.2308 25.7176V22.0298L45.0344 23.8697Z" stroke="#1B2528" stroke-width="0.75" stroke-linecap="round" stroke-linejoin="round"/>
<path id="Vector_6" d="M39.887 26.839V30.5268L43.0833 28.6849V24.9971L39.887 26.839Z" stroke="#1B2528" stroke-width="0.75" stroke-linecap="round" stroke-linejoin="round"/>
<path id="Vector_7" d="M45.0344 29.6041V33.2899L48.2308 31.45V27.7622L45.0344 29.6041Z" stroke="#1B2528" stroke-width="0.75" stroke-linecap="round" stroke-linejoin="round"/>
<path id="Vector_8" d="M39.887 32.5709V36.2587L43.0833 34.4168V30.729L39.887 32.5709Z" stroke="#1B2528" stroke-width="0.75" stroke-linecap="round" stroke-linejoin="round"/>
<path id="Vector_9" fill-rule="evenodd" clip-rule="evenodd" d="M26.0448 41.7246C26.0448 41.7246 20.0291 25.5948 19.8707 25.4042L19.231 25.0511L7.8212 18.7609C7.64474 18.6626 7.24369 18.4419 7.24369 18.4419C7.24369 18.4419 7.11535 18.5422 7.02311 18.6746L1.13974 27.2963C0.959273 27.5611 0.953258 28.0086 1.1237 28.4721L6.69626 43.4521C6.86671 43.9116 7.19155 44.3169 7.54448 44.5135L19.0044 50.8779C19.3573 51.0746 19.6842 51.0304 19.8687 50.7676L26.0428 41.7266L26.0448 41.7246Z" stroke="#1B2528" stroke-width="0.75" stroke-linecap="round" stroke-linejoin="round"/>
<path id="Vector_10" fill-rule="evenodd" clip-rule="evenodd" d="M19.8707 50.7679L27.3603 46.5584L33.4923 37.5796L26.0449 41.7249L19.8707 50.7679Z" stroke="#1B2528" stroke-width="0.75" stroke-linecap="round" stroke-linejoin="round"/>
<path id="Vector_11" fill-rule="evenodd" clip-rule="evenodd" d="M26.0449 41.7248L19.8707 25.4044L27.4565 21.3374L33.4923 37.5795L26.0449 41.7248Z" stroke="#1B2528" stroke-width="0.75" stroke-linecap="round" stroke-linejoin="round"/>
<path id="Vector_12" fill-rule="evenodd" clip-rule="evenodd" d="M19.8707 25.4043L27.4565 21.3373L14.9097 14.0459L7.24573 18.444L19.8707 25.4043Z" stroke="#1B2528" stroke-width="0.75" stroke-linecap="round" stroke-linejoin="round"/>
<path id="Vector_13" d="M17.715 20.1193L3.14294 11.6742L21.2823 1.05615L31.872 7.48276L32.2771 7.7115L32.9528 8.09473L34.2542 8.82908" stroke="#1B2528" stroke-width="0.75" stroke-miterlimit="10"/>
<path id="Vector_14" d="M17.0013 20.6632C17.6147 20.6632 18.1119 20.1659 18.1119 19.5525C18.1119 18.9391 17.6147 18.4419 17.0013 18.4419C16.3879 18.4419 15.8906 18.9391 15.8906 19.5525C15.8906 20.1659 16.3879 20.6632 17.0013 20.6632Z" fill="#1B2528"/>
<path id="Vector_15" d="M16.8468 33.4422C16.8207 33.5104 16.8348 33.6087 16.8809 33.703L17.5246 34.9912L14.623 36.3776L12.0082 31.3134C11.8959 31.0967 11.6954 30.9703 11.565 31.0325L7.56256 32.9265C7.37207 32.7379 7.16753 32.5754 6.95297 32.457C5.9684 31.9093 5.15227 32.4189 5.13623 33.5907C5.12018 34.7624 5.91025 36.1629 6.89683 36.7087C7.8814 37.2564 8.69753 36.7468 8.71357 35.575C8.71558 35.4185 8.70154 35.256 8.67547 35.0895L11.6111 33.699L14.2861 38.8796C14.3663 39.0341 14.5087 39.1244 14.601 39.0763L18.6094 37.1621L19.2491 38.4482C19.2892 38.5265 19.3453 38.5927 19.4075 38.6268L19.4356 38.6429C19.5078 38.671 19.5679 38.6489 19.602 38.5887L21.3285 34.943C21.3606 34.8748 21.3506 34.7704 21.3005 34.6681H21.2964C21.2463 34.5638 21.1661 34.4875 21.0899 34.4695L17.0012 33.3639C16.929 33.3419 16.8709 33.37 16.8488 33.4402L16.8468 33.4422Z" fill="#1B2528"/>
<path id="Vector_16" d="M20.1794 9.03809V17.108L27.4565 21.3375L33.4922 37.5796L32.6781 38.7714L36.8771 41.1932V18.685L20.1794 9.03809Z" fill="#CCFBC7" stroke="#1B2528" stroke-width="0.75" stroke-linecap="round" stroke-linejoin="round"/>
<path id="Vector_17" d="M34.0013 9.66319C34.6147 9.66319 35.1119 9.16593 35.1119 8.55254C35.1119 7.93915 34.6147 7.44189 34.0013 7.44189C33.3879 7.44189 32.8906 7.93915 32.8906 8.55254C32.8906 9.16593 33.3879 9.66319 34.0013 9.66319Z" fill="#1B2528"/>
</g>
</svg>
