<svg width="24" height="24" viewBox="0 0 24 24" fill="none" xmlns="http://www.w3.org/2000/svg">
<path d="M7.79998 22.2C6.49998 22.2 5.39998 21.7 4.49998 20.8C3.59998 19.9 3.09998 18.8 3.09998 17.5C3.09998 16.2 3.59998 15.1 4.49998 14.2C5.39998 13.3 6.49998 12.8 7.79998 12.8H16.3C17.6 12.8 18.7 13.3 19.6 14.2C20.5 15.1 21 16.2 21 17.5C21 18.8 20.5 19.9 19.6 20.8C18.7 21.7 17.6 22.2 16.3 22.2H7.79998ZM7.79998 20.9H16.3C17.2 20.9 18 20.6 18.7 19.9C19.4 19.2 19.7 18.4 19.7 17.5C19.7 16.6 19.4 15.8 18.7 15.1C18 14.4 17.2 14.1 16.3 14.1H7.79998C6.89998 14.1 6.09998 14.4 5.39998 15.1C4.69998 15.8 4.39998 16.6 4.39998 17.5C4.39998 18.4 4.69998 19.2 5.39998 19.9C5.99998 20.6 6.79998 20.9 7.79998 20.9ZM7.79998 19.9C8.39998 19.9 8.99998 19.7 9.49998 19.2C9.99998 18.7 10.2 18.2 10.2 17.6C10.2 17 9.99998 16.4 9.49998 15.9C8.99998 15.4 8.49998 15.2 7.89998 15.2C7.29998 15.2 6.69998 15.4 6.19998 15.9C5.69998 16.4 5.49998 16.9 5.49998 17.5C5.49998 18.1 5.69998 18.7 6.19998 19.2C6.59998 19.7 7.09998 19.9 7.79998 19.9Z" fill="#1B2528"/>
<path d="M7.79998 11.1C6.49998 11.1 5.39998 10.6 4.49998 9.69995C3.59998 8.79995 3.09998 7.69995 3.09998 6.39995C3.09998 5.09995 3.59998 3.99995 4.49998 3.09995C5.39998 2.19995 6.49998 1.69995 7.79998 1.69995H16.3C17.6 1.69995 18.7 2.19995 19.6 3.09995C20.5 3.99995 21 5.09995 21 6.39995C21 7.69995 20.5 8.79995 19.6 9.69995C18.7 10.6 17.6 11.1 16.3 11.1H7.79998ZM16.2 8.79995C16.8 8.79995 17.4 8.59995 17.9 8.09995C18.4 7.59995 18.6 7.09995 18.6 6.49995C18.6 5.89995 18.4 5.29995 17.9 4.79995C17.4 4.29995 16.9 4.09995 16.3 4.09995C15.7 4.09995 15 4.29995 14.6 4.79995C14.1 5.29995 13.9 5.79995 13.9 6.39995C13.9 6.99995 14.1 7.59995 14.6 8.09995C15 8.49995 15.6 8.79995 16.2 8.79995Z" fill="#1B2528"/>
</svg>
