<!--
  tags: ["structure","account","teams","admin"]
-->
<svg xmlns="http://www.w3.org/2000/svg" width="20" height="20" fill="currentColor" viewBox="0 0 20 20">
  <path fill-rule="evenodd" d="M7.89 2.376h.002l3.767.005a1.875 1.875 0 0 1 1.873 1.875v1.971l3.034 1.204a1.875 1.875 0 0 1 1.183 1.743v6.571c0 1.037-.84 1.876-1.876 1.875l-3.356-.002a1.181 1.181 0 0 1-.112.005l-2.656-.005a1.125 1.125 0 0 1-1.123-1.125v-2.098h-1.47v2.098c0 .62-.502 1.124-1.123 1.125l-2.655.005a1.125 1.125 0 0 1-1.128-1.125V4.256c0-1.034.838-1.873 1.873-1.875l3.767-.005Zm5.642 13.993V7.572l2.573 1.02a.625.625 0 0 1 .394.582v6.571c0 .346-.28.626-.625.625l-2.342-.001Zm-1.25-12.113v12.112h-.778v.004l-1.628-.003v-2.447a.778.778 0 0 0-.777-.777H6.684a.778.778 0 0 0-.778.777v2.447l-2.406.004V4.256c0-.345.28-.624.625-.625l3.765-.005h.002l3.766.005c.345 0 .624.28.624.625Zm-5.03 2.117c0 .345-.28.625-.626.625H5.391a.625.625 0 0 1 0-1.25h1.235c.345 0 .625.28.625.625Zm0 2.501c0 .345-.28.625-.626.625H5.391a.625.625 0 0 1 0-1.25h1.235c.345 0 .625.28.625.625Zm3.139-1.876a.625.625 0 1 0 0-1.25H9.156a.625.625 0 0 0 0 1.25h1.235Zm.625 1.876c0 .345-.28.625-.625.625H9.156a.625.625 0 0 1 0-1.25h1.235c.345 0 .625.28.625.625Z" clip-rule="evenodd"/>
</svg>
